<svg xmlns="http://www.w3.org/2000/svg" width="150" height="150">
    <rect width="130" height="130" rx="45" ry="45" x="10" y="912.362" style="marker:none" color="#000" fill="#00a8a8" overflow="visible" transform="translate(0 -902.362)"/>
    <path d="M63.208 124.895c-1.699-.429-3.417-1.868-4.167-3.492l-.472-1.022-.082-7.558-.082-7.559-3.04-.083c-2.979-.081-3.061-.093-4.118-.593a6.697 6.697 0 0 1-3.76-5.007c-.184-1.134-.254-40.33-.073-40.802.09-.236 2.675-.26 27.604-.26 15.127 0 27.505.055 27.507.123.002.068.026 9.18.053 20.251.039 15.956.005 20.344-.164 21.173-.395 1.95-1.658 3.52-3.597 4.476l-1.134.558-3.044.082-3.044.082-.082 7.559-.082 7.558-.511 1.068a6.27 6.27 0 0 1-3.022 3.018c-.952.457-1.229.513-2.547.513-1.32 0-1.597-.056-2.583-.523a6.45 6.45 0 0 1-3.035-2.972l-.461-.94-.04-7.312c-.023-4.021-.08-7.478-.127-7.681l-.086-.37H70.98l-.085.37c-.047.203-.104 3.66-.126 7.681l-.041 7.312-.461.94c-1.011 2.058-2.993 3.383-5.241 3.503-.66.035-1.477-.006-1.818-.093zM37.483 95.398c-1.88-.404-3.41-1.657-4.273-3.496l-.437-.932V61.887l.483-.984a6.687 6.687 0 0 1 2.97-2.97c.889-.436 1.14-.482 2.626-.482s1.738.046 2.627.483c1.255.616 2.447 1.808 3.01 3.01l.443.943v29.089l-.538 1.093c-1.295 2.63-4.033 3.95-6.911 3.33zm72.295 0c-1.88-.404-3.41-1.657-4.273-3.496l-.437-.932V61.887l.483-.984a6.687 6.687 0 0 1 2.97-2.97c.89-.436 1.141-.482 2.627-.482 1.485 0 1.737.046 2.627.483a6.687 6.687 0 0 1 2.97 2.97l.482.983v29.089l-.538 1.093c-1.295 2.63-4.032 3.95-6.91 3.33zM47.312 55.97c-.46-.555.449-5.614 1.472-8.191C50.92 42.404 55.19 37.536 60.17 34.8c.527-.29.944-.632.945-.777.001-.143-.922-1.941-2.052-3.996-1.13-2.056-2.054-3.911-2.054-4.124 0-.457.398-.904.805-.904.476 0 .866.578 2.882 4.272 1.06 1.943 2.024 3.632 2.142 3.755.179.185.528.111 2.14-.455a39.716 39.716 0 0 1 4.004-1.121c1.918-.41 2.37-.445 5.937-.448 4.453-.004 6.18.252 9.53 1.415 1.039.361 2.074.692 2.3.736.386.074.538-.154 2.51-3.77 1.154-2.116 2.247-3.982 2.428-4.146.26-.235.424-.265.777-.142.89.311.731.826-1.517 4.916-1.134 2.064-2.06 3.87-2.057 4.012.003.147.522.554 1.201.941 6.948 3.965 11.756 11.226 12.587 19.008.145 1.36.145 1.836-.003 2.013-.165.199-4.186.232-27.674.232-24.353 0-27.505-.028-27.688-.249zm15.639-9.778c2.472-.687 1.963-4.432-.603-4.432-1.303 0-2.216.963-2.217 2.336-.001 1.126.86 2.034 2.135 2.25.045.007.353-.062.685-.154zm25.303 0c2.473-.687 1.963-4.432-.602-4.432-1.29 0-2.217.964-2.218 2.304 0 1.125.883 2.07 2.136 2.281.045.008.353-.061.684-.153z" fill="#fff"/>
</svg>
