<svg xmlns="http://www.w3.org/2000/svg" width="150" height="150">
    <defs>
        <clipPath id="a">
            <path style="marker:none" color="#000" fill="#fff" stroke-width="2" overflow="visible" d="M44.072 27.448h62.242v60.309H44.072z"/>
        </clipPath>
    </defs>
    <rect width="130" height="130" rx="45" ry="45" x="10" y="912.362" style="marker:none" color="#000" fill="#0A7B7B" overflow="visible" transform="translate(0 -902.362)"/>
    <g fill="#fff">
        <path d="M63.49 124.892c-.141-.052-.893-.29-1.67-.527-7.11-2.175-14.31-9.567-19.287-19.8C38.48 96.234 36.5 88.608 36.19 80.12c-.265-7.218.76-12.619 3.39-17.843 1.305-2.594 2.198-3.852 4.324-6.09 2.067-2.176 4.348-3.771 7.512-5.254 2.447-1.147 7.516-2.538 9.247-2.538 1.53 0 3.774.74 8.934 2.944 6.173 2.638 6.846 2.81 10.188 2.588 1.5-.1 5.043-.52 7.87-.933 9.277-1.358 12.401-1.244 16.014.584 4.31 2.179 8.053 8.144 9.655 15.383.463 2.09.538 3.259.525 8.098-.013 5.028-.09 6.045-.697 9.165-1.912 9.835-6.148 19.536-11.828 27.083-2.271 3.019-6.383 7.01-8.995 8.732-2.758 1.818-5.835 2.957-8 2.962-1.273.003-1.933-.187-3.991-1.15-4.293-2.006-5.836-2.02-10.073-.087-2.103.958-2.663 1.104-4.461 1.16-1.131.036-2.173.022-2.314-.03zm14.396-75.34c-6.545-1.034-10.678-2.905-14.147-6.403-3.649-3.68-5.206-7.784-5.449-14.357L58.15 25h1.045c1.662 0 4.843.504 7.445 1.18 9.855 2.56 14.947 9.426 15.662 21.118l.161 2.639-1.26-.03c-.693-.016-2.185-.176-3.317-.355zm5.889-1.448c.627-3.92 4.82-8.114 8.959-8.957 1.416-.289 4.305-.143 4.305.217 0 .316-2.225 1.505-4.383 2.343-3.342 1.298-4.91 2.022-5.99 2.767-1.13.78-2.475 2.94-2.479 3.984-.001.39-.133.707-.292.707-.196 0-.235-.344-.12-1.061z"/>
        <path d="M83.946 47.95c-.03-.525.791-2.384 1.053-2.384.135 0 .182-.101.106-.225-.346-.559 2.526-3.706 4.368-4.784 1.038-.609 1.972-.928 1.139-.39-.257.167-.279.251-.064.254a.32.32 0 0 1 .32.312c0 .24-.068.24-.308 0-.17-.17-.43-.305-.578-.3-.148.004-.06.167.195.36.33.25.378.408.164.54-.165.102-.375.08-.465-.048-.283-.406-.883-.239-.957.266-.053.36.003.409.22.193.33-.33.717-.387.671-.098-.096.609.105.631.574.064.349-.42.483-.487.388-.193-.175.548.239.607.447.065.19-.497.593-.5.593-.006 0 .209-.415.514-.922.678-3.229 1.045-5.834 3.027-6.55 4.984-.207.565-.384.885-.394.711zm3.06-4.227c.35-.33.67-.567.71-.529.04.04.55-.147 1.132-.414.623-.286.939-.559.768-.664-.16-.099-.406-.107-.548-.02-.143.089-.332-.028-.42-.26-.134-.346-.34-.247-1.177.563-.559.54-1.255 1.314-1.547 1.719-.494.686-.497.718-.043.47.27-.146.776-.535 1.126-.865zm-.764.204c0-.054.202-.256.45-.45.407-.32.416-.31.096.097-.335.428-.547.564-.547.353zm1.156-1.189c.088-.141.47-.249.851-.239.618.017.637.042.178.24-.715.306-1.218.306-1.029 0zm5.013-1.264c.327-.229.307-.277-.128-.315a6.965 6.965 0 0 0-.938-.012c-.301.024-.386-.113-.292-.473.073-.279.242-.506.375-.506s.171.115.084.257c-.088.141-.046.257.092.257s.29-.117.337-.26c.118-.355 1.12-.59 2.656-.624.707-.015 1.437-.123 1.623-.24.187-.117.392-.16.457-.095.147.147-3.126 1.866-4.009 2.106-.49.134-.551.111-.257-.095zm2.762-1.284c.248-.145.336-.266.195-.268-.142-.002-.428.104-.636.236-.247.156-.442.138-.56-.052-.132-.215-.335-.21-.777.022-.329.172-.4.256-.156.187.243-.069.511-.011.597.127.086.139.06.236-.056.216-.482-.084-.854.04-.854.284 0 .25 1.237-.164 2.247-.752zm-3.79-.525a1.87 1.87 0 0 1 .878-.265c.658-.005.453.142-.492.354-.564.126-.668.102-.386-.089zm2.25-.455a8.183 8.183 0 0 1 1.67 0c.46.057.084.104-.835.104-.92 0-1.295-.047-.836-.104z"/>
    </g>
</svg>
