<svg xmlns="http://www.w3.org/2000/svg" width="150" height="150">
    <rect width="130" height="130" rx="45" ry="45" x="10" y="912.362" style="marker:none" color="#000" fill="#133348" overflow="visible" transform="translate(0 -902.362)"/>
    <path d="M48.154 117.368c-4.639-4.177-8.657-8.152-8.93-8.833-.272-.681-.362-17.039-.2-36.35.237-28.36.444-35.262 1.076-35.89.431-.428 4.448-3.143 8.926-6.034 5.216-3.367 8.72-5.258 9.749-5.261 3.698-.01 50.774 5.937 51.453 6.501 1.147.952 1.083 84.967-.065 85.92-.822.682-48.352 7.646-51.728 7.579-1.528-.03-3.305-1.35-10.281-7.632zm42.878-.77c11.035-3.278 18.28-15.887 16.373-28.495-1.269-8.388-6.725-16.086-13.728-19.367-2.908-1.363-4.09-1.572-8.88-1.572-4.79 0-5.973.21-8.88 1.572-9.612 4.504-15.553 16.444-13.783 27.699 2.328 14.805 15.646 24.097 28.898 20.162zm-11.284-5.983c-4.533-1.62-7.95-4.733-10.19-9.283-1.741-3.537-1.92-4.385-1.92-9.146 0-4.46.232-5.74 1.54-8.532 3.207-6.84 8.835-10.597 15.91-10.621 6.927-.024 12.703 3.856 15.938 10.707 1.278 2.706 1.51 4.007 1.51 8.434 0 4.447-.231 5.729-1.54 8.52-3.994 8.52-13.173 12.806-21.248 9.92zm6.52-14.192c1.666-.76 3.182-3.199 3.182-5.122 0-3.51-3.579-6.417-6.523-5.297-4.341 1.65-4.51 8.818-.25 10.537 1.692.683 1.844.677 3.59-.118zm2.484-39.677c7.297-3.812 8.713-14.574 2.662-20.226-5.3-4.95-13.901-3.25-17.134 3.386-4.034 8.282 1.163 17.624 9.819 17.651 1.695.005 3.789-.36 4.653-.81zm-8.25-4.465c-7.119-5.6-1.293-17.71 6.564-13.647 6.529 3.376 4.352 14.861-2.817 14.861-1.354 0-2.799-.468-3.748-1.214z" fill="#fff"/>
</svg>
