<svg xmlns="http://www.w3.org/2000/svg" width="150" height="150">
    <defs>
        <clipPath id="a">
            <path style="marker:none" color="#000" fill="#fff" stroke-width="2" overflow="visible" d="M44.072 27.448h62.242v60.309H44.072z"/>
        </clipPath>
        <clipPath id="b">
            <path style="marker:none" color="#000" fill="#fff" stroke-width="2" overflow="visible" d="M13.461 61.315h214.585v173.41H13.461z"/>
        </clipPath>
        <clipPath id="c">
            <path style="marker:none" color="#000" fill="#fff" stroke-width="2" overflow="visible" d="M-15.045-26.577h197.957v205.875H-15.045z"/>
        </clipPath>
    </defs>
    <rect width="130" height="130" rx="45" ry="45" x="10" y="912.362" style="marker:none" color="#000" fill="#0A7B7B" overflow="visible" transform="translate(0 -902.362)"/>
    <path d="M62.91 124.287c-5.511-.707-11.085-2.153-14.514-3.765-2.281-1.072-2.88-1.764-3.911-4.52-1.322-3.534-4.142-19.035-3.567-19.61.194-.193 2.817.395 5.828 1.31 11.02 3.343 14.586 3.828 28.295 3.84 11.2.01 13.644-.174 19.38-1.457 3.611-.808 7.972-2.004 9.691-2.657 4.994-1.898 5.467-1.728 4.975 1.781-.954 6.798-2.948 16.233-3.823 18.086-2.71 5.735-24.33 9.305-42.354 6.992zm1.815-28.718c-6.999-.834-16.366-3.261-20.71-5.366l-3.673-1.779-.495-4.376c-.565-5.001-.003-23.508.737-24.249.27-.27 3.01.353 6.088 1.384 9.447 3.165 16.012 4.08 28.994 4.041 12.612-.037 19.842-1.134 28.82-4.373 3.213-1.159 4.646-1.418 5.137-.927 1.072 1.072.983 27.078-.097 28.38-1.284 1.547-9.789 4.594-16.826 6.029-7.411 1.51-20.74 2.099-27.975 1.236zm-5.002-37.211c-5.484-.968-16.286-4.246-17.609-5.343-1.14-.946-1.048-3.772.355-10.99 1.745-8.978 2.74-11.084 5.954-12.594 11.273-5.3 35.052-5.955 49.82-1.374 5.53 1.716 7.103 3.404 8.375 8.99 1.785 7.835 2.519 14.13 1.785 15.305-.93 1.488-11.277 4.89-18.358 6.035-7.41 1.199-23.45 1.183-30.322-.03z" fill="#fff"/>
</svg>
