<svg xmlns="http://www.w3.org/2000/svg" width="150" height="150">
    <defs>
        <clipPath id="a">
            <path style="marker:none" color="#000" fill="#fff" stroke-width="2" overflow="visible" d="M44.072 27.448h62.242v60.309H44.072z"/>
        </clipPath>
        <clipPath id="b">
            <path style="marker:none" color="#000" fill="#fff" stroke-width="2" overflow="visible" d="M13.461 61.315h214.585v173.41H13.461z"/>
        </clipPath>
    </defs>
    <rect width="130" height="130" rx="45" ry="45" x="10" y="912.362" style="marker:none" color="#000" fill="#00a8a8" overflow="visible" transform="translate(0 -902.362)"/>
    <path d="M-32.018 265.757c0-15.9.38-28.276.853-27.75.469.523 1.442 3.2 2.163 5.95 5.814 22.173 22.837 39.912 45.063 46.96 3.796 1.203 7.206 2.492 7.578 2.864.372.372-11.999.676-27.49.676h-28.167v-28.7zm245.55 27.826c.523-.481 4.1-1.865 7.95-3.075 20.357-6.4 37.602-23.925 43.1-43.8.95-3.438 2.104-6.25 2.564-6.25.46 0 .836 12.15.836 27v27h-27.7c-15.87 0-27.294-.374-26.75-.875zm-103.541-74.618c-9.846-8.745-10.844-9.015-33.009-8.954-15.856.044-21.776.478-31.68 2.323-13.619 2.536-15.027 2.292-18.37-3.19-1.868-3.065-1.943-5.558-1.946-65.036-.004-67.492-.049-66.942 5.68-69.552 3.819-1.74 24.023-5.008 38.316-6.196 19.597-1.63 34.153.643 43.229 6.75 2.734 1.841 5.49 3.339 6.122 3.329.632-.01 3.137-1.365 5.567-3.012 8.36-5.664 15.745-7.307 32.582-7.248 15.515.054 34.707 2.182 44.79 4.966 10.518 2.903 9.71-2.918 9.71 69.997 0 69.613.135 68.027-5.961 70.152-2.32.808-5.639.584-14.28-.967-6.79-1.219-18.025-2.241-28.303-2.576-21.452-.7-25.2.19-34.416 8.171-8.307 7.194-10.934 7.346-18.031 1.043zm.766-72.08l-.275-54.572-4.132-3.854c-5.8-5.41-11.926-7.006-26.8-6.983-10.821.016-25.937 1.622-35.568 3.78l-3.5.783-.258 55.9c-.143 30.746.123 56.283.59 56.75.468.468 2.834.392 5.259-.168 2.425-.56 11.5-1.569 20.167-2.242 18.084-1.405 30.918-.356 37.383 3.054 8.071 4.258 7.443 8.876 7.134-52.448zm23.147 51.824c6.398-2.672 7.059-2.742 24.078-2.571 9.625.097 21.775.82 27 1.607 5.225.787 10.063 1.221 10.75.965 1.834-.685 1.825-110.531-.009-112.053-3.117-2.587-19.314-4.612-37.24-4.656-16.718-.04-18.327.117-22.585 2.215-5.95 2.932-8.877 6.135-9.948 10.884-1.004 4.452-1.285 104.707-.296 105.695.951.952 1.02.934 8.25-2.086zM-32.018 23.016V-5.543h28c15.4 0 28 .379 28 .841 0 .463-2.482 1.396-5.516 2.075C6.518.047-8.244 9.686-16.5 20.203c-5.336 6.8-10.782 17.701-12.49 25.007-.677 2.89-1.635 5.504-2.13 5.81-.524.324-.899-11.346-.899-28.004zm297.24 21.047c-.647-2.417-2.849-7.93-4.894-12.25C253.222 16.8 234.795 1.67 218.482-2.546c-2.75-.71-5.427-1.675-5.95-2.144-.526-.473 11.625-.853 27.25-.853h28.2v27c0 14.85-.357 27-.792 27-.436 0-1.322-1.977-1.968-4.394z" clip-path="url(#b)" transform="matrix(.46602 0 0 .46602 18.727 6.02)" fill="#fff"/>
</svg>
