<?xml version="1.0" encoding="UTF-8" standalone="no"?>
<!-- Created with Inkscape (http://www.inkscape.org/) -->

<svg
   xmlns:dc="http://purl.org/dc/elements/1.1/"
   xmlns:cc="http://creativecommons.org/ns#"
   xmlns:rdf="http://www.w3.org/1999/02/22-rdf-syntax-ns#"
   xmlns:svg="http://www.w3.org/2000/svg"
   xmlns="http://www.w3.org/2000/svg"
   xmlns:sodipodi="http://sodipodi.sourceforge.net/DTD/sodipodi-0.dtd"
   xmlns:inkscape="http://www.inkscape.org/namespaces/inkscape"
   version="1.1"
   width="150"
   height="150"
   id="svg2"
   inkscape:version="0.48.5 r10040"
   sodipodi:docname="cellculture.svg">
  <sodipodi:namedview
     pagecolor="#ffffff"
     bordercolor="#666666"
     borderopacity="1"
     objecttolerance="10"
     gridtolerance="10"
     guidetolerance="10"
     inkscape:pageopacity="0"
     inkscape:pageshadow="2"
     inkscape:window-width="1920"
     inkscape:window-height="1174"
     id="namedview4361"
     showgrid="false"
     inkscape:zoom="1.5733333"
     inkscape:cx="-81.038137"
     inkscape:cy="125.84746"
     inkscape:window-x="1920"
     inkscape:window-y="0"
     inkscape:window-maximized="1"
     inkscape:current-layer="layer5" />
  <defs
     id="defs4">
    <inkscape:path-effect
       effect="spiro"
       id="path-effect3779" />
  </defs>
  <metadata
     id="metadata7">
    <rdf:RDF>
      <cc:Work
         rdf:about="">
        <dc:format>image/svg+xml</dc:format>
        <dc:type
           rdf:resource="http://purl.org/dc/dcmitype/StillImage" />
        <dc:title></dc:title>
      </cc:Work>
    </rdf:RDF>
  </metadata>
  <g
     inkscape:groupmode="layer"
     id="layer4"
     inkscape:label="Background"
     style="display:inline"
     sodipodi:insensitive="true">
    <g
       transform="translate(0,-902.36218)"
       id="layer1">
      <rect
         width="130"
         height="130"
         rx="45"
         ry="45"
         x="10"
         y="912.36218"
         id="rect2985"
         style="color:#000000;fill:#00a8a8;fill-opacity:1;fill-rule:nonzero;stroke:none;stroke-width:1;marker:none;visibility:visible;display:inline;overflow:visible;enable-background:accumulate" />
    </g>
  </g>
  <g
     inkscape:groupmode="layer"
     id="layer3"
     inkscape:label="Microscopy"
     style="display:none"
     sodipodi:insensitive="true">
    <path
       style="fill:#ffffff;fill-opacity:1"
       d="m 43.67324,124.69106 c -0.0652,-0.16992 -0.118553,-2.2625 -0.118553,-4.65017 0,-3.16675 0.06605,-4.43052 0.244141,-4.67127 0.223625,-0.30231 1.204295,-0.33417 11.669922,-0.37913 l 11.425781,-0.0491 0.09766,-4.03697 c 0.05371,-2.22033 0.170713,-4.10998 0.260004,-4.19922 0.08929,-0.0892 2.506282,-0.21867 5.371094,-0.28763 3.542871,-0.0853 5.614772,-0.21959 6.478277,-0.41995 2.978143,-0.69103 5.664495,-1.84384 8.037456,-3.44916 1.583111,-1.07099 3.639242,-2.84115 3.485576,-3.0008 -0.05394,-0.05603 -1.108623,0.308461 -2.34375,0.80999 l -2.245688,0.91186 -0.09766,0.78125 -0.09766,0.78125 -16.308594,0 -16.308594,0 -0.05562,-1.88142 c -0.05556,-1.879407 -0.05509,-1.881549 0.449198,-2.008116 0.27765,-0.06968 7.780652,-0.11814 16.673335,-0.107678 l 16.168516,0.01902 3.69767,-1.479358 c 2.586611,-1.034849 3.780656,-1.610904 3.973861,-1.917154 2.153358,-3.41332 3.594315,-7.306771 4.120571,-11.13374 0.32308,-2.349455 0.270627,-6.400652 -0.112075,-8.656135 -0.875271,-5.158484 -3.322886,-10.16031 -6.787078,-13.86973 -1.208236,-1.293768 -3.637142,-3.399286 -3.921386,-3.399286 -0.06195,0 -0.796553,0.689506 -1.632463,1.532237 -1.696274,1.710111 -3.836407,2.939467 -5.842034,3.355834 -1.125152,0.23358 -4.646232,0.167918 -5.482583,-0.102242 l -0.429784,-0.13883 -0.0585,4.88923 c -0.05482,4.581492 -0.08388,4.923906 -0.461728,5.440172 -0.221778,0.303019 -0.727149,0.71199 -1.123047,0.908826 l -0.719819,0.357883 0,8.059111 c 0,9.156408 0.146126,8.390746 -1.73799,9.106655 -1.373738,0.521978 -3.939343,0.521978 -5.313082,0 -1.884115,-0.715909 -1.73799,0.04975 -1.73799,-9.106655 l 0,-8.059111 -0.729844,-0.357883 c -0.401416,-0.196836 -0.92876,-0.656525 -1.171875,-1.021531 l -0.442031,-0.663651 0,-18.577677 c 0,-17.672143 0.01754,-18.610372 0.359693,-19.248366 0.19783,-0.368877 0.684287,-0.839136 1.081018,-1.04502 l 0.721324,-0.374335 -0.05563,-1.88162 -0.05563,-1.88162 -1.238343,-0.09851 C 59.719969,29.360935 59.179687,28.805647 59.179687,27.251177 59.179687,24.952536 59.008791,25 67.285156,25 c 8.276365,0 8.105469,-0.04746 8.105469,2.251177 0,1.55447 -0.540281,2.109758 -2.179625,2.240161 l -1.238344,0.09851 -0.05593,1.906432 c -0.05368,1.8299 -0.038,1.913355 0.390625,2.078887 0.495432,0.191332 1.159797,0.865933 1.496364,1.519419 0.129345,0.251142 0.219718,1.462851 0.219718,2.945963 0,1.385643 0.04987,2.569223 0.110829,2.630179 0.06096,0.06095 0.43449,0.01854 0.830078,-0.09426 1.198666,-0.341785 4.28107,-0.271102 5.602062,0.128461 3.884473,1.174944 7.177617,4.554264 8.172442,8.386302 0.16306,0.628105 0.32456,1.160966 0.35889,1.184138 0.03433,0.02317 0.738957,0.457459 1.565838,0.965084 4.045131,2.483322 8.038598,6.583156 10.682068,10.96658 5.12436,8.497276 6.34323,19.102781 3.32079,28.894426 -3.12956,10.138661 -10.960559,18.338131 -20.611354,21.581161 l -1.730861,0.58164 0,0.83857 0,0.83858 6.347656,0.0977 6.347656,0.0977 0.05511,4.49219 c 0.03031,2.4707 0.0067,4.68994 -0.05255,4.93164 L 94.914434,125 69.353113,125 C 46.224705,125 43.780509,124.9706 43.67324,124.69106 z M 79.882812,60.307936 c 1.276801,-0.38292 2.601471,-1.165157 3.645963,-2.152993 0.572846,-0.541775 1.041537,-1.090783 1.041537,-1.220017 0,-0.129237 -0.349992,-0.392799 -0.777761,-0.585697 l -0.777762,-0.350721 -0.897016,0.826838 c -1.679718,1.54831 -3.807656,2.188593 -5.873775,1.767383 -2.28707,-0.466254 -3.935977,-1.764959 -4.928535,-3.88179 -0.436602,-0.931136 -0.514682,-1.36433 -0.514682,-2.85547 0,-1.468516 0.07841,-1.917137 0.476403,-2.725883 2.059093,-4.184166 7.150207,-5.289183 10.602492,-2.30125 0.824947,0.713986 3.19532,1.755523 3.439523,1.511318 0.197965,-0.197965 -0.690961,-1.530646 -1.702414,-2.552263 -4.974836,-5.024829 -13.51741,-2.265962 -14.706287,4.74947 -0.56698,3.345692 0.902799,6.713354 3.763789,8.623848 2.12374,1.41818 4.855453,1.852928 7.208525,1.147227 z"
       id="path3035"
       inkscape:connector-curvature="0" />
  </g>
  <g
     inkscape:groupmode="layer"
     id="layer5"
     inkscape:label="Cell Culture"
     style="display:inline">
    <path
       style="fill:#ffffff;fill-opacity:1"
       d="M 68.66364,109.51028 C 41.97271,107.79156 25.54082,97.181151 24.8093,81.192641 l -0.1093,-2.38893 0.70891,1.28032 c 3.05242,5.51284 9.92301,10.10796 19.97004,13.35616 20.66843,6.682099 49.311873,5.39803 66.71769,-2.99092 6.34429,-3.05771 10.23211,-6.28313 12.49395,-10.36524 l 0.70941,-1.28032 -0.10869,2.49279 c -0.28732,6.58919 -3.27721,12.4591 -8.64521,16.97269 -7.55261,6.350479 -19.115801,10.120369 -34.24054,11.163279 -2.88187,0.19872 -11.04154,0.24526 -13.64192,0.0778 z m 2.8044,-19.306339 c -5.69803,-0.26673 -10.5406,-0.84454 -15.48867,-1.8481 -11.73875,-2.38083 -21.14156,-6.83025 -26.54668,-12.5619 -4.04368,-4.28796 -5.51641,-9.01789 -4.29493,-13.79386 2.40183,-9.39103 15.71397,-17.41105 33.97016,-20.46562 5.67737,-0.94992 8.40865,-1.14707 15.89158,-1.14707 7.646156,0 10.171871,0.19178 16.40098,1.24536 17.86675,3.02193 31.08184,11.06586 33.46075,20.36733 1.49238,5.83514 -1.12121,11.71401 -7.38034,16.60094 -6.32285,4.93668 -15.40837,8.45724 -26.797552,10.38381 -5.259345,0.88966 -14.172568,1.45516 -19.215298,1.21911 z m 9.140248,-3.20163 c 6.432076,-0.39904 11.527012,-1.1779 16.930238,-2.58809 14.898054,-3.88826 24.616354,-11.4228 24.616354,-19.0849 0,-2.00357 -0.38231,-3.47859 -1.35339,-5.22158 -3.84579,-6.90282 -14.99623,-12.76633 -29.183354,-15.34621 -5.804167,-1.05547 -8.499293,-1.26374 -16.410906,-1.26824 -7.79671,-0.004 -9.90665,0.13939 -15.57997,1.06201 -14.57682,2.37053 -26.48054,8.45428 -30.43056,15.55244 -1.94831,3.50108 -1.83567,7.15213 0.33479,10.85196 0.96663,1.64777 4.2678,4.89653 6.51807,6.4146 10.40112,7.01678 27.40985,10.69193 44.558728,9.62801 z M 52.38164,77.346101 c -2.92206,-0.5291 -5.34014,-2.18517 -5.82617,-3.99016 -0.60138,-2.23336 1.46556,-4.45929 5.07407,-5.46438 l 1.24639,-0.34716 0.12732,-1.02218 c 0.36031,-2.89274 3.01084,-5.00558 7.8051,-6.22174 6.84821,-1.73719 15.04835,-0.67522 19.38882,2.51098 4.009496,2.94324 2.164904,7.18026 -4.01498,9.22238 -2.9967,0.99026 -5.17807,1.29179 -9.07655,1.25466 -1.88517,-0.0179 -3.5331,-0.023 -3.66205,-0.0112 -0.12896,0.0118 -0.35021,0.3009 -0.49168,0.64242 -0.62995,1.52085 -3.03142,2.95235 -5.77286,3.44118 -1.95026,0.34776 -2.80971,0.3451 -4.79741,-0.0148 z m 41.811014,-2.08598 c -2.931359,-0.72781 -4.734951,-2.60259 -4.247013,-4.41465 0.463903,-1.7228 2.752403,-3.07441 5.842683,-3.45072 2.262204,-0.27548 5.393146,0.59023 6.690106,1.84981 2.09435,2.03401 1.12235,4.44011 -2.31316,5.72603 -1.549708,0.58006 -4.271129,0.71198 -5.972616,0.28953 z M 33.01463,66.287791 c -0.12114,-0.31419 -0.27051,-1.04638 -0.33193,-1.62708 -0.11043,-1.04402 -0.10153,-1.06406 0.79666,-1.79414 4.76176,-3.87047 12.85821,-7.5342 21.03936,-9.52056 7.14633,-1.7351 13.40861,-2.35756 22.24651,-2.21128 8.231239,0.13624 13.147524,0.75999 19.942364,2.5302 7.436916,1.93748 15.086156,5.44426 19.474966,8.92827 0.98464,0.78164 1.19447,1.05923 1.19447,1.58025 0,0.80139 -0.41001,2.44998 -0.64552,2.59554 -0.0984,0.0608 -0.76466,-0.37793 -1.48051,-0.97501 -4.26657,-3.55865 -11.16897,-6.94256 -17.995001,-8.82208 -12.43671,-3.4244 -26.335219,-3.8539 -39.394469,-1.21741 -9.3283,1.88326 -17.67888,5.50877 -23.1012,10.02966 -0.70908,0.5912 -1.34238,1.07491 -1.40734,1.07491 -0.065,0 -0.21722,-0.25707 -0.33836,-0.57127 z"
       id="path3963"
       inkscape:connector-curvature="0" />
  </g>
  <g
     inkscape:groupmode="layer"
     id="layer6"
     inkscape:label="Cell Biology"
     style="display:none" />
</svg>
