<svg xmlns="http://www.w3.org/2000/svg" width="150" height="150">
    <rect width="130" height="130" rx="45" ry="45" x="10" y="912.362" style="marker:none" color="#000" fill="#00a8a8" overflow="visible" transform="translate(0 -902.362)"/>
    <path d="M68.664 109.51c-26.691-1.718-43.123-12.329-43.855-28.317l-.109-2.39.709 1.281c3.052 5.513 9.923 10.108 19.97 13.356 20.668 6.682 49.312 5.398 66.718-2.99 6.344-3.058 10.232-6.284 12.494-10.366l.709-1.28-.109 2.493c-.287 6.589-3.277 12.459-8.645 16.972-7.553 6.35-19.116 10.12-34.24 11.163-2.882.2-11.042.246-13.642.078zm2.804-19.306c-5.698-.267-10.54-.845-15.489-1.848-11.738-2.381-21.141-6.83-26.546-12.562-4.044-4.288-5.517-9.018-4.295-13.794 2.402-9.39 15.714-17.411 33.97-20.466 5.677-.95 8.409-1.147 15.892-1.147 7.646 0 10.171.192 16.4 1.246 17.867 3.022 31.082 11.066 33.461 20.367 1.493 5.835-1.121 11.714-7.38 16.601-6.323 4.937-15.408 8.457-26.798 10.384-5.259.89-14.172 1.455-19.215 1.219zm9.14-3.202c6.432-.399 11.527-1.178 16.93-2.588 14.899-3.888 24.617-11.423 24.617-19.085 0-2.003-.382-3.478-1.354-5.221-3.845-6.903-14.996-12.767-29.183-15.346-5.804-1.056-8.5-1.264-16.41-1.269-7.797-.004-9.907.14-15.58 1.062-14.578 2.37-26.481 8.455-30.431 15.553-1.949 3.5-1.836 7.152.334 10.852.967 1.647 4.268 4.896 6.519 6.414 10.4 7.017 27.41 10.692 44.558 9.628zm-28.226-9.656c-2.922-.529-5.34-2.185-5.827-3.99-.6-2.233 1.466-4.46 5.075-5.464l1.246-.348.127-1.022c.36-2.893 3.011-5.005 7.805-6.222 6.849-1.737 15.049-.675 19.39 2.511 4.009 2.944 2.164 7.18-4.016 9.223-2.997.99-5.178 1.292-9.076 1.255-1.886-.018-3.533-.023-3.662-.012-.13.012-.35.301-.492.643-.63 1.52-3.032 2.952-5.773 3.44-1.95.349-2.81.346-4.797-.014zm41.81-2.086c-2.93-.728-4.734-2.602-4.246-4.415.464-1.722 2.752-3.074 5.842-3.45 2.263-.276 5.393.59 6.69 1.85 2.095 2.034 1.123 4.44-2.313 5.726-1.55.58-4.27.712-5.972.29zm-61.177-8.972c-.122-.314-.27-1.047-.332-1.627-.11-1.044-.102-1.064.796-1.794 4.762-3.87 12.859-7.535 21.04-9.521 7.146-1.735 13.408-2.358 22.246-2.211 8.231.136 13.148.76 19.943 2.53 7.437 1.937 15.086 5.444 19.475 8.928.984.782 1.194 1.06 1.194 1.58 0 .802-.41 2.45-.645 2.596-.099.06-.765-.378-1.481-.975-4.267-3.559-11.169-6.943-17.995-8.822-12.437-3.424-26.335-3.854-39.394-1.218-9.329 1.884-17.68 5.51-23.102 10.03-.709.591-1.342 1.075-1.407 1.075-.065 0-.217-.257-.338-.571z" fill="#fff"/>
</svg>
