<svg xmlns="http://www.w3.org/2000/svg" width="150" height="150">
    <defs>
        <clipPath id="a">
            <path style="marker:none" color="#000" fill="#fff" stroke-width="2" overflow="visible" d="M44.072 27.448h62.242v60.309H44.072z"/>
        </clipPath>
        <clipPath id="b">
            <path style="marker:none" color="#000" fill="#fff" stroke-width="2" overflow="visible" d="M13.461 61.315h214.585v173.41H13.461z"/>
        </clipPath>
        <clipPath id="c">
            <path style="marker:none" color="#000" fill="#fff" stroke-width="2" overflow="visible" d="M-15.045-26.577h197.957v205.875H-15.045z"/>
        </clipPath>
    </defs>
    <rect width="130" height="130" rx="45" ry="45" x="10" y="912.362" style="marker:none" color="#000" fill="#133348" overflow="visible" transform="translate(0 -902.362)"/>
    <path d="M43.653 125.885c-2.212-.336-4.811-3.479-4.811-5.817 0-2.263 1.433-5.152 2.912-5.869.608-.295 6.944-.676 14.081-.847l12.977-.312.163-17.302.163-17.303-22.227-26.83C34.687 36.848 24.828 24.543 25.002 24.26c.427-.69 99.569-.665 99.995.026.184.297-9.397 12.56-21.292 27.25L82.08 78.244l.164 17.398.164 17.397 12.977.312c7.137.171 13.474.552 14.081.847.607.295 1.511 1.322 2.008 2.284 2.04 3.945.303 8.03-3.913 9.2-2.187.608-60.041.79-63.907.202zm42.378-64.06c3.15-1.316 4.718-3.734 4.718-7.273 0-7.925-10.12-10.803-14.237-4.05-3.208 5.261.251 11.521 6.687 12.104.436.04 1.71-.312 2.832-.78z" fill="#fff"/>
</svg>
