<svg xmlns="http://www.w3.org/2000/svg" width="150" height="150">
    <defs>
        <clipPath id="a">
            <path style="marker:none" color="#000" fill="#fff" stroke-width="2" overflow="visible" d="M44.072 27.448h62.242v60.309H44.072z"/>
        </clipPath>
        <clipPath id="b">
            <path style="marker:none" color="#000" fill="#fff" stroke-width="2" overflow="visible" d="M13.461 61.315h214.585v173.41H13.461z"/>
        </clipPath>
        <clipPath id="c">
            <path style="marker:none" color="#000" fill="#fff" stroke-width="2" overflow="visible" d="M-15.045-26.577h197.957v205.875H-15.045z"/>
        </clipPath>
    </defs>
    <rect width="130" height="130" rx="45" ry="45" x="10" y="912.362" style="marker:none" color="#000" fill="#0A7B7B" overflow="visible" transform="translate(0 -902.362)"/>
    <g fill="#fff">
        <path d="M53.843 124.9c-3.807-.275-9.232-1.726-12.417-3.321-3.179-1.592-6.582-4.105-8.259-6.097l-.449-.534 1.865-.482c8.002-2.07 17.385-5.959 23.33-9.672 4.591-2.868 9.28-6.87 12.341-10.538 4.067-4.87 6.62-9.831 8.424-16.367 1.104-4 1.977-6.325 3.65-9.719 4.476-9.079 11.98-16.82 22.382-23.093 3.228-1.946 8.598-4.612 12.275-6.093 3.05-1.228 2.585-1.427 4.287 1.833 2.863 5.483 4.159 12.453 3.601 19.364-1.114 13.81-7.328 27.257-18.374 39.764-14.412 16.317-35.287 26.21-52.656 24.955zM28.766 109.22c-4.647-8.973-5-20.148-1.024-32.495 3.745-11.629 11.572-23.455 21.56-32.576 22.113-20.192 50.321-25.11 65.716-11.455.803.712 1.641 1.527 1.863 1.81l.403.518-1.863.474c-1.024.26-3.282.928-5.016 1.484C98.96 40.65 89.8 45.725 83.226 52.046c-6.123 5.886-9.559 11.703-11.978 20.279-1.474 5.224-3.15 9.02-5.753 13.029C60.01 93.8 51.502 101.005 40.11 106.85c-3.165 1.623-8.455 4.019-9.784 4.43-.374.116-.563-.133-1.56-2.059z"/>
        <path d="M51.237 124.524c-5.574-.843-10.707-2.96-14.79-6.098-1.447-1.113-3.712-3.293-3.548-3.416.05-.037 1.234-.373 2.633-.747 14.066-3.756 26.381-10.557 33.489-18.493 4.96-5.538 7.55-10.31 9.75-17.953 1.287-4.475 2.153-6.751 3.826-10.054 5.39-10.639 14.921-19.372 28.316-25.943 3.74-1.835 7.989-3.66 8.52-3.66.62 0 2.968 4.727 3.967 7.99 1.1 3.59 1.348 5.632 1.343 11.034-.005 5.588-.266 7.76-1.502 12.512-4.237 16.288-15.773 32.181-31.212 42.998-8.543 5.986-17.59 9.853-26.996 11.538-3.256.584-10.81.744-13.796.292zM29.165 109.93c-2.959-5.334-4.139-10.779-3.956-18.25.11-4.495.46-7.046 1.568-11.404 3.794-14.935 14.31-30.155 28.185-40.79C65.126 31.697 75.836 27 86.963 25.458c2.944-.408 8.79-.412 11.635-.008 5.667.805 10.796 2.896 14.96 6.097 1.448 1.113 3.712 3.293 3.549 3.416-.05.037-1.234.373-2.633.747-14.133 3.774-26.538 10.647-33.611 18.62-4.884 5.506-7.44 10.233-9.627 17.809-.598 2.07-1.419 4.582-1.825 5.583-4.862 11.987-15.051 21.95-30.174 29.502-3.468 1.732-8.604 3.979-9.095 3.979-.15 0-.59-.572-.977-1.272z"/>
    </g>
</svg>
