<svg xmlns="http://www.w3.org/2000/svg" width="150" height="150">
    <defs>
        <clipPath id="a">
            <path style="marker:none" color="#000" fill="#fff" stroke-width="2.5" overflow="visible" d="M31.092 32.305h84.328v75.076H31.092z"/>
        </clipPath>
        <clipPath id="b">
            <rect style="marker:none" width="78.716" height="47.927" x="35.945" y="51.264" ry="0" color="#000" fill="#fff" stroke-width="2" overflow="visible"/>
        </clipPath>
    </defs>
    <rect width="130" height="130" rx="45" ry="45" x="10" y="912.362" style="marker:none" color="#000" fill="#0A7B7B" overflow="visible" transform="translate(0 -902.362)"/>
    <path d="M117.802 122.726c-2.965-.795-6.978-2.12-8.917-2.944-3.952-1.679-4.5-1.734-9.727-.97-11.143 1.626-23.285-2.732-29.38-10.546-.959-1.23-2.323-3.32-3.03-4.646-1.232-2.306-1.373-2.422-3.318-2.743a274 274 0 0 1-5.187-.933l-3.156-.6-3.565 1.671c-4.478 2.099-10.852 4.2-18.304 6.032-6.077 1.495-7.695 1.703-7.695.992 0-.237.383-1.182.85-2.099 2.564-5.023 5.371-13.693 5.995-18.509.27-2.089.21-2.277-1.678-5.115-4.027-6.058-5.735-11.776-5.69-19.052.06-9.48 3.286-16.917 10.448-24.087 5.08-5.084 11.15-8.68 18.692-11.07 5.664-1.796 9.383-2.334 15.967-2.31 20.741.077 38.546 11.986 43.428 29.048 1.112 3.888 1.294 11.636.37 15.802-.575 2.591-.572 2.62.414 3.272.547.361 2.338 2.025 3.979 3.696 4.954 5.044 7.041 10.476 6.657 17.324-.237 4.242-1.257 7.448-3.482 10.947-.87 1.366-1.39 2.709-1.39 3.583 0 1.857 1.703 7.643 3.288 11.171 1.244 2.771 1.32 3.62.317 3.56-.272-.016-2.92-.68-5.886-1.474zm-3.94-8.697c0-.364-.265-1.624-.588-2.8-1.262-4.587-1.237-4.929.526-7.154 4.407-5.563 5.19-11.554 2.264-17.328-.988-1.95-4.863-6.479-5.544-6.479-.175 0-1.154 1.166-2.176 2.592-2.39 3.334-7.699 8.472-10.8 10.452-5.816 3.714-13 6.35-19.957 7.323-2.395.335-3.54.672-3.54 1.04 0 .59 1.945 2.956 3.94 4.795 1.802 1.66 6.219 3.892 9.332 4.718 3.345.886 9.444.984 13.899.222 3.22-.551 3.38-.54 5.184.386 2.49 1.277 6.3 2.856 6.942 2.878.285.01.518-.28.518-.645zm-69.52-19.086c2.081-.825 5.246-2.254 7.033-3.175l3.248-1.674 3.595.689c11.812 2.263 21.339 1.486 29.82-2.433 8.235-3.805 14.376-10.551 16.715-18.363.758-2.532.876-3.745.724-7.465-.288-7.103-2.342-11.588-7.814-17.065-7.434-7.441-17.927-11.198-29.837-10.68-6.667.289-10.98 1.38-16.797 4.244-10.508 5.177-16.511 13.333-17.083 23.206-.38 6.56 1.598 12.074 6.323 17.626 2.646 3.11 2.618 2.563.555 10.783-1.338 5.33-1.398 5.807-.733 5.807.257 0 2.17-.675 4.251-1.5z" fill="#fff"/>
</svg>
