<svg xmlns="http://www.w3.org/2000/svg" width="150" height="150">
    <rect width="130" height="130" rx="45" ry="45" x="10" y="912.362" style="marker:none" color="#000" fill="#0A7B7B" overflow="visible" transform="translate(0 -902.362)"/>
    <g fill="#fff">
        <path d="M28.516 103.573c-.461-.169-1.18-.882-1.533-1.522-.296-.537-.328-3.18-.382-31.64-.033-17.08-.004-31.602.063-32.27.132-1.3.595-2.18 1.499-2.85.513-.38.844-.39 13.379-.39 14.354-.002 13.646-.069 14.543 1.374l.458.737.051 32.034.051 32.034-.442.874c-.243.481-.74 1.073-1.105 1.316l-.664.44-12.812-.014c-7.048-.008-12.945-.064-13.106-.123zm14.468-11.761c.406-.406.57-.762.57-1.232 0-1.918-2.749-2.602-3.627-.903-.416.804-.343 1.252.328 2.015.813.927 1.875.973 2.729.12zm.238-8.618c1.567-.494 2.732-2.112 2.732-3.794 0-2.431-1.843-4.205-4.371-4.205-2.397 0-4.263 1.807-4.274 4.138-.005 1.154.2 1.69.988 2.589 1.262 1.437 2.987 1.883 4.925 1.272zm6.185-24.5c.764-.394 1.064-1.384.924-3.052-.137-1.628-.343-2.038-1.16-2.297-.4-.127-3.323-.187-7.896-.162l-7.26.04-.503.473c-.471.443-.504.59-.504 2.28 0 2.155.073 2.387.86 2.73.931.405 14.753.396 15.54-.011zm.441-9.043c.409-.41.441-.6.397-2.306-.053-2.088-.217-2.548-.983-2.763-.292-.081-3.842-.148-7.889-.148h-7.357l-.504.473c-.474.446-.504.585-.504 2.355 0 1.936.113 2.286.879 2.711.272.152 2.684.204 7.953.171l7.564-.046.444-.447zm23.834 53.93c-.412-.165-.282-.544.7-2.042 2.316-3.534 6.983-6.589 11.652-7.626 1.237-.275 1.424-.502 1.188-1.441l-.117-.466-12.84-.056c-14.161-.061-13.546-.005-14.358-1.31l-.434-.699-.053-20.572-.052-20.573.417-.742c.23-.408.748-.928 1.153-1.156l.736-.414H91.11c32.804 0 30.28-.108 31.265 1.343l.477.701v20.499c0 20.026-.01 20.517-.387 21.296-.212.44-.674.973-1.025 1.185-.617.373-1.085.388-13.59.442l-12.95.055.06.818c.057.78.095.824.84.985 2.63.568 5.609 1.838 7.623 3.249 2.679 1.877 5.65 5.435 5.3 6.348-.105.275-1.883.304-17.457.29-9.537-.007-17.45-.06-17.584-.113zm44.074-16.365c.301-.156.648-.53.77-.83.16-.395.208-5.2.174-17.409l-.048-16.862-.548-.472-.548-.471H64.631l-.461.46c-.354.354-.487.752-.572 1.71-.06.686-.09 8.38-.067 17.096.042 15.543.05 15.858.434 16.283.215.24.566.506.781.594.215.088 12.107.166 26.426.173 22.402.01 26.111-.028 26.584-.272zm-51.952-9.042c-.009-.08-.031-5.499-.049-12.04-.036-13.08-.084-12.518 1.148-13.326.482-.315 2.103-.34 24.277-.362 22.023-.023 23.821 0 24.578.31.517.212.928.552 1.123.928.347.672.364.806.145 1.152-.138.216-4.845 2.453-11.212 5.328-1.153.52-2.823 1.298-3.71 1.729-1.585.767-4.576 2.146-9.233 4.258-1.289.584-3.53 1.619-4.98 2.299a885.709 885.709 0 0 1-9.766 4.501c-1.235.56-3.564 1.635-5.176 2.388-6.422 3-7.097 3.267-7.145 2.835z"/>
        <path d="M28.29 103.218c-.286-.155-.726-.613-.977-1.018l-.458-.735v-32.13c0-31.777.005-32.135.391-32.791.215-.365.639-.848.942-1.074.545-.407.69-.412 13.16-.466 12.442-.053 12.618-.049 13.45.354.615.298.951.632 1.245 1.239.401.829.402.916.398 32.654-.004 30.959-.014 31.846-.38 32.65-.216.476-.647.992-1.02 1.22-.631.384-.948.393-13.44.386-10.77-.006-12.874-.052-13.312-.289zm14.796-11.304c.88-.88.918-1.846.103-2.661-.964-.964-2.159-1.004-3.061-.102-.687.687-.806 1.418-.364 2.239.735 1.362 2.245 1.6 3.322.524zm.343-8.589c1.8-.752 2.774-2.388 2.627-4.413-.328-4.543-7.021-5.382-8.662-1.085-1.07 2.8 1.11 5.767 4.236 5.767.636 0 1.445-.121 1.799-.269zm5.989-24.44c.833-.43.973-.844.973-2.872 0-2.116-.216-2.582-1.326-2.869-.947-.244-13.984-.245-14.927 0-1.11.287-1.325.753-1.325 2.87 0 2.06.158 2.497 1.04 2.881.955.415 14.76.406 15.565-.01zm.469-9.066c.479-.45.504-.574.504-2.499 0-1.867-.036-2.061-.46-2.485-.372-.372-.737-.482-1.905-.57-1.22-.094-12.515-.062-13.77.038-.228.018-.645.265-.929.548-.483.483-.514.627-.514 2.356 0 3.336-.432 3.186 9.017 3.13l7.553-.044.504-.474zm23.837 53.491c-.22-.357 1.125-2.34 2.643-3.894 2.452-2.51 5.368-4.155 9.127-5.151l1.713-.454.059-1.003.059-1.003-12.984-.053c-12.783-.052-12.993-.06-13.536-.457-.303-.223-.705-.706-.893-1.075-.318-.624-.341-2.033-.34-21.08 0-20.021.007-20.422.388-21.046a3.67 3.67 0 0 1 1.025-1.026c.629-.385.972-.388 30.37-.34l29.732.05.736.735.736.736.05 20.748c.048 20.297.04 20.763-.333 21.373-.858 1.402-.01 1.318-14.455 1.427l-12.997.098-.059.917-.059.917.84.205c4.618 1.121 8.006 2.934 10.532 5.634 1.414 1.51 2.59 3.28 2.44 3.67-.092.237-2.609.278-17.387.278-11.873 0-17.32-.065-17.407-.206zm43.965-15.9c1.322-.553 1.27.225 1.212-18.485l-.053-16.809-.638-.57-.638-.57H64.618l-.57.571-.571.571v17.118c0 11.871.064 17.238.21 17.511.515.962-.331.932 27.384.94 22.34.007 26.029-.031 26.618-.278zm-51.738-9.415c-.072-.072-.13-5.367-.13-11.768 0-13.015-.038-12.642 1.366-13.348.643-.322 2.114-.34 24.512-.292 26.209.055 24.335-.04 25.036 1.262.303.563.31.674.057.925-.265.262-12.024 5.741-32.515 15.152-1.826.838-6.568 3.026-10.538 4.862-3.97 1.835-7.317 3.337-7.438 3.337a.567.567 0 0 1-.35-.13z"/>
        <path d="M28.196 102.945c-1.339-.816-1.259 1.458-1.199-34.034l.054-31.968.404-.552c.223-.303.706-.706 1.075-.895.622-.32 1.572-.34 13.398-.293l12.728.05.523.49c1.144 1.069 1.071-1.22 1.071 33.492 0 34.713.062 32.766-1.077 33.662l-.538.423H41.722c-12.37-.001-12.94-.017-13.526-.375zm15.047-10.942c1.202-1.202.647-3.04-1.074-3.555-1.002-.3-2.086.227-2.591 1.261-.327.669-.336.818-.091 1.462.623 1.636 2.53 2.058 3.756.832zm.417-8.676c3.339-1.555 3.557-5.99.386-7.848-2.848-1.668-6.618.068-7.054 3.25-.482 3.517 3.336 6.15 6.668 4.598zm5.637-24.224c1.09-.456 1.289-.934 1.289-3.107 0-1.867-.017-1.942-.571-2.495l-.57-.571-7.78.004c-7.075.004-7.816.035-8.195.342-.693.561-.853 1.111-.853 2.935 0 1.984.311 2.625 1.428 2.949.343.099 3.768.188 7.612.197 5.566.014 7.121-.037 7.64-.254zm0-8.79c1.09-.455 1.289-.933 1.289-3.106 0-1.867-.017-1.942-.571-2.495l-.57-.571h-7.643c-8.289 0-8.475.022-8.951 1.068-.362.794-.303 3.823.084 4.377.658.94 1.044.984 8.624.992 5.632.006 7.22-.048 7.738-.264zm24.531 52.842c0-.425 1.745-2.793 2.876-3.902 2.62-2.57 5.892-4.227 10.268-5.199.53-.117.545-.155.489-1.238l-.059-1.117-12.988-.097c-14.119-.107-13.55-.057-14.267-1.234-.37-.605-.38-1.168-.38-21.15l-.001-20.527.445-.661c.245-.364.662-.77.928-.905.38-.192 6.809-.245 30.144-.247l29.661-.003.759.758.758.759-.003 20.677c-.002 16.148-.056 20.783-.247 21.16-.134.265-.542.682-.905.927l-.66.446h-12.94c-11.617 0-12.95.031-13.056.308-.183.478-.14 1.804.062 1.929.1.061 1.019.324 2.042.584 3.466.879 7.089 2.937 9.216 5.234 1.184 1.28 2.428 3.03 2.428 3.417 0 .196-3.49.246-17.285.246-9.507 0-17.285-.074-17.285-.165zm43.732-15.52c.366-.128.846-.477 1.068-.776.399-.538.402-.687.408-17.382.006-18.235.036-17.72-1.057-18.366-.517-.305-2.52-.33-26.964-.33H64.609l-.664.664-.664.664v34.384l.588.588c.323.323.784.626 1.025.672.241.046 12.04.091 26.22.1 19.507.012 25.942-.041 26.446-.218zM66.146 77.8c-.212-.212-.154-23.219.06-23.782.105-.276.478-.677.83-.892.632-.387.925-.391 24.63-.342l23.991.049.57.638c.75.84.72 1.133-.167 1.585-1.374.701-49.49 22.875-49.638 22.875a.466.466 0 0 1-.276-.13z"/>
        <path d="M28.025 102.478c-.462-.462-.682-.894-.77-1.513-.068-.477-.098-15.018-.066-32.313.057-31.302.059-31.448.458-32.129.703-1.2.555-1.188 14.337-1.128 11.656.05 12.462.076 12.973.411 1.161.762 1.098-1.173 1.098 33.432 0 34.497.062 32.568-1.077 33.464l-.538.423H28.672l-.647-.647zm14.767-9.812c.725-.375 1.347-1.362 1.347-2.139 0-1.183-1.301-2.441-2.526-2.441-.76 0-1.896.731-2.23 1.436-.41.863-.403 1.248.036 2.068.65 1.21 2.173 1.697 3.373 1.076zm1.456-9.37c1.888-1.168 2.734-3.617 1.953-5.66-.406-1.064-1.913-2.471-2.99-2.794-3.825-1.146-7.368 2.17-6.263 5.86.3.998 1.497 2.345 2.55 2.868.668.332 1.13.405 2.314.366 1.258-.042 1.624-.138 2.436-.64zm5.29-24.044c1.102-.523 1.243-.889 1.243-3.212 0-1.916-.036-2.116-.464-2.578-.255-.275-.805-.595-1.22-.71-.995-.277-13.965-.285-14.954-.01-.396.11-.945.467-1.22.794-.46.548-.501.745-.501 2.446 0 2.41.288 2.977 1.758 3.461.16.053 3.531.103 7.49.112 6.27.013 7.283-.026 7.868-.303zm-.046-8.743c1.108-.463 1.29-.922 1.283-3.238-.007-2.195-.082-2.41-1.06-3.047-.535-.35-1.048-.38-7.226-.433-8.089-.07-8.557-.028-9.422.837-.64.641-.645.658-.645 2.53 0 2.169.238 2.817 1.21 3.297.56.276 1.602.318 7.927.322 5.793.003 7.415-.051 7.933-.268zm24.727 52.41c0-.47 1.628-2.551 2.983-3.813 2.327-2.165 5.384-3.775 8.567-4.511.79-.183 1.552-.418 1.69-.522.171-.128.235-.576.196-1.38l-.057-1.19-13.131-.097-13.132-.097-.638-.639-.638-.638-.052-20.518c-.047-18.721-.023-20.577.27-21.196.636-1.34-1.634-1.248 30.836-1.248 25.91 0 29.482.036 29.987.297 1.23.635 1.166-.56 1.166 21.871 0 22.654.077 21.325-1.277 21.89-.551.231-2.854.278-13.54.278-14.38 0-13.116-.138-13.11 1.432.002.448.078.932.17 1.077.09.144.729.38 1.417.525 3.332.698 6.992 2.58 9.224 4.742 1.295 1.254 2.858 3.263 2.858 3.672 0 .23-2.602.271-16.895.271-11.718 0-16.894-.063-16.894-.206zm43.962-15.274c1.103-.75 1.057.053 1.057-18.422 0-17.002 0-17.047-.41-17.597-.224-.304-.62-.66-.878-.793-.366-.188-6.291-.242-26.798-.244-22.98-.003-26.4.034-26.892.289-1.25.646-1.174-.541-1.174 18.377v17.216l.423.537c.883 1.124-.598 1.07 27.897 1.023 24.694-.04 26.3-.063 26.775-.386zM66.3 77.488c-.054-.14-.074-5.457-.045-11.816l.054-11.562.541-.541.542-.542 23.58-.057c16.565-.041 23.797.005 24.312.154.911.264 1.518 1.064 1.104 1.456-.21.198-46.361 21.603-49.351 22.888-.52.224-.658.228-.737.02z"/>
    </g>
</svg>
