<?xml version="1.0" encoding="UTF-8" standalone="no"?>
<!-- Created with Inkscape (http://www.inkscape.org/) -->

<svg
   xmlns:dc="http://purl.org/dc/elements/1.1/"
   xmlns:cc="http://creativecommons.org/ns#"
   xmlns:rdf="http://www.w3.org/1999/02/22-rdf-syntax-ns#"
   xmlns:svg="http://www.w3.org/2000/svg"
   xmlns="http://www.w3.org/2000/svg"
   xmlns:sodipodi="http://sodipodi.sourceforge.net/DTD/sodipodi-0.dtd"
   xmlns:inkscape="http://www.inkscape.org/namespaces/inkscape"
   version="1.1"
   width="150"
   height="150"
   id="svg2"
   inkscape:version="0.48.5 r10040"
   sodipodi:docname="beer.svg">
  <sodipodi:namedview
     pagecolor="#ffffff"
     bordercolor="#666666"
     borderopacity="1"
     objecttolerance="10"
     gridtolerance="10"
     guidetolerance="10"
     inkscape:pageopacity="0"
     inkscape:pageshadow="2"
     inkscape:window-width="958"
     inkscape:window-height="573"
     id="namedview4361"
     showgrid="false"
     inkscape:zoom="1.2629029"
     inkscape:cx="42.301234"
     inkscape:cy="69.79231"
     inkscape:window-x="1920"
     inkscape:window-y="0"
     inkscape:window-maximized="0"
     inkscape:current-layer="layer24"
     showguides="true"
     inkscape:guide-bbox="true">
    <inkscape:grid
       type="xygrid"
       id="grid4328" />
  </sodipodi:namedview>
  <defs
     id="defs4">
    <inkscape:path-effect
       effect="spiro"
       id="path-effect3779" />
    <mask
       maskUnits="userSpaceOnUse"
       id="mask4022">
      <rect
         style="color:#000000;fill:#ffffff;fill-opacity:1;fill-rule:nonzero;stroke:#00a8a8;stroke-width:2.5;stroke-linecap:butt;stroke-linejoin:miter;stroke-miterlimit:4;stroke-opacity:1;stroke-dasharray:none;stroke-dashoffset:0;marker:none;visibility:visible;display:inline;overflow:visible;enable-background:accumulate"
         id="rect4024"
         width="94.703392"
         height="94.703392"
         x="197.66949"
         y="-184.95764"
         rx="5.3157125"
         ry="4.7804155" />
    </mask>
    <clipPath
       clipPathUnits="userSpaceOnUse"
       id="clipPath4302">
      <rect
         style="color:#000000;fill:#ffffff;fill-opacity:1;fill-rule:nonzero;stroke:none;stroke-width:2.5;marker:none;visibility:visible;display:inline;overflow:visible;enable-background:accumulate"
         id="rect4304"
         width="84.327606"
         height="75.075836"
         x="31.092012"
         y="32.305359" />
    </clipPath>
    <clipPath
       clipPathUnits="userSpaceOnUse"
       id="clipPath4777">
      <rect
         style="color:#000000;fill:#ffffff;fill-opacity:1;fill-rule:nonzero;stroke:none;stroke-width:2;marker:none;visibility:visible;display:inline;overflow:visible;enable-background:accumulate"
         id="rect4779"
         width="78.715881"
         height="47.927204"
         x="35.9454"
         y="51.263901"
         ry="0" />
    </clipPath>
    <clipPath
       clipPathUnits="userSpaceOnUse"
       id="clipPath4084">
      <rect
         style="color:#000000;fill:#ffffff;fill-opacity:1;fill-rule:nonzero;stroke:none;stroke-width:2;marker:none;visibility:visible;display:inline;overflow:visible;enable-background:accumulate"
         id="rect4086"
         width="62.242268"
         height="60.309277"
         x="44.072166"
         y="27.448454" />
    </clipPath>
    <clipPath
       clipPathUnits="userSpaceOnUse"
       id="clipPath4160">
      <rect
         style="color:#000000;fill:#ffffff;fill-opacity:1;fill-rule:nonzero;stroke:none;stroke-width:2;marker:none;visibility:visible;display:inline;overflow:visible;enable-background:accumulate"
         id="rect4162"
         width="270.80466"
         height="239.13161"
         x="-60.970638"
         y="-27.369135" />
    </clipPath>
    <clipPath
       clipPathUnits="userSpaceOnUse"
       id="clipPath4179">
      <rect
         style="color:#000000;fill:#ffffff;fill-opacity:1;fill-rule:nonzero;stroke:none;stroke-width:2;marker:none;visibility:visible;display:inline;overflow:visible;enable-background:accumulate"
         id="rect4181"
         width="214.58498"
         height="173.41"
         x="13.46105"
         y="61.315434" />
    </clipPath>
    <clipPath
       clipPathUnits="userSpaceOnUse"
       id="clipPath4317">
      <rect
         style="color:#000000;fill:#ffffff;fill-opacity:1;fill-rule:nonzero;stroke:none;stroke-width:2;marker:none;visibility:visible;display:inline;overflow:visible;enable-background:accumulate"
         id="rect4319"
         width="197.95662"
         height="205.87489"
         x="-15.044703"
         y="-26.577307" />
    </clipPath>
  </defs>
  <metadata
     id="metadata7">
    <rdf:RDF>
      <cc:Work
         rdf:about="">
        <dc:format>image/svg+xml</dc:format>
        <dc:type
           rdf:resource="http://purl.org/dc/dcmitype/StillImage" />
        <dc:title></dc:title>
      </cc:Work>
    </rdf:RDF>
  </metadata>
  <g
     inkscape:groupmode="layer"
     id="layer4"
     inkscape:label="Background"
     style="display:inline"
     sodipodi:insensitive="true">
    <g
       transform="translate(0,-902.36218)"
       id="layer1">
      <rect
         width="130"
         height="130"
         rx="45"
         ry="45"
         x="10"
         y="912.36218"
         id="rect2985"
         style="color:#000000;fill:#00a8a8;fill-opacity:1;fill-rule:nonzero;stroke:none;stroke-width:1;marker:none;visibility:visible;display:inline;overflow:visible;enable-background:accumulate" />
    </g>
  </g>
  <g
     inkscape:groupmode="layer"
     id="layer2"
     inkscape:label="hardware"
     sodipodi:insensitive="true"
     style="display:none">
    <path
       style="fill:#ffffff;fill-opacity:1"
       d="m 52.563304,124.20158 -0.805788,-0.80559 0,-3.99232 0,-3.99234 0.805788,-0.80592 c 0.70583,-0.70568 0.925972,-0.80565 1.774505,-0.80565 1.155097,0 1.988717,0.39036 2.525805,1.1828 0.576458,0.85052 0.708729,6.92226 0.180907,8.30426 -0.448422,1.17408 -1.292458,1.71891 -2.665134,1.71996 -0.897313,5.9e-4 -1.100401,-0.09 -1.816083,-0.8052 z m 13.810049,0.41463 c -1.140183,-0.69545 -1.33248,-1.44571 -1.33248,-5.19883 0,-2.44416 0.08063,-3.54108 0.298834,-4.0632 0.401043,-0.95987 1.41686,-1.55268 2.661838,-1.55368 0.836955,-6e-4 1.108052,0.10842 1.764195,0.70931 l 0.775272,0.71003 0.06386,3.91129 c 0.06223,3.80839 0.05116,3.92992 -0.421334,4.63145 -0.266921,0.39585 -0.716002,0.83668 -0.997964,0.97927 -0.75106,0.38004 -2.080277,0.32086 -2.812341,-0.12564 z m 12.964222,-0.41463 -0.805795,-0.80559 0,-3.99232 0,-3.99234 0.805795,-0.80592 c 0.715682,-0.71555 0.918771,-0.80557 1.816084,-0.80491 1.252349,0.001 2.168059,0.52581 2.635436,1.51086 0.534657,1.12655 0.494152,6.96429 -0.05682,8.17757 -0.475563,1.04757 -1.288405,1.51858 -2.620272,1.51858 -0.848532,0 -1.068676,-0.1 -1.774501,-0.80593 z m 13.602492,0.41463 c -1.140179,-0.69545 -1.332481,-1.44571 -1.332481,-5.19883 0,-2.44416 0.08063,-3.54108 0.298842,-4.0632 0.40104,-0.95987 1.416854,-1.55268 2.661833,-1.55368 0.836958,-6e-4 1.108055,0.10842 1.764194,0.70931 l 0.775269,0.71003 0.0639,3.91129 c 0.0623,3.80839 0.0512,3.92992 -0.421337,4.63145 -0.266921,0.39585 -0.716007,0.83668 -0.997963,0.97927 -0.751061,0.38004 -2.080273,0.32086 -2.812343,-0.12564 z M 48.144918,109.2239 c -1.493983,-0.25347 -3.521477,-1.33276 -4.679616,-2.49095 -1.222176,-1.22216 -2.224769,-3.17272 -2.501979,-4.86751 -0.125611,-0.76798 -0.202768,-11.230074 -0.201286,-27.29318 0.0025,-28.39422 -0.02415,-27.712293 1.179101,-29.933585 1.238964,-2.287046 3.681586,-4.036692 6.315166,-4.523531 0.76173,-0.140815 10.30859,-0.194053 28.115681,-0.156791 l 26.962255,0.05651 1.1664,0.471751 c 2.60277,1.052831 4.61537,3.135067 5.50971,5.700296 0.36194,1.038205 0.38077,2.454067 0.38077,28.592998 l 0,27.500732 -0.47178,1.16617 c -0.72091,1.78235 -1.96058,3.36111 -3.38719,4.31374 -2.54925,1.70239 -0.083,1.57195 -30.387222,1.60608 -14.84,0.0157 -27.440009,-0.0466 -28.00001,-0.14249 z M 61.612177,83.629361 c 1.464945,-0.670671 2.609242,-1.744325 3.280524,-3.077975 0.938913,-1.865346 0.894882,-2.012146 -0.774359,-2.58163 -0.792771,-0.270473 -1.539959,-0.490785 -1.660417,-0.489605 -0.120456,0.0012 -0.479965,0.562981 -0.798909,1.248415 -0.780984,1.678397 -1.811223,2.383155 -3.451205,2.360875 -1.304501,-0.0178 -1.89066,-0.259503 -2.865364,-1.181921 -1.017199,-0.962634 -1.395627,-2.332146 -1.388238,-5.023926 0.0061,-2.371307 0.369913,-3.709941 1.287736,-4.743552 0.922385,-1.038752 3.257481,-1.482276 4.678359,-0.888588 0.779,0.325484 1.741636,1.384921 1.926063,2.119744 0.06945,0.276581 0.186139,0.502154 0.259385,0.501264 0.321768,-0.0037 3.377668,-0.786854 3.48324,-0.892423 0.227272,-0.227274 -0.918835,-2.368573 -1.669576,-3.119313 -1.346104,-1.346105 -2.643874,-1.864069 -4.921008,-1.964056 -2.371793,-0.104102 -3.786005,0.235382 -5.296387,1.271574 -2.165245,1.485444 -3.33589,3.832796 -3.537194,7.092685 -0.312142,5.054696 1.953824,8.717417 6.055062,9.787471 1.519331,0.396404 4.038774,0.200618 5.392288,-0.419039 z m 34.609891,0.01919 c 1.335766,-0.616893 2.156836,-1.410881 2.732246,-2.642099 0.4113,-0.88002 0.44036,-1.332743 0.50332,-7.835107 l 0.0674,-6.901117 -1.8829,0 -1.882858,0 0,6.507208 c 0,6.415321 -0.0062,6.51705 -0.469623,7.204086 -0.833189,1.236369 -3.324973,1.553577 -4.861895,0.618918 -1.241678,-0.755121 -1.31016,-1.177608 -1.31016,-8.083129 l 0,-6.247092 -1.98955,0 -1.989538,0 0.0924,6.486014 c 0.05965,4.182188 0.180953,6.780904 0.341579,7.316222 0.595583,1.984963 2.549534,3.653489 4.749059,4.055354 1.767507,0.322936 4.675476,0.08683 5.901085,-0.479266 z m -23.916858,-2.930815 0,-3.401993 3.061394,-0.08727 c 3.368106,-0.09607 4.009815,-0.266896 5.319915,-1.417173 1.021893,-0.897241 1.602807,-2.080892 1.734605,-3.534403 0.226982,-2.503181 -0.750641,-4.505476 -2.665766,-5.459819 -1.095177,-0.545743 -1.10832,-0.546916 -6.141811,-0.546916 l -5.044283,0 0,8.924755 0,8.924755 1.867972,0 1.867974,0 0,-3.401994 z m 0,-8.832756 0,-2.479781 1.089646,-0.06269 c 0.599316,-0.03446 1.764707,-0.01616 2.58977,0.04098 1.288585,0.08919 1.581258,0.184924 2.075524,0.679266 0.474094,0.474154 0.575409,0.756676 0.575409,1.604539 0,1.908627 -1.434623,2.697455 -4.905811,2.697455 l -1.424538,0 0,-2.479787 z M 26.290525,97.41842 c -1.957684,-1.214204 -1.664904,-4.203793 0.502125,-5.127156 0.471454,-0.200878 1.632284,-0.284578 3.94675,-0.284578 3.889989,0 4.435112,0.178841 5.205177,1.707674 0.612172,1.215365 0.460695,2.215541 -0.493291,3.257222 l -0.680268,0.742793 -3.908021,0.05817 c -3.595317,0.05335 -3.961163,0.02519 -4.572472,-0.354037 z m 89.064925,0.198648 c -0.66951,-0.270837 -1.47299,-1.34993 -1.63056,-2.189774 -0.19663,-1.047648 0.55256,-2.527659 1.54048,-3.043184 1.04878,-0.547339 7.01154,-0.557565 8.09361,-0.01378 1.5305,0.768944 2.12342,2.720977 1.25789,4.140647 -0.72017,1.181123 -1.23706,1.308791 -5.23885,1.294128 -1.97478,-0.0068 -3.78495,-0.09172 -4.02257,-0.18793 z M 26.647808,84.378792 c -2.04621,-1.028044 -2.231665,-4.0561 -0.320768,-5.237105 0.610896,-0.377547 1.029008,-0.4183 4.284622,-0.417598 4.211899,8.29e-4 4.682126,0.155826 5.400223,1.779191 0.657325,1.486005 0.146336,3.000916 -1.283246,3.804385 -0.694735,0.390466 -1.10819,0.434635 -4.065959,0.434345 -2.720451,-2.05e-4 -3.4181,-0.0633 -4.014872,-0.363218 z m 88.620712,-0.04135 c -1.96263,-1.044572 -2.0606,-4.039854 -0.16981,-5.192635 0.62142,-0.378839 1.04119,-0.419938 4.29646,-0.420634 3.25551,-6.23e-4 3.67369,0.04005 4.28454,0.417596 1.9109,1.181008 1.72547,4.209062 -0.32073,5.237107 -1.09031,0.547792 -7.04063,0.517315 -8.09047,-0.04135 z M 26.332331,70.838908 c -1.914251,-1.259801 -1.736635,-4.211961 0.315477,-5.24297 1.017751,-0.511337 6.942791,-0.533634 8.003873,-0.03011 1.403596,0.666053 2.015726,2.423708 1.360204,3.905628 -0.719136,1.625714 -1.185387,1.778515 -5.424727,1.777825 -3.267214,-6.23e-4 -3.694736,-0.04169 -4.254827,-0.410369 z m 88.766379,-0.0084 c -0.88436,-0.539264 -1.57639,-2.025729 -1.37863,-2.961554 0.21703,-1.02712 0.86252,-1.936034 1.63506,-2.302629 0.55343,-0.26267 1.4007,-0.333356 3.99209,-0.333102 3.72452,4.12e-4 4.36485,0.178417 5.22362,1.452546 0.89683,1.330486 0.39645,3.384541 -1.03218,4.237306 -0.44631,0.266376 -1.23488,0.328702 -4.15108,0.328072 -3.24765,-6.23e-4 -3.6676,-0.04184 -4.28888,-0.420639 z M 26.647808,57.604524 c -1.530492,-0.768944 -2.123488,-2.720976 -1.257866,-4.140648 0.747743,-1.22633 1.245349,-1.340249 5.539178,-1.26808 l 3.841918,0.06452 0.680258,0.742799 c 0.953976,1.041685 1.105449,2.041864 0.493281,3.257222 -0.772007,1.532687 -1.310307,1.707736 -5.250406,1.707354 -2.750443,-2.09e-4 -3.448725,-0.0629 -4.046363,-0.363219 z m 88.617562,-0.01378 c -0.46524,-0.242762 -0.89444,-0.717374 -1.20314,-1.330247 -0.64305,-1.276552 -0.46798,-2.262348 0.59029,-3.325476 l 0.77473,-0.778324 3.77068,0 c 4.19512,0 4.69536,0.120683 5.41894,1.307284 0.86553,1.419672 0.27261,3.371705 -1.25789,4.140651 -1.08207,0.543681 -7.04483,0.533448 -8.09361,-0.01378 z M 53.266354,36.085731 c -0.36875,-0.166266 -0.858743,-0.611134 -1.088875,-0.988589 -0.378603,-0.620986 -0.418415,-1.04175 -0.418415,-4.422232 0,-3.38183 0.03972,-3.801065 0.418871,-4.422975 0.766116,-1.256576 2.519534,-1.636804 3.751821,-0.813586 1.252952,0.837025 1.431029,1.488666 1.431029,5.236561 0,3.628198 -0.175178,4.340951 -1.262642,5.137374 -0.716655,0.524855 -1.999492,0.64873 -2.831789,0.273447 z m 13.449692,-0.06674 c -1.439915,-0.734231 -1.563662,-1.117754 -1.637287,-5.074271 -0.0713,-3.835849 0.01855,-4.310909 0.991797,-5.243404 1.16242,-1.113667 3.312941,-0.828643 4.153811,0.550544 0.378804,0.621319 0.418943,1.042024 0.419644,4.398479 8.31e-4,4.179897 -0.160063,4.744595 -1.538618,5.398765 -0.902575,0.4283 -1.505239,0.420705 -2.389347,-0.03011 z m 13.293821,0.01978 c -1.33955,-0.681148 -1.47644,-1.174308 -1.477308,-5.322333 -8.3e-4,-4.112176 0.123651,-4.621349 1.306504,-5.342574 1.364632,-0.832065 3.173776,-0.253475 3.933096,1.257855 0.300279,0.597661 0.362899,1.295332 0.362899,4.043135 0,2.751859 -0.06211,3.442782 -0.362899,4.032521 -0.731762,1.435078 -2.398467,2.024887 -3.762292,1.331396 z m 13.272895,-0.01978 c -1.439915,-0.734231 -1.563661,-1.117754 -1.637286,-5.074271 -0.0713,-3.835849 0.01855,-4.310909 0.991798,-5.243404 1.162418,-1.113667 3.312941,-0.828643 4.15381,0.550544 0.3788,0.621319 0.41894,1.042024 0.41964,4.398479 8.3e-4,4.179897 -0.16006,4.744595 -1.538613,5.398765 -0.902572,0.4283 -1.505241,0.420705 -2.389349,-0.03011 z"
       id="path3048"
       inkscape:connector-curvature="0" />
  </g>
  <g
     inkscape:groupmode="layer"
     id="layer3"
     inkscape:label="fairphone"
     style="display:none"
     sodipodi:insensitive="true">
    <path
       style="fill:#ffffff;fill-opacity:1"
       d="m 36.940336,124.8716 c 0,-0.28023 3.682844,-8.999 3.939448,-9.32626 0.187759,-0.23947 0.084,-0.38095 -0.328398,-0.44776 -0.595479,-0.0965 -0.596133,-0.1127 -0.05316,-1.31909 l 0.54973,-1.22142 2.768167,-0.19648 c 1.522492,-0.10806 3.481032,-0.19648 4.352319,-0.19648 l 1.584151,0 -0.663194,1.26866 -0.663193,1.26865 -2.181718,0.0881 c -2.172248,0.0877 -2.183572,0.0926 -2.608605,1.10982 -0.23479,0.56193 -0.427172,1.05958 -0.427518,1.1059 -2.98e-4,0.0463 0.872791,0.0392 1.940298,-0.0158 1.067509,-0.0551 1.940922,-0.0162 1.940922,0.0865 0,0.10264 -0.271387,0.71858 -0.603079,1.36876 -0.582243,1.14129 -0.655121,1.18213 -2.109178,1.18213 -0.828347,0 -1.74243,0.12648 -2.031292,0.28108 -0.440925,0.23598 -1.58585,2.57982 -2.232202,4.56966 C 39.982015,124.88342 39.608985,125 38.442246,125 c -0.826047,0 -1.501904,-0.0577 -1.501904,-0.1283 z m 30.659374,-4.68382 c 1.566605,-3.35892 2.138746,-4.87741 1.894578,-5.02831 -0.367745,-0.22728 -0.159999,-1.66257 0.331436,-2.28986 0.431394,-0.55066 3.92627,-0.78943 5.837668,-0.39884 2.795907,0.57134 3.362081,1.5524 2.198583,3.80969 -1.076463,2.08843 -3.208304,3.67252 -6.26814,4.65763 -1.902778,0.6126 -1.975074,0.67368 -2.776062,2.3454 -0.817797,1.70679 -0.829803,1.71641 -2.142422,1.71641 l -1.32002,0 2.244379,-4.81212 z m 5.805515,-2.3177 c 1.486396,-0.94265 1.942058,-1.88323 1.248372,-2.57691 -0.485555,-0.48556 -2.637891,-0.62574 -2.345579,-0.15278 0.09848,0.15936 -0.03088,0.69576 -0.287508,1.192 -0.973853,1.88323 -1.082271,2.39886 -0.504398,2.39886 0.292152,0 1.142251,-0.38753 1.889113,-0.86117 z m -27.180841,3.62236 c 1.058709,-1.75305 2.596612,-4.19901 4.206372,-6.69003 l 1.47795,-2.28705 1.617175,-0.101 c 1.32624,-0.0828 1.593712,-0.0204 1.486756,0.34675 -0.388795,1.33484 -1.042175,4.28578 -1.354912,6.1194 -0.19602,1.14925 -0.413312,2.39179 -0.482882,2.76119 -0.10668,0.56641 -0.317768,0.67164 -1.347196,0.67164 -1.153025,0 -1.210319,-0.0414 -1.033401,-0.74626 0.173019,-0.68935 0.107759,-0.74627 -0.855496,-0.74627 -0.856749,0 -1.125416,0.15978 -1.505888,0.89552 -0.399066,0.77171 -0.630483,0.89552 -1.6738,0.89552 l -1.210711,0 0.676033,-1.1194 z m 5.409971,-3.77639 c 0.1324,-0.64045 0.19112,-1.21408 0.13046,-1.27473 -0.11902,-0.11902 -1.690169,2.16176 -1.690169,2.45355 0,0.097 0.296766,0.13348 0.659486,0.081 0.498777,-0.0721 0.718145,-0.37915 0.900217,-1.25985 z m 2.895761,2.58236 c 0.472097,-1.27238 1.382054,-3.52238 2.022126,-4.99999 l 1.163769,-2.68657 1.253942,-0.0918 c 0.689668,-0.0505 1.253941,-0.0391 1.253941,0.0253 0,0.0644 -0.450868,1.046 -1.00193,2.18134 -0.551063,1.13535 -1.452658,3.25378 -2.003544,4.70764 -1.017141,2.68436 -1.479116,3.17752 -2.976595,3.17752 -0.536291,0 -0.519211,-0.13708 0.28829,-2.31343 z m 3.007215,2.00925 c 0,-0.1673 0.804141,-1.94035 1.786986,-3.94011 1.046231,-2.12874 1.663446,-3.71228 1.488958,-3.82012 -0.19678,-0.12162 -0.188859,-0.49734 0.02332,-1.10598 0.287732,-0.82538 0.467634,-0.93377 1.719993,-1.03624 1.796696,-0.14702 4.440571,0.20611 4.996298,0.66732 1.125943,0.93445 -0.225983,3.73331 -2.449702,5.07156 -0.631369,0.37996 -1.190897,0.72166 -1.243395,0.75932 -0.0525,0.0377 0.18258,0.61347 0.522388,1.27956 0.797995,1.5642 0.781031,1.72821 -0.203058,1.96293 -0.451492,0.10768 -1.055969,0.26562 -1.343281,0.35098 -0.393117,0.11678 -0.522387,-0.018 -0.522387,-0.54477 0,-0.74284 -0.753452,-2.02683 -1.189361,-2.02683 -0.143,0 -0.491419,0.52457 -0.774291,1.16571 -0.387976,0.87936 -0.732403,1.20932 -1.402193,1.34328 -1.215167,0.24303 -1.41027,0.22551 -1.41027,-0.1266 z m 5.911044,-5.18764 c 1.964396,-1.01583 2.384267,-2.56787 0.694683,-2.56787 -0.677049,0 -0.949835,0.1862 -1.202563,0.8209 -0.17978,0.45149 -0.457249,1.12313 -0.616597,1.49253 -0.342698,0.79445 -0.0485,0.86102 1.124477,0.25444 z m 30.506826,5.20143 c 0,-0.19802 0.67164,-1.98735 1.49254,-3.97629 0.82089,-1.98894 1.49253,-3.85479 1.49253,-4.14633 0,-0.49447 2.2716,-1.95219 2.57279,-1.651 0.0698,0.0698 0.31644,1.03285 0.548109,2.14015 0.48587,2.3222 0.62278,2.56004 0.92282,1.60308 0.1197,-0.38178 0.54445,-1.41153 0.9439,-2.28836 0.67053,-1.47187 0.78765,-1.57906 1.52604,-1.39678 0.43987,0.10858 0.90164,0.29651 1.02614,0.4176 0.1245,0.1211 -0.29227,1.42129 -0.92617,2.88933 -0.6339,1.46803 -1.3878,3.38395 -1.67534,4.2576 -0.28754,0.87365 -0.67673,1.63481 -0.86487,1.69148 -1.931219,0.58169 -1.947589,0.57287 -2.477919,-1.33462 -0.27464,-0.98783 -0.57875,-1.79606 -0.67581,-1.79606 -0.0971,0 -0.48898,0.80597 -0.87095,1.79104 -0.46159,1.19042 -0.8615,1.79241 -1.19251,1.79512 -0.27391,0.002 -0.80025,0.0851 -1.16966,0.18408 -0.42475,0.11382 -0.67164,0.0477 -0.67164,-0.18004 z m 8.955219,0.16852 c 0,-0.21528 2.12982,-5.59237 2.70919,-6.8398 0.29779,-0.64117 0.307,-0.8943 0.0386,-1.06018 -0.27061,-0.16724 -0.2688,-0.4399 0.008,-1.17265 0.31141,-0.82504 0.50355,-0.95498 1.41433,-0.95653 0.57968,-9e-4 2.17095,-0.0887 3.53616,-0.195 l 2.48221,-0.19322 -0.41432,1.0159 c -0.38707,0.94907 -0.53071,1.03046 -2.1837,1.2373 -1.62829,0.20375 -2.51565,0.7249 -2.51565,1.47744 0,0.1328 0.66466,0.24145 1.47701,0.24145 l 1.47701,0 -0.32046,0.91928 c -0.35488,1.01799 -0.40912,1.04799 -2.36719,1.30916 -1.08414,0.1446 -1.44764,0.34195 -1.71642,0.93185 -0.18754,0.41162 -0.34099,0.7965 -0.34099,0.8553 0,0.0588 0.80597,0.0338 1.79104,-0.0555 0.98508,-0.0893 1.79104,-0.093 1.79104,-0.008 0,0.0848 -0.20329,0.64081 -0.45176,1.23549 l -0.45177,1.08123 -2.50889,0 c -1.37989,0 -2.72137,0.0815 -2.98107,0.1812 -0.25969,0.0997 -0.47217,0.0976 -0.47217,-0.005 z m -25.249068,-3.23633 c 3.051805,-7.21171 2.798199,-6.79104 4.094079,-6.79104 0.63525,0 1.15501,0.10918 1.15501,0.24264 0,0.13346 -0.33582,0.93877 -0.74627,1.78958 -0.41045,0.85082 -0.74627,1.61476 -0.74627,1.69766 0,0.0829 0.47721,0.15072 1.06047,0.15072 1.02266,0 1.09452,-0.0744 2.01493,-2.08512 0.93318,-2.03865 0.9794,-2.08521 2.07385,-2.08955 0.61567,-0.002 1.1194,0.0567 1.1194,0.13144 0,0.0747 -0.51624,1.31726 -1.14719,2.76119 -0.63096,1.44393 -1.51583,3.59921 -1.9664,4.78951 l -0.8192,2.16417 -1.14709,0 -1.14709,0 0.30637,-0.97014 c 0.71938,-2.27795 0.71266,-2.31345 -0.43813,-2.31345 -1.013524,0 -1.082635,0.0707 -1.749699,1.79104 l -0.694491,1.79105 -1.258533,0 -1.258533,0 1.294787,-3.0597 z m 8.990049,2.47331 c -0.42235,-0.46668 -0.50408,-0.95411 -0.40038,-2.38771 0.10786,-1.49111 0.33265,-2.09507 1.3053,-3.50701 1.96906,-2.85836 5.37303,-4.40897 7.13885,-3.25196 0.74337,0.48708 1.08527,1.97188 0.45406,1.97188 -0.16418,0 -0.29851,0.54267 -0.29851,1.20592 0,2.14034 -1.93609,4.79323 -4.44495,6.09062 -1.27861,0.6612 -3.09925,0.60216 -3.75437,-0.12174 z m 3.70772,-1.94369 c 1.01446,-0.52459 2.10355,-2.17707 2.10355,-3.19172 0,-0.39928 0.16678,-0.89275 0.370639,-1.0966 0.29518,-0.29518 0.27998,-0.42795 -0.0746,-0.65214 -0.73882,-0.4671 -1.39624,-0.33104 -2.37338,0.49118 -1.49022,1.25393 -2.3303,3.49698 -1.69482,4.52521 0.29372,0.47526 0.63259,0.45983 1.66864,-0.0759 z m -53.717292,-56.571856 0,-38.211404 38.35817,0 38.358171,0 0,20.596994 0,20.596995 -3.8253,0 -3.82529,0 -3.04458,-9.32835 c -7.134299,-21.85894 -8.955449,-27.213802 -9.111479,-26.791017 -0.25038,0.678444 -2.3581,7.078148 -7.34813,22.311256 l -4.52182,13.8038 -19.377573,0.07678 -19.377574,0.07678 5.141274,3.710132 c 2.827705,2.040574 7.760678,5.594602 10.962169,7.897841 15.120757,10.878302 15.171193,10.917 15.013623,11.519547 -0.08258,0.315824 -0.985053,3.099535 -2.005476,6.186021 l -1.855314,5.611801 -16.770433,0.0771 -16.770437,0.0771 0,-38.211402 z"
       id="path3849"
       inkscape:connector-curvature="0" />
  </g>
  <g
     inkscape:groupmode="layer"
     id="layer5"
     inkscape:label="kodi"
     sodipodi:insensitive="true"
     style="display:none">
    <path
       style="fill:#ffffff;fill-opacity:1"
       d="m 64.784878,115.86396 c -8.340586,-8.34842 -9.055991,-9.1922 -9.055991,-10.68103 0,-1.49068 0.707364,-2.32068 9.086439,-10.661711 8.166688,-8.12962 9.241289,-9.0452 10.616243,-9.0452 1.370609,0 2.426746,0.88907 10.148783,8.54339 4.740437,4.69886 8.863308,9.133261 9.161934,9.854201 0.298628,0.72095 0.424674,1.77931 0.280104,2.35191 -0.144571,0.57259 -4.257142,5.01501 -9.139049,9.87201 -8.089301,8.04804 -9.016548,8.83092 -10.459332,8.83092 -1.446055,0 -2.367283,-0.78489 -10.639131,-9.06449 z M 103.20942,94.273809 c -0.75694,-0.47936 -5.040507,-4.62982 -9.519045,-9.22325 -7.041711,-7.22234 -8.142797,-8.54605 -8.142797,-9.78907 0,-1.25561 1.154305,-2.59577 9.127612,-10.59723 8.07663,-8.10515 9.29699,-9.15983 10.5986,-9.15983 1.30161,0 2.52197,1.05468 10.5986,9.15983 8.27656,8.30579 9.12761,9.30519 9.12761,10.71872 0,1.4122 -0.83098,2.39167 -8.83092,10.40902 -9.57151,9.59232 -10.37536,10.11841 -12.95966,8.48181 z m -69.619705,-9.14625 c -6.584897,-6.59176 -8.595306,-8.87336 -8.589703,-9.74843 0.0055,-0.85652 2.100822,-3.2952 8.372172,-9.74404 4.600671,-4.73086 8.704035,-8.60156 9.118585,-8.60154 0.414552,2e-5 0.879035,0.32657 1.032186,0.72568 0.153151,0.3991 0.278456,8.25728 0.278456,17.46262 0,15.75384 -0.191023,18.51166 -1.282229,18.51166 -0.182847,0 -4.201106,-3.87268 -8.929467,-8.60595 z m 23.061767,-2.39451 c -0.334437,-0.6249 -0.450882,-7.24144 -0.363325,-20.64499 l 0.128858,-19.72535 8.028109,-8.06368 c 8.263952,-8.30055 9.942079,-9.63304 11.506414,-9.13655 0.500133,0.15874 4.928213,4.34922 9.840177,9.31219 8.155503,8.24018 8.930849,9.16189 8.930849,10.61682 0,1.48485 -1.225021,2.82125 -18.005902,19.64325 -9.903246,9.9275 -18.358501,18.24529 -18.78945,18.48398 -0.592901,0.32838 -0.903305,0.21022 -1.275726,-0.48567 z"
       id="path3882"
       inkscape:connector-curvature="0" />
  </g>
  <g
     inkscape:groupmode="layer"
     id="layer6"
     inkscape:label="security"
     sodipodi:insensitive="true"
     style="display:none">
    <path
       style="fill:#ffffff;fill-opacity:1"
       d="m 64.97532,124.79722 c -8.94308,-0.53442 -16.206091,-1.75406 -19.257081,-3.23374 -4.03586,-1.95732 -0.98507,-4.02437 8.061931,-5.46232 1.787896,-0.28418 4.650118,-0.62832 6.360494,-0.76477 1.710378,-0.13646 3.425106,-0.29332 3.810509,-0.3486 l 0.700732,-0.10051 0,-3.54779 0,-3.5478 10.349278,0 10.349278,0 0,3.53242 c 0,3.99801 -0.104231,3.789 1.892719,3.79538 1.529619,0.005 7.107935,0.63006 9.750218,1.09273 3.431382,0.60085 6.331652,1.39624 7.591512,2.08195 5.08456,2.76736 -3.68903,5.58642 -20.312499,6.52665 -4.401684,0.24896 -14.952046,0.23606 -19.297091,-0.0236 z M 34.447499,104.03048 c -2.61249,-0.72068 -5.48838,-3.05098 -6.63542,-5.376596 -1.14686,-2.32525 -1.10221,-0.95915 -1.10497,-33.81186 -0.002,-21.82371 0.0668,-30.87851 0.24006,-31.69466 0.78927,-3.71689 4.20668,-7.13577 7.90727,-7.91064 0.81302,-0.17024 12.44236,-0.23851 40.319064,-0.23669 42.154817,0.003 40.066827,-0.0511 42.463267,1.09495 1.31089,0.62689 3.89825,3.22841 4.55596,4.58088 1.145,2.35447 1.09996,0.96276 1.09996,33.99384 0,25.29174 -0.0521,30.92006 -0.2946,31.83085 -0.95369,3.581646 -3.96402,6.583166 -7.57004,7.547856 -1.54429,0.41313 -79.480491,0.39587 -80.980551,-0.0179 z M 77.45598,97.198834 c 1.159242,-0.52818 1.232135,-2.31413 0.117967,-2.89029 -0.710461,-0.36739 -4.162189,-0.43869 -5.042108,-0.10414 -1.136135,0.43196 -1.209904,2.40636 -0.11069,2.96259 0.670329,0.33919 4.309743,0.36222 5.034831,0.0318 z m 35.49255,-35.97889 0,-25.87319 -37.947347,0 -37.947354,0 0,25.87319 0,25.8732 37.947354,0 37.947347,0 0,-25.8732 z m -41.073691,15.12109 c -3.044268,-0.87564 -5.238984,-2.56911 -6.409198,-4.94543 l -0.705931,-1.43352 0,-4.13932 c 0,-4.54563 0.03861,-4.69584 1.484501,-5.77535 0.576832,-0.43067 0.85015,-0.44454 8.756972,-0.44454 7.906822,0 8.18014,0.0139 8.756972,0.44454 1.446092,1.07966 1.484501,1.22907 1.484501,5.77459 l 0,4.13921 -0.698853,1.41957 c -0.885292,1.79829 -2.39042,3.22195 -4.4262,4.18662 -2.593301,1.22887 -5.659563,1.51666 -8.242764,0.77363 z m -3.737823,-22.07451 c 0.06617,-3.19981 0.118219,-3.59666 0.600181,-4.57609 2.542461,-5.16668 9.811475,-5.2985 12.408294,-0.225 0.629001,1.2289 0.649465,1.36492 0.719859,4.7848 l 0.07245,3.51995 -1.743431,0 -1.743431,0 0,-2.93205 c 0,-3.33405 -0.207787,-4.04187 -1.468924,-5.00378 -1.087518,-0.82949 -2.874152,-0.82949 -3.961669,0 -1.261138,0.96191 -1.468925,1.66973 -1.468925,5.00378 l 0,2.93205 -1.743431,0 -1.743431,0 0.07245,-3.50366 z"
       id="path3915"
       inkscape:connector-curvature="0" />
  </g>
  <g
     inkscape:groupmode="layer"
     id="layer7"
     inkscape:label="audio"
     style="display:none"
     sodipodi:insensitive="true">
    <path
       style="fill:#ffffff;fill-opacity:1"
       d="m 48.153903,117.36838 c -4.638525,-4.17695 -8.656657,-8.1519 -8.929182,-8.83322 -0.272525,-0.68132 -0.363203,-17.039139 -0.201508,-36.350699 0.237452,-28.359206 0.444606,-35.261499 1.077133,-35.889573 0.430728,-0.427695 4.447431,-3.142945 8.926008,-6.03389 5.216029,-3.366972 8.71998,-5.25796 9.748482,-5.260986 3.698204,-0.01088 50.773694,5.937356 51.453324,6.501398 1.14708,0.95199 1.08308,84.96654 -0.0654,85.91973 -0.82179,0.68204 -48.351541,7.64542 -51.727416,7.57838 -1.528405,-0.0304 -3.30512,-1.34909 -10.281387,-7.63114 z m 42.877683,-0.77127 c 11.035754,-3.27727 18.281134,-15.88619 16.373674,-28.494609 -1.26892,-8.38765 -6.72524,-16.08513 -13.727937,-19.36663 -2.908014,-1.36271 -4.091186,-1.57217 -8.880522,-1.57217 -4.789337,0 -5.972513,0.20946 -8.880523,1.57217 -9.611496,4.504 -15.552566,16.44377 -13.782592,27.69888 2.328278,14.805329 15.6465,24.097599 28.8979,20.162359 z m -11.283915,-5.98233 c -4.532232,-1.61941 -7.949653,-4.73275 -10.189785,-9.28311 -1.741323,-3.537109 -1.919268,-4.385059 -1.919268,-9.145509 0,-4.46009 0.230961,-5.73956 1.540142,-8.53197 3.20665,-6.83962 8.83462,-10.59712 15.908858,-10.62155 6.927792,-0.0239 12.702901,3.85588 15.938392,10.70761 1.27753,2.7054 1.51061,4.00667 1.51061,8.43368 0,4.44686 -0.2318,5.72911 -1.54015,8.519739 -3.994796,8.52069 -13.173783,12.80637 -21.248799,9.92111 z m 6.519464,-14.191839 c 1.666959,-0.75951 3.182728,-3.1986 3.182728,-5.12146 0,-3.51094 -3.578545,-6.4172 -6.523136,-5.29768 -4.340717,1.65034 -4.509961,8.8177 -0.248816,10.53728 1.691034,0.68242 1.843201,0.67741 3.589224,-0.11814 z m 2.484571,-39.67671 c 7.297338,-3.812309 8.713584,-14.574106 2.661811,-20.226683 -5.298929,-4.949392 -13.900673,-3.249024 -17.133146,3.386832 -4.034156,8.281612 1.162522,17.62394 9.818272,17.650805 1.695349,0.0052 3.789231,-0.359671 4.653063,-0.810954 z m -8.250337,-4.465536 c -7.118342,-5.599284 -1.292791,-17.709903 6.564475,-13.646752 6.529084,3.376321 4.352177,14.861377 -2.816866,14.861377 -1.353816,0 -2.798884,-0.468354 -3.747609,-1.214625 z"
       id="path3948"
       inkscape:connector-curvature="0" />
  </g>
  <g
     inkscape:groupmode="layer"
     id="layer8"
     inkscape:label="music"
     sodipodi:insensitive="true"
     style="display:none">
    <path
       style="fill:#ffffff;fill-opacity:1"
       d="m 67.50348,124.65646 c -10.33092,-1.39528 -20.163299,-6.2238 -27.449532,-13.48 -4.27645,-4.25882 -6.88153,-7.88573 -9.53931,-13.281048 -2.57555,-5.22839 -3.96987,-9.98533 -4.66868,-15.92793 -0.37083,-3.15352 -0.16141,-10.38219 0.38898,-13.42627 3.42812,-18.96025 17.41702,-34.00885 35.952225,-38.67569 7.375751,-1.85708 16.030261,-1.85708 23.406012,0 4.291335,1.08049 10.679542,3.63552 11.453619,4.58101 0.235725,0.28793 0.295733,1.69099 0.245642,5.74332 l -0.06629,5.36232 -1.487243,0.51197 c -2.10046,0.72307 -3.505725,1.60677 -4.863668,3.05852 -5.700106,6.09388 -2.191185,16.00891 6.187869,17.48485 5.280336,0.93011 10.714146,-2.88797 11.843486,-8.32185 0.14741,-0.70929 0.34904,-1.28962 0.44806,-1.28962 0.099,0 0.56097,0.39307 1.02656,0.87348 1.93187,1.9934 4.50338,3.05679 7.39198,3.05679 1.99842,0 1.89582,-0.13274 2.89614,3.74688 2.4004,9.30968 1.90032,19.84771 -1.35807,28.61816 -6.31973,17.010488 -21.359797,29.036468 -39.231218,31.369118 -3.480573,0.4543 -9.196648,0.45248 -12.576565,-0.004 z m 13.878767,-10.41791 c 7.58199,-1.54818 13.750829,-4.90261 19.422033,-10.56113 6.84919,-6.833878 10.58785,-15.104558 11.18137,-24.735458 0.1678,-2.7229 0.1647,-2.74532 -0.46756,-3.37758 -0.7667,-0.7667 -1.92734,-0.84181 -2.60083,-0.16832 -0.34634,0.34634 -0.50736,0.96954 -0.61882,2.395 -0.70603,9.02898 -3.45233,15.9302 -8.6426,21.71811 -6.276541,6.999258 -13.758977,10.707058 -23.426067,11.608388 -2.90359,0.27072 -3.571434,0.40692 -3.847668,0.78469 -0.50659,0.6928 -0.406496,1.85012 0.218444,2.52574 0.539179,0.58291 0.621774,0.59434 3.377576,0.46737 1.553685,-0.0716 3.98554,-0.36715 5.404122,-0.65681 z M 95.791726,96.482972 c 4.335364,-4.53297 7.110224,-10.8354 7.666344,-17.41226 0.29728,-3.51576 -0.0804,-4.38845 -1.89921,-4.38845 -1.23798,0 -1.653787,0.82055 -1.828296,3.60799 -0.354154,5.65694 -2.478219,10.7058 -6.521212,15.50079 -0.902744,1.07066 -1.510145,2.02064 -1.510145,2.36188 0,0.94321 0.900299,1.86532 1.821206,1.86532 0.664609,0 1.056012,-0.26457 2.271313,-1.53527 z m -18.393687,-2.50648 c 6.278432,-1.32071 11.0874,-5.60916 13.234652,-11.80216 0.62013,-1.78854 0.680909,-2.27416 0.676387,-5.40412 -0.0044,-3.0411 -0.07882,-3.66004 -0.643267,-5.3496 -0.903881,-2.7056 -2.450182,-5.1835 -4.479415,-7.17814 -2.055939,-2.02088 -4.173066,-3.32141 -6.892105,-4.23375 -1.759656,-0.59043 -2.324723,-0.65938 -5.404122,-0.65938 -3.079399,0 -3.644466,0.069 -5.404122,0.65938 -6.933552,2.32647 -11.70121,8.50322 -12.096193,15.67126 -0.294318,5.34127 1.490207,9.95925 5.282372,13.66969 4.171152,4.08126 10.069507,5.81666 15.725813,4.62682 z M 72.61909,79.494022 c -2.182115,-0.98194 -2.327668,-4.04754 -0.252257,-5.31299 1.444716,-0.8809 3.203448,-0.42509 4.11252,1.06585 0.570085,0.93497 0.60323,1.61585 0.133395,2.74032 -0.622857,1.49071 -2.475822,2.18984 -3.993658,1.50682 z m -33.964092,-1.33508 c 0.4969,-0.40236 0.58015,-0.756 0.73732,-3.13193 0.53484,-8.08512 3.57449,-15.57014 8.519417,-20.97867 1.742434,-1.9058 2.110261,-2.54101 1.890082,-3.26404 -0.293999,-0.96543 -0.869579,-1.40316 -1.845041,-1.40316 -0.833617,0 -1.085543,0.17524 -2.560188,1.7809 -5.53824,6.03027 -9.07556,14.30714 -9.68133,22.65303 -0.20954,2.88691 -0.0609,3.9142 0.64387,4.44875 0.62263,0.47228 1.64053,0.42578 2.29587,-0.10488 z m 8.471369,-0.395 c 0.452295,-0.45229 0.603301,-0.86656 0.604389,-1.65808 0.0025,-1.8153 0.696321,-5.76471 1.360147,-7.74221 3.189087,-9.50013 11.091608,-16.14204 20.991817,-17.6432 1.283479,-0.19462 2.808411,-0.3545 3.38874,-0.35529 1.993116,-0.003 2.932589,-1.80864 1.622458,-3.11877 -0.626385,-0.62638 -0.686125,-0.6358 -3.131935,-0.49359 -12.246963,0.71209 -22.683801,8.81315 -26.528635,20.5915 -0.76782,2.35212 -1.38867,5.98664 -1.38867,8.12933 0,1.46401 0.0798,1.76719 0.60294,2.29031 0.33162,0.33162 0.88934,0.60294 1.23937,0.60294 0.350045,0 0.907762,-0.27132 1.239379,-0.60294 z m 50.099782,-15.08938 c -3.29673,-0.84962 -5.606363,-4.02539 -5.184164,-7.12827 0.245188,-1.80196 1.271833,-3.62779 2.569717,-4.5701 1.471667,-1.06849 2.786601,-1.42361 4.867362,-1.31452 l 1.677356,0.0879 0.12282,-9.18667 0.12282,-9.18667 10.93107,-3.15126 c 6.01208,-1.7332 11.15214,-3.18141 11.42234,-3.21825 0.48539,-0.0662 0.49209,0.0937 0.55847,13.3205 0.075,14.95415 0.11056,14.5954 -1.63717,16.53429 -2.31689,2.57029 -6.32258,2.87263 -9.0839,0.68562 -2.27471,-1.8016 -2.99265,-5.2415 -1.66172,-7.96184 1.40979,-2.8815 3.64595,-3.89989 7.77123,-3.53918 l 0.61411,0.0537 0.0667,-4.89522 c 0.0367,-2.69237 -0.0326,-4.99453 -0.15395,-5.11592 -0.20269,-0.20268 -13.63507,3.46031 -14.52849,3.9619 -0.31478,0.17672 -0.38636,1.65263 -0.49129,10.12885 -0.11867,9.58702 -0.14077,9.95515 -0.6547,10.90454 -0.68642,1.26806 -2.17851,2.70205 -3.29575,3.16743 -1.11411,0.46407 -3.075556,0.66987 -4.032909,0.42314 z"
       id="path3981"
       inkscape:connector-curvature="0" />
  </g>
  <g
     inkscape:groupmode="layer"
     id="layer9"
     inkscape:label="movies"
     sodipodi:insensitive="true"
     style="display:none">
    <path
       style="fill:#ffffff;fill-opacity:1"
       d="m 33.741952,119.23693 c -1.391775,-0.33523 -2.689181,-1.31352 -3.443302,-2.59635 l -0.719569,-1.22406 -0.07212,-19.491068 c -0.04309,-11.64664 0.02443,-19.49106 0.16777,-19.49106 0.131939,0 1.050351,0.47452 2.040915,1.0545 7.002441,4.09993 15.505004,4.49445 22.834919,1.05954 2.930577,-1.37332 5.005584,-2.88568 7.545965,-5.49987 l 2.066757,-2.1268 1.549764,0 1.549764,0 1.851812,1.77192 c 1.018497,0.97455 2.58051,2.28833 3.47114,2.91951 2.432829,1.72412 6.638946,3.64969 9.676319,4.42983 2.356293,0.60521 3.248215,0.69676 6.905849,0.70884 5.727337,0.0189 8.909345,-0.73815 13.968445,-3.32341 1.18562,-0.60586 2.22603,-1.03121 2.31202,-0.94522 0.086,0.086 0.15294,8.85095 0.14878,19.47769 -0.007,17.403618 -0.0505,19.406158 -0.43957,20.175988 -0.60954,1.20594 -1.38678,1.99818 -2.60187,2.65211 l -1.05002,0.56509 -33.469515,0.0407 c -18.408231,0.0224 -33.840644,-0.0487 -34.294253,-0.15792 z m 38.439606,-19.04575 c 5.225732,-2.743188 9.502149,-5.106478 9.503143,-5.251748 0.0018,-0.25907 -19.436319,-10.10485 -19.949558,-10.10485 -0.301945,0 -0.376336,20.010708 -0.07551,20.311528 0.102344,0.10234 0.373843,0.15156 0.603336,0.10938 0.229491,-0.0422 4.692856,-2.32113 9.918589,-5.06431 z m 44.411412,10.0234 c -4.11854,-2.19217 -7.63284,-4.08133 -7.80955,-4.19814 -0.24478,-0.1618 -0.3213,-2.79656 -0.3213,-11.064168 l 0,-10.8518 8.03617,-4.09266 c 4.41989,-2.25097 8.14091,-4.02793 8.26894,-3.94881 0.13189,0.0815 0.23277,8.38509 0.23277,19.16006 0,17.942298 -0.0259,19.015198 -0.45939,18.998728 -0.25266,-0.01 -3.8291,-1.81104 -7.94764,-4.00321 z M 86.852158,77.985372 c -5.81546,-0.61446 -10.769315,-3.11921 -14.898986,-7.53315 -4.314112,-4.61108 -6.279521,-9.70842 -6.279521,-16.28612 0,-3.90073 0.735327,-7.04362 2.443918,-10.44562 2.871416,-5.71733 7.655792,-9.86176 13.729931,-11.89343 11.494674,-3.84474 24.03637,1.61814 29.11278,12.68086 1.73043,3.77104 2.47999,8.57682 1.97026,12.63229 -1.62957,12.96504 -13.191481,22.20679 -26.078382,20.84517 z m 4.35863,-5.06248 c 2.452105,-1.04919 3.475719,-3.88 2.289244,-6.33093 -1.737041,-3.58825 -6.756633,-3.43937 -8.432529,0.2501 -0.592704,1.30484 -0.615747,2.22876 -0.08713,3.49391 1.05392,2.52239 3.757587,3.64497 6.230419,2.58692 z m -12.163689,-7.24392 c 2.505313,-1.27812 3.327828,-4.31313 1.827008,-6.7415 -1.844976,-2.98524 -6.677118,-2.67785 -8.127637,0.51702 -0.607872,1.33888 -0.64074,2.50894 -0.106398,3.7878 0.543896,1.30173 1.103585,1.88714 2.352541,2.46066 1.367843,0.62811 2.792788,0.61969 4.054486,-0.024 z m 24.505571,0.16303 c 2.69271,-1.12509 3.66331,-4.826 1.87914,-7.16517 -0.79726,-1.04527 -2.46517,-1.91886 -3.66359,-1.91886 -1.948029,0 -4.065331,1.70077 -4.602982,3.69745 -0.962623,3.57492 2.909052,6.83993 6.387432,5.38658 z m -12.395748,-9.60038 c 0.620136,-0.62013 0.767326,-0.99332 0.767326,-1.94546 0,-0.99331 -0.126706,-1.28475 -0.80766,-1.85774 -1.822818,-1.53379 -4.442459,-0.38659 -4.442459,1.94546 0,1.535 1.090061,2.62506 2.625059,2.62506 0.855182,0 1.255942,-0.16553 1.857734,-0.76732 z m -11.82845,-5.04419 c 2.543433,-1.42314 3.061767,-4.76321 1.100839,-7.09364 -2.537629,-3.0158 -7.750218,-1.32344 -8.131043,2.63988 -0.368501,3.83505 3.620049,6.36186 7.030204,4.45376 z m 24.993998,-0.10666 c 1.78306,-1.1746 2.52685,-3.69529 1.68495,-5.71025 -0.42233,-1.01078 -2.01312,-2.47232 -2.94572,-2.70639 -0.36613,-0.0919 -1.24494,-0.11142 -1.95291,-0.0434 -3.784274,0.36362 -5.422577,4.87373 -2.802975,7.71635 1.610291,1.74739 4.037585,2.04741 6.016655,0.74368 z m -12.975824,-6.78993 c 2.417115,-1.26276 3.308843,-3.93518 2.127424,-6.37566 -1.354953,-2.79896 -5.367617,-3.3787 -7.509303,-1.08493 -0.714339,0.76507 -1.390686,2.33938 -1.390686,3.23706 0,1.58064 1.303211,3.57745 2.756313,4.22329 1.0413,0.46281 3.130585,0.46293 4.016252,2.4e-4 z m -52.125849,33.17961 c -5.589968,-1.46466 -10.623567,-5.8973 -12.811573,-11.28201 -3.017426,-7.42594 -1.098453,-15.81029 4.886902,-21.35182 5.82629,-5.39425 14.602048,-6.5175 21.7729,-2.78681 8.194625,4.26331 12.22216,14.29263 9.227969,22.97937 -1.078663,3.12941 -2.201527,4.88976 -4.761028,7.46402 -2.569564,2.58438 -5.237428,4.13874 -8.563796,4.98948 -2.699858,0.69051 -7.090323,0.685 -9.751374,-0.0122 z m 6.32621,-3.50418 c 1.447481,-0.60479 2.276239,-1.83244 2.276239,-3.3718 0,-3.81775 -4.17258,-5.25632 -6.662633,-2.29706 -0.991947,1.17887 -0.981935,3.27422 0.02134,4.46655 1.216518,1.44574 2.762975,1.8717 4.365052,1.20231 z m -9.975227,-5.77513 c 0.471335,-0.19693 1.176305,-0.73757 1.566604,-1.20142 1.004051,-1.19324 1.014415,-3.28814 0.0221,-4.46744 -1.772322,-2.10628 -4.202775,-2.10628 -5.975099,0 -0.991946,1.17886 -0.981933,3.27422 0.02134,4.46654 1.216517,1.44575 2.762975,1.87171 4.36505,1.20232 z m 19.950453,0 c 0.471335,-0.19693 1.176305,-0.73757 1.566604,-1.20142 1.004052,-1.19324 1.014415,-3.28814 0.0221,-4.46744 -1.772322,-2.10628 -4.202775,-2.10628 -5.975097,0 -0.991947,1.17886 -0.981935,3.27422 0.02134,4.46654 1.216519,1.44575 2.762975,1.87171 4.365052,1.20232 z m -10.342821,-7.37615 c 0.807652,-0.41765 1.068798,-0.87847 1.068798,-1.88598 0,-1.54791 -1.462849,-2.5202 -2.897599,-1.92591 -1.735744,0.71897 -1.805883,2.97138 -0.12122,3.89282 0.708039,0.38726 1.074004,0.37208 1.950021,-0.0809 z m -9.449674,-4.20038 c 0.408769,-0.21138 1.065076,-0.76684 1.458459,-1.23435 0.638459,-0.75876 0.703424,-1.01344 0.605137,-2.37225 -0.08941,-1.2361 -0.25293,-1.6713 -0.869955,-2.31534 -1.621907,-1.6929 -4.05272,-1.62805 -5.613663,0.14976 -0.690294,0.7862 -0.811864,1.13419 -0.811864,2.32391 0,1.03657 0.147055,1.5862 0.567355,2.12052 1.254061,1.59428 3.1213,2.12579 4.664531,1.32775 z m 20.219096,-0.16542 c 1.301201,-0.73132 1.849638,-1.72569 1.849638,-3.35358 0,-1.11066 -0.133132,-1.48015 -0.811862,-2.25318 -1.629175,-1.85552 -4.109568,-1.84151 -5.754979,0.0325 -0.779787,0.88812 -0.832454,1.06705 -0.7302,2.48072 0.118097,1.63264 0.518295,2.29173 1.915669,3.15488 1.035712,0.63975 2.324112,0.61737 3.531734,-0.0614 z m -10.072566,-5.64708 c 1.250221,-0.59327 1.946978,-1.83582 1.946978,-3.47211 0,-1.1213 -0.131505,-1.48781 -0.811863,-2.2627 -1.616002,-1.84052 -4.110439,-1.84052 -5.726442,0 -0.68666,0.78207 -0.811862,1.1369 -0.811862,2.3009 0,2.9624 2.734516,4.70028 5.403189,3.43391 z"
       id="path4014"
       inkscape:connector-curvature="0" />
  </g>
  <g
     inkscape:groupmode="layer"
     id="layer10"
     inkscape:label="tv"
     style="display:none"
     sodipodi:insensitive="true">
    <path
       style="fill:#ffffff;fill-opacity:1"
       d="m 33.264937,124.62913 c -3.377668,-1.02744 -6.841372,-4.30744 -7.749494,-7.33848 -0.366936,-1.22472 -0.511493,-8.95187 -0.511493,-27.34137 l 0,-25.63416 1.12116,-2.24987 c 1.270532,-2.54963 2.99254,-4.16973 5.837831,-5.49238 1.864421,-0.86668 2.776911,-0.91644 19.245961,-1.04954 9.50881,-0.0769 17.288745,-0.26444 17.288745,-0.41686 0,-0.15242 -2.837964,-3.13791 -6.306586,-6.63443 -5.98993,-6.0381 -6.30589,-6.44302 -6.292755,-8.06441 0.01518,-1.87517 0.550691,-2.80878 2.077629,-3.62224 1.938518,-1.03273 3.185278,-0.21323 9.884486,6.49717 3.573899,3.57987 6.691757,6.50885 6.928576,6.50885 0.236819,0 6.020841,-5.57807 12.853384,-12.39571 C 99.500377,25.56358 100.13946,25 101.69867,25 c 2.23279,0 3.76862,1.53882 3.76862,3.77597 0,1.56632 -0.55786,2.20407 -12.286969,14.04649 L 80.89335,55.22812 98.508298,55.45096 c 19.719782,0.24947 19.199212,0.16995 22.791862,3.48154 1.31869,1.21553 2.2639,2.60593 2.86658,4.21673 0.87688,2.34367 0.89614,3.03522 0.77721,27.90412 l -0.12196,25.50088 -1.34141,2.39216 c -1.45774,2.5996 -4.30647,4.87449 -7.06275,5.64004 -1.8832,0.52305 -81.439454,0.5639 -83.152893,0.0427 z m 53.395939,-8.4647 c 6.292146,-1.53295 9.456382,-5.23358 10.637584,-12.44084 0.845735,-5.16037 0.658691,-23.71125 -0.282639,-28.03177 -1.573006,-7.2198 -4.30294,-9.97043 -11.269857,-11.35533 -4.341645,-0.86303 -24.33488,-1.28047 -33.341859,-0.69613 -9.249443,0.60007 -12.326917,1.48046 -15.18546,4.34421 -3.541573,3.54802 -4.516148,8.35179 -4.515231,22.25598 9.13e-4,13.8674 0.922843,18.5677 4.363357,22.24589 2.231745,2.38592 5.25994,3.60454 10.56127,4.25013 1.790062,0.21799 10.59422,0.35154 19.564795,0.29678 13.88518,-0.0848 16.779646,-0.21395 19.46804,-0.86892 z M 114.4686,101.13311 c 0.76445,-0.46611 1.72494,-1.3588 2.13441,-1.98373 0.94058,-1.43551 0.92507,-4.66253 -0.0294,-6.11926 -1.87574,-2.86274 -6.06832,-3.67882 -8.47893,-1.65042 -2.71491,2.28444 -3.26967,4.77606 -1.68941,7.58775 1.62161,2.88527 5.27423,3.86629 8.06335,2.16566 z m -0.29579,-15.18239 c 4.34733,-2.3245 4.18324,-8.5932 -0.27659,-10.56599 -5.66861,-2.5075 -10.86549,4.129 -7.04084,8.99125 1.81479,2.30714 4.76165,2.94131 7.31743,1.57474 z"
       id="path4047"
       inkscape:connector-curvature="0" />
  </g>
  <g
     inkscape:groupmode="layer"
     id="layer11"
     inkscape:label="pigs"
     sodipodi:insensitive="true"
     style="display:none">
    <path
       style="fill:#ffffff;fill-opacity:1"
       d="m 25,113.00441 0,-2.22222 50,0 50,0 0,2.22222 0,2.22222 -50,0 -50,0 0,-2.22222 z m 31.65772,0.20774 c 0.0805,0.13019 0.44734,0.2367 0.8153,0.2367 0.56667,0 0.65814,-0.0765 0.59799,-0.5 -0.0689,-0.48541 -0.14555,-0.5 -2.62657,-0.5 -2.48101,0 -2.55762,0.0146 -2.62656,0.5 -0.0595,0.41886 0.0325,0.5 0.56666,0.5 0.35073,0 0.76185,-0.12416 0.9136,-0.27592 0.20106,-0.20106 0.31863,-0.20803 0.43334,-0.0257 0.25097,0.39893 1.01379,0.4728 1.41312,0.13684 0.2482,-0.20881 0.41414,-0.23207 0.51312,-0.0719 z m 4.17561,-0.15736 c 0.25393,-0.22298 0.38889,-0.25051 0.38889,-0.0793 0,0.40334 1.07998,0.72158 1.91631,0.56469 0.4127,-0.0774 0.75036,-0.27374 0.75036,-0.43626 0,-0.51359 0.46893,-0.60939 0.59643,-0.12185 0.15788,0.60374 0.42898,0.59628 0.58915,-0.0162 0.1791,-0.68486 0.0474,-0.79625 -0.95744,-0.81012 -0.66273,-0.009 -0.97314,0.10761 -1.21889,0.45847 -0.29642,0.4232 -0.36964,0.43735 -0.72504,0.14011 -0.21743,-0.18184 -0.68803,-0.45589 -1.04579,-0.60898 -0.54437,-0.23296 -0.6802,-0.22522 -0.83281,0.0475 -0.10712,0.19141 -0.36591,0.27783 -0.62731,0.20947 -0.46444,-0.12145 -0.57789,0.2194 -0.30754,0.92392 0.157,0.40914 0.84244,0.28291 1.47368,-0.27139 z m 5.39825,0.37891 c 0.0807,-0.13055 0.28507,-0.18428 0.45418,-0.11938 0.26225,0.10063 0.75868,-0.45611 0.75868,-0.85086 0,-0.0691 -0.40313,-0.12572 -0.89586,-0.12572 -0.59132,0 -0.93934,0.11331 -1.02377,0.33333 -0.26251,0.68408 0.34812,1.34295 0.70677,0.76263 z m 3.43509,-0.67674 c 0,-0.62318 -0.48077,-0.89979 -0.76489,-0.44008 -0.0684,0.11075 -0.32434,0.14908 -0.56867,0.0852 -0.4848,-0.12678 -0.57165,0.17124 -0.23385,0.80242 0.1524,0.28475 0.39738,0.36564 0.88889,0.2935 0.57683,-0.0847 0.67852,-0.19571 0.67852,-0.74103 z m 2.66661,0.64945 c 3e-5,-0.0845 -0.1048,-0.21836 -0.23296,-0.29756 -0.16141,-0.0998 -0.16202,-0.22955 -0.002,-0.42239 0.17911,-0.21581 0.003,-0.28183 -0.78158,-0.29369 -1.02643,-0.0155 -1.38402,0.27074 -1.13825,0.9112 0.11857,0.309 2.15465,0.4058 2.15476,0.10244 z m 3.25931,-0.40818 c 0,-0.71405 -0.42571,-0.80024 -0.5589,-0.11315 -0.0586,0.30254 0.23396,0.72629 0.54038,0.78259 0.0102,0.002 0.0185,-0.29937 0.0185,-0.66944 z m 3.139739,0.28908 c 0.922084,-0.0979 1.161902,-0.20216 1.108067,-0.4817 -0.05577,-0.28957 -0.381436,-0.35676 -1.729285,-0.35676 -1.448621,0 -1.670851,0.0533 -1.741041,0.41782 -0.0939,0.48748 0.37241,0.85555 0.85215,0.67266 0.18334,-0.0699 0.862882,-0.18331 1.510109,-0.25202 z m 5.601004,0.0474 c 0,-0.185 0.122496,-0.5325 0.272214,-0.77224 0.203457,-0.32578 0.208349,-0.49974 0.01936,-0.68873 -0.329178,-0.32918 -0.753864,-0.0633 -0.588251,0.36826 0.0706,0.18397 -0.03399,0.51389 -0.232413,0.73314 -0.374107,0.41339 -0.279598,0.69591 0.2328,0.69591 0.162962,0 0.296295,-0.15135 0.296295,-0.33634 z m 1.69562,-0.16366 c -0.0737,-0.275 -0.135362,-0.675 -0.137031,-0.88888 -0.0018,-0.21389 -0.103033,-0.38889 -0.225255,-0.38889 -0.122223,0 -0.222223,0.4 -0.222223,0.88889 0,0.67047 0.08827,0.88888 0.359252,0.88888 0.264111,0 0.323766,-0.13241 0.225257,-0.5 z m 1.320258,-0.3245 c -0.101102,-1.12671 -0.510827,-1.1851 -0.510827,-0.0728 0,0.59364 0.09896,0.8973 0.292407,0.8973 0.20248,0 0.269651,-0.25356 0.21842,-0.8245 z m 3.612389,0.20042 c 0.05895,-0.41588 0.132558,-0.4633 0.388889,-0.25057 0.173898,0.14433 0.316178,0.40016 0.316178,0.56853 0,0.37701 0.484262,0.39964 0.844444,0.0395 0.728469,-0.72847 -0.206222,-2.133 -0.987804,-1.48435 -0.260827,0.21647 -0.431736,0.22077 -0.754789,0.019 -0.536138,-0.33482 -1.101851,-0.11793 -1.101851,0.42244 0,0.23136 -0.1,0.42067 -0.222223,0.42067 -0.122222,0 -0.222222,-0.2 -0.222222,-0.44445 0,-0.24444 -0.1,-0.44444 -0.222222,-0.44444 -0.122222,0 -0.283153,-0.025 -0.357627,-0.0556 -0.07447,-0.0306 -0.155133,0.35128 -0.179249,0.84853 l -0.04384,0.90408 1.234804,-0.0152 c 1.115329,-0.0137 1.24184,-0.0648 1.307516,-0.52816 z m 2.845131,0.12408 c -0.0737,-0.275 -0.135362,-0.675 -0.137031,-0.88888 -0.0018,-0.21389 -0.0894,-0.38889 -0.194953,-0.38889 -0.105556,0 -0.191918,0.4 -0.191918,0.88889 0,0.6367 0.09332,0.88888 0.328949,0.88888 0.232684,0 0.289735,-0.14631 0.194953,-0.5 z m 3.371285,-0.2967 c 0.07513,-0.76994 -0.371145,-1.28579 -0.927627,-1.07224 -0.230491,0.0884 -0.3615,0.39855 -0.3615,0.85568 0,0.85229 0.160431,1.05414 0.768633,0.96708 0.326245,-0.0467 0.472371,-0.25741 0.520494,-0.75052 z m -23.231886,0.0339 c -0.16958,-0.88714 -1.16835,-1.01533 -1.16835,-0.14997 0,0.52038 0.19323,0.69059 0.784,0.69059 0.39679,0 0.46844,-0.10077 0.38435,-0.54062 z m 21.566434,-1.07049 c -0.05189,-0.0917 -0.228448,-0.16667 -0.392346,-0.16667 -0.194076,0 -0.297996,0.2794 -0.297996,0.80118 l 0,0.80116 0.392347,-0.6345 c 0.215789,-0.34898 0.349887,-0.7095 0.297995,-0.80117 z M 72.2539,86.542273 c -8.76847,-0.94263 -16.52536,-6.31098 -20.45662,-14.15751 -1.08184,-2.15927 -2.17333,-5.45197 -2.26235,-6.82478 -0.0396,-0.61111 -0.17759,-1.54007 -0.30659,-2.06437 -0.15507,-0.63026 -0.16062,-1.09137 -0.0164,-1.36087 0.11999,-0.22419 0.16002,-0.79523 0.089,-1.26897 -0.47106,-3.14063 0.50799,-7.70955 2.50479,-11.68913 0.41242,-0.82195 0.74986,-1.59526 0.74986,-1.71848 0,-0.12321 -0.49641,-0.47557 -1.10313,-0.78302 -0.60672,-0.30745 -1.20672,-0.75256 -1.33333,-0.98914 -0.39001,-0.72872 -0.26367,-1.69167 0.302,-2.30205 0.29272,-0.31584 3.24668,-2.38044 6.56437,-4.588 5.35055,-3.56021 6.13449,-4.01374 6.93782,-4.01374 0.75071,0 1.02721,0.13269 1.61607,0.77557 l 0.7104,0.77558 2.20846,-0.59313 c 2.00176,-0.53763 2.59323,-0.59459 6.31957,-0.60866 3.850527,-0.0145 4.271111,0.0257 6.635411,0.6354 2.391098,0.61656 2.536071,0.62989 2.747298,0.25244 0.707184,-1.26367 1.955127,-1.58848 3.350547,-0.87209 0.391153,0.20082 3.246613,2.06555 6.345466,4.14384 3.648669,2.44704 5.784456,4.02171 6.060409,4.46822 0.753109,1.21857 0.08345,2.44305 -1.710867,3.1283 -0.541102,0.20665 -0.983822,0.45407 -0.983822,0.54982 0,0.0957 0.443816,1.11248 0.986258,2.2594 1.83815,3.88651 2.9217,9.00041 2.39267,11.29231 -0.15743,0.68199 -0.17703,1.33469 -0.0531,1.76686 0.21018,0.73288 -0.29185,3.6687 -1.002681,5.86352 -2.147078,6.62949 -7.068991,12.33463 -13.32316,15.44327 -3.970446,1.97352 -9.516632,2.95798 -13.968322,2.47941 z m 8.105851,-4.06415 c 2.48988,-0.63416 4.892771,-1.69459 6.889558,-3.04045 1.830562,-1.23382 4.642751,-3.95025 5.889,-5.68846 1.269022,-1.76998 2.82572,-5.07906 3.38204,-7.18923 0.241669,-0.91666 0.504758,-1.83021 0.58464,-2.03009 0.276271,-0.69128 0.259071,-4.31159 -0.03064,-6.44936 -0.341267,-2.51822 -1.166751,-5.27027 -2.192987,-7.31112 -1.13814,-2.26338 -0.910173,-2.23163 -4.846086,-0.67487 -1.883269,0.74488 -3.621711,1.35433 -3.863207,1.35433 -0.914318,0 -1.840295,-0.50561 -2.306011,-1.25916 -0.464753,-0.75198 -0.474402,-0.91116 -0.319471,-5.27 0.13086,-3.68154 0.104658,-4.54033 -0.14484,-4.74739 -0.570465,-0.47345 -4.221365,-1.38903 -6.301089,-1.58021 -3.37285,-0.31005 -7.2799,0.1763 -9.92789,1.23581 l -0.87756,0.35113 0.15102,3.0238 c 0.26314,5.26866 0.24094,6.06743 -0.19101,6.87464 -0.47611,0.88972 -1.70021,1.4711 -2.68424,1.27486 -0.37515,-0.0748 -2.10883,-0.69372 -3.85262,-1.37537 -1.7438,-0.68165 -3.31391,-1.18434 -3.48915,-1.1171 -0.47161,0.18098 -1.5763,2.22457 -2.33931,4.32757 -2.1565,5.9437 -1.66584,12.64475 1.33294,18.2043 3.37735,6.2614 9.64475,10.61425 16.72153,11.6135 2.26231,0.31944 6.014328,0.0844 8.415381,-0.52713 z m -7.137531,-2.82879 c -2.6629,-0.52005 -5.22315,-2.54874 -6.42285,-5.08935 -0.50714,-1.07395 -0.57715,-1.50527 -0.57715,-3.55555 0,-2.15301 0.0534,-2.44497 0.69099,-3.77778 0.74689,-1.5613 1.64734,-2.66667 2.17231,-2.66667 0.18094,0 0.38781,-0.18538 0.45973,-0.41196 0.23543,-0.74178 2.1949,-1.46739 4.88299,-1.80821 1.37963,-0.17492 1.81433,-0.1574 2.16352,0.0872 0.24034,0.16834 0.61804,0.25873 0.83933,0.20087 1.15283,-0.30148 4.49485,2.56295 5.503466,4.71699 0.556217,1.18788 0.621,1.56964 0.621,3.65957 0,2.06646 -0.06812,2.47866 -0.595569,3.60401 -1.203311,2.56734 -3.766147,4.53233 -6.601427,5.06148 -1.36329,0.25443 -1.74077,0.25195 -3.13634,-0.0206 z m -0.75999,-6.17505 c 1.36149,-0.83024 1.77086,-2.7945 0.86919,-4.17063 -1.43458,-2.18944 -4.78052,-1.64663 -5.46254,0.88618 -0.31838,1.18239 0.20895,2.60709 1.19992,3.24186 0.91203,0.58421 2.47311,0.6038 3.39343,0.0426 z m 8.123837,0.0699 c 0.876249,-0.45313 1.621373,-2.06774 1.428555,-3.09555 -0.263789,-1.40611 -1.619575,-2.55534 -3.014622,-2.55534 -1.3855,0 -2.75074,1.1487 -3.01042,2.53295 -0.1891,1.00798 0.4697,2.52587 1.32181,3.04548 0.842332,0.51364 2.356719,0.54715 3.274677,0.0725 z M 63.75571,61.232273 c -0.25659,-0.10383 -0.67929,-0.52257 -0.93933,-0.93055 -0.26005,-0.40797 -0.58931,-0.90044 -0.73169,-1.09438 -0.42188,-0.57464 -0.0298,-1.96897 0.78198,-2.78072 1.37416,-1.37417 3.40002,-1.12534 4.51929,0.55508 0.62099,0.93234 0.64078,1.78752 0.0585,2.52778 -0.24444,0.31076 -0.44444,0.65875 -0.44444,0.7733 0,0.4238 -0.82072,0.93191 -1.45588,0.90134 -0.36038,-0.0173 -0.80523,0.0289 -0.98856,0.1027 -0.18334,0.0738 -0.54327,0.0493 -0.79985,-0.0546 z m 19.966512,-0.21907 C 83.325,60.767513 83,60.455453 83,60.319753 c 0,-0.13571 -0.207678,-0.5384 -0.461507,-0.89487 -1.268306,-1.78117 1.228191,-4.52692 3.420967,-3.76251 1.502767,0.52386 2.413416,2.0466 2.061787,3.4476 -0.231729,0.92329 -1.413194,2.09873 -2.090991,2.08033 -0.328307,-0.009 -0.796923,0.0481 -1.041367,0.12671 -0.271725,0.0874 -0.725116,-0.0307 -1.166667,-0.30381 z"
       id="path4080"
       inkscape:connector-curvature="0"
       clip-path="url(#clipPath4084)"
       transform="matrix(1.6066253,0,0,1.6066253,-45.807459,-23.43078)" />
  </g>
  <g
     inkscape:groupmode="layer"
     id="layer12"
     inkscape:label="apples"
     sodipodi:insensitive="true"
     style="display:none">
    <g
       id="g4119"
       transform="matrix(1.6632954,0,0,1.6632954,-49.688551,-49.745459)"
       style="fill:#ffffff;fill-opacity:1">
      <path
         style="fill:#ffffff;fill-opacity:1"
         d="m 68.044822,104.99508 c -0.08501,-0.0315 -0.537094,-0.17434 -1.004637,-0.31735 -4.273669,-1.30724 -8.603064,-5.751677 -11.595265,-11.903385 -2.43662,-5.009483 -3.626309,-9.594707 -3.813563,-14.697984 -0.159219,-4.339237 0.457635,-7.586226 2.0379,-10.727056 0.784871,-1.559963 1.32187,-2.31624 2.600258,-3.66205 1.242256,-1.307774 2.613788,-2.266962 4.516344,-3.158529 1.470765,-0.689224 4.51843,-1.525635 5.559017,-1.525635 0.920527,0 2.269224,0.444445 5.371481,1.770099 3.711598,1.586037 4.11594,1.688722 6.12524,1.55555 0.902346,-0.05981 3.031664,-0.312235 4.731819,-0.560953 5.577378,-0.815925 7.455545,-0.747438 9.627601,0.351069 2.590697,1.31023 4.841527,4.896546 5.804822,9.248996 0.278073,1.256417 0.323652,1.959026 0.31584,4.868625 -0.0081,3.023021 -0.05463,3.634383 -0.419195,5.509904 -1.149359,5.91296 -3.69641,11.745151 -7.111152,16.282987 -1.365706,1.814883 -3.837674,4.214332 -5.408208,5.249562 -1.658285,1.09306 -3.507704,1.7779 -4.809192,1.78083 -0.766046,0.002 -1.162396,-0.11238 -2.400168,-0.69098 -2.58098,-1.20648 -3.508412,-1.21457 -6.056039,-0.0529 -1.264056,0.57641 -1.600516,0.66395 -2.681867,0.69779 -0.680062,0.0213 -1.306028,0.0129 -1.391036,-0.0186 z m 8.655333,-45.295553 c -3.935092,-0.622122 -6.420276,-1.746963 -8.505476,-3.849741 -2.193897,-2.212389 -3.130407,-4.679817 -3.276217,-8.631858 l -0.08411,-2.279753 0.628055,0 c 0.99963,0 2.911985,0.303146 4.476226,0.70957 5.925071,1.539463 8.986125,5.666867 9.416235,12.696479 l 0.09705,1.586224 -0.757644,-0.01772 c -0.416707,-0.0097 -1.314061,-0.105687 -1.994122,-0.213201 z m 3.540137,-0.870982 c 0.376878,-2.356867 2.898459,-4.87791 5.386165,-5.385015 0.851446,-0.173563 2.588381,-0.08614 2.588381,0.130273 0,0.190006 -1.337577,0.905295 -2.635096,1.409156 -2.00898,0.780143 -2.951756,1.215651 -3.600618,1.663282 -0.680435,0.469409 -1.48867,1.768113 -1.490812,2.39549 -7.73e-4,0.233771 -0.07989,0.425038 -0.175763,0.425038 -0.117713,0 -0.141175,-0.207236 -0.07226,-0.638224 z"
         id="path4123"
         inkscape:connector-curvature="0" />
      <path
         style="fill:#ffffff;fill-opacity:1"
         d="m 80.343193,58.73574 c -0.01808,-0.315518 0.475725,-1.432804 0.633252,-1.432804 0.08079,0 0.109283,-0.06086 0.06331,-0.13525 -0.20778,-0.336196 1.519254,-2.228 2.626115,-2.876663 0.624125,-0.365762 1.185845,-0.55752 0.684981,-0.233837 -0.154559,0.09989 -0.167439,0.150616 -0.03864,0.152194 0.10626,0.0012 0.1932,0.08583 0.1932,0.187837 0,0.144255 -0.04122,0.144255 -0.185472,0 -0.102009,-0.102009 -0.258501,-0.183259 -0.347759,-0.180556 -0.08926,0.0027 -0.03641,0.100354 0.117441,0.217001 0.198227,0.150294 0.226967,0.244694 0.09864,0.324005 -0.0996,0.06156 -0.225478,0.04852 -0.279728,-0.02897 -0.17049,-0.243519 -0.530993,-0.143213 -0.575513,0.16013 -0.03173,0.216187 0.0021,0.245893 0.132097,0.115919 0.198522,-0.198522 0.431161,-0.232425 0.403753,-0.05884 -0.0578,0.366061 0.06284,0.379564 0.345245,0.03864 0.209592,-0.253025 0.290104,-0.293038 0.233254,-0.11592 -0.105634,0.329103 0.143286,0.364926 0.268494,0.03864 0.114455,-0.298265 0.356266,-0.300631 0.356266,-0.0035 0,0.125601 -0.249215,0.309013 -0.553839,0.407601 -1.941272,0.628282 -3.507601,1.820228 -3.938218,2.996909 -0.124292,0.339639 -0.230887,0.531991 -0.236878,0.427452 z m 1.840196,-2.540727 c 0.210524,-0.198216 0.402558,-0.341333 0.426741,-0.318041 0.02418,0.02329 0.330216,-0.08888 0.680074,-0.249263 0.37473,-0.17179 0.564556,-0.335835 0.461978,-0.399232 -0.09577,-0.05919 -0.244173,-0.06433 -0.32978,-0.01142 -0.08561,0.05291 -0.199289,-0.01752 -0.252625,-0.15651 -0.07992,-0.208266 -0.20432,-0.14883 -0.707371,0.337963 -0.33572,0.324867 -0.754145,0.789986 -0.929834,1.033595 -0.297342,0.412292 -0.299119,0.431873 -0.02569,0.283113 0.161556,-0.0879 0.465988,-0.321989 0.676511,-0.520206 z m -0.460051,0.122211 c 0,-0.0321 0.121716,-0.15381 0.27048,-0.27048 0.24514,-0.192251 0.250607,-0.186785 0.05835,0.05836 -0.201912,0.257457 -0.328835,0.339332 -0.328835,0.212124 z m 0.695518,-0.714442 c 0.05254,-0.08501 0.282687,-0.149671 0.511441,-0.143696 0.371378,0.0097 0.382814,0.02509 0.106797,0.143696 -0.4294,0.184519 -0.732278,0.184519 -0.618238,0 z m 3.013911,-0.760307 c 0.196264,-0.137409 0.184406,-0.166438 -0.07728,-0.189173 -0.170016,-0.01478 -0.423782,-0.0179 -0.563926,-0.007 -0.180918,0.01413 -0.231714,-0.06841 -0.175173,-0.284631 0.0438,-0.167485 0.145179,-0.304519 0.225289,-0.304519 0.08011,0 0.102669,0.06955 0.05013,0.154559 -0.05254,0.08501 -0.02766,0.15456 0.05528,0.15456 0.08294,0 0.174214,-0.07024 0.202831,-0.156091 0.07123,-0.21369 0.673419,-0.355149 1.596604,-0.375054 0.425039,-0.0092 0.864365,-0.07425 0.97628,-0.144634 0.111915,-0.07039 0.235583,-0.09587 0.274816,-0.05664 0.08811,0.08811 -1.87961,1.121507 -2.410292,1.265825 -0.295357,0.08032 -0.331774,0.06684 -0.154559,-0.05724 z m 1.660057,-0.772094 c 0.149565,-0.08709 0.202385,-0.159405 0.117377,-0.160688 -0.08501,-0.0012 -0.257051,0.06248 -0.38232,0.141702 -0.148413,0.09385 -0.26549,0.08298 -0.336063,-0.0312 -0.08006,-0.129541 -0.202039,-0.126167 -0.467758,0.01294 -0.1977,0.103498 -0.239966,0.154288 -0.09393,0.112867 0.146042,-0.04142 0.307704,-0.0071 0.359248,0.07633 0.05154,0.0834 0.03638,0.141679 -0.03369,0.129507 -0.289966,-0.05037 -0.513806,0.02417 -0.513806,0.171107 0,0.150169 0.743777,-0.09899 1.350938,-0.452558 z m -2.278295,-0.315252 c 0.127511,-0.08629 0.365146,-0.157953 0.528078,-0.159255 0.395432,-0.0032 0.272065,0.0853 -0.296239,0.212425 -0.338628,0.07575 -0.401153,0.06141 -0.231839,-0.05317 z M 86.166924,53.4817 c 0.276275,-0.03428 0.728362,-0.03428 1.004637,0 0.276275,0.03429 0.05023,0.06234 -0.502318,0.06234 -0.552551,0 -0.778594,-0.02805 -0.502319,-0.06234 z"
         id="path4121"
         inkscape:connector-curvature="0" />
    </g>
  </g>
  <g
     inkscape:groupmode="layer"
     id="layer13"
     inkscape:label="books"
     sodipodi:insensitive="true"
     style="display:none">
    <path
       style="fill:#ffffff;fill-opacity:1"
       d="m -32.017853,265.75721 c 0,-15.90102 0.380212,-28.27634 0.852575,-27.75 0.468916,0.5225 1.44251,3.2 2.163542,5.95 5.813621,22.173 22.836323,39.9122 45.062303,46.95901 3.796279,1.20362 7.206657,2.49273 7.578619,2.8647 0.371962,0.37196 -11.998706,0.67629 -27.490372,0.67629 l -28.166667,0 0,-28.7 z M 213.53215,293.5829 c 0.5225,-0.48087 4.1,-1.86454 7.95,-3.07481 20.35641,-6.39918 37.60202,-23.92555 43.09924,-43.80088 0.95077,-3.4375 2.10488,-6.25 2.56471,-6.25 0.45983,0 0.83605,12.15 0.83605,27 l 0,27 -27.7,0 c -15.86963,0 -27.29427,-0.37341 -26.75,-0.87431 z M 109.99087,218.96495 c -9.84584,-8.7445 -10.843533,-9.01512 -33.008723,-8.95371 -15.856169,0.0439 -21.776048,0.47792 -31.680296,2.32249 -13.6187,2.53634 -15.02678,2.29179 -18.369477,-3.19034 -1.868272,-3.06403 -1.942894,-5.55728 -1.946489,-65.03505 -0.0041,-67.491848 -0.04893,-66.942615 5.679442,-69.552635 3.819592,-1.740322 24.023443,-5.00728 38.31682,-6.19582 19.59734,-1.629582 34.152723,0.643551 43.228403,6.751034 2.73492,1.840462 5.48986,3.338106 6.12209,3.328098 0.63223,-0.01001 3.13754,-1.365257 5.56735,-3.011662 8.35969,-5.664393 15.74502,-7.307378 32.58216,-7.248417 15.51444,0.05433 34.70719,2.182193 44.78988,4.965766 10.51763,2.903652 9.71012,-2.917412 9.71012,69.997026 0,69.6135 0.13481,68.02703 -5.96129,70.15214 -2.31965,0.80863 -5.63881,0.58386 -14.28038,-0.96708 -6.78887,-1.21843 -18.02468,-2.24104 -28.3024,-2.5759 -21.45217,-0.69895 -25.20039,0.19101 -34.4158,8.17156 -8.30697,7.19385 -10.93429,7.34575 -18.03141,1.0425 z m 0.76625,-72.08002 -0.27497,-54.572281 -4.13226,-3.854013 c -5.79992,-5.409379 -11.926093,-7.005679 -26.799243,-6.983102 -10.82184,0.01643 -25.937423,1.622647 -35.5685,3.779598 l -3.5,0.78385 -0.258483,55.900628 c -0.142166,30.74535 0.123696,56.28281 0.590806,56.74992 0.467109,0.46711 2.833427,0.39129 5.258483,-0.1685 2.425057,-0.55978 11.500131,-1.56865 20.166832,-2.24192 18.084112,-1.40486 30.917972,-0.35639 37.383315,3.05407 8.07116,4.25751 7.443,8.87563 7.13402,-52.44825 z m 23.14657,51.82453 c 6.39782,-2.6723 7.05899,-2.74292 24.07846,-2.5717 9.625,0.0968 21.775,0.82014 27,1.60738 5.225,0.78723 10.0625,1.22135 10.75,0.96471 1.83362,-0.68448 1.82454,-110.530919 -0.009,-112.052837 -3.11711,-2.586972 -19.31462,-4.611964 -37.24074,-4.655791 -16.7171,-0.04087 -18.32671,0.116985 -22.584,2.214837 -5.94958,2.931765 -8.87706,6.134645 -9.94824,10.884125 -1.004,4.4516 -1.28512,104.706336 -0.29637,105.695076 0.95137,0.95138 1.02074,0.93384 8.25015,-2.0858 z M -32.017853,23.016231 l 0,-28.5590166 28,0 c 15.4,0 28,0.3783916 28,0.8408702 0,0.4624786 -2.482324,1.39639 -5.516276,2.0753587 C 6.517658,0.0473362 -8.243593,9.6856784 -16.498671,20.203501 c -5.336815,6.799655 -10.782002,17.700642 -12.491223,25.006796 -0.675906,2.889196 -1.633704,5.503254 -2.128439,5.809017 -0.524673,0.324266 -0.89952,-11.345164 -0.89952,-28.003083 z M 265.22173,44.06315 c -0.64638,-2.416735 -2.84849,-7.929235 -4.89357,-12.25 -7.10594,-15.013128 -25.53324,-30.1433251 -41.84601,-34.35873 -2.75,-0.710631 -5.4275,-1.675715 -5.95,-2.144631 -0.52639,-0.4724027 11.62468,-0.8525746 27.25,-0.8525746 l 28.2,0 0,26.9999996 c 0,14.85 -0.35667,27 -0.7926,27 -0.43592,0 -1.32145,-1.977329 -1.96782,-4.394064 z"
       id="path4175"
       inkscape:connector-curvature="0"
       clip-path="url(#clipPath4179)"
       transform="matrix(0.46601585,0,0,0.46601585,18.726937,6.020131)" />
  </g>
  <g
     inkscape:groupmode="layer"
     id="layer14"
     inkscape:label="electronics"
     sodipodi:insensitive="true"
     style="display:none">
    <path
       style="fill:#ffffff;fill-opacity:1"
       d="m 54.583236,123.70121 -1.298794,-1.2988 0.100789,-11.34682 0.100789,-11.34681 5.295126,-0.10624 c 3.981003,-0.0799 5.37175,0.0145 5.603881,0.38032 0.169821,0.2676 0.311383,5.15571 0.314585,10.86247 0.0062,11.134 -0.159023,12.28688 -1.940221,13.53449 -0.636677,0.44594 -1.727139,0.62018 -3.8814,0.62018 -2.902661,0 -3.036407,-0.0404 -4.294755,-1.29879 z m 32.941347,0.81249 c -0.522939,-0.26129 -1.250029,-1.0717 -1.615763,-1.80091 -0.585243,-1.16687 -0.664338,-2.57975 -0.659732,-11.7846 0.003,-5.75233 0.144171,-10.67773 0.313991,-10.94533 0.232132,-0.36581 1.622875,-0.4602 5.603881,-0.38032 l 5.295123,0.10624 0.100789,11.34681 0.100788,11.34682 -1.298794,1.2988 c -1.244058,1.24405 -1.416601,1.29855 -4.094139,1.29318 -1.537441,-0.003 -3.223205,-0.21939 -3.746144,-0.48069 z M 39.562765,95.85556 c -0.201538,-0.2429 -0.311653,-3.30751 -0.252809,-7.0359 l 0.104254,-6.60557 35.346012,-0.0971 c 28.025408,-0.077 35.408788,0.002 35.649098,0.38032 0.39162,0.61683 0.39709,12.49962 0.006,13.11521 -0.41331,0.65063 -70.31546,0.89037 -70.852595,0.243 z m 7.22534,-17.66098 c -0.254791,-0.15747 -0.340972,-5.34332 -0.253001,-15.22402 0.128983,-14.48699 0.16285,-15.0737 1.018669,-17.64743 3.156879,-9.49374 9.563945,-15.94942 19.053258,-19.19783 3.806717,-1.30313 10.582645,-1.50579 14.832449,-0.44362 10.286846,2.57103 17.934095,9.82324 20.9806,19.89679 0.79422,2.62617 0.85114,3.63074 0.98512,17.38579 0.0827,8.48753 -0.003,14.74363 -0.20435,14.94511 -0.38825,0.38825 -55.792786,0.66837 -56.412745,0.28521 z m 13.088064,-8.27011 c 0.461118,-0.51961 0.60246,-2.40852 0.745216,-9.95905 0.19788,-10.46599 0.419994,-11.58554 2.992032,-15.08107 2.515659,-3.4189 6.080098,-5.30883 10.75837,-5.70429 3.62169,-0.30615 4.408756,-0.85377 4.679513,-3.25592 0.172528,-1.53066 0.06975,-1.89151 -0.781042,-2.7423 -0.874658,-0.87466 -1.278869,-0.97972 -3.769494,-0.97972 -5.63212,0 -10.309076,2.01191 -14.56088,6.26371 -2.945085,2.94508 -4.730491,5.96463 -5.661206,9.57444 -0.857649,3.32641 -0.878568,19.79609 -0.02724,21.44238 0.982903,1.90073 4.11192,2.14651 5.624727,0.44182 z"
       id="path4214"
       inkscape:connector-curvature="0" />
  </g>
  <g
     inkscape:groupmode="layer"
     id="layer15"
     inkscape:label="FreeCAD"
     sodipodi:insensitive="true"
     style="display:none">
    <path
       style="fill:#ffffff;fill-opacity:1"
       d="m 82.164259,116.22168 c -1.180847,-3.05964 -2.476282,-5.85223 -2.878743,-6.20577 -0.402463,-0.35354 -1.295001,-0.74846 -1.983422,-0.87761 -1.087352,-0.20399 -1.950577,0.16073 -6.575229,2.77805 -3.912297,2.21416 -5.482658,2.92435 -5.923742,2.679 -0.330103,-0.18362 -1.941832,-1.57927 -3.581613,-3.10144 l -2.981418,-2.76757 2.553193,-5.84111 2.553197,-5.841106 -0.88778,-1.61076 -0.887776,-1.61077 -5.752044,-1.56825 c -3.163624,-0.86254 -5.885455,-1.70434 -6.048513,-1.87068 -0.163059,-0.16634 -0.433842,-2.1544 -0.60174,-4.41792 l -0.305269,-4.1155 -1.122408,0 -1.122407,0 -0.187068,15.90077 -0.187068,15.900776 -10.566147,0.0994 -10.566146,0.0994 -0.09673,-42.189636 c -0.0532,-23.2043 0.03607,-42.4854 0.198381,-42.84689 0.278045,-0.61924 1.824582,-0.65169 26.750714,-0.5612 l 26.455609,0.096 0.187068,11.03701 c 0.190611,11.24603 0.288661,11.80613 1.408154,8.04392 l 0.333988,-1.12241 4.398592,-0.32901 c 3.575332,-0.26744 4.489028,-0.23242 4.88178,0.18707 0.265757,0.28384 1.440764,2.98669 2.611128,6.00633 1.94881,5.02809 2.225099,5.52412 3.282238,5.89264 1.987728,0.69292 2.676677,0.47638 7.628972,-2.39786 2.65365,-1.54014 5.16154,-2.79693 5.57309,-2.79287 0.41155,0.004 2.17608,1.32855 3.92119,2.9433 l 3.17292,2.93593 -2.53372,5.84757 -2.53372,5.84758 0.7366,1.6652 c 0.54675,1.23601 1.00878,1.7318 1.79268,1.92361 0.58085,0.14214 3.32896,0.86395 6.10692,1.60404 l 5.05083,1.34561 0.24783,1.87068 c 0.1363,1.02888 0.26257,3.14991 0.2806,4.71342 l 0.0328,2.84272 -1.40301,0.61422 c -0.77166,0.33782 -3.33916,1.34835 -5.70557,2.24563 -3.82204,1.44921 -4.37562,1.77347 -4.95672,2.90336 -0.35979,0.69958 -0.65442,1.63409 -0.65474,2.0767 -3.2e-4,0.4426 1.33313,3.12998 2.96322,5.971946 2.08826,3.64076 2.87097,5.3372 2.64956,5.74264 -0.59768,1.09444 -5.67753,6.37452 -6.13277,6.37452 -0.25132,0 -2.92332,-1.10171 -5.93778,-2.44824 l -5.48084,-2.44824 -1.48832,0.75928 c -0.818575,0.41761 -1.583683,0.91359 -1.700241,1.10219 -0.116559,0.18859 -0.884592,2.83326 -1.706741,5.87702 -0.822148,3.04377 -1.663389,5.7027 -1.869426,5.90873 -0.206036,0.20604 -2.375033,0.44593 -4.819996,0.53311 l -4.445381,0.15849 -2.146998,-5.56297 z M 43.349009,95.352464 c 0.06739,-10.8166 0.226659,-15.83578 0.513481,-16.18137 0.314137,-0.37852 1.811206,-0.50101 6.123278,-0.50101 4.419747,0 5.804991,-0.11749 6.139654,-0.52073 0.28747,-0.34638 0.39676,-2.00619 0.326413,-4.9573 l -0.105758,-4.43657 -6.157118,-0.10317 c -4.351447,-0.0729 -6.242458,-0.2375 -6.448115,-0.5612 -0.160048,-0.25192 -0.293574,-3.76255 -0.296725,-7.80141 -0.0044,-5.68393 0.107474,-7.43732 0.495215,-7.75912 0.345259,-0.28653 5.316053,-0.44612 15.99431,-0.51348 l 15.493363,-0.0977 0,-10.28874 0,-10.28873 -23.757628,0 -23.757627,0 -0.09526,39.2121 c -0.06528,26.87091 0.0285,39.443346 0.297967,39.946846 0.373338,0.6976 0.766104,0.72963 7.765046,0.63338 l 7.371818,-0.1014 0.09769,-15.680366 z m 48.62311,-1.28312 c 2.441247,-1.25573 4.091789,-2.90511 5.233304,-5.22964 0.878276,-1.78848 1.043872,-2.60051 1.043872,-5.11878 0,-3.48089 -0.885998,-5.72522 -3.133156,-7.93665 -2.249518,-2.21376 -4.986045,-3.29167 -8.277988,-3.26069 -12.719486,0.1197 -15.475416,17.62229 -3.47846,22.09131 2.07526,0.77306 6.606992,0.486 8.612428,-0.54555 z M 61.026877,75.583464 c 0.407755,-0.66876 0.742005,-1.61392 0.742772,-2.10034 0.0015,-0.96282 -1.444573,-3.7923 -1.938174,-3.7923 -0.36351,0 -0.416394,6.49859 -0.05582,6.85916 0.387021,0.38702 0.46061,0.33018 1.251219,-0.96652 z m -3.776236,-10.22678 c 0.09455,-0.0945 -0.19347,-0.92395 -0.640038,-1.84313 l -0.811942,-1.67122 2.793683,-3.0908 c 1.536524,-1.69994 2.796131,-3.22063 2.799124,-3.37931 0.003,-0.15868 -3.319689,-0.24286 -7.38374,-0.18707 l -7.389183,0.10144 -0.103979,5.12704 -0.103979,5.12704 2.535862,0.1523 c 2.712885,0.16293 8.019878,-0.052 8.304192,-0.33629 z m 18.330278,-6.12475 c 1.405482,-0.71702 1.888185,-1.55357 1.898728,-3.2906 l 0.0051,-0.84181 -6.921513,0 c -3.806833,0 -6.921514,0.14077 -6.921514,0.31282 0,0.33168 9.202216,4.48882 10.02304,4.52795 0.265416,0.0126 1.127683,-0.30611 1.916152,-0.70836 z"
       id="path4247"
       inkscape:connector-curvature="0" />
  </g>
  <g
     inkscape:groupmode="layer"
     id="layer16"
     inkscape:label="woodwork"
     sodipodi:insensitive="true"
     style="display:none">
    <path
       style="fill:#ffffff;fill-opacity:1"
       d="m 43.845328,124.02874 c -0.44118,-0.21418 -1.02509,-0.62769 -1.29758,-0.9189 -0.63569,-0.67937 -16.704,-25.492869 -17.18091,-26.531629 -0.81839,-1.78257 -0.21005,-4.5099 1.25486,-5.62577 1.14285,-0.87055 17.97858,-11.70532 18.49141,-11.9003 0.27713,-0.10536 1.05551,-0.19156 1.72975,-0.19156 1.55965,0 2.84179,0.65538 3.807689,1.94634 1.210315,1.61765 16.359463,25.160109 16.764383,26.052619 0.768022,1.69283 0.285983,4.02928 -1.090561,5.28594 -0.712549,0.6505 -17.745621,11.66868 -18.591421,12.02623 -0.93611,0.39574 -2.92897,0.32245 -3.88762,-0.14297 z m 4.91401,-14.46171 c 2.684748,-1.72719 5.11858,-3.39486 5.408516,-3.70595 0.744301,-0.79859 0.875133,-1.71436 0.379897,-2.65909 -0.218725,-0.41725 -2.365557,-3.793849 -4.770743,-7.503549 -3.01437,-4.64932 -4.57548,-6.88159 -5.02459,-7.18481 -1.11127,-0.75027 -1.6466,-0.60739 -4.42729,1.18168 -7.57698,4.87497 -8.01941,5.19132 -8.38067,5.99246 -0.22572,0.50055 -0.29948,0.95597 -0.21156,1.30624 0.21271,0.84753 9.48584,15.030859 10.06046,15.387569 0.27943,0.17346 0.86278,0.31773 1.29634,0.32059 0.68933,0.005 1.40108,-0.38903 5.66964,-3.13514 z M 59.992795,92.420901 c -4.429585,-6.85333 -8.374727,-12.79813 -8.766984,-13.21064 -0.392257,-0.41252 -1.15308,-0.98356 -1.690723,-1.26899 -0.84792,-0.45014 -1.21081,-0.51918 -2.73707,-0.52074 -2.12917,-0.002 -1.90418,-0.10832 -7.64947,3.60871 -2.33221,1.50887 -4.30808,2.7434 -4.39082,2.7434 -0.16513,0 -1.63258,-2.3374 -1.51954,-2.42037 0.90217,-0.66215 86.182892,-55.728655 86.385422,-55.779815 0.33427,-0.0844 5.37639,7.58733 5.37639,8.18035 0,0.19305 -7.36932,10.37423 -16.37627,22.624835 l -16.376279,22.27384 -1.512428,0.33171 c -4.244944,0.93102 -4.907121,1.11371 -4.835382,1.33403 0.282895,0.86882 1.097269,5.062 1.001677,5.15759 -0.06509,0.0651 -1.372965,0.39948 -2.906386,0.74307 l -2.788039,0.62472 0.03056,0.5667 c 0.01681,0.31168 0.244772,1.54381 0.506587,2.73806 l 0.476029,2.17136 -2.461638,3.29884 -2.461636,3.29884 -4.301109,2.795299 c -2.365609,1.53742 -4.446906,2.87957 -4.625105,2.98256 -0.274731,0.15878 -1.548575,-1.70738 -8.377785,-12.273359 z M 105.50617,49.578306 c 2.96132,-1.51866 2.84413,-5.48283 -0.19968,-6.75462 -2.39805,-1.00196 -5.03786,0.75883 -5.03786,3.36032 0,1.67154 0.85147,2.94712 2.37443,3.5571 0.76649,0.306995 2.09424,0.2315 2.86311,-0.1628 z"
       id="path4280"
       inkscape:connector-curvature="0" />
  </g>
  <g
     inkscape:groupmode="layer"
     id="layer17"
     inkscape:label="design"
     sodipodi:insensitive="true"
     style="display:none">
    <path
       style="fill:#ffffff;fill-opacity:1"
       d="m -58.90351,159.69379 c 0.103821,-57.70515 0.288536,-65.530473 1.363176,-57.75 6.04868,43.7929 36.47234,86.48349 76.516729,107.36856 17.154124,8.94669 30.50203,13.43853 46.5,15.64817 7.78047,1.07464 -0.0448,1.25935 -57.75,1.36318 l -66.75,0.12009 0.120095,-66.75 z m 172.3799,65.26673 c 61.31019,-8.46817 114.54856,-61.70654 123.01673,-123.01673 1.07464,-7.780473 1.25935,0.0448 1.36318,57.75 l 0.12009,66.75 -66.75,-0.12009 c -57.70515,-0.10383 -65.53046,-0.28854 -57.75,-1.36318 z M 49.547825,168.87236 c -1.7553,-1.7553 -2.14848,-9.96455 -0.59527,-12.42857 0.74242,-1.17777 4.01512,-1.60741 15.23469,-2 l 14.28915,-0.5 0.30507,-5.33118 c 0.17575,-3.07106 -0.19412,-5.93267 -0.87244,-6.75 -0.97219,-1.17141 -6.79966,-1.41882 -33.41871,-1.41882 l -32.241193,0 -2.636363,-2.63636 -2.636364,-2.63637 0,-62.429383 c 0,-42.80769 0.339601,-63.063922 1.080491,-64.44829 2.506539,-4.683509 4.523331,-4.8496 58.887389,-4.8496 28.06767,0 51.032115,0.365809 51.032115,0.812909 0,0.4471 -1.26212,2.0221 -2.80472,3.5 l -2.80472,2.687091 -46.139515,0 -46.139513,0 -2.805763,2.412765 -2.805764,2.412765 -0.27934,45.58016 c -0.306613,50.030263 -0.234363,50.711783 5.547529,52.329823 1.502496,0.42047 33.659191,0.76449 71.459311,0.76449 l 68.727495,0 2.7725,-2.7718 2.7725,-2.77179 0.28912,-43.780013 c 0.3168,-47.971654 0.0747,-50.516559 -5.03912,-52.967509 -3.32874,-1.5954 -3.35693,-1.938023 -0.45764,-5.561142 2.24529,-2.805832 2.34155,-2.827553 5.91455,-1.334658 1.99766,0.834676 4.11833,2.426105 4.7126,3.536509 0.74089,1.384368 1.08049,21.6406 1.08049,64.44829 l 0,62.429383 -2.63636,2.63637 -2.63637,2.63636 -32.24119,0 c -26.61905,0 -32.44651,0.24741 -33.4187,1.41882 -0.67833,0.81733 -1.048195,3.67894 -0.87245,6.75 l 0.30507,5.33118 14.28916,0.5 c 16.12804,0.56435 16.17068,0.58588 16.19553,8.17857 0.0268,8.19187 1.9916,7.82143 -41.484685,7.82143 -33.5368,0 -38.55462,-0.19748 -39.92857,-1.57143 z M 150.29213,134.28045 c 6.85358,-3.65024 5.95465,-12.505 -1.53756,-15.14545 -2.39269,-0.84324 -7.62074,1.14609 -8.79929,3.34823 -1.76829,3.30408 -1.12151,7.90885 1.47566,10.50601 2.68281,2.68281 5.48241,3.09076 8.86119,1.29121 z M 65.305965,79.308917 c 1.19582,-10.09686 9.02817,-22.9534 15.92652,-26.14284 7.06685,-3.26736 7.52135,-3.20801 12.34088,1.61152 l 4.49951,4.49951 -1.52145,3.64135 c -2.0579,4.92525 -5.09404,9.04664 -8.39712,11.39865 -2.77527,1.97616 -20.92786,10.11996 -22.5672,10.12432 -0.48911,10e-4 -0.61562,-2.30833 -0.28114,-5.13251 z m -124.209475,-83.11513 -0.120095,-66.75 66.75,0.120095 c 57.70515,0.103821 65.53047,0.288536 57.75,1.363176 -61.31019,8.468171 -114.548558,61.706539 -123.016729,123.016729 -1.07464,7.78047 -1.259355,-0.04485 -1.363176,-57.75 z m 295.4597,59 c -1.87341,-20.01473 -12.89013,-46.823341 -27.03678,-65.792692 -23.49506,-31.504693 -59.50226,-53.427024 -96.04302,-58.474037 -7.78047,-1.07464 0.0449,-1.259355 57.75,-1.363176 l 66.75,-0.120095 0,66.5 c 0,36.575 -0.16686,66.5 -0.37079,66.5 -0.20393,0 -0.67617,-3.2625 -1.04941,-7.25 z m -141.338805,-2.5269 c -1.79246,-1.49771 -3.25496,-3.33906 -3.25,-4.0919 0.005,-0.75284 2.55708,-5.02784 5.67139,-9.5 12.981495,-18.641486 24.254985,-30.144194 43.569695,-44.455562 5.09736,-3.776922 11.28302,-8.561689 13.74591,-10.632817 5.34408,-4.494007 8.90657,-6.058262 10.39882,-4.566016 1.65099,1.650999 -0.25066,5.399172 -8.89047,17.523195 -15.24802,21.397126 -21.40213,29.08909 -29.64814,37.05687 -9.51374,9.19276 -24.96429,21.45625 -26.981895,21.41623 -0.74597,-0.0148 -2.82286,-1.2523 -4.61531,-2.75 z"
       id="path4313"
       inkscape:connector-curvature="0"
       clip-path="url(#clipPath4317)"
       transform="matrix(0.48573189,0,0,0.48573189,34.23077,37.909445)" />
  </g>
  <g
     inkscape:groupmode="layer"
     id="layer18"
     inkscape:label="open"
     sodipodi:insensitive="true"
     style="display:none">
    <path
       style="fill:#ffffff;fill-opacity:1"
       d="m 93.19709,120.14975 c -0.662568,-1.30751 -1.204666,-2.6156 -1.204666,-2.90687 0,-0.29127 -0.770601,-2.26436 -1.712445,-4.38465 -2.243827,-5.05129 -8.206233,-20.036343 -8.206233,-20.624343 0,-0.25216 0.797037,-0.96932 1.771192,-1.59369 2.391365,-1.53271 4.485161,-3.82718 6.086545,-6.66988 1.196547,-2.12406 1.33147,-2.81291 1.341412,-6.84861 0.0096,-3.88403 -0.155742,-4.83613 -1.230086,-7.08477 -1.635449,-3.42306 -4.391419,-6.16708 -8.010093,-7.97535 -2.618352,-1.30841 -3.3983,-1.47101 -7.055723,-1.47101 -3.775838,0 -4.389417,0.1388 -7.506196,1.69806 -2.485621,1.24351 -3.901002,2.33917 -5.287307,4.09298 -3.236489,4.09447 -3.467429,4.77605 -3.479019,10.26777 -0.01006,4.77605 0.0503,5.07144 1.633724,7.99266 1.234512,2.27752 2.352526,3.55315 4.487021,5.11959 1.563557,1.14745 2.901039,2.24192 2.972179,2.43215 0.151992,0.40642 -9.174881,23.977433 -11.37039,28.735413 -0.652413,1.41388 -1.718076,1.3401 -4.859923,-0.33649 C 39.17878,113.98194 30.093032,102.52012 26.583229,89.075157 21.725002,70.464797 28.22998,51.096001 43.589918,38.437158 52.718392,30.913955 63.905032,27.256409 76.583965,27.649535 c 13.397334,0.415403 24.000985,4.880751 33.359865,14.048317 7.80636,7.646776 11.96317,15.368505 14.20954,26.395775 0.84923,4.16877 0.97485,5.96823 0.74565,10.68119 -0.93609,19.2487 -11.95291,35.170993 -30.166896,43.599353 -0.181706,0.0841 -0.872471,-0.91691 -1.535034,-2.22442 z"
       id="path4352"
       inkscape:connector-curvature="0" />
  </g>
  <g
     inkscape:groupmode="layer"
     id="layer19"
     inkscape:label="tea"
     sodipodi:insensitive="true"
     style="display:none">
    <g
       id="g4385"
       transform="matrix(0.21729218,0,0,0.21729218,54.751278,58.665511)"
       style="fill:#ffffff;fill-opacity:1">
      <path
         style="fill:#ffffff;fill-opacity:1"
         d="m 91.81422,236.90486 c -12.35353,-1.9991 -29.34689,-7.91227 -39.554,-13.76358 -24.2239,-13.88656 -41.21696,-32.9142 -52.24117,-58.496 l -3.67066,-8.51781 -6.17451,-2.32119 C -22.16822,149.1665 -36.18409,138.24507 -47.2563,124.63999 -58.07159,111.3506 -66.500464,97.52794 -83.989226,64.401 -97.739472,38.3555 -105.11947,26.62262 -113.2843,17.82706 -121.13982,9.3647 -124.6475,6.95715 -131.78093,5.13157 l -5.13738,-1.31475 6.26699,-10.45791 c 7.11208,-11.86813 7.72699,-12.1907 19.00824,-9.97125 13.199412,2.59683 26.410004,10.12981 45.66226,26.03765 16.98293,14.03273 28.57982,22.76438 36.39679,27.40424 5.56297,3.30196 19.74779,8.57145 23.0733,8.57145 0.80175,0 2.28381,-2.79068 3.58477,-6.75 C -0.2424,30.48388 4.82398,19.60045 8.9516,13.13605 L 11.9941,8.3711 139.25664,8.63605 266.51918,8.901 l 6.5,2.31763 c 10.70137,3.81566 19.84209,9.82232 29.04063,19.08354 7.02256,7.07041 9.37321,10.28743 13.22464,18.09883 6.27468,12.72617 8.00708,20.5151 8.00708,36 0,15.42454 -1.73546,23.28592 -7.89202,35.74967 -7.59978,15.38552 -22.5794,29.40797 -38.19262,35.75219 -3.22545,1.31061 -9.79889,3.1928 -14.60765,4.18263 l -8.74321,1.7997 -3.41502,7.39138 c -15.24007,32.98512 -45.9088,57.66423 -82.42183,66.3248 -7.28626,1.72824 -12.71238,2.06582 -38,2.36415 -22.01324,0.2597 -31.70922,-0.009 -38.20496,-1.06066 z M 268.44544,126.43619 c 16.18027,-7.72213 25.58992,-22.76848 25.56187,-40.87428 -0.0219,-14.11567 -4.46509,-24.68377 -14.14647,-33.64702 -6.02396,-5.57712 -13.79554,-9.85581 -20.01697,-11.02044 l -3.6753,-0.68801 1.91074,7.34728 c 3.06594,11.78932 4.14179,27.64682 3.77857,55.69449 -0.18629,14.3847 -0.17804,26.15373 0.0183,26.1534 0.19637,-3.4e-4 3.15252,-1.33477 6.56923,-2.96542 z M 29.37432,-11.22322 c 15.95249,-15.26033 39.48279,-26.81777 61.91754,-30.41218 7.27215,-1.16512 7.72292,-1.38114 7,-3.35446 -0.42497,-1.16003 -0.7615,-6.38414 -0.74783,-11.60914 0.0286,-10.94672 1.68979,-15.21464 8.61868,-22.14353 6.27052,-6.270521 13.76499,-9.301188 22.85647,-9.242864 9.09035,0.05832 14.79736,2.31488 21.51517,8.507134 7.20884,6.64489 9.89275,12.68558 9.9432,22.37926 0.0229,4.4 -0.32564,9.57923 -0.77452,11.5094 l -0.81616,3.50939 6.76973,1.28421 c 14.18479,2.69083 28.59674,8.60053 41.473,17.00625 8.27288,5.40059 21.88958,16.74551 21.88958,18.23756 0,0.59831 -38.44074,0.94081 -103.25,0.91993 l -103.25,-0.0332 6.85514,-6.55771 z"
         id="path4389"
         inkscape:connector-curvature="0" />
      <path
         style="fill:#ffffff;fill-opacity:1"
         d="M 100.4692,237.37092 C 73.17567,235.12387 48.83484,224.25642 28.50954,205.2431 16.93353,194.41431 5.03416,176.83353 -0.4719,162.42433 l -2.49805,-6.53732 -6.35895,-2.28056 C -19.03521,150.12538 -29.5955,142.5901 -40.04829,131.68666 -54.1143,117.01422 -63.021401,103.27397 -83.017891,65.401 -107.0282,19.92594 -114.42457,10.93552 -133.7433,3.7433 c -2.21791,-0.82571 -2.13927,-1.04561 3.99169,-11.16244 l 6.25417,-10.32013 6.00831,0.68203 c 16.83342,1.91084 30.054077,9.13652 56.103523,30.66313 25.465337,21.0439 37.749587,28.50305 52.112857,31.64358 l 4.20807,0.92009 1.67094,-5.13428 C -0.34495,31.66726 3.1062,23.98884 7.7991,16.13245 L 12.43953,8.3639 138.97936,8.63245 265.51918,8.901 l 7.39415,2.73945 c 23.45577,8.69012 39.74268,25.85026 47.26184,49.79579 2.0368,6.48641 2.34401,9.49622 2.34401,22.96476 0,16.94887 -1.48479,24.08394 -7.48556,35.9714 -9.75968,19.33382 -29.32523,34.58281 -49.55954,38.62572 -4.3752,0.87418 -8.8549,1.77403 -9.9549,1.99965 -1.39401,0.28594 -3.41691,3.38278 -6.67634,10.22079 -7.7127,16.18058 -20.78111,31.91093 -36.32366,43.72253 -9.07072,6.89332 -28.33055,16.03729 -40,18.99077 -16.19648,4.09925 -46.47604,5.54454 -72.04998,3.43906 z M 269.7982,126.35356 C 291.895,115.31166 300.94351,87.32369 289.82746,64.401 284.3125,53.02844 272.09485,43.22556 260.06791,40.52328 l -4.22196,-0.94861 0.67989,2.66317 c 3.66913,14.37229 3.80208,15.99082 4.2232,51.41316 0.33173,27.90277 0.70222,35.75 1.68786,35.75 0.69456,0 4.00715,-1.37135 7.3613,-3.04744 z M 28.51918,-10.21232 c 17.72431,-16.03589 39.66107,-27.14206 60,-30.37688 12.4576,-1.98133 11.49124,-1.36415 9.78651,-6.25032 -3.46454,-9.93019 0.55268,-24.76771 8.69821,-32.12671 6.31348,-5.703846 11.57196,-7.90975 20.01528,-8.396297 13.54367,-0.780455 24.19015,5.281117 29.95608,17.055497 4.46403,9.11581 4.97171,17.91477 1.54836,26.83585 -0.5123,1.33505 0.5864,1.84836 6.18631,2.89022 21.24956,3.9535 45.49664,16.40793 59.27374,30.44578 L 228.4356,-5.599 125.97739,-5.64381 23.51918,-5.68862 l 5,-4.5237 z"
         id="path4387"
         inkscape:connector-curvature="0" />
    </g>
  </g>
  <g
     inkscape:groupmode="layer"
     id="layer20"
     inkscape:label="coffee"
     sodipodi:insensitive="true"
     style="display:none">
    <g
       id="g4422"
       transform="matrix(0.20345852,0,0,0.20345852,66.142087,65.410865)"
       style="fill:#ffffff;fill-opacity:1">
      <path
         style="fill:#ffffff;fill-opacity:1"
         d="m -60.44954,292.38794 c -18.71044,-1.35218 -45.37411,-8.48347 -61.02788,-16.32213 -15.6257,-7.8246 -32.35456,-20.17371 -40.59498,-29.9669 l -2.2071,-2.62297 9.16498,-2.36984 c 39.33365,-10.17071 85.44745,-29.28847 114.66498,-47.53757 C -17.879,179.47111 5.16307,159.79771 20.21106,141.77629 40.1977,117.84037 52.74891,93.45354 61.61482,61.32938 67.0395,41.67391 71.33306,30.24197 79.55486,13.56256 c 21.99647,-44.62384 58.87633,-82.67582 110.00825,-113.50455 15.86291,-9.56415 42.25787,-22.66484 60.33212,-29.94484 14.99098,-6.0381 12.70451,-7.01573 21.07052,9.00908 14.06936,26.94938 20.43915,61.20444 17.69779,95.17411 -5.4774,67.87344 -36.01845,133.9663 -90.31025,195.43737 C 127.52156,249.93187 24.9205,298.55751 -60.44954,292.38794 z M -183.70343,215.3289 c -22.84141,-44.1066 -24.57196,-99.03086 -5.03227,-159.71478 18.40378,-57.15615 56.87344,-115.28198 105.96586,-160.10936 108.68708,-99.2446 247.33062,-123.41349 322.99536,-56.30582 3.94629,3.49999 8.06684,7.50628 9.1568,8.90286 l 1.98173,2.53924 -9.15679,2.33003 c -5.03624,1.28152 -16.1318,4.56525 -24.6568,7.29718 -56.25221,18.02664 -101.26691,42.97781 -133.58049,74.04224 C 53.87541,-36.75832 36.98653,-8.16717 25.09445,33.98074 17.84889,59.66042 9.61181,78.3147 -3.18235,98.01832 c -26.95735,41.51565 -68.77493,76.92707 -124.76719,105.65374 -15.55208,7.97895 -41.55369,19.75339 -48.08917,21.77647 -1.83647,0.56849 -2.76356,-0.65553 -7.66472,-10.11963 z"
         id="path4426"
         inkscape:connector-curvature="0" />
      <path
         style="fill:#ffffff;fill-opacity:1"
         d="m -73.26088,290.54235 c -27.39207,-4.14189 -52.62251,-14.54522 -72.68866,-29.9719 -7.11371,-5.46896 -18.24573,-16.18546 -17.44141,-16.79039 0.24278,-0.18259 6.06641,-1.83415 12.94141,-3.67015 69.13426,-18.46259 129.66495,-51.88929 164.59882,-90.89595 24.37553,-27.21738 37.11299,-50.67161 47.91873,-88.23548 6.32761,-21.99662 10.5859,-33.18468 18.80823,-49.41592 26.48953,-52.2915 73.33774,-95.2139 139.17422,-127.51162 18.38436,-9.0189 39.26275,-17.98838 41.87182,-17.98838 3.05404,0 14.59148,23.23167 19.50243,39.26986 5.40316,17.64569 6.62419,27.67961 6.59927,54.23014 -0.0258,27.46504 -1.30721,38.13866 -7.38348,61.5 -20.82237,80.05551 -77.52474,158.17059 -153.40544,211.3365 -41.99109,29.42111 -86.45177,48.42335 -132.6846,56.70864 -16.00378,2.868 -53.13647,3.6536 -67.81134,1.43465 z m -108.4829,-71.72979 c -14.54172,-26.21927 -20.34223,-52.97946 -19.44286,-89.69801 0.54122,-22.09653 2.26487,-34.63452 7.70568,-56.05199 18.64724,-73.40384 70.33881,-148.21103 138.53142,-200.48039 49.95649,-38.29144 102.59709,-61.36942 157.28438,-68.95448 14.47029,-2.00701 43.20533,-2.02737 57.18558,-0.0405 27.85558,3.9588 53.06184,14.23172 73.53004,29.96749 7.11371,5.46897 18.24573,16.18547 17.44141,16.79039 -0.24278,0.18259 -6.06641,1.83416 -12.94141,3.67015 -69.46167,18.55003 -130.43422,52.32864 -165.19852,91.5195 -24.00409,27.06056 -36.56323,50.29353 -47.31526,87.52785 -2.9382,10.175 -6.9744,22.52426 -8.96932,27.4428 -23.89551,58.9149 -73.9786,107.8823 -148.30729,145.00348 -17.0426,8.5114 -42.28531,19.55372 -44.69975,19.55372 -0.73575,0 -2.89759,-2.8125 -4.8041,-6.25 z"
         id="path4424"
         inkscape:connector-curvature="0" />
    </g>
  </g>
  <g
     inkscape:groupmode="layer"
     id="layer21"
     inkscape:label="cocktails"
     sodipodi:insensitive="true"
     style="display:none">
    <path
       style="fill:#ffffff;fill-opacity:1"
       d="m 43.653072,125.88545 c -2.212101,-0.33672 -4.811285,-3.47927 -4.811285,-5.81711 0,-2.26286 1.433584,-5.15196 2.912394,-5.86933 0.607344,-0.29462 6.943861,-0.67591 14.081148,-0.84732 l 12.976887,-0.31164 0.162909,-17.302512 0.16291,-17.30252 L 46.911356,51.604769 C 34.686682,36.848129 24.827599,24.54326 25.002284,24.260615 c 0.426731,-0.690466 99.568246,-0.664295 99.995126,0.0264 0.18366,0.297164 -9.39785,12.559358 -21.29223,27.249321 l -21.626149,26.709024 0.164009,17.39735 0.16401,17.39734 12.976885,0.31164 c 7.137285,0.17141 13.473805,0.5527 14.081155,0.84732 0.60734,0.29462 1.51109,1.3224 2.00833,2.28395 2.04005,3.94505 0.30289,8.02934 -3.91314,9.20028 -2.18764,0.60757 -60.041448,0.79064 -63.907208,0.20221 z M 86.030826,61.825336 c 3.149645,-1.316005 4.718507,-3.734445 4.718507,-7.273684 0,-7.924897 -10.119727,-10.802593 -14.237794,-4.048731 -3.207528,5.260517 0.251609,11.520448 6.687793,12.102771 0.435751,0.03943 1.709926,-0.311736 2.831494,-0.780356 z"
       id="path4459"
       inkscape:connector-curvature="0" />
  </g>
  <g
     inkscape:groupmode="layer"
     id="layer22"
     inkscape:label="wine"
     sodipodi:insensitive="true"
     style="display:none">
    <path
       style="fill:#ffffff;fill-opacity:1"
       d="m 59.218507,124.85796 c -1.239421,-0.15646 -2.119466,-0.67956 -2.802359,-1.66573 l -0.535487,-0.77329 0.0289,-29.467781 0.0289,-29.46778 0.530352,-1.47258 c 1.072202,-2.97707 2.834404,-5.49427 5.028028,-7.18223 1.138677,-0.87619 3.516193,-2.15548 4.913912,-2.64407 0.667763,-0.23343 0.720401,-0.31305 0.831432,-1.25774 0.06519,-0.5547 0.122679,-6.05455 0.127747,-12.22189 l 0.0092,-11.21335 0.42858,-0.55856 c 0.569432,-0.74213 1.102869,-1.21424 1.817011,-1.60811 0.502012,-0.27687 1.285184,-0.32486 5.301284,-0.32486 5.289515,0 5.238568,-0.0113 6.718629,1.48541 l 0.828312,0.83762 0.0074,11.10997 c 0.0041,6.11049 0.06255,11.65551 0.129913,12.32227 0.108504,1.07392 0.177124,1.226 0.601219,1.33244 1.06534,0.26738 4.177099,1.94361 5.310296,2.86052 2.178995,1.7631 3.863684,4.20317 4.893839,7.08813 l 0.516704,1.44703 0.09351,29.19087 0.09351,29.190871 -0.427484,0.88306 c -0.62292,1.28679 -1.534894,1.90235 -3.1216,2.10702 -1.483258,0.19133 -29.838252,0.19382 -31.351774,0.003 z m 7.994954,-7.60295 c 0.08432,-0.0521 0.153316,-1.76828 0.153316,-3.8137 l 0,-3.71895 9.620848,0 9.620849,0 0,-11.584291 0,-11.58428 -9.179075,-0.0217 c -5.048491,-0.012 -9.377873,-0.006 -9.620849,0.0141 -0.431261,0.0349 -0.441773,-0.0113 -0.441773,-1.9417 l 0,-1.9775 9.620848,0 9.620849,0 0,-3.82871 0,-3.8287 -9.64225,0 -9.64225,0 0.08226,-5.05586 c 0.0782,-4.80651 0.106836,-5.12462 0.580653,-6.45029 0.627466,-1.75556 1.650634,-3.30764 3.404941,-5.16508 l 1.374407,-1.45521 -0.687204,0.12793 c -0.377962,0.0704 -1.509594,0.53264 -2.514735,1.0273 -3.3423,1.64483 -5.474186,4.18243 -5.945995,7.07755 -0.1511,0.92719 -0.251514,9.40623 -0.319217,26.95497 l -0.09877,25.602281 1.929919,-0.14166 c 1.061456,-0.0779 1.998912,-0.18431 2.083235,-0.23642 z"
       id="path4511"
       inkscape:connector-curvature="0" />
  </g>
  <g
     inkscape:groupmode="layer"
     id="layer23"
     inkscape:label="beer"
     sodipodi:insensitive="true"
     style="display:none">
    <path
       style="fill:#ffffff;fill-opacity:1"
       d="m 62.909763,124.28678 c -5.511038,-0.70716 -11.084942,-2.15292 -14.513324,-3.76444 -2.281406,-1.07239 -2.880247,-1.76451 -3.911494,-4.52076 -1.321994,-3.53335 -4.141611,-19.034123 -3.566884,-19.608846 0.194147,-0.19415 2.816671,0.394671 5.827833,1.30849 11.019393,3.344136 14.586286,3.828316 28.294689,3.840806 11.199771,0.0102 13.644777,-0.17363 19.381243,-1.4572 3.610538,-0.807879 7.971314,-2.00344 9.690624,-2.656793 4.99339,-1.897549 5.4665,-1.728145 4.97435,1.781154 -0.95338,6.798189 -2.94756,16.232709 -3.8227,18.085319 -2.70933,5.73549 -24.330932,9.305 -42.354337,6.99227 z M 64.72476,95.569125 C 57.72635,94.734669 48.358794,92.307663 44.014481,90.203378 l -3.672575,-1.778911 -0.49462,-4.376409 c -0.565215,-5.001035 -0.0031,-23.508466 0.736516,-24.249005 0.269902,-0.270243 3.009627,0.352552 6.088277,1.383996 9.447059,3.165057 16.011455,4.080027 28.993705,4.041252 12.612451,-0.0377 19.842317,-1.134709 28.819566,-4.372983 3.21347,-1.159161 4.64705,-1.417857 5.13777,-0.92713 1.07229,1.072289 0.98315,27.078184 -0.0973,28.380448 -1.28335,1.546841 -9.788365,4.59376 -16.826206,6.027979 -7.410725,1.510211 -20.738724,2.099319 -27.974874,1.23651 z M 59.723149,58.357877 C 54.239258,57.390266 43.436775,54.112491 42.114165,53.014818 40.97464,52.069101 41.065867,49.243391 42.468952,42.025435 c 1.745325,-8.978556 2.740917,-11.08463 5.953917,-12.594919 11.272634,-5.298763 35.052625,-5.954254 49.819457,-1.373262 5.530104,1.715558 7.103324,3.404116 8.375844,8.989889 1.78484,7.834631 2.51887,14.130227 1.7845,15.305175 -0.92982,1.487673 -11.276492,4.888805 -18.357254,6.034356 -7.410343,1.198873 -23.450866,1.183644 -30.322267,-0.02882 z"
       id="path4544"
       inkscape:connector-curvature="0" />
  </g>
  <g
     inkscape:groupmode="layer"
     id="layer24"
     inkscape:label="cooking">
    <path
       style="fill:#ffffff;fill-opacity:1"
       d="m 67.776727,124.80512 c -8.7004,-0.5211 -18.322838,-2.06092 -18.920345,-3.02771 -0.165763,-0.26821 -0.221299,-4.07351 -0.123415,-8.45622 0.191356,-8.56783 0.08107,-10.10794 -2.259176,-31.549107 -0.846836,-7.75865 -1.539703,-14.15221 -1.539703,-14.20792 0,-0.0557 -1.027919,-0.68228 -2.284264,-1.39237 -3.102531,-1.75357 -6.195933,-5.18197 -7.833946,-8.68233 -1.610772,-3.44213 -2.125189,-8.757429 -1.175744,-12.148512 1.322902,-4.724946 6.236137,-9.690492 11.00863,-11.125849 2.675291,-0.804614 7.503019,-0.647979 10.224617,0.331736 l 2.325081,0.836976 0.908554,-1.297149 c 4.37735,-6.24955 12.482689,-9.977421 19.357549,-8.903075 5.510389,0.861117 11.167257,4.373192 14.340104,8.903075 l 0.908555,1.297149 2.32508,-0.862051 c 3.680315,-1.364519 8.580276,-1.158879 12.146036,0.509739 6.79321,3.17893 10.58019,10.176692 9.45424,17.469981 -0.82056,5.31508 -4.74481,11.05814 -9.32069,13.6406 -2.08693,1.17779 -2.31764,1.46109 -2.53754,3.11582 -0.13304,1.00113 -0.95499,8.18354 -1.82654,15.96091 -1.31782,11.75972 -1.61046,16.039287 -1.73801,25.416607 -0.0844,6.20176 -0.24039,11.36295 -0.34674,11.46931 -0.37726,0.37726 -5.756846,1.33972 -11.119889,1.98946 -7.202623,0.87261 -15.039454,1.12618 -21.972444,0.71093 z m 22.189993,-6.51849 c 6.180374,-0.73759 5.873822,-0.41158 5.873822,-6.2467 0,-3.45321 -0.165198,-5.08751 -0.543872,-5.38055 -0.353657,-0.27367 -2.522102,-0.20504 -6.200146,0.19624 -6.007892,0.65547 -26.080433,0.48922 -31.327048,-0.25947 -1.640237,-0.23406 -2.812743,-0.21333 -3.15446,0.0558 -0.377956,0.29765 -0.543872,1.93382 -0.543872,5.36336 0,4.25926 0.104267,4.98922 0.761421,5.33067 0.418782,0.21759 3.013053,0.62113 5.765047,0.89674 2.751994,0.27561 5.688905,0.57704 6.526468,0.66985 2.691299,0.2982 18.797248,-0.14312 22.84264,-0.62593 z m 0.365513,-17.47465 c 4.579954,-0.44081 5.192384,-0.59718 5.519212,-1.409247 0.202195,-0.50239 0.884132,-5.90618 1.51542,-12.00843 0.631288,-6.10225 1.47614,-14.02325 1.877452,-17.60223 l 0.729655,-6.50722 2.658248,-1.01294 c 5.54908,-2.1145 8.67842,-6.49667 8.62533,-12.07848 -0.0341,-3.592225 -1.02153,-5.857128 -3.50331,-8.036163 -2.2275,-1.95577 -4.03132,-2.623736 -7.08532,-2.623736 -3.200377,0 -4.416462,0.44658 -7.323612,2.689431 -2.211912,1.706476 -3.596137,1.959351 -3.596137,0.656955 0,-1.370085 -2.77545,-5.998112 -4.612716,-7.691644 -6.249198,-5.760311 -15.205997,-5.549363 -20.856235,0.4912 -1.844367,1.971776 -4.103609,5.948067 -4.113455,7.23972 -0.0096,1.263281 -1.412006,0.992093 -3.600387,-0.696231 -2.90715,-2.242851 -4.123236,-2.689431 -7.323611,-2.689431 -3.075451,0 -5.295472,0.835562 -7.283718,2.741412 -2.405604,2.305919 -3.306256,4.453432 -3.320958,7.918487 -0.02367,5.57937 3.184342,10.07233 8.602238,12.04779 1.409987,0.51411 2.632895,1.14637 2.717573,1.40504 0.08468,0.25867 0.959208,8.20417 1.943396,17.65667 0.984187,9.4525 1.956896,17.60094 2.161575,18.10765 0.335508,0.830577 0.921824,0.970717 5.955254,1.423347 3.070712,0.27614 6.757875,0.57243 8.193698,0.65843 4.09549,0.24529 16.45113,-0.13474 22.120408,-0.68038 z M 74.780585,81.411703 c -0.538808,-2.63789 -1.087144,-7.07025 -1.366629,-11.04686 -0.273142,-3.88633 -0.228139,-4.2607 0.613322,-5.10216 0.687651,-0.68766 1.148228,-0.81966 1.897301,-0.54379 0.876688,0.32286 1.005168,0.70524 1.129536,3.36177 0.132492,2.82995 -0.552008,11.41801 -1.079869,13.54859 -0.330653,1.3346 -0.897733,1.23125 -1.193661,-0.21755 z m -15.715423,-1.30529 c -0.146623,-0.89739 -0.35105,-2.1211 -0.454285,-2.71936 -0.103232,-0.59826 -0.387085,-3.41757 -0.630788,-6.26512 -0.380215,-4.44261 -0.347991,-5.32253 0.227047,-6.20015 0.36858,-0.56252 1.052707,-1.02277 1.52028,-1.02277 0.467574,0 1.1517,0.46025 1.52028,1.02277 0.575043,0.87763 0.607262,1.75751 0.227021,6.20015 -0.488376,5.7061 -0.840448,8.69569 -1.16055,9.85468 -0.353308,1.27923 -0.967757,0.85113 -1.249005,-0.8702 z m 31.382472,0.4351 c -0.485343,-1.60414 -1.131742,-6.59681 -1.40869,-10.88049 -0.254768,-3.94065 -0.196678,-4.56518 0.495807,-5.33037 0.887282,-0.98043 1.966355,-1.11625 2.737988,-0.34462 0.816923,0.81693 0.456065,10.0984 -0.618287,15.90283 -0.286281,1.54669 -0.844912,1.8488 -1.206818,0.65265 z"
       id="path4596"
       inkscape:connector-curvature="0" />
  </g>
</svg>
