<svg xmlns="http://www.w3.org/2000/svg" width="150" height="150">
    <defs>
        <clipPath id="a">
            <path style="marker:none" color="#000" fill="#fff" stroke-width="2" overflow="visible" d="M44.072 27.448h62.242v60.309H44.072z"/>
        </clipPath>
        <clipPath id="b">
            <path style="marker:none" color="#000" fill="#fff" stroke-width="2" overflow="visible" d="M13.461 61.315h214.585v173.41H13.461z"/>
        </clipPath>
        <clipPath id="c">
            <path style="marker:none" color="#000" fill="#fff" stroke-width="2" overflow="visible" d="M-15.045-26.577h197.957v205.875H-15.045z"/>
        </clipPath>
    </defs>
    <rect width="130" height="130" rx="45" ry="45" x="10" y="912.362" style="marker:none" color="#000" fill="#133348" overflow="visible" transform="translate(0 -902.362)"/>
    <path d="M67.777 124.805c-8.7-.521-18.323-2.06-18.92-3.028-.166-.268-.222-4.073-.124-8.456.191-8.568.081-10.108-2.26-31.549-.846-7.759-1.539-14.152-1.539-14.208 0-.056-1.028-.682-2.284-1.392-3.103-1.754-6.196-5.182-7.834-8.683-1.61-3.442-2.125-8.757-1.176-12.148 1.323-4.725 6.236-9.69 11.009-11.126 2.675-.805 7.503-.648 10.224.332l2.325.837.909-1.297c4.377-6.25 12.483-9.978 19.358-8.903 5.51.86 11.167 4.373 14.34 8.903l.908 1.297 2.325-.862c3.68-1.365 8.58-1.16 12.146.51 6.794 3.178 10.58 10.176 9.455 17.47-.821 5.315-4.745 11.058-9.321 13.64-2.087 1.178-2.318 1.461-2.538 3.116-.133 1.001-.955 8.183-1.826 15.96-1.318 11.76-1.61 16.04-1.738 25.417-.085 6.202-.24 11.363-.347 11.47-.377.377-5.757 1.34-11.12 1.99-7.202.872-15.04 1.125-21.972.71zm22.19-6.518c6.18-.738 5.874-.412 5.874-6.247 0-3.453-.166-5.088-.544-5.38-.354-.274-2.522-.206-6.2.196-6.008.655-26.08.489-31.328-.26-1.64-.234-2.812-.213-3.154.056-.378.298-.544 1.934-.544 5.363 0 4.26.104 4.99.762 5.331.418.218 3.013.621 5.765.897 2.752.275 5.689.577 6.526.67 2.691.298 18.797-.144 22.843-.626zm.365-17.475c4.58-.44 5.193-.597 5.52-1.41.202-.502.884-5.905 1.515-12.008.631-6.102 1.476-14.023 1.877-17.602l.73-6.507 2.658-1.013c5.55-2.115 8.679-6.497 8.626-12.079-.035-3.592-1.022-5.857-3.504-8.036-2.227-1.955-4.031-2.623-7.085-2.623-3.2 0-4.417.446-7.324 2.689-2.212 1.706-3.596 1.96-3.596.657 0-1.37-2.775-5.998-4.613-7.692-6.249-5.76-15.206-5.55-20.856.491-1.844 1.972-4.103 5.949-4.113 7.24-.01 1.263-1.412.992-3.6-.696-2.908-2.243-4.124-2.69-7.324-2.69-3.076 0-5.296.836-7.284 2.742-2.406 2.306-3.306 4.453-3.32 7.918-.025 5.58 3.183 10.073 8.601 12.048 1.41.514 2.633 1.147 2.718 1.405.085.259.96 8.204 1.943 17.657.984 9.452 1.957 17.6 2.162 18.108.335.83.922.97 5.955 1.423 3.07.276 6.758.572 8.194.658 4.095.246 16.451-.134 22.12-.68zm-15.551-19.4c-.54-2.638-1.088-7.07-1.367-11.047-.273-3.886-.228-4.26.613-5.102.688-.688 1.149-.82 1.898-.544.876.323 1.005.705 1.13 3.362.132 2.83-.553 11.418-1.08 13.548-.331 1.335-.898 1.232-1.194-.217zm-15.716-1.306c-.146-.897-.35-2.12-.454-2.719-.103-.598-.387-3.418-.63-6.265-.381-4.443-.349-5.323.226-6.2.369-.563 1.053-1.023 1.52-1.023.468 0 1.152.46 1.52 1.023.576.877.608 1.757.228 6.2-.489 5.706-.84 8.696-1.16 9.855-.354 1.279-.969.85-1.25-.87zm31.383.436c-.486-1.605-1.132-6.597-1.41-10.881-.254-3.94-.196-4.565.497-5.33.887-.98 1.966-1.117 2.738-.345.817.817.456 10.098-.619 15.903-.286 1.547-.844 1.849-1.206.653z" fill="#fff"/>
</svg>
