<svg xmlns="http://www.w3.org/2000/svg" width="150" height="150">
    <rect width="130" height="130" rx="45" ry="45" x="10" y="912.362" style="marker:none" color="#000" fill="#0A7B7B" overflow="visible" transform="translate(0 -902.362)"/>
    <path d="M60.295 121.154c-12.564-3.392-14.203-3.883-14.284-4.28-.05-.246-1.52-16.052-3.266-35.124-1.746-19.072-3.232-35.19-3.302-35.817l-.127-1.142H75c19.626 0 35.684.06 35.684.134 0 .436-6.542 71.188-6.633 71.734l-.111.668-14.292 3.843c-7.86 2.114-14.488 3.838-14.727 3.83-.239-.008-6.82-1.738-14.626-3.846zm24.083-13.865c4.843-1.41 8.852-2.603 8.908-2.65.106-.088 2.371-25.464 2.388-26.746l.01-.704-9.92-.057-9.92-.056 10.082-4.324c5.546-2.379 10.163-4.395 10.26-4.481.146-.13.996-7.282 1.014-8.533.005-.36-1.198-.38-22.266-.38-12.25 0-22.314.073-22.365.162-.052.09.078 1.533.289 3.207.21 1.674.45 3.606.532 4.294l.148 1.25 11.126.005 11.127.005-10.541 4.46c-5.798 2.452-10.616 4.534-10.707 4.625-.091.091-.02 1.969.16 4.172.18 2.204.326 4.131.326 4.284 0 .22 3.063.276 15.327.276h15.327l-.006.815c-.016 2.095-.644 10.355-.799 10.493-.095.085-2.375.77-5.065 1.522l-4.892 1.368-4.674-1.148c-2.57-.632-4.746-1.213-4.833-1.29-.088-.079-.263-1.411-.39-2.962-.125-1.55-.278-3.137-.339-3.526l-.11-.706h-4.447c-3.412 0-4.447.063-4.448.271-.001.38 1.13 13.527 1.166 13.564.142.142 18.344 5.476 18.51 5.424.12-.038 4.18-1.223 9.022-2.634zM53.823 38.212c-.058-.15-.08-3.159-.048-6.685l.058-6.41 5.49-.059L64.811 25V29.778l-3.098.06-3.098.061-.062 2.12-.063 2.12h6.32v4.348H59.37c-4.18 0-5.466-.064-5.547-.275zm15.772-1.9v-2.174h4.231l-2.116-2.123-2.115-2.124V25l5.49.058 5.489.058.061 2.337.062 2.337h-4.464l2.225 2.232 2.224 2.233v4.232H69.595v-2.174zm15.653.004V34.14h4.231l-2.115-2.124-2.116-2.124V25l5.49.058 5.489.058.062 2.337.061 2.337h-4.463l2.233 2.241 2.233 2.241-.063 2.053-.063 2.053-5.49.058-5.489.058v-2.178z" fill="#fff"/>
</svg>
