<svg xmlns="http://www.w3.org/2000/svg" width="150" height="150">
    <rect width="130" height="130" rx="45" ry="45" x="10" y="912.362" style="marker:none" color="#000" fill="#0A7B7B" overflow="visible" transform="translate(0 -902.362)"/>
    <path d="M57.162 113.152c-.202-.203-.152-2.422.073-3.235.308-1.106 1.35-2.331 2.538-2.983l1.067-.586 4.297-.098 4.297-.098.097-1.855.098-1.856H80.37l.098 1.856.097 1.855 4.297.098 4.297.098 1.067.586c1.212.665 2.24 1.892 2.55 3.041.116.429.184 1.326.152 1.994l-.058 1.215-17.789.05c-9.783.027-17.847-.01-17.92-.082zM35.474 98.83c-1.387-.543-2.382-1.298-3.058-2.318-1.237-1.867-1.177-.288-1.12-29.335l.052-26.454.511-1.091a6.286 6.286 0 0 1 3.085-3.085l1.091-.512h77.149l1.09.512a6.286 6.286 0 0 1 3.085 3.085l.512 1.09v53.712l-.512 1.09a6.286 6.286 0 0 1-3.084 3.085l-1.091.512-38.38.04c-37.36.04-38.403.032-39.33-.331zm77.927-7.924c.297-.222.72-.646.942-.942.402-.538.403-.602.403-24.73 0-24.127 0-24.191-.403-24.73a5.585 5.585 0 0 0-.942-.941l-.539-.403H36.357l-.54.403c-.296.221-.72.645-.942.942-.4.537-.403.651-.459 24.207-.03 13.017-.005 23.95.057 24.296.14.783.961 1.78 1.748 2.124.49.215 7.305.253 38.618.219l38.023-.042.54-.403zm-39.09-8.333c-.053-.137-.073-4.336-.045-9.33l.05-9.083h6.055v18.555l-2.983.054c-2.278.041-3.005-.005-3.078-.196zm9.374 0c-.053-.138-.073-3.458-.045-7.378l.051-7.129h6.055V82.715l-2.983.054c-2.283.041-3.005-.005-3.078-.196zm9.376 0c-.053-.137-.073-7.676-.045-16.753l.05-16.504h6.055v33.399l-2.983.054c-2.278.041-3.005-.005-3.077-.196zm9.374 0c-.052-.137-.072-5.566-.044-12.065l.05-11.817h6.055v24.024l-2.983.054c-2.278.041-3.005-.005-3.078-.196zm-50.58-3.086c-1.773-.422-2.443-.641-2.62-.855-.128-.154.735-2.002 2.7-5.786l2.89-5.56 6.706-.052c3.813-.03 6.782.024 6.883.125.105.105.007.792-.242 1.7-1.321 4.816-4.936 8.494-9.871 10.042-1.547.485-5.13.7-6.446.387zm4.842-3.212c1.966-.417 3.745-1.376 5.316-2.866 1.52-1.44 2.45-2.835 2.007-3.005-.145-.055-1.843-.077-3.773-.047l-3.509.053-1.526 2.878c-.84 1.584-1.472 2.968-1.405 3.077.171.276 1.33.24 2.89-.09zm-12.525-.83c-1.74-1.739-2.877-3.6-3.676-6.011-.442-1.337-.52-1.915-.534-4.004-.02-2.855.271-4.18 1.433-6.543a14.282 14.282 0 0 1 6.247-6.425c1.387-.728 4.18-1.59 4.506-1.388.125.077.196 2.663.196 7.141v7.02l-3.015 5.81c-1.729 3.333-3.144 5.837-3.318 5.873-.172.036-.969-.602-1.839-1.472zM55.6 63.933c-.072-.071-.13-3.016-.13-6.543v-6.412h.642c1.831 0 5.26 1.449 7.263 3.069.642.519 1.597 1.47 2.122 2.111 1.588 1.942 3.059 5.435 3.059 7.263v.642h-6.413c-3.527 0-6.471-.058-6.543-.13z" fill="#fff"/>
</svg>
