<svg xmlns="http://www.w3.org/2000/svg" width="150" height="150">
    <rect width="130" height="130" rx="45" ry="45" x="10" y="912.362" style="marker:none" color="#000" fill="#133348" overflow="visible" transform="translate(0 -902.362)"/>
    <path d="M73.28 124.75c.125-.125-.825-.494-2.112-.82-3.557-.904-7.712-2.82-11.555-5.328-11.944-7.797-20.78-21.25-23.195-35.318-.529-3.078-.653-5.514-.673-13.145l-.024-9.367 1.177-3.54c1.58-4.752 3.089-7.996 3.957-8.509.394-.232 1.238-1.56 1.875-2.95.638-1.39 1.86-3.566 2.715-4.836 1.68-2.493 6.855-7.487 8.608-8.308.594-.278 1.99-1.106 3.102-1.84 1.112-.734 4.07-2.266 6.572-3.406 3.716-1.691 4.994-2.111 6.973-2.29 1.333-.12 2.505-.085 2.605.076.1.161.822.396 1.605.52.782.126 1.6.375 1.816.555.252.209 1.691.214 3.998.013 3.481-.302 3.698-.28 6.364.635 1.518.522 3.642 1.346 4.72 1.832 1.079.485 2.104.795 2.278.687.174-.107.921-.203 1.661-.214 1.087-.015 1.605.216 2.696 1.201.745.674 1.705 1.22 2.143 1.22 1.465 0 6.59 4.387 9.506 8.136.813 1.046 2.086 3.018 2.83 4.382 1.125 2.064 1.353 2.801 1.357 4.398.005 2.203-.407 2.733-1.004 1.29-.606-1.463-1.101-1.77-2.188-1.357-.788.3-.886.481-.69 1.272.125.507.633 1.248 1.129 1.647.82.66.91.966.999 3.37.207 5.608.358 6.951.84 7.432.425.426.402.774-.185 2.738-.37 1.237-.955 2.563-1.301 2.945-.346.383-.63 1.118-.63 1.634 0 1.508-2.72 7.613-3.392 7.613-.732 0-1.356.761-1.621 1.976-.319 1.458-5.598 5.795-9.31 7.647-5.719 2.854-10.981 3.232-18.453 1.326-1.416-.361-1.136.362.505 1.305 1.611.927 4.265 1.565 6.505 1.565.9 0 1.5.154 1.5.385 0 .644-4.952.094-7.688-.854-3.102-1.074-5.63-2.515-7.124-4.06-.639-.66-1.036-1.2-.884-1.2.153 0 1.396.616 2.763 1.37 3.05 1.685 3.392 1.096.609-1.051-1.032-.796-2.876-2.52-4.097-3.833-3.425-3.68-4.813-7.328-4.813-12.654 0-6.7 5.629-14.759 11.63-16.65 2.619-.826 6.631-.717 8.966.243 1.972.812 4.008 2.103 4.008 2.542 0 .14-1.023-.094-2.275-.52-5.51-1.878-11.944-.25-15.776 3.992-2.542 2.814-4.36 8.348-3.601 10.961.203.701.542 2.143.753 3.203 1.452 7.298 8.73 13.407 15.974 13.407 2.732 0 7.297-1.033 8.574-1.94 1.319-.937 1.528-1.043 2.418-1.231.464-.098 2.17-1.328 3.792-2.733 2.66-2.304 2.949-2.67 2.949-3.735 0-.904.267-1.433 1.139-2.259 1.842-1.744 2.232-3.523 2.227-10.154-.007-9.032-1.127-13.19-5.101-18.939-2.225-3.218-6.117-6.82-9.013-8.342-4.06-2.134-6.566-2.671-12.865-2.76-3.07-.044-6.407.068-7.415.248-1.727.31-4.68 1.73-7.326 3.526-.646.438-1.57.798-2.054.8-1.348.004-4.37 1.876-4.617 2.859-.144.577-.552.927-1.327 1.141-3.298.91-12.363 9.688-11.809 11.434.12.376-.477 1.994-1.523 4.134-1.653 3.38-1.737 3.692-2.184 8.066-.575 5.624-.618 11.768-.092 13.038.216.522.506 1.859.645 2.971.616 4.927 1.49 7.083 3.192 7.881 1.423.667 2.156 1.381 2.884 2.807.77 1.508.778 1.614.133 1.614-.739 0-.616.636.48 2.498.536.91.898 1.853.804 2.096-.093.243.149.846.537 1.34.389.494.706 1.145.706 1.447 0 .664 2.037 3.798 3.525 5.427.594.649 1.576 1.976 2.183 2.949.817 1.31 1.307 1.77 1.887 1.77.453 0 1.112.404 1.565.96.43.53 1.276 1.317 1.879 1.75.602.432 1.095 1.054 1.095 1.38 0 .644 3.823 2.987 4.872 2.987.327 0 1.41.746 2.407 1.657 1.93 1.764 3.474 2.421 7.298 3.107 1.251.225 2.275.534 2.275.687 0 .154-1.466.279-3.258.279s-3.156-.102-3.03-.228zm-7.494-42.862c-.789-1.108-.869-1.4-.382-1.4.373 0 1.49 2.002 1.25 2.242-.087.086-.477-.293-.868-.842zm18.5-3.852c-.803-.37-.773-.394.625-.506 1.602-.128 2.165.12 1.388.612-.624.395-.961.378-2.012-.106zM95.073 65.49c0-.278.152-.505.337-.505.185 0 .337.227.337.505s-.152.506-.337.506c-.185 0-.337-.228-.337-.506zM37.5 46.763c.081-.243.347-.508.59-.59.253-.084.379.043.295.295a1.054 1.054 0 0 1-.59.59c-.253.085-.38-.042-.295-.295z" fill="#fff"/>
</svg>
