<svg xmlns="http://www.w3.org/2000/svg" width="150" height="150">
    <defs>
        <clipPath id="a">
            <path style="marker:none" color="#000" fill="#fff" stroke-width="2" overflow="visible" d="M44.072 27.448h62.242v60.309H44.072z"/>
        </clipPath>
        <clipPath id="b">
            <path style="marker:none" color="#000" fill="#fff" stroke-width="2" overflow="visible" d="M13.461 61.315h214.585v173.41H13.461z"/>
        </clipPath>
        <clipPath id="c">
            <path style="marker:none" color="#000" fill="#fff" stroke-width="2" overflow="visible" d="M-15.045-26.577h197.957v205.875H-15.045z"/>
        </clipPath>
    </defs>
    <rect width="130" height="130" rx="45" ry="45" x="10" y="912.362" style="marker:none" color="#000" fill="#00a8a8" overflow="visible" transform="translate(0 -902.362)"/>
    <path d="M-58.904 159.694c.104-57.705.289-65.53 1.364-57.75 6.048 43.793 36.472 86.483 76.516 107.368 17.155 8.947 30.502 13.439 46.5 15.649 7.78 1.074-.044 1.259-57.75 1.363l-66.75.12.12-66.75zm172.38 65.267c61.31-8.469 114.549-61.707 123.017-123.017 1.075-7.78 1.26.045 1.363 57.75l.12 66.75-66.75-.12c-57.705-.104-65.53-.289-57.75-1.363zm-63.928-56.089c-1.755-1.755-2.149-9.964-.595-12.428.742-1.178 4.015-1.608 15.234-2l14.29-.5.304-5.331c.176-3.071-.194-5.933-.872-6.75-.972-1.172-6.8-1.42-33.419-1.42H12.25l-2.637-2.636-2.637-2.636v-62.43c0-42.807.34-63.063 1.08-64.448 2.507-4.683 4.524-4.85 58.888-4.85 28.068 0 51.032.367 51.032.814 0 .447-1.262 2.022-2.804 3.5l-2.805 2.687h-92.28l-2.805 2.413-2.806 2.412-.279 45.58c-.307 50.03-.234 50.712 5.548 52.33 1.502.42 33.659.765 71.459.765h68.727l2.773-2.772 2.772-2.772.29-43.78c.316-47.971.074-50.516-5.04-52.967-3.328-1.596-3.357-1.938-.457-5.561 2.245-2.806 2.341-2.828 5.914-1.335 1.998.835 4.119 2.426 4.713 3.536.74 1.385 1.08 21.641 1.08 64.449v62.43l-2.636 2.635-2.636 2.637h-32.242c-26.619 0-32.446.247-33.418 1.419-.679.817-1.048 3.679-.873 6.75l.305 5.33 14.29.5c16.128.565 16.17.587 16.195 8.18.027 8.191 1.992 7.82-41.485 7.82-33.536 0-38.554-.197-39.928-1.57zm100.744-34.592c6.854-3.65 5.955-12.505-1.537-15.145-2.393-.843-7.621 1.146-8.8 3.348-1.768 3.304-1.121 7.91 1.476 10.506 2.683 2.683 5.482 3.091 8.861 1.291zM65.306 79.31c1.196-10.097 9.028-22.953 15.926-26.143 7.067-3.267 7.522-3.208 12.341 1.612l4.5 4.5-1.522 3.64c-2.057 4.926-5.094 9.047-8.397 11.4-2.775 1.975-20.928 10.12-22.567 10.123-.489.001-.616-2.308-.281-5.132zM-58.904-3.806l-.12-66.75 66.75.12c57.706.104 65.53.288 57.75 1.363C4.166-60.605-49.072-7.366-57.54 53.944c-1.075 7.78-1.26-.045-1.364-57.75zm295.46 59C234.683 35.179 223.666 8.37 209.52-10.6c-23.495-31.505-59.502-53.427-96.043-58.474-7.78-1.075.045-1.26 57.75-1.363l66.75-.12v66.5c0 36.575-.166 66.5-.37 66.5s-.677-3.263-1.05-7.25zM95.217 52.667c-1.792-1.498-3.255-3.34-3.25-4.092.005-.753 2.557-5.028 5.672-9.5 12.981-18.641 24.255-30.144 43.57-44.456 5.097-3.776 11.282-8.561 13.745-10.632 5.344-4.494 8.907-6.059 10.4-4.566 1.65 1.65-.251 5.399-8.891 17.523C141.215 18.34 135.06 26.033 126.815 34c-9.514 9.192-24.965 21.456-26.982 21.416-.746-.015-2.823-1.252-4.616-2.75z" clip-path="url(#c)" transform="translate(34.23 37.91) scale(.48573)" fill="#fff"/>
</svg>
