<svg xmlns="http://www.w3.org/2000/svg" width="150" height="150">
    <rect width="130" height="130" rx="45" ry="45" x="10" y="912.362" style="marker:none" color="#000" fill="#133348" overflow="visible" transform="translate(0 -902.362)"/>
    <path d="M119.746 70.055c.848-8.076.049-24.301-1.558-33.084-.37-2.033-1.69-4.546-5.195-5.364-8.962-2.088-20.815-3.248-33.452-3.343-1.099 9.047-2.026 21.584-2.026 35.748l.014 5.416.001.3 1.344.126c.644.058.891.41.983 1.059.09.638.174 1.432.174 1.432s24.08-.14 39.715-2.29M71.164 81.406l-1.348-.127c-.644-.06-.913-.405-.983-1.06-.066-.607-.172-1.43-.172-1.43l.001-.01c-10.724 0-22.816.058-38.45 2.21 2.109 12.075 15.911 39.39 38.146 51.081 1.1-9.047 2.832-31.1 2.832-45.263l-.023-5.109-.002-.3-.001.008M80.024 78.78c10.724 0 22.924.057 38.558 2.208-2.11 12.076-15.91 39.391-38.147 51.082-1.096-9.047-2.93-31.1-2.93-45.263l.081-5.2-.012-.21 1.29-.118c.644-.06.905-.407.983-1.06l.174-1.43.004-.01M50.622 54.324c-.057.111-.019.3.042.388a1.36 1.36 0 0 0 .44-.15c.141-.085.181-.153.331-.26-.146-.011-.792-.014-.813.022" fill="#fff"/>
    <path d="M50.4 48.967L28.636 70.055c15.54 2.137 29.136 2.288 39.832 2.292h.195s.09-.722.172-1.433c.076-.652.34-1 .985-1.06l1.345-.127.002-.024zm-1.9 6.186c-.093.35-.09.798.4.798.379 0 1.04-.325 1.18-.39l.057.126c-.11.043-.975.738-1.673.747-.39.007-.524-.228-.524-.458 0-.355.277-.48.56-.823zm7.084 5.06c0 .377-.572.598-.687.767-.06.085-.106.137-.13.23-.068-.244.06-.446.06-.62 0-.199-.139-.293-.337-.293-.301 0-1.109.73-.622 1.898-.033-.415.12-.688.19-.765a.511.511 0 0 0 .12-.351c.157.289.19.42.19.65 0 .497-.362.601-.193.97.031.103.064.187.116.317 0-.176.032-.329.063-.452.03-.122.221-.352.244-.444a.635.635 0 0 0 .008-.3c.16.2.268.375.268.698 0 .374-.168.59-.215.696-.046.11-.1.215-.12.4-.107.826-.514 1.216-1.052 1.216-.336 0-.588-.053-.802-.192 0 1.064-1.212.98-1.212 1.676 0 .193.131.421.26.552.13.13.621.312.804.548-.263.02-.548.11-.702.287.436.216.423.463.48.792-.427-.212-.622-.088-.732.026-.13.138-.068.32-.217.533-.068-.167-.181-.31-.364-.31-.186 0-.564.331-.57.439-.015.29-.153.405-.415.44-.197.207-.15.315-.143.51-.169-.16-.197-.264-.132-.555-.197-.08-.173-.245-.113-.39l-.075-.052c-.106.094-.214.228-.475.104-.101.044-.232.199-.253.383-.07-.44.07-.592.143-.656-.045-.1.017-.308.197-.385 0-.045-.016-.066-.023-.088-.146 0-.268-.058-.32-.154-.141-.026-.335.141-.371.244 0-.245.197-.494.343-.555.163-.327.478-.385.668-.195.105.103.355.218.611.218.254 0 .486-.211.548-.296.061-.084.068-.1.1-.17.055-.124.161-.274-.1-.603-.207-.261-.722-.764-.732-1.126-.016-.594.259-.938.527-1.175h-.212c-.378 0-.411-.237-.798-.237-.281 0-.45.284-.45.53 0 .245.045.297.13.455.119.218.16.34.129.56-.223-.201-.54-.304-.794-.08-.097.284-.158.396-.34.532-.016-.237-.5-.613-.934-.211-.041.101-.08.325-.383.325-.179 0-.161-.043-.236-.073-.124.107-.228.225-.265.38a.611.611 0 0 1 .101-.533c-.03-.102-.02-.355.11-.423-.039-.043-.025-.015-.06-.076-.187.16-.483.179-.614-.002-.11.02-.214.096-.33.332-.028-.24.133-.511.247-.59.001-.18.25-.337.506-.283.02-.032-.003-.05.024-.089.027-.038-.01-.02-.01-.02-.073-.041-.317-.051-.301-.354-.148-.052-.287.017-.39.104.101-.26.319-.341.486-.358.06-.113.245-.127.34-.127.178 0 .297.085.328.196.18.319.585.423.983.423a.367.367 0 0 0 .37-.381c0-.228-.39-.898-.39-1.206 0-.305.55-.895.917-.895 1.12 0 1.38.47 1.632.47.354 0 .4-.075.455-.13-.528-.65-.865-.636-1.368-.982-.255-.174-.385-.468-.423-.741-.312.073-.615.489-.763.748-.07-.124-.175-.205-.306-.205-.249 0-.426.323-.545.602-.071-.319-.26-.613-.625-.613-.203 0-.435.089-.494.221a.468.468 0 0 1-.55.25c-.108.076-.207.107-.282.44-.103-.417 0-.495.06-.598-.06-.275.053-.374.105-.44l-.03-.073c-.161.054-.401.035-.473-.106-.182-.009-.236.016-.393.249.031-.265.183-.482.348-.547.063-.156.279-.22.451-.22.014-.044.028-.044.035-.08a.371.371 0 0 1-.183-.37c-.137-.16-.289-.06-.416-.014.221-.23.48-.315.656-.212.38-.125.51.05.545.263.044.243.423.275.816.275.86 0 2.225-.8 2.125-1.434-.203-.051-.226-.044-.384-.044-.46 0-1.034.574-1.487.583.227-.256.087-.515.213-.705-.25-.005-.502.15-.977.108.16-.096.27-.43.27-.546 0-.117 0-.35-.51-.35-.05.014-.188.057-.29.057-.12 0-.458-.03-.458-.297-.167-.037-.29.007-.47.142.035-.184.383-.416.485-.431.072-.141.214-.204.284-.197.014-.073.012-.007.016-.094-.173-.024-.394-.087-.388-.376-.124-.113-.2-.136-.476-.064.342-.255.463-.218.573-.174.25-.188.456-.086.526-.006.03-.038.057-.043.071-.073-.06-.182-.024-.36.054-.438-.005-.2-.097-.26-.28-.3.376.009.529.094.653.234.217.03.353.219.356.356.007.355-.37.6.357.977.226.116.547.231.867.327.322.094.719.238.88.238-.125-.195-.073-.391-.278-.588.233-.016.517.065.73.108-.046-.285.025-.285-.164-.461.16.022.39.026.513.04.829.087.84-.324 1.001-.846a2.464 2.464 0 0 0-1.21.386c.044-.155-.005-.278-.005-.41 0-.248.195-.298.29-.298.044 0 .168-.02.262-.02.18 0 .435-.203.317-.608-.056-.192-.204-.314-.373-.263-.123.035-.153.033-.332.099-.14.052-.183.16-.199.306-.028-.066-.078-.252-.1-.299-.028-.054-.048-.087-.098-.212-.016-.04-.01-.04-.033-.09-.087-.205.05-.375.226-.41.145-.028.38-.087.524-.13.287-.086.376-.199.437-.35.064-.159.104-.221.369-.221.082 0 .381.007.518.007.4 0 .853-.328.704-.674.28.05.391.498.323.674.13 0 .566-.086.665-.17-.001.302-.238.674-.405.767.214.022.591-.009.705-.108-.07.23-.314.719-.469.788.375.129.618.33.785.794-.283-.117-.45.024-.698-.014.51.597.698 1.505.848 1.732-.137-.075-.414-.23-.621-.305.212.494-.101.984-.054 1.246-.16-.092-.37-.207-.435-.337-.084.2-.26.59-.194 1.094-.128-.137-.351-.243-.45-.322-.192.275-.307.453-.307 1.158 0 .962.45 1.885.644 2.25.298.56.373 1.036.421 1.226.094.374.363.62.72.62.344 0 .635-.316.635-.699 0-.696-.85-1.14-.85-2.365 0-.804.62-1.204.637-1.718.014-.452-.402-.172-.712-.374.399-.078.632-.519.987-.5.312.02.383.185.4.343.023.22-.12.474-.165.564.347-.297.5-.755.5-.985 0-.345-.484-.727-.359-1.387.018-.089.016-.075.038-.129.143.742 1.196.933 1.196 1.668 0 .692-.599.562-.941 1.042.376-.151.798-.077.798.336" fill="#fff"/>
    <path d="M69.166 28.264c-12.682.106-24.585 1.343-33.454 3.343-3.51.792-4.815 3.333-5.194 5.364-1.076 5.756-2.468 17.134-2.028 28.833 2.158-2.053 22.04-21.389 22.04-21.389l20.66 20.629c0-14.164-.926-27.733-2.024-36.78zM38.38 34.935c-.096.355-.093.813.404.813.386 0 1.06-.33 1.2-.397l.058.127c-.111.045-.99.75-1.7.76-.397.006-.533-.234-.533-.468 0-.36.282-.487.57-.835zm7.209 5.148c0 .383-.585.608-.703.78-.058.087-.106.141-.13.233-.072-.247.06-.452.06-.63 0-.202-.14-.296-.345-.296-.304 0-1.126.74-.631 1.929-.033-.421.123-.7.195-.776a.511.511 0 0 0 .118-.359c.162.294.195.426.195.66 0 .508-.367.614-.195.99.031.103.064.188.118.32 0-.177.032-.334.063-.46.031-.123.226-.354.249-.45a.658.658 0 0 0 .009-.305c.163.202.271.38.271.709 0 .381-.17.602-.22.71-.043.11-.098.22-.121.404-.106.842-.522 1.237-1.067 1.237-.345 0-.6-.052-.82-.193 0 1.083-1.232.997-1.232 1.706 0 .196.134.428.266.562.13.13.632.317.817.557-.268.019-.56.111-.714.292.444.22.432.47.489.806-.435-.217-.635-.09-.747.026-.132.141-.068.326-.22.541-.07-.17-.183-.315-.371-.315s-.573.34-.578.448c-.016.296-.157.412-.425.447-.198.212-.151.32-.144.519-.171-.162-.2-.268-.134-.566-.2-.08-.176-.249-.117-.395l-.075-.054c-.106.097-.217.233-.484.108-.102.043-.235.2-.256.388-.07-.447.072-.602.145-.667-.045-.102.019-.313.2-.393 0-.043-.016-.066-.023-.087-.148 0-.273-.06-.325-.155-.145-.031-.341.141-.378.246 0-.251.2-.505.348-.566.167-.333.488-.392.68-.199.107.107.363.222.622.222.258 0 .496-.215.557-.3a.668.668 0 0 0 .101-.172c.058-.129.167-.279-.1-.616-.21-.265-.735-.778-.746-1.144-.015-.604.265-.955.538-1.197h-.216c-.386 0-.42-.24-.81-.24-.29 0-.459.289-.459.537 0 .251.044.303.131.465.122.223.164.345.132.57-.228-.206-.55-.309-.807-.083-.1.291-.162.402-.348.54-.014-.238-.507-.621-.947-.212-.046.1-.084.33-.392.33-.18 0-.163-.043-.24-.074-.127.11-.232.231-.27.386a.616.616 0 0 1 .105-.543c-.03-.101-.023-.359.111-.43-.042-.042-.024-.014-.06-.077-.192.164-.493.181-.626-.003-.111.023-.22.1-.336.34-.028-.243.138-.52.25-.6.003-.186.255-.344.516-.288.02-.032-.003-.054.024-.09.028-.04-.008-.024-.008-.024-.077-.04-.324-.05-.308-.358-.15-.054-.293.017-.397.106a.566.566 0 0 1 .494-.365c.061-.115.25-.127.348-.127.18 0 .301.085.333.198.18.324.593.432 1 .432a.372.372 0 0 0 .375-.39c0-.233-.397-.914-.397-1.227 0-.31.559-.909.935-.909 1.14 0 1.402.477 1.658.477.36 0 .41-.075.465-.13-.538-.662-.883-.65-1.394-1.003-.258-.178-.39-.475-.43-.754-.319.075-.625.498-.775.763-.071-.126-.18-.21-.311-.21-.254 0-.435.332-.555.614-.073-.324-.265-.624-.637-.624-.208 0-.442.09-.502.223a.476.476 0 0 1-.558.256c-.112.078-.213.108-.29.447-.104-.424 0-.503.06-.607-.06-.28.057-.381.11-.447l-.03-.077c-.165.054-.41.037-.484-.106-.186-.009-.238.014-.398.254.03-.272.184-.493.355-.559.062-.158.283-.223.457-.223.014-.045.028-.045.037-.083a.376.376 0 0 1-.188-.376c-.14-.162-.292-.06-.421-.012.222-.233.487-.322.666-.218.385-.127.519.052.556.268.043.247.43.282.83.282.873 0 2.262-.816 2.161-1.46-.207-.052-.23-.044-.391-.044-.467 0-1.051.584-1.51.592.229-.26.088-.524.213-.717-.252-.007-.51.152-.992.11.162-.096.275-.439.275-.555 0-.12 0-.359-.52-.359-.05.016-.192.061-.296.061-.122 0-.467-.031-.467-.303-.17-.038-.294.007-.478.145.036-.188.391-.425.496-.44.071-.145.216-.21.287-.2.014-.074.012-.008.017-.097-.177-.024-.4-.087-.395-.38-.125-.116-.203-.14-.484-.067.347-.26.47-.22.583-.177.256-.19.463-.087.535-.004.03-.038.057-.045.071-.075-.06-.186-.024-.367.056-.447-.005-.202-.1-.265-.286-.305.385.007.54.096.665.239.221.028.36.22.364.362.007.362-.378.61.362.994.232.116.555.236.882.332.328.096.731.244.895.244-.127-.2-.073-.399-.284-.6.239-.016.528.065.744.109-.046-.29.027-.29-.166-.468.162.022.395.026.522.04.843.09.855-.328 1.019-.858a2.465 2.465 0 0 0-1.231.393c.044-.158-.005-.284-.005-.42 0-.25.198-.3.296-.3.045 0 .169-.021.266-.021.183 0 .442-.211.32-.62-.057-.197-.207-.32-.377-.268-.127.036-.155.033-.34.1-.14.053-.186.163-.2.312-.028-.067-.08-.257-.104-.302-.028-.058-.047-.093-.098-.218-.016-.04-.012-.04-.035-.094-.088-.205.05-.38.23-.413.148-.03.386-.092.533-.134.294-.088.383-.201.445-.356.066-.162.106-.227.374-.227.086 0 .39.01.53.01.409 0 .868-.333.717-.687.285.05.396.505.327.686.132 0 .576-.087.677-.172-.004.308-.242.686-.413.78.218.022.6-.01.717-.11-.07.233-.32.73-.476.802.38.133.63.336.8.808-.289-.119-.46.024-.712-.016.52.608.712 1.534.862 1.762-.14-.075-.421-.232-.63-.309.214.503-.105 1-.056 1.268-.162-.094-.374-.211-.442-.343-.087.203-.266.6-.197 1.114-.132-.14-.358-.25-.46-.328-.192.28-.31.46-.31 1.179 0 .978.455 1.916.655 2.287.303.57.38 1.054.427 1.248.096.383.37.63.733.63.351 0 .647-.319.647-.709 0-.708-.867-1.159-.867-2.407 0-.818.63-1.225.65-1.747.015-.461-.41-.176-.723-.381.404-.08.642-.528 1.003-.509.318.02.391.187.407.35.023.223-.122.48-.169.573.352-.303.508-.768.508-1.003 0-.35-.49-.74-.365-1.411.02-.09.017-.077.04-.13.146.753 1.217.948 1.217 1.696 0 .705-.61.571-.956 1.06.381-.156.813-.078.813.341zm13.097-6.55c-.1.372-.096.849.421.849.402 0 1.105-.345 1.253-.413l.06.13c-.117.05-1.034.784-1.774.794-.412.005-.555-.243-.555-.487 0-.374.294-.508.595-.872zm7.514 5.369c0 .398-.61.633-.733.812-.06.09-.111.147-.136.242-.073-.259.065-.47.065-.656 0-.209-.148-.308-.36-.308-.32 0-1.175.771-.659 2.01-.034-.44.13-.73.202-.81a.52.52 0 0 0 .126-.371c.168.304.2.442.2.685 0 .531-.381.64-.202 1.032.033.108.068.197.123.335 0-.185.034-.349.067-.48.031-.128.235-.372.259-.47a.664.664 0 0 0 .007-.317c.172.212.285.396.285.74 0 .396-.179.626-.228.739-.047.113-.106.226-.128.421-.11.88-.543 1.29-1.114 1.29-.357 0-.625-.056-.853-.202 0 1.128-1.283 1.039-1.283 1.777 0 .204.138.447.277.587.137.137.658.328.85.58-.278.02-.58.117-.744.305.463.228.45.49.51.84-.453-.227-.661-.096-.776.025-.14.148-.072.34-.23.566-.075-.177-.193-.327-.388-.327s-.597.351-.602.465c-.018.308-.164.43-.442.466-.21.221-.159.334-.15.541-.181-.17-.209-.282-.141-.59-.209-.085-.183-.259-.12-.412l-.079-.056c-.113.101-.228.242-.504.112-.106.045-.247.208-.268.405-.072-.466.073-.628.151-.696-.047-.105.02-.326.209-.41 0-.044-.017-.069-.024-.09-.154 0-.284-.064-.342-.162-.147-.03-.351.148-.39.256 0-.26.208-.527.363-.588.174-.348.506-.41.708-.207.111.11.378.23.647.23.27 0 .516-.223.582-.312a.648.648 0 0 0 .104-.18c.06-.133.173-.292-.104-.641-.22-.275-.766-.811-.775-1.193-.017-.63.274-.995.557-1.246h-.224c-.402 0-.437-.252-.844-.252-.302 0-.48.3-.48.562 0 .26.048.315.14.482.124.233.169.359.134.594-.235-.213-.572-.32-.84-.084-.103.301-.17.416-.36.564-.018-.252-.528-.651-.99-.226-.045.108-.085.346-.405.346-.19 0-.17-.045-.25-.078-.133.115-.242.242-.28.404a.64.64 0 0 1 .107-.566c-.031-.108-.022-.374.115-.45-.04-.044-.026-.015-.063-.08-.198.171-.515.192-.65 0-.117.022-.229.102-.35.35-.03-.252.142-.54.26-.622.002-.194.267-.36.537-.302.02-.033-.004-.055.026-.095.028-.04-.009-.021-.009-.021-.08-.044-.337-.054-.32-.376-.157-.056-.306.017-.414.111a.585.585 0 0 1 .515-.38c.063-.121.26-.133.362-.133.188 0 .315.089.344.207.192.336.622.449 1.045.449.21 0 .39-.162.39-.404 0-.243-.415-.954-.415-1.279 0-.325.583-.949.973-.949 1.19 0 1.462.496 1.73.496.375 0 .425-.076.483-.137-.56-.69-.918-.674-1.452-1.04-.27-.187-.407-.497-.447-.788-.331.079-.653.52-.808.794-.075-.13-.188-.22-.325-.22-.265 0-.455.347-.578.64-.077-.336-.277-.648-.663-.648-.218 0-.463.092-.524.233a.494.494 0 0 1-.583.265c-.115.082-.22.115-.3.466-.11-.44 0-.524.063-.633-.063-.29.057-.395.111-.467l-.031-.076c-.172.055-.426.036-.501-.113-.193-.01-.25.015-.418.264.035-.282.193-.513.37-.58.067-.167.297-.234.478-.234.015-.047.03-.047.038-.086a.39.39 0 0 1-.195-.391c-.146-.17-.306-.063-.44-.016.235-.242.51-.33.696-.224.4-.133.54.053.578.278.045.258.449.294.865.294.912 0 2.358-.85 2.254-1.521-.216-.054-.24-.047-.41-.047-.487 0-1.094.61-1.574.618.24-.272.092-.545.222-.747-.26-.007-.529.159-1.034.115.171-.1.286-.456.286-.58 0-.123 0-.372-.54-.372-.054.014-.2.063-.308.063-.129 0-.487-.033-.487-.317-.176-.038-.306.009-.498.151.038-.195.407-.442.517-.457.075-.154.225-.218.298-.21.017-.078.014-.006.019-.1-.185-.025-.418-.09-.413-.397-.13-.12-.212-.146-.504-.07.362-.27.492-.23.609-.184.266-.199.482-.09.557-.004.031-.04.06-.047.075-.078-.063-.193-.027-.383.057-.466-.007-.211-.103-.275-.298-.317.4.007.563.1.693.249.232.03.376.231.38.376.007.379-.394.637.377 1.035.24.124.58.247.92.348.34.1.762.253.932.253-.132-.207-.078-.416-.294-.625.247-.016.548.07.773.116-.047-.302.028-.304-.173-.489.171.023.413.026.543.04.88.094.892-.34 1.062-.894-.3.015-.804.09-1.283.41.047-.167-.005-.297-.005-.436 0-.263.207-.315.31-.315.045 0 .176-.021.275-.021.193 0 .461-.218.336-.646-.06-.205-.216-.332-.395-.28-.13.038-.162.035-.353.106-.148.054-.194.169-.21.324-.029-.072-.083-.267-.107-.317-.03-.06-.049-.094-.101-.226-.018-.04-.014-.042-.038-.094-.091-.218.055-.397.24-.434.155-.031.402-.094.555-.139.308-.092.4-.21.463-.37.07-.17.111-.237.392-.237.087 0 .407.008.551.008.427 0 .905-.346.747-.715.298.054.416.527.341.715.138 0 .602-.09.705-.179-.002.32-.25.714-.43.813.228.023.628-.01.748-.113-.074.242-.334.76-.496.835.396.136.657.35.834.84-.301-.123-.479.027-.741-.015.541.634.741 1.598.898 1.836-.146-.078-.439-.242-.658-.322.224.524-.108 1.043-.058 1.323-.17-.099-.39-.22-.46-.36-.091.214-.278.626-.204 1.163-.138-.147-.375-.262-.48-.342-.203.293-.325.48-.325 1.227 0 1.022.476 1.997.683 2.385.316.595.395 1.1.445 1.3.1.399.387.658.764.658.366 0 .674-.332.674-.74 0-.74-.902-1.208-.902-2.508 0-.853.657-1.277.676-1.82.017-.482-.425-.183-.754-.399.421-.083.67-.55 1.046-.529.33.02.406.195.425.364.022.231-.127.501-.176.598.367-.316.53-.802.53-1.047 0-.366-.513-.77-.38-1.47.017-.095.017-.08.04-.137.151.787 1.267.99 1.267 1.77 0 .735-.632.594-.996 1.104.397-.16.848-.082.848.357" fill="#fff"/>
    <path d="M40.538 34.093c-.06.113-.02.304.04.393.096-.009.325-.075.449-.151.144-.09.185-.157.338-.267-.148-.01-.806-.015-.827.025M60.936 32.657c-.062.116-.02.316.042.41.101-.008.338-.078.468-.158.15-.092.192-.164.352-.277-.155-.012-.84-.015-.862.025" fill="#fff"/>
</svg>
