<svg xmlns="http://www.w3.org/2000/svg" width="150" height="150">
    <defs>
        <clipPath id="a">
            <path style="marker:none" color="#000" fill="#fff" stroke-width="2" overflow="visible" d="M44.072 27.448h62.242v60.309H44.072z"/>
        </clipPath>
        <clipPath id="b">
            <path style="marker:none" color="#000" fill="#fff" stroke-width="2" overflow="visible" d="M13.461 61.315h214.585v173.41H13.461z"/>
        </clipPath>
    </defs>
    <rect width="130" height="130" rx="45" ry="45" x="10" y="912.362" style="marker:none" color="#000" fill="#0A7B7B" overflow="visible" transform="translate(0 -902.362)"/>
    <path d="M54.583 123.701l-1.299-1.299.101-11.346.101-11.347 5.295-.106c3.981-.08 5.372.014 5.604.38.17.267.311 5.156.315 10.862.006 11.134-.16 12.287-1.94 13.535-.637.446-1.728.62-3.882.62-2.903 0-3.036-.04-4.295-1.299zm32.942.813c-.523-.262-1.25-1.072-1.616-1.801-.585-1.167-.665-2.58-.66-11.785.003-5.752.144-10.678.314-10.945.232-.366 1.623-.46 5.604-.38l5.295.106.1 11.347.102 11.346-1.3 1.3c-1.243 1.243-1.416 1.298-4.093 1.292-1.538-.003-3.223-.219-3.746-.48zM39.563 95.856c-.202-.243-.312-3.308-.253-7.036l.104-6.606 35.346-.097c28.026-.077 35.409.002 35.65.38.39.617.396 12.5.005 13.116-.413.65-70.315.89-70.852.243zm7.225-17.661c-.255-.158-.34-5.344-.253-15.224.13-14.487.163-15.074 1.019-17.648 3.157-9.494 9.564-15.95 19.053-19.198 3.807-1.303 10.583-1.505 14.832-.443 10.287 2.57 17.935 9.823 20.981 19.896.794 2.627.851 3.631.985 17.386.083 8.488-.003 14.744-.204 14.945-.388.389-55.793.669-56.413.286zm13.088-8.27c.461-.52.603-2.409.745-9.96.198-10.466.42-11.585 2.992-15.08 2.516-3.42 6.08-5.31 10.759-5.705 3.621-.306 4.409-.854 4.68-3.256.172-1.53.07-1.891-.782-2.742-.874-.875-1.279-.98-3.77-.98-5.631 0-10.308 2.012-14.56 6.264-2.945 2.945-4.73 5.964-5.661 9.574-.858 3.327-.879 19.796-.028 21.443.983 1.9 4.112 2.146 5.625.441z" fill="#fff"/>
</svg>
