<svg xmlns="http://www.w3.org/2000/svg" width="150" height="150">
    <rect width="130" height="130" rx="45" ry="45" x="10" y="912.362" style="marker:none" color="#000" fill="#00a8a8" overflow="visible" transform="translate(0 -902.362)"/>
    <path d="M31.975 105.905a1.441 1.441 0 0 0-.388-.089 1.146 1.146 0 0 1-.403-.129c-.127-.068-.269-.124-.313-.124-.13 0-.742-.413-1.078-.728-.297-.277-.862-1.099-.862-1.253a.815.815 0 0 0-.09-.25c-.05-.097-.134-.382-.187-.634-.085-.409-.096-3.356-.096-27.065 0-19.2.02-26.688.069-26.902.193-.832.528-1.512 1.003-2.034.546-.6 1.112-.928 2.097-1.212.227-.065 8.311-.09 43.242-.13 42.46-.05 42.966-.049 43.32.07.196.067.386.121.422.121.036 0 .286.128.555.283.558.322 1.374 1.135 1.593 1.588.283.583.396.872.396 1.012 0 .08.042.247.093.37.083.197.094 3.325.094 26.88s-.011 26.683-.094 26.88a1.23 1.23 0 0 0-.093.374c0 .082-.056.26-.124.394s-.124.275-.124.315c0 .04-.127.263-.283.497-.326.49-.952 1.086-1.342 1.277-.564.276-.869.396-1.01.396-.08 0-.264.042-.41.093-.234.082-5.165.093-43.016.088-35.7-.004-42.789-.018-42.97-.088zm79.988-4.254c.088-.034.16-.1.16-.147 0-.047-.23-.25-.508-.452a1237.284 1237.284 0 0 0-4.556-3.316l-2.628-1.906a128.48 128.48 0 0 1-.791-.58 87.328 87.328 0 0 0-.808-.59 196.174 196.174 0 0 0-2.608-1.895 217.923 217.923 0 0 1-2.623-1.907l-.825-.602c-.523-.383-.52-.381-2.578-1.872a764.43 764.43 0 0 1-3.51-2.554 558.86 558.86 0 0 0-2.983-2.168 933.103 933.103 0 0 1-3.071-2.236c-.358-.262-.79-.575-1.316-.952-.175-.126-.67-.487-1.1-.803-.43-.316-.828-.575-.884-.575-.056 0-.665.442-1.354.982-.689.54-1.453 1.134-1.7 1.32-.245.186-.93.717-1.521 1.18-1.365 1.067-1.49 1.137-2.204 1.234-.499.067-.606.064-.868-.025a2.007 2.007 0 0 1-.363-.152.857.857 0 0 0-.219-.098c-.085-.026-.393-.232-.683-.458-.6-.467-2.546-2.01-4.154-3.295-.389-.31-.752-.563-.808-.563-.056 0-.451.261-.879.58-1.232.923-4.935 3.662-7.708 5.702-.678.5-1.815 1.34-2.525 1.868-.71.527-1.707 1.265-2.214 1.639-.507.373-1.375 1.015-1.928 1.425l-1.842 1.362c-1.156.851-2.51 1.853-3.155 2.334-.298.223-.919.68-1.38 1.019-.46.338-1.061.78-1.334.984-.856.636-2.408 1.781-2.784 2.054-.198.144-.582.43-.854.634-.272.205-.697.52-.945.701-.711.52-1.588 1.173-2.118 1.58-.364.28-.469.391-.416.444.053.053 9.308.079 36.367.102 19.963.017 36.692.038 37.177.047.485.008.953-.012 1.04-.045zm4.866-26.33c.009-13.061-.005-23.748-.032-23.748-.1.001-.872.573-2.47 1.83l-1.087.857c-.12.093-.483.372-.807.619-.569.431-2.26 1.75-2.516 1.961-.069.057-.404.315-.746.574-.342.259-1.083.834-1.646 1.278-.564.444-1.235.964-1.492 1.156-.436.327-2.203 1.705-2.547 1.986-.085.07-.407.317-.714.55a87.97 87.97 0 0 0-1.212.937c-.566.447-1.231.963-1.794 1.392-.09.068-.694.537-1.343 1.043l-1.398 1.087-1.522 1.18a453.287 453.287 0 0 0-2.83 2.203c-.36.283-.928.724-1.26.98-.63.484-2.62 2.028-4.88 3.787-.796.62-1.313 1.063-1.313 1.128 0 .065.402.397 1.06.872.582.422 1.208.88 1.39 1.016.184.137.547.402.808.59l.812.59c.726.533 1.332.975 3.825 2.785l2.858 2.077c.151.111.583.422.959.69.375.27.924.668 1.22.886 1.04.77 2.087 1.532 3.44 2.507a428.148 428.148 0 0 1 3.485 2.536c.893.654 1.203.88 2.634 1.915a609.066 609.066 0 0 1 3.41 2.478l.809.59c.957.702 1.217.891 2.615 1.9.803.58 1.6 1.165 1.77 1.3.172.134.353.238.405.23.082-.012.095-2.708.109-23.762zM34.06 98.185c.408-.299.928-.683 1.155-.854.228-.17.758-.562 1.179-.87.42-.307 1.018-.747 1.326-.976.308-.23.763-.565 1.01-.745.248-.181.673-.497.943-.702.271-.205.698-.522.948-.705.407-.297 1.526-1.123 2.94-2.17l1.212-.896 1.678-1.24 2.01-1.485c.577-.425 1.486-1.096 2.02-1.492 1.31-.97 2.9-2.144 3.222-2.38l.746-.555c.265-.199 1.181-.877 2.035-1.506 1.66-1.224 2.58-1.904 4.505-3.33.666-.493 1.539-1.133 1.939-1.422.4-.29.728-.57.73-.625.001-.059-.854-.779-2.063-1.738a25039.247 25039.247 0 0 0-7.005-5.555A19316.067 19316.067 0 0 0 39.33 56.833l-1.421-1.129c-.718-.568-1.5-1.193-1.74-1.388-.239-.195-.588-.474-.776-.62-.446-.344-1.387-1.09-1.802-1.426-.18-.147-.359-.256-.397-.244-.05.017-.073 6.295-.085 23.363-.015 22.515-.011 23.34.097 23.34.062 0 .447-.245.855-.544zm40.52-19.668c.128-.114.442-.363.699-.553.256-.19.913-.7 1.46-1.13.546-.432 1.301-1.02 1.677-1.305.376-.286 1.117-.86 1.647-1.277.53-.416 1.214-.948 1.522-1.181.64-.486 2.012-1.55 2.516-1.954.188-.15.556-.436.819-.636.262-.2.836-.642 1.274-.984.438-.343.894-.697 1.013-.788.196-.148 1.15-.889 3.849-2.987l1.553-1.207c.887-.687 1.096-.85 2.427-1.889.632-.493 1.317-1.024 1.522-1.179.205-.155.974-.75 1.708-1.321l2.454-1.906c.616-.477 1.315-1.021 1.554-1.21a473.94 473.94 0 0 1 2.806-2.18c.698-.531 2.995-2.313 3.22-2.498.069-.056.363-.285.655-.508 1.447-1.107 2.11-1.646 2.11-1.715 0-.041-.049-.085-.109-.098-.154-.032-23.371.05-45.68.164-10.44.053-20.65.095-22.689.095-2.497-.001-3.765.02-3.883.065l-.175.067.155.114a443.96 443.96 0 0 1 2.672 2.112 6451.384 6451.384 0 0 0 7.015 5.565 21982.506 21982.506 0 0 0 5.906 4.687c.795.633 1.677 1.332 1.96 1.554.554.436 2.403 1.908 3.375 2.687.33.265.852.678 1.16.918.307.24.782.618 1.056.84.273.222.706.562.961.757.255.194.563.44.683.548.12.107.461.378.756.602.296.224.617.477.715.562.098.086.684.557 1.303 1.047 3.68 2.917 5.048 4.003 6.416 5.097.841.672 1.564 1.224 1.607 1.227.042.002.182-.089.31-.202z" fill="#fff" fill-opacity=".941"/>
</svg>
