<svg xmlns="http://www.w3.org/2000/svg" width="150" height="150">
    <defs>
        <clipPath id="a">
            <path style="marker:none" color="#000" fill="#fff" stroke-width="2.5" overflow="visible" d="M31.092 32.305h84.328v75.076H31.092z"/>
        </clipPath>
        <clipPath id="b">
            <rect style="marker:none" width="78.716" height="47.927" x="35.945" y="51.264" ry="0" color="#000" fill="#fff" stroke-width="2" overflow="visible"/>
        </clipPath>
    </defs>
    <rect width="130" height="130" rx="45" ry="45" x="10" y="912.362" style="marker:none" color="#000" fill="#133348" overflow="visible" transform="translate(0 -902.362)"/>
    <path d="M89.6 108.69c-8.46-8.46-15.381-15.47-15.381-15.58 0-.255 2.582-2.827 2.837-2.827.105 0 6.387 6.196 13.96 13.77 7.727 7.727 13.918 13.769 14.11 13.769.38 0 12.843-12.22 12.843-12.594 0-.31-.64-.883-.986-.883-.15 0-.781.504-1.403 1.12l-1.131 1.119-1.508-1.508-1.507-1.507 1.119-1.131c.616-.622 1.12-1.263 1.12-1.424 0-.317-2.332-2.723-2.64-2.723-.103 0-1.177.987-2.388 2.195l-2.201 2.194-1.51-1.51-1.511-1.51 2.195-2.202c1.207-1.21 2.195-2.29 2.195-2.398 0-.257-2.586-2.824-2.844-2.824-.108 0-.674.483-1.258 1.074-.583.591-1.154 1.074-1.268 1.074-.263 0-2.833-2.579-2.833-2.843 0-.109.483-.675 1.074-1.258.59-.584 1.074-1.154 1.074-1.269 0-.318-2.412-2.637-2.743-2.637-.16 0-1.211.922-2.335 2.05-1.124 1.128-2.136 2.051-2.248 2.051-.259 0-2.83-2.58-2.83-2.84 0-.107.923-1.114 2.05-2.238 1.129-1.124 2.051-2.18 2.051-2.346 0-.38-2.353-2.732-2.734-2.732-.155 0-.79.504-1.413 1.12l-1.13 1.118-1.512-1.525-1.511-1.524 2.716-2.622c1.494-1.442 2.813-2.622 2.93-2.622.118 0 7.157 6.944 15.643 15.43l15.428 15.43-9.471 9.472c-5.21 5.21-9.516 9.473-9.57 9.473-.055 0-7.02-6.922-15.48-15.381zm-60.003 11.762c-.441-.44-.69-.876-.69-1.205 0-.283.937-4.037 2.083-8.343l2.083-7.828 12.565-12.601c6.911-6.93 12.565-12.731 12.565-12.89 0-.16-7.272-7.563-16.161-16.452L25.88 44.97l9.52-9.52 9.522-9.522L61.085 42.09c8.889 8.889 16.292 16.162 16.45 16.162.159 0 6.53-6.225 14.16-13.832 13.362-13.324 13.922-13.855 15.246-14.45 2.963-1.33 5.92-1.284 8.791.139 4.709 2.333 6.597 7.977 4.348 12.999-.603 1.347-1.324 2.084-36.649 37.443-24.104 24.128-36.265 36.169-36.734 36.372-.992.43-15.263 4.22-15.891 4.22-.334 0-.766-.247-1.21-.69zm49.651-41.741c18.718-18.718 34.034-34.122 34.034-34.23 0-.256-7.462-7.714-7.717-7.714-.317 0-68.26 68.04-68.26 68.358 0 .382 7.232 7.619 7.615 7.619.162 0 15.61-15.315 34.328-34.033zm-12.501-9.374c2.713-2.712 4.933-5.06 4.933-5.219 0-.159-.503-.797-1.117-1.417l-1.117-1.13 1.117-1.128c.614-.62 1.117-1.255 1.117-1.41 0-.319-2.322-2.735-2.628-2.735-.109 0-1.188.988-2.4 2.195l-2.2 2.195-1.51-1.51-1.511-1.51 2.195-2.202c1.207-1.21 2.195-2.285 2.195-2.388 0-.258-2.577-2.834-2.834-2.834-.114 0-.685.483-1.268 1.074-.583.59-1.15 1.074-1.258 1.074-.264 0-2.844-2.57-2.844-2.833 0-.114.484-.685 1.075-1.268.59-.584 1.074-1.15 1.074-1.258 0-.32-2.403-2.649-2.732-2.649-.166 0-1.222.923-2.346 2.051-1.124 1.128-2.131 2.051-2.238 2.051-.26 0-2.84-2.571-2.84-2.83 0-.113.922-1.124 2.05-2.248 1.128-1.124 2.051-2.175 2.051-2.335 0-.382-2.344-2.743-2.723-2.743-.161 0-.802.503-1.424 1.119l-1.13 1.12-1.508-1.508-1.508-1.508 1.12-1.13c.615-.623 1.119-1.259 1.119-1.414 0-.406-2.365-2.734-2.777-2.734-.373 0-12.848 12.21-12.848 12.575 0 .332 29.157 29.417 29.49 29.417.16 0 2.512-2.218 5.225-4.93z" fill="#fff"/>
</svg>
