<svg xmlns="http://www.w3.org/2000/svg" width="150" height="150">
    <rect width="130" height="130" rx="45" ry="45" x="10" y="912.362" style="marker:none" color="#000" fill="#133348" overflow="visible" transform="translate(0 -902.362)"/>
    <path d="M37.776 124.235c0-.422 1.774-3.467 3.943-6.766 3.618-5.502 4.525-6.974 6.987-11.336.462-.82 1.484-2.068 2.271-2.774.787-.707 2.923-3.513 4.748-6.237 1.824-2.724 3.787-5.613 4.362-6.42 4.906-6.888 6.7-9.687 6.903-10.772.131-.696.875-2.175 1.654-3.287.902-1.288 1.416-2.433 1.416-3.155 0-.749.563-1.944 1.657-3.516.912-1.31 3.214-4.611 5.116-7.335 14.552-20.84 16.706-24.088 16.706-25.195 0-.489-.325-1.56-.722-2.383-.773-1.6-.66-2.172.673-3.378 1.148-1.039 2.282-.522 4.736 2.155 1.202 1.313 2.274 2.387 2.382 2.387.108 0 .804-.915 1.546-2.033 1.208-1.82 1.323-2.196 1.093-3.577-.14-.85-.505-2.03-.81-2.624-.536-1.048-.517-1.112.634-2.14 1.493-1.334 2.256-1.186 5.618 1.085 3.364 2.274 4.267 4.08 2.966 5.938-.488.696-.81.807-1.799.622-.663-.125-1.858-.122-2.655.006-1.288.206-1.626.499-3.015 2.61-1.421 2.163-1.52 2.46-1.09 3.264.26.486.586.884.725.884.14 0 1.02.675 1.956 1.499 1.816 1.598 2.277 3.116 1.06 3.492-1.43.442-1.753.85-1.992 2.513-.288 2.007-1.12 3.366-4.522 7.39-1.349 1.594-4.366 5.293-6.705 8.219-2.34 2.925-5.52 6.805-7.068 8.62-1.548 1.817-2.931 3.674-3.074 4.127-.142.454-.663.927-1.158 1.05-.495.125-1.515.921-2.268 1.77-.753.849-2.607 2.344-4.12 3.323-1.514.979-3.53 2.293-4.483 2.92-1.1.726-2.779 2.54-4.609 4.982-9.147 12.204-13.744 18.117-14.4 18.523-.211.13-.784.87-1.273 1.644-.488.774-1.821 2.452-2.962 3.73-1.14 1.277-2.826 3.313-3.746 4.524-4.293 5.653-6.681 7.673-6.681 5.651z" fill="#fff"/>
</svg>
