<svg xmlns="http://www.w3.org/2000/svg" width="150" height="150">
    <rect width="130" height="130" rx="45" ry="45" x="10" y="912.362" style="marker:none" color="#000" fill="#0A7B7B" overflow="visible" transform="translate(0 -902.362)"/>
    <path d="M47.656 116.294c-3.221-.698-8.195-3.08-11.408-5.464C29.438 105.78 25 96.9 25 88.33c0-7.464 2.788-13.42 9.94-21.24 5.208-5.693 6.419-9.545 6.26-19.915l-.11-7.074-1.191-.656c-2.263-1.245-2.72-3.838-.983-5.576.752-.752 1.375-.784 15.113-.784 8.413 0 14.624.158 15.043.382.97.519 1.762 2.562 1.46 3.764-.135.54-.87 1.46-1.633 2.041l-1.388 1.059v7.219c0 8.187.38 10.293 2.625 14.567.777 1.477 2.872 4.292 4.657 6.256 3.723 4.095 6.993 9.234 7.291 11.458.15 1.114-.076 2.162-.836 3.88-.596 1.348-1.185 2.198-1.376 1.987-.184-.203-.544-1.237-.802-2.298-.545-2.251-2.638-6.525-4.308-8.797-.642-.874-2.463-3.012-4.047-4.75-2.808-3.082-5.27-7.213-6.403-10.745-.314-.98-.599-4.944-.741-10.33l-.232-8.74H45.461l-.225 8.542c-.175 6.631-.384 9.03-.933 10.727-1.255 3.882-3.48 7.57-6.597 10.934-9.28 10.017-10.997 18.393-5.901 28.796 1.287 2.628 2.324 4.038 4.675 6.36 7.994 7.895 19.384 9.76 29.216 4.782 1.733-.878 3.214-1.533 3.29-1.456.116.116-.352 2.405-.928 4.537-.198.73-3.812 2.244-7.18 3.007-3.474.787-9.659.8-13.222.027zm25.784-.54c-2.06-2.061-1.876-2.67 5.562-18.29 3.928-8.249 7.094-15.442 7.613-17.3.779-2.78.911-4.376 1.06-12.75l.169-9.57-1.242-.515c-1.482-.614-2.007-1.475-2.007-3.29 0-.895.309-1.638.92-2.212.902-.848 1.14-.864 13.128-.864h12.21l.975.976c1.711 1.71 1.053 4.284-1.409 5.51l-.993.494.001 8.33c.002 12.686.23 13.485 9.104 31.96 6.652 13.85 6.916 14.546 6.191 16.296-1.01 2.44-.415 2.386-26.432 2.386H74.6l-1.16-1.161zm47.064-3.135c.11-.177-2.743-6.498-6.341-14.046-8.424-17.673-8.538-18.072-8.867-31.122l-.24-9.535-6.446-.109c-6.423-.109-6.447-.106-6.644.795-.109.497-.261 5.105-.34 10.24-.133 8.783-.205 9.548-1.216 12.912-.608 2.02-3.836 9.366-7.421 16.885-3.49 7.32-6.345 13.533-6.343 13.806.002.392 4.635.497 21.83.497 12.006 0 21.919-.145 22.028-.323zm-37.629-3.913c-.322-.322 4.706-10.09 5.508-10.703.393-.3 1.232-.326 2.664-.08 2.793.478 12.271.465 15.002-.021 1.854-.33 2.287-.289 2.855.273.772.764 5.488 9.644 5.488 10.333 0 .342-4.042.46-15.627.46-8.595 0-15.745-.118-15.89-.262zm15.03-14.816c-1.319-.545-2.6-2.205-2.84-3.674-.475-2.932 2.06-5.374 5.15-4.96 4.306.578 5.243 6.503 1.322 8.363-1.493.709-2.41.777-3.633.27zm-2.323-14.65c-.873-.965-.836-2.962.07-3.781.964-.873 2.96-.836 3.78.069.873.964.836 2.961-.069 3.78-.964.873-2.962.837-3.78-.068zm-46.896 29.287c-2.907-.682-6.618-2.778-9.205-5.199-5.464-5.11-7.982-13.9-5.718-19.954.45-1.2 1.122-2.56 1.495-3.02l.679-.838 4.01.817c9.649 1.966 19.317 1.967 28.796.003 4.661-.966 4.412-1.065 6.064 2.411 1.22 2.57 1.181 8.29-.082 11.995-2.307 6.766-7.685 11.858-14.418 13.65-2.368.63-9.174.71-11.62.135zm-.464-30.709c-1.435-.625-3.257-2.679-3.605-4.064-.136-.543-.16-1.764-.053-2.714.874-7.753 12.617-7.119 12.617.68 0 2.681-.947 4.494-2.967 5.677-1.87 1.097-4.084 1.252-5.992.421zm5.475-17.188c-.669-.269-1.68-2.261-1.68-3.308 0-1.233 1.741-2.783 3.127-2.783 1.72 0 2.394.358 3.045 1.618.806 1.558.736 2.11-.447 3.516-1 1.19-2.555 1.557-4.045.957z" fill="#fff"/>
</svg>
