<svg xmlns="http://www.w3.org/2000/svg" width="150" height="150">
    <rect width="130" height="130" rx="45" ry="45" x="10" y="912.362" style="marker:none" color="#000" fill="#00a8a8" overflow="visible" transform="translate(0 -902.362)"/>
    <path d="M36.94 124.872c0-.28 3.683-9 3.94-9.327.188-.24.084-.38-.329-.447-.595-.097-.596-.113-.053-1.32l.55-1.22 2.768-.197c1.523-.108 3.481-.197 4.352-.197h1.585l-.664 1.269-.663 1.268-2.182.089c-2.172.087-2.183.092-2.608 1.11-.235.561-.427 1.059-.428 1.105 0 .047.873.04 1.94-.016 1.068-.055 1.942-.016 1.942.087s-.272.719-.603 1.369c-.583 1.141-.656 1.182-2.11 1.182-.828 0-1.742.126-2.031.28-.44.237-1.586 2.58-2.232 4.57-.132.406-.505.523-1.672.523-.826 0-1.502-.058-1.502-.128zm30.66-4.684c1.566-3.36 2.138-4.878 1.894-5.029-.367-.227-.16-1.662.332-2.29.431-.55 3.926-.789 5.837-.398 2.796.571 3.362 1.552 2.199 3.81-1.076 2.088-3.208 3.672-6.268 4.657-1.903.613-1.975.674-2.776 2.345C68 124.99 67.988 125 66.675 125h-1.32l2.245-4.812zm5.805-2.318c1.487-.943 1.942-1.883 1.249-2.577-.486-.485-2.638-.626-2.346-.153.098.16-.03.696-.287 1.192-.974 1.884-1.083 2.4-.505 2.4.292 0 1.142-.388 1.89-.862zm-27.18 3.622a280.343 280.343 0 0 1 4.206-6.69l1.478-2.287 1.617-.1c1.326-.083 1.594-.021 1.487.346-.39 1.335-1.043 4.286-1.355 6.12-.196 1.149-.414 2.391-.483 2.76-.107.567-.318.672-1.347.672-1.153 0-1.21-.041-1.034-.746.173-.69.108-.746-.855-.746-.857 0-1.126.16-1.506.895-.4.772-.63.896-1.674.896h-1.21l.675-1.12zm5.41-3.776c.132-.64.19-1.214.13-1.275-.12-.119-1.69 2.162-1.69 2.454 0 .097.296.133.66.08.498-.071.717-.378.9-1.259zm2.895 2.582a122.949 122.949 0 0 1 2.022-5l1.164-2.686 1.254-.092c.69-.05 1.254-.04 1.254.025s-.451 1.046-1.002 2.182c-.551 1.135-1.453 3.253-2.004 4.707-1.017 2.685-1.479 3.178-2.976 3.178-.536 0-.52-.137.288-2.314zm3.007 2.01c0-.168.804-1.94 1.787-3.94 1.047-2.13 1.664-3.713 1.49-3.82-.198-.122-.19-.498.023-1.107.287-.825.467-.933 1.72-1.036 1.796-.147 4.44.206 4.996.668 1.126.934-.226 3.733-2.45 5.071-.631.38-1.19.722-1.243.76-.053.037.182.613.522 1.279.798 1.564.781 1.728-.203 1.963-.451.108-1.056.266-1.343.35-.393.118-.523-.017-.523-.544 0-.743-.753-2.027-1.189-2.027-.143 0-.491.525-.774 1.166-.388.88-.733 1.21-1.402 1.343-1.216.243-1.41.226-1.41-.126zm5.911-5.188c1.965-1.016 2.385-2.568.695-2.568-.677 0-.95.186-1.203.821-.18.452-.457 1.123-.616 1.493-.343.794-.049.86 1.124.254zm30.507 5.201c0-.198.672-1.987 1.493-3.976.82-1.989 1.492-3.855 1.492-4.146 0-.495 2.272-1.952 2.573-1.651.07.07.317 1.033.548 2.14.486 2.322.623 2.56.923 1.603.12-.382.544-1.411.944-2.288.67-1.472.788-1.58 1.526-1.397.44.108.902.296 1.026.418.125.12-.292 1.42-.926 2.889-.634 1.468-1.388 3.384-1.675 4.257-.288.874-.677 1.635-.865 1.692-1.932.582-1.948.573-2.478-1.335-.275-.988-.579-1.796-.676-1.796-.097 0-.489.806-.871 1.791-.462 1.19-.861 1.793-1.192 1.795-.274.002-.8.086-1.17.184-.425.114-.672.048-.672-.18zm8.955.169c0-.215 2.13-5.592 2.71-6.84.297-.641.307-.894.038-1.06-.27-.167-.269-.44.008-1.173.312-.825.504-.955 1.415-.956.58-.001 2.17-.089 3.536-.195l2.482-.193-.414 1.015c-.387.95-.531 1.03-2.184 1.238-1.628.204-2.516.725-2.516 1.477 0 .133.665.242 1.477.242h1.477l-.32.919c-.355 1.018-.41 1.048-2.367 1.31-1.085.144-1.448.341-1.717.931-.187.412-.34.796-.34.855 0 .06.805.034 1.79-.055.985-.09 1.791-.093 1.791-.008 0 .085-.203.64-.451 1.235l-.452 1.081h-2.51c-1.379 0-2.72.082-2.98.182-.26.1-.472.097-.472-.005zm-25.249-3.236c3.052-7.212 2.799-6.791 4.094-6.791.636 0 1.155.109 1.155.242 0 .134-.335.939-.746 1.79-.41.85-.746 1.615-.746 1.697 0 .083.477.151 1.06.151 1.023 0 1.095-.074 2.015-2.085.933-2.039.98-2.085 2.074-2.09.616-.001 1.12.057 1.12.132 0 .075-.517 1.317-1.148 2.761-.63 1.444-1.515 3.6-1.966 4.79l-.82 2.164H81.46l.306-.97c.72-2.278.713-2.314-.438-2.314-1.014 0-1.083.07-1.75 1.791l-.694 1.791h-2.517l1.294-3.06zm8.99 2.473c-.422-.467-.504-.954-.4-2.388.108-1.49.333-2.095 1.305-3.507 1.97-2.858 5.373-4.409 7.14-3.252.743.487 1.084 1.972.453 1.972-.164 0-.298.543-.298 1.206 0 2.14-1.936 4.793-4.445 6.09-1.279.662-3.1.603-3.755-.121zm3.708-1.944c1.015-.524 2.104-2.177 2.104-3.191 0-.4.166-.893.37-1.097.295-.295.28-.428-.074-.652-.74-.467-1.397-.331-2.374.491-1.49 1.254-2.33 3.497-1.694 4.525.293.475.632.46 1.668-.076zM36.642 63.211V25h76.716v41.194h-7.65l-3.045-9.328c-7.134-21.86-8.955-27.214-9.111-26.791-.25.678-2.359 7.078-7.349 22.31L81.682 66.19l-19.378.076-19.378.077 5.142 3.71c2.827 2.04 7.76 5.595 10.962 7.898C74.15 88.83 74.2 88.868 74.043 89.471c-.082.316-.985 3.1-2.005 6.186l-1.855 5.612-16.77.077-16.771.077V63.21z" fill="#fff"/>
</svg>
