<svg xmlns="http://www.w3.org/2000/svg" width="150" height="150">
    <defs>
        <clipPath id="a">
            <path style="marker:none" color="#000" fill="#fff" stroke-width="2" overflow="visible" d="M44.072 27.448h62.242v60.309H44.072z"/>
        </clipPath>
        <clipPath id="b">
            <path style="marker:none" color="#000" fill="#fff" stroke-width="2" overflow="visible" d="M13.461 61.315h214.585v173.41H13.461z"/>
        </clipPath>
    </defs>
    <rect width="130" height="130" rx="45" ry="45" x="10" y="912.362" style="marker:none" color="#000" fill="#0A7B7B" overflow="visible" transform="translate(0 -902.362)"/>
    <path d="M82.164 116.222c-1.18-3.06-2.476-5.853-2.878-6.206-.403-.354-1.295-.749-1.984-.878-1.087-.204-1.95.161-6.575 2.778-3.912 2.215-5.483 2.925-5.924 2.68-.33-.184-1.942-1.58-3.581-3.102l-2.982-2.768 2.553-5.84 2.553-5.842-.887-1.61-.888-1.611-5.752-1.569c-3.164-.862-5.886-1.704-6.049-1.87-.163-.167-.433-2.155-.601-4.418l-.306-4.116H46.62l-.188 15.901-.187 15.9-10.566.1-10.566.1-.097-42.19c-.053-23.204.036-42.485.199-42.847.278-.62 1.824-.652 26.75-.561l26.456.096.187 11.037c.19 11.246.289 11.806 1.408 8.044l.334-1.123 4.399-.329c3.575-.267 4.489-.232 4.882.187.265.284 1.44 2.987 2.61 6.007 1.95 5.028 2.226 5.524 3.283 5.892 1.988.693 2.677.477 7.629-2.397 2.654-1.54 5.162-2.797 5.573-2.793.412.004 2.176 1.328 3.921 2.943l3.173 2.936-2.534 5.847-2.533 5.848.736 1.665c.547 1.236 1.01 1.732 1.793 1.924.58.142 3.329.864 6.107 1.604l5.05 1.346.249 1.87c.136 1.03.262 3.15.28 4.714l.033 2.842-1.403.615c-.772.337-3.34 1.348-5.706 2.245-3.822 1.45-4.375 1.774-4.956 2.904-.36.7-.655 1.634-.655 2.076 0 .443 1.333 3.13 2.963 5.972 2.088 3.641 2.871 5.337 2.65 5.743-.598 1.094-5.678 6.374-6.133 6.374-.251 0-2.923-1.101-5.938-2.448l-5.48-2.448-1.489.76c-.819.417-1.584.913-1.7 1.101-.117.189-.885 2.834-1.707 5.877-.822 3.044-1.663 5.703-1.87 5.91-.205.205-2.374.445-4.82.532l-4.445.159-2.147-5.563zM43.35 95.352c.067-10.816.227-15.835.513-16.18.315-.38 1.812-.502 6.124-.502 4.42 0 5.805-.117 6.14-.52.287-.347.396-2.007.326-4.958l-.106-4.437-6.157-.103c-4.351-.073-6.242-.237-6.448-.56-.16-.253-.294-3.763-.297-7.802-.004-5.684.108-7.438.495-7.76.346-.286 5.316-.446 15.995-.513l15.493-.098V31.341H27.912l-.096 39.213c-.065 26.87.029 39.443.298 39.947.374.697.767.73 7.766.633l7.371-.101.098-15.68zm48.623-1.283c2.441-1.255 4.092-2.905 5.233-5.23.879-1.788 1.044-2.6 1.044-5.118 0-3.481-.886-5.725-3.133-7.937-2.25-2.213-4.986-3.291-8.278-3.26-12.72.12-15.475 17.622-3.478 22.09 2.075.774 6.607.487 8.612-.545zM61.027 75.583c.408-.668.742-1.613.743-2.1.001-.963-1.445-3.792-1.939-3.792-.363 0-.416 6.498-.055 6.859.387.387.46.33 1.25-.967zM57.25 65.357c.094-.095-.194-.924-.64-1.843l-.812-1.672 2.793-3.09c1.537-1.7 2.796-3.221 2.8-3.38.002-.158-3.32-.243-7.384-.187l-7.39.102-.103 5.127-.104 5.127 2.535.152c2.713.163 8.02-.052 8.305-.336zm18.33-6.125c1.405-.717 1.888-1.554 1.899-3.29l.005-.842h-6.922c-3.807 0-6.921.14-6.921.312 0 .332 9.202 4.49 10.023 4.528.265.013 1.127-.306 1.916-.708z" fill="#fff"/>
</svg>
