<svg xmlns="http://www.w3.org/2000/svg" width="150" height="150">
    <rect width="130" height="130" rx="45" ry="45" x="10" y="912.362" style="marker:none" color="#000" fill="#00a8a8" overflow="visible" transform="translate(0 -902.362)"/>
    <path d="M76.612 103.162c-11.28-1.511-23.019-6.97-32.94-15.318l-2.617-2.203-1.231.346c-1.458.409-4.134.472-5.619.132-1.897-.434-4.129-1.697-5.633-3.188-2.279-2.26-3.326-4.565-3.528-7.765-.1-1.604-.045-2.185.33-3.418.874-2.877 2.954-5.146 5.716-6.237 1.613-.637 5.078-.688 6.826-.1 4.306 1.447 7.578 5.087 8.31 9.249.134.758.334 1.497.445 1.643.396.52 2.65.2 4.7-.667 4.35-1.84 6.45-6.917 5.832-14.106-.206-2.394-.9-6.294-1.475-8.284-.463-1.604-.483-1.61 5.107 1.51 2.926 1.634 5.478 2.98 5.671 2.992.194.012 1.5-.417 2.903-.953 3.133-1.199 6.632-2.122 9.853-2.6 3.191-.474 8.738-.333 11.556.294 4.809 1.07 9.422 3.244 12.956 6.108.478.387 1.018.705 1.2.705.501 0 2.842-1.101 4.503-2.119 3.125-1.914 8.042-5.932 13.844-11.31.86-.797 1.607-1.406 1.66-1.352.133.133-.468 4.844-1.113 8.738-4.401 26.54-15.561 42.855-32.2 47.076-4.49 1.139-10.334 1.46-15.056.827zm8.858-17.576c6.318-1.34 9.705-8.372 6.846-14.213-1.728-3.529-5.079-5.619-9.01-5.619-5.587 0-9.984 4.338-10.01 9.875-.009 1.968.25 3.099 1.091 4.75 1.426 2.802 4.062 4.74 7.207 5.3 1.462.259 2.31.239 3.876-.093zm-5.488-5.08c-1.406-.613-2.063-2.374-1.454-3.898.925-2.31 3.94-2.572 5.36-.464.41.608.484.943.411 1.857-.175 2.176-2.274 3.394-4.317 2.505zm-41.744 4.737c2.73-.505 5.148-2.335 6.28-4.752 1.767-3.776.873-8.162-2.309-11.327-2.362-2.351-4.917-3.339-8.15-3.152-3.117.18-6.034 2.184-7.342 5.043-.716 1.564-.891 4.662-.367 6.466.991 3.409 3.845 6.329 7.219 7.385 1.909.598 2.878.668 4.669.337zm29.234-6.523c1.344-.594 2.78-2.001 3.463-3.394.503-1.024.588-1.456.586-2.999-.002-1.378-.107-2.029-.447-2.767-2.064-4.483-7.865-5.564-11.319-2.11-3.001 3.002-2.58 8.12.865 10.508 2.026 1.404 4.723 1.704 6.852.762zm-5.403-3.272c-1.253-.962-1.006-3.008.422-3.506.866-.302 1.65-.072 2.27.664.688.817.588 1.918-.24 2.637-.611.53-1.889.638-2.452.205z" fill="#fff"/>
</svg>
