<svg xmlns="http://www.w3.org/2000/svg" width="150" height="150">
    <rect width="130" height="130" rx="45" ry="45" x="10" y="912.362" style="marker:none" color="#000" fill="#133348" overflow="visible" transform="translate(0 -902.362)"/>
    <path d="M72.496 124.536c-1.019-.347-4.176-3.397-23.701-22.89-16.545-16.518-22.677-22.8-23.095-23.66-.77-1.588-.9-3.768-.33-5.527.427-1.313 1.355-2.3 15.5-16.493 8.276-8.304 15.268-15.219 15.538-15.368.427-.234 1.23.467 6.064 5.297l5.572 5.567-.163 2.286c-.131 1.849-.073 2.52.305 3.509.538 1.409 1.915 3.031 3.33 3.924l.98.62v13.573c0 13.226-.014 13.587-.522 14.096-.288.287-.622.522-.744.522-.497 0-2.234 2.004-2.811 3.243-.69 1.482-.827 3.72-.328 5.383.497 1.658 2.032 3.42 3.742 4.294 1.304.667 1.824.785 3.386.767 2.347-.026 3.905-.739 5.506-2.52 2.857-3.178 2.46-7.821-.912-10.665L78.5 89.388V75.983c0-10.607.069-13.406.329-13.406.18 0 2.548 2.222 5.26 4.937l4.932 4.937-.307 1.562c-1.13 5.742 4.46 10.465 9.954 8.41 1.596-.597 3.234-2.15 4.136-3.92.83-1.626.831-4.334.005-6.05-.726-1.506-2.059-2.906-3.501-3.677-.92-.491-1.504-.586-3.639-.586h-2.544l-5.315-5.31-5.315-5.311.026-2.392c.03-2.795-.462-4.167-2.071-5.777-1.583-1.583-2.976-2.085-5.806-2.091l-2.42-.006-5.478-5.496c-3.013-3.022-5.479-5.666-5.48-5.874 0-.209 2.203-2.565 4.896-5.236 4.345-4.31 5.054-4.909 6.293-5.317 1.757-.579 3.932-.452 5.527.323.86.418 7.14 6.548 23.658 23.095 20.548 20.583 22.524 22.637 22.911 23.812.233.708.424 1.839.424 2.513 0 2.832 1.04 1.673-23.567 26.288-24.788 24.797-23.438 23.594-26.414 23.547-.728-.01-1.853-.2-2.5-.421z" fill="#fff"/>
</svg>
