<svg xmlns="http://www.w3.org/2000/svg" width="150" height="150">
    <rect width="130" height="130" rx="45" ry="45" x="10" y="912.362" style="marker:none" color="#000" fill="#00a8a8" overflow="visible" transform="translate(0 -902.362)"/>
    <path d="M75 35.986c-22.091 0-40 17.909-40 40 0 17.669 11.463 32.662 27.357 37.957 1.995.364 2.724-.864 2.724-1.928 0-.95-.028-3.463-.047-6.801-11.127 2.417-13.478-5.362-13.478-5.362-1.822-4.624-4.44-5.852-4.44-5.852-3.636-2.484.277-2.436.277-2.436 4.01.288 6.12 4.124 6.12 4.124 3.569 6.11 9.372 4.346 11.645 3.32.365-2.58 1.4-4.346 2.542-5.343-8.882-1.008-18.225-4.442-18.225-19.77 0-4.365 1.563-7.933 4.125-10.734-.413-1.007-1.794-5.074.393-10.59 0 0 3.357-1.074 10.993 4.106 3.194-.893 6.618-1.334 10.014-1.353 3.396.02 6.82.46 10.014 1.353 7.636-5.18 10.993-4.106 10.993-4.106 2.178 5.516.806 9.583.393 10.59 2.571 2.8 4.116 6.37 4.116 10.734 0 15.367-9.353 18.753-18.264 19.74 1.439 1.238 2.714 3.675 2.714 7.406 0 5.343-.047 9.66-.047 10.974 0 1.074.719 2.311 2.752 1.928C103.547 108.638 115 93.655 115 75.986c0-22.091-17.909-40-40-40" fill="#fff" fill-opacity=".941" fill-rule="evenodd"/>
</svg>
