<svg xmlns="http://www.w3.org/2000/svg" width="150" height="150">
    <rect width="130" height="130" rx="45" ry="45" x="10" y="912.362" style="marker:none" color="#000" fill="#00a8a8" overflow="visible" transform="translate(0 -902.362)"/>
    <path d="M52.563 124.202l-.805-.806V115.411l.805-.806c.706-.705.926-.805 1.775-.805 1.155 0 1.989.39 2.526 1.183.576.85.708 6.922.18 8.304-.448 1.174-1.292 1.719-2.665 1.72-.897 0-1.1-.09-1.816-.805zm13.81.414c-1.14-.695-1.332-1.445-1.332-5.199 0-2.444.08-3.54.299-4.063.4-.96 1.417-1.552 2.662-1.553.837-.001 1.108.108 1.764.709l.775.71.064 3.911c.062 3.809.051 3.93-.421 4.632-.267.395-.716.836-.998.979-.751.38-2.08.32-2.813-.126zm12.965-.414l-.806-.806V115.411l.806-.806c.715-.715.918-.805 1.816-.804 1.252 0 2.168.525 2.635 1.51.535 1.127.494 6.965-.057 8.178-.475 1.047-1.288 1.519-2.62 1.519-.849 0-1.069-.1-1.774-.806zm13.602.414c-1.14-.695-1.332-1.445-1.332-5.199 0-2.444.08-3.54.298-4.063.401-.96 1.417-1.552 2.662-1.553.837-.001 1.108.108 1.764.709l.776.71.064 3.911c.062 3.809.05 3.93-.422 4.632-.267.395-.716.836-.998.979-.75.38-2.08.32-2.812-.126zm-44.795-15.392c-1.494-.254-3.522-1.333-4.68-2.491-1.222-1.222-2.224-3.173-2.502-4.868-.125-.768-.202-11.23-.201-27.293.003-28.394-.024-27.712 1.18-29.933 1.238-2.287 3.68-4.037 6.314-4.524.762-.14 10.309-.194 28.116-.157l26.962.057 1.167.472c2.602 1.052 4.615 3.135 5.51 5.7.361 1.038.38 2.454.38 28.593v27.5l-.472 1.167c-.72 1.782-1.96 3.36-3.387 4.314-2.55 1.702-.083 1.571-30.387 1.606-14.84.015-27.44-.047-28-.143zm13.467-25.595c1.465-.67 2.61-1.744 3.28-3.078.94-1.865.896-2.012-.774-2.581-.792-.27-1.54-.491-1.66-.49-.12.001-.48.563-.799 1.249-.781 1.678-1.811 2.383-3.451 2.36-1.305-.017-1.89-.26-2.866-1.181-1.017-.963-1.395-2.333-1.388-5.024.006-2.372.37-3.71 1.288-4.744.922-1.039 3.257-1.482 4.678-.889.78.326 1.742 1.385 1.926 2.12.07.277.187.502.26.501.322-.003 3.377-.786 3.483-.892.227-.227-.919-2.369-1.67-3.12-1.346-1.345-2.643-1.863-4.92-1.963-2.372-.104-3.787.235-5.297 1.271-2.165 1.486-3.336 3.833-3.537 7.093-.312 5.055 1.954 8.717 6.055 9.787 1.52.397 4.039.201 5.392-.419zm34.61.02c1.336-.617 2.157-1.411 2.732-2.643.412-.88.44-1.332.504-7.835l.067-6.9h-3.766v6.506c0 6.416-.006 6.517-.47 7.205-.833 1.236-3.324 1.553-4.861.618-1.242-.755-1.31-1.177-1.31-8.083V66.27h-3.98l.093 6.486c.06 4.182.18 6.781.341 7.316.596 1.985 2.55 3.654 4.75 4.056 1.767.323 4.675.087 5.9-.48zm-23.917-2.931v-3.402l3.062-.088c3.368-.096 4.01-.266 5.32-1.417 1.021-.897 1.602-2.08 1.734-3.534.227-2.503-.75-4.506-2.666-5.46-1.095-.546-1.108-.547-6.141-.547h-5.045v17.85h3.736v-3.402zm0-8.833v-2.48l1.09-.062c.6-.035 1.765-.017 2.59.04 1.288.09 1.58.185 2.075.68.474.474.576.756.576 1.604 0 1.909-1.435 2.698-4.906 2.698h-1.425v-2.48zM26.291 97.418c-1.958-1.214-1.665-4.203.502-5.127.471-.2 1.632-.284 3.946-.284 3.89 0 4.436.179 5.206 1.707.612 1.216.46 2.216-.494 3.258l-.68.742-3.908.059c-3.595.053-3.961.025-4.572-.354zm89.064.2c-.67-.272-1.473-1.35-1.63-2.19-.197-1.048.552-2.528 1.54-3.044 1.05-.547 7.012-.557 8.094-.014 1.53.77 2.123 2.721 1.258 4.141-.72 1.181-1.237 1.309-5.239 1.294-1.975-.007-3.785-.092-4.023-.188zm-88.707-13.24c-2.046-1.027-2.232-4.055-.321-5.236.61-.378 1.029-.419 4.285-.418 4.212 0 4.682.156 5.4 1.78.657 1.485.146 3-1.283 3.804-.695.39-1.109.434-4.066.434-2.72 0-3.418-.063-4.015-.363zm88.62-.04c-1.962-1.045-2.06-4.04-.17-5.193.622-.379 1.042-.42 4.297-.42 3.256-.001 3.674.04 4.285.417 1.91 1.18 1.725 4.209-.321 5.237-1.09.548-7.04.517-8.09-.041zm-88.936-13.5c-1.914-1.259-1.736-4.211.316-5.242 1.018-.511 6.943-.534 8.004-.03 1.403.666 2.015 2.424 1.36 3.905-.72 1.626-1.186 1.779-5.425 1.778-3.267 0-3.695-.041-4.255-.41zm88.767-.007c-.885-.54-1.577-2.026-1.379-2.962.217-1.027.863-1.936 1.635-2.303.554-.262 1.4-.333 3.992-.333 3.725 0 4.365.179 5.224 1.453.897 1.33.396 3.384-1.032 4.237-.447.266-1.235.329-4.151.328-3.248 0-3.668-.042-4.29-.42zM26.648 57.605c-1.53-.77-2.124-2.721-1.258-4.141.748-1.226 1.245-1.34 5.54-1.268l3.841.064.68.743c.954 1.042 1.106 2.042.494 3.257-.772 1.533-1.31 1.708-5.25 1.708-2.751 0-3.45-.063-4.047-.364zm88.617-.014c-.465-.243-.894-.718-1.203-1.33-.643-1.277-.468-2.263.59-3.326l.775-.778h3.77c4.196 0 4.696.12 5.42 1.307.865 1.42.272 3.372-1.258 4.14-1.082.544-7.045.534-8.094-.013zM53.266 36.086c-.368-.167-.858-.611-1.089-.989-.378-.62-.418-1.042-.418-4.422 0-3.382.04-3.801.419-4.423.766-1.257 2.52-1.637 3.752-.814 1.253.837 1.43 1.489 1.43 5.237 0 3.628-.174 4.34-1.262 5.137-.717.525-2 .649-2.832.274zm13.45-.067c-1.44-.734-1.564-1.118-1.637-5.074-.072-3.836.018-4.311.992-5.244 1.162-1.113 3.312-.828 4.153.55.38.622.42 1.043.42 4.4 0 4.18-.16 4.744-1.539 5.398-.902.428-1.505.42-2.389-.03zm13.294.02c-1.34-.681-1.477-1.175-1.477-5.323-.001-4.112.123-4.62 1.306-5.342 1.365-.832 3.174-.254 3.933 1.258.3.597.363 1.295.363 4.043 0 2.752-.062 3.443-.363 4.032-.732 1.435-2.398 2.025-3.762 1.332zm13.273-.02c-1.44-.734-1.564-1.118-1.638-5.074-.07-3.836.019-4.311.992-5.244 1.163-1.113 3.313-.828 4.154.55.379.622.419 1.043.42 4.4 0 4.18-.16 4.744-1.539 5.398-.902.428-1.505.42-2.39-.03z" fill="#fff"/>
</svg>
