<?xml version="1.0" encoding="UTF-8" standalone="no"?>
<!-- Created with Inkscape (http://www.inkscape.org/) -->

<svg
   xmlns:dc="http://purl.org/dc/elements/1.1/"
   xmlns:cc="http://creativecommons.org/ns#"
   xmlns:rdf="http://www.w3.org/1999/02/22-rdf-syntax-ns#"
   xmlns:svg="http://www.w3.org/2000/svg"
   xmlns="http://www.w3.org/2000/svg"
   xmlns:sodipodi="http://sodipodi.sourceforge.net/DTD/sodipodi-0.dtd"
   xmlns:inkscape="http://www.inkscape.org/namespaces/inkscape"
   version="1.1"
   width="150"
   height="150"
   id="svg2"
   inkscape:version="0.48.5 r10040"
   sodipodi:docname="experimentaldesign.svg">
  <sodipodi:namedview
     pagecolor="#ffffff"
     bordercolor="#666666"
     borderopacity="1"
     objecttolerance="10"
     gridtolerance="10"
     guidetolerance="10"
     inkscape:pageopacity="0"
     inkscape:pageshadow="2"
     inkscape:window-width="1920"
     inkscape:window-height="1174"
     id="namedview4361"
     showgrid="false"
     inkscape:zoom="6.5933333"
     inkscape:cx="55.434782"
     inkscape:cy="75"
     inkscape:window-x="1920"
     inkscape:window-y="0"
     inkscape:window-maximized="1"
     inkscape:current-layer="layer2"
     showguides="true"
     inkscape:guide-bbox="true">
    <inkscape:grid
       type="xygrid"
       id="grid4328" />
  </sodipodi:namedview>
  <defs
     id="defs4">
    <inkscape:path-effect
       effect="spiro"
       id="path-effect3779" />
    <mask
       maskUnits="userSpaceOnUse"
       id="mask4022">
      <rect
         style="color:#000000;fill:#ffffff;fill-opacity:1;fill-rule:nonzero;stroke:#00a8a8;stroke-width:2.5;stroke-linecap:butt;stroke-linejoin:miter;stroke-miterlimit:4;stroke-opacity:1;stroke-dasharray:none;stroke-dashoffset:0;marker:none;visibility:visible;display:inline;overflow:visible;enable-background:accumulate"
         id="rect4024"
         width="94.703392"
         height="94.703392"
         x="197.66949"
         y="-184.95764"
         rx="5.3157125"
         ry="4.7804155" />
    </mask>
    <clipPath
       clipPathUnits="userSpaceOnUse"
       id="clipPath4302">
      <rect
         style="color:#000000;fill:#ffffff;fill-opacity:1;fill-rule:nonzero;stroke:none;stroke-width:2.5;marker:none;visibility:visible;display:inline;overflow:visible;enable-background:accumulate"
         id="rect4304"
         width="84.327606"
         height="75.075836"
         x="31.092012"
         y="32.305359" />
    </clipPath>
    <clipPath
       clipPathUnits="userSpaceOnUse"
       id="clipPath4777">
      <rect
         style="color:#000000;fill:#ffffff;fill-opacity:1;fill-rule:nonzero;stroke:none;stroke-width:2;marker:none;visibility:visible;display:inline;overflow:visible;enable-background:accumulate"
         id="rect4779"
         width="78.715881"
         height="47.927204"
         x="35.9454"
         y="51.263901"
         ry="0" />
    </clipPath>
  </defs>
  <metadata
     id="metadata7">
    <rdf:RDF>
      <cc:Work
         rdf:about="">
        <dc:format>image/svg+xml</dc:format>
        <dc:type
           rdf:resource="http://purl.org/dc/dcmitype/StillImage" />
        <dc:title></dc:title>
      </cc:Work>
    </rdf:RDF>
  </metadata>
  <g
     inkscape:groupmode="layer"
     id="layer4"
     inkscape:label="Background"
     style="display:inline"
     sodipodi:insensitive="true">
    <g
       transform="translate(0,-902.36218)"
       id="layer1">
      <rect
         width="130"
         height="130"
         rx="45"
         ry="45"
         x="10"
         y="912.36218"
         id="rect2985"
         style="color:#000000;fill:#00a8a8;fill-opacity:1;fill-rule:nonzero;stroke:none;stroke-width:1;marker:none;visibility:visible;display:inline;overflow:visible;enable-background:accumulate" />
    </g>
  </g>
  <g
     inkscape:groupmode="layer"
     id="layer2"
     inkscape:label="hardware">
    <path
       style="fill:#ffffff;fill-opacity:1"
       d="m 52.563304,124.20158 -0.805788,-0.80559 0,-3.99232 0,-3.99234 0.805788,-0.80592 c 0.70583,-0.70568 0.925972,-0.80565 1.774505,-0.80565 1.155097,0 1.988717,0.39036 2.525805,1.1828 0.576458,0.85052 0.708729,6.92226 0.180907,8.30426 -0.448422,1.17408 -1.292458,1.71891 -2.665134,1.71996 -0.897313,5.9e-4 -1.100401,-0.09 -1.816083,-0.8052 z m 13.810049,0.41463 c -1.140183,-0.69545 -1.33248,-1.44571 -1.33248,-5.19883 0,-2.44416 0.08063,-3.54108 0.298834,-4.0632 0.401043,-0.95987 1.41686,-1.55268 2.661838,-1.55368 0.836955,-6e-4 1.108052,0.10842 1.764195,0.70931 l 0.775272,0.71003 0.06386,3.91129 c 0.06223,3.80839 0.05116,3.92992 -0.421334,4.63145 -0.266921,0.39585 -0.716002,0.83668 -0.997964,0.97927 -0.75106,0.38004 -2.080277,0.32086 -2.812341,-0.12564 z m 12.964222,-0.41463 -0.805795,-0.80559 0,-3.99232 0,-3.99234 0.805795,-0.80592 c 0.715682,-0.71555 0.918771,-0.80557 1.816084,-0.80491 1.252349,0.001 2.168059,0.52581 2.635436,1.51086 0.534657,1.12655 0.494152,6.96429 -0.05682,8.17757 -0.475563,1.04757 -1.288405,1.51858 -2.620272,1.51858 -0.848532,0 -1.068676,-0.1 -1.774501,-0.80593 z m 13.602492,0.41463 c -1.140179,-0.69545 -1.332481,-1.44571 -1.332481,-5.19883 0,-2.44416 0.08063,-3.54108 0.298842,-4.0632 0.40104,-0.95987 1.416854,-1.55268 2.661833,-1.55368 0.836958,-6e-4 1.108055,0.10842 1.764194,0.70931 l 0.775269,0.71003 0.0639,3.91129 c 0.0623,3.80839 0.0512,3.92992 -0.421337,4.63145 -0.266921,0.39585 -0.716007,0.83668 -0.997963,0.97927 -0.751061,0.38004 -2.080273,0.32086 -2.812343,-0.12564 z M 48.144918,109.2239 c -1.493983,-0.25347 -3.521477,-1.33276 -4.679616,-2.49095 -1.222176,-1.22216 -2.224769,-3.17272 -2.501979,-4.86751 -0.125611,-0.76798 -0.202768,-11.230074 -0.201286,-27.29318 0.0025,-28.39422 -0.02415,-27.712293 1.179101,-29.933585 1.238964,-2.287046 3.681586,-4.036692 6.315166,-4.523531 0.76173,-0.140815 10.30859,-0.194053 28.115681,-0.156791 l 26.962255,0.05651 1.1664,0.471751 c 2.60277,1.052831 4.61537,3.135067 5.50971,5.700296 0.36194,1.038205 0.38077,2.454067 0.38077,28.592998 l 0,27.500732 -0.47178,1.16617 c -0.72091,1.78235 -1.96058,3.36111 -3.38719,4.31374 -2.54925,1.70239 -0.083,1.57195 -30.387222,1.60608 -14.84,0.0157 -27.440009,-0.0466 -28.00001,-0.14249 z M 61.612177,83.629361 c 1.464945,-0.670671 2.609242,-1.744325 3.280524,-3.077975 0.938913,-1.865346 0.894882,-2.012146 -0.774359,-2.58163 -0.792771,-0.270473 -1.539959,-0.490785 -1.660417,-0.489605 -0.120456,0.0012 -0.479965,0.562981 -0.798909,1.248415 -0.780984,1.678397 -1.811223,2.383155 -3.451205,2.360875 -1.304501,-0.0178 -1.89066,-0.259503 -2.865364,-1.181921 -1.017199,-0.962634 -1.395627,-2.332146 -1.388238,-5.023926 0.0061,-2.371307 0.369913,-3.709941 1.287736,-4.743552 0.922385,-1.038752 3.257481,-1.482276 4.678359,-0.888588 0.779,0.325484 1.741636,1.384921 1.926063,2.119744 0.06945,0.276581 0.186139,0.502154 0.259385,0.501264 0.321768,-0.0037 3.377668,-0.786854 3.48324,-0.892423 0.227272,-0.227274 -0.918835,-2.368573 -1.669576,-3.119313 -1.346104,-1.346105 -2.643874,-1.864069 -4.921008,-1.964056 -2.371793,-0.104102 -3.786005,0.235382 -5.296387,1.271574 -2.165245,1.485444 -3.33589,3.832796 -3.537194,7.092685 -0.312142,5.054696 1.953824,8.717417 6.055062,9.787471 1.519331,0.396404 4.038774,0.200618 5.392288,-0.419039 z m 34.609891,0.01919 c 1.335766,-0.616893 2.156836,-1.410881 2.732246,-2.642099 0.4113,-0.88002 0.44036,-1.332743 0.50332,-7.835107 l 0.0674,-6.901117 -1.8829,0 -1.882858,0 0,6.507208 c 0,6.415321 -0.0062,6.51705 -0.469623,7.204086 -0.833189,1.236369 -3.324973,1.553577 -4.861895,0.618918 -1.241678,-0.755121 -1.31016,-1.177608 -1.31016,-8.083129 l 0,-6.247092 -1.98955,0 -1.989538,0 0.0924,6.486014 c 0.05965,4.182188 0.180953,6.780904 0.341579,7.316222 0.595583,1.984963 2.549534,3.653489 4.749059,4.055354 1.767507,0.322936 4.675476,0.08683 5.901085,-0.479266 z m -23.916858,-2.930815 0,-3.401993 3.061394,-0.08727 c 3.368106,-0.09607 4.009815,-0.266896 5.319915,-1.417173 1.021893,-0.897241 1.602807,-2.080892 1.734605,-3.534403 0.226982,-2.503181 -0.750641,-4.505476 -2.665766,-5.459819 -1.095177,-0.545743 -1.10832,-0.546916 -6.141811,-0.546916 l -5.044283,0 0,8.924755 0,8.924755 1.867972,0 1.867974,0 0,-3.401994 z m 0,-8.832756 0,-2.479781 1.089646,-0.06269 c 0.599316,-0.03446 1.764707,-0.01616 2.58977,0.04098 1.288585,0.08919 1.581258,0.184924 2.075524,0.679266 0.474094,0.474154 0.575409,0.756676 0.575409,1.604539 0,1.908627 -1.434623,2.697455 -4.905811,2.697455 l -1.424538,0 0,-2.479787 z M 26.290525,97.41842 c -1.957684,-1.214204 -1.664904,-4.203793 0.502125,-5.127156 0.471454,-0.200878 1.632284,-0.284578 3.94675,-0.284578 3.889989,0 4.435112,0.178841 5.205177,1.707674 0.612172,1.215365 0.460695,2.215541 -0.493291,3.257222 l -0.680268,0.742793 -3.908021,0.05817 c -3.595317,0.05335 -3.961163,0.02519 -4.572472,-0.354037 z m 89.064925,0.198648 c -0.66951,-0.270837 -1.47299,-1.34993 -1.63056,-2.189774 -0.19663,-1.047648 0.55256,-2.527659 1.54048,-3.043184 1.04878,-0.547339 7.01154,-0.557565 8.09361,-0.01378 1.5305,0.768944 2.12342,2.720977 1.25789,4.140647 -0.72017,1.181123 -1.23706,1.308791 -5.23885,1.294128 -1.97478,-0.0068 -3.78495,-0.09172 -4.02257,-0.18793 z M 26.647808,84.378792 c -2.04621,-1.028044 -2.231665,-4.0561 -0.320768,-5.237105 0.610896,-0.377547 1.029008,-0.4183 4.284622,-0.417598 4.211899,8.29e-4 4.682126,0.155826 5.400223,1.779191 0.657325,1.486005 0.146336,3.000916 -1.283246,3.804385 -0.694735,0.390466 -1.10819,0.434635 -4.065959,0.434345 -2.720451,-2.05e-4 -3.4181,-0.0633 -4.014872,-0.363218 z m 88.620712,-0.04135 c -1.96263,-1.044572 -2.0606,-4.039854 -0.16981,-5.192635 0.62142,-0.378839 1.04119,-0.419938 4.29646,-0.420634 3.25551,-6.23e-4 3.67369,0.04005 4.28454,0.417596 1.9109,1.181008 1.72547,4.209062 -0.32073,5.237107 -1.09031,0.547792 -7.04063,0.517315 -8.09047,-0.04135 z M 26.332331,70.838908 c -1.914251,-1.259801 -1.736635,-4.211961 0.315477,-5.24297 1.017751,-0.511337 6.942791,-0.533634 8.003873,-0.03011 1.403596,0.666053 2.015726,2.423708 1.360204,3.905628 -0.719136,1.625714 -1.185387,1.778515 -5.424727,1.777825 -3.267214,-6.23e-4 -3.694736,-0.04169 -4.254827,-0.410369 z m 88.766379,-0.0084 c -0.88436,-0.539264 -1.57639,-2.025729 -1.37863,-2.961554 0.21703,-1.02712 0.86252,-1.936034 1.63506,-2.302629 0.55343,-0.26267 1.4007,-0.333356 3.99209,-0.333102 3.72452,4.12e-4 4.36485,0.178417 5.22362,1.452546 0.89683,1.330486 0.39645,3.384541 -1.03218,4.237306 -0.44631,0.266376 -1.23488,0.328702 -4.15108,0.328072 -3.24765,-6.23e-4 -3.6676,-0.04184 -4.28888,-0.420639 z M 26.647808,57.604524 c -1.530492,-0.768944 -2.123488,-2.720976 -1.257866,-4.140648 0.747743,-1.22633 1.245349,-1.340249 5.539178,-1.26808 l 3.841918,0.06452 0.680258,0.742799 c 0.953976,1.041685 1.105449,2.041864 0.493281,3.257222 -0.772007,1.532687 -1.310307,1.707736 -5.250406,1.707354 -2.750443,-2.09e-4 -3.448725,-0.0629 -4.046363,-0.363219 z m 88.617562,-0.01378 c -0.46524,-0.242762 -0.89444,-0.717374 -1.20314,-1.330247 -0.64305,-1.276552 -0.46798,-2.262348 0.59029,-3.325476 l 0.77473,-0.778324 3.77068,0 c 4.19512,0 4.69536,0.120683 5.41894,1.307284 0.86553,1.419672 0.27261,3.371705 -1.25789,4.140651 -1.08207,0.543681 -7.04483,0.533448 -8.09361,-0.01378 z M 53.266354,36.085731 c -0.36875,-0.166266 -0.858743,-0.611134 -1.088875,-0.988589 -0.378603,-0.620986 -0.418415,-1.04175 -0.418415,-4.422232 0,-3.38183 0.03972,-3.801065 0.418871,-4.422975 0.766116,-1.256576 2.519534,-1.636804 3.751821,-0.813586 1.252952,0.837025 1.431029,1.488666 1.431029,5.236561 0,3.628198 -0.175178,4.340951 -1.262642,5.137374 -0.716655,0.524855 -1.999492,0.64873 -2.831789,0.273447 z m 13.449692,-0.06674 c -1.439915,-0.734231 -1.563662,-1.117754 -1.637287,-5.074271 -0.0713,-3.835849 0.01855,-4.310909 0.991797,-5.243404 1.16242,-1.113667 3.312941,-0.828643 4.153811,0.550544 0.378804,0.621319 0.418943,1.042024 0.419644,4.398479 8.31e-4,4.179897 -0.160063,4.744595 -1.538618,5.398765 -0.902575,0.4283 -1.505239,0.420705 -2.389347,-0.03011 z m 13.293821,0.01978 c -1.33955,-0.681148 -1.47644,-1.174308 -1.477308,-5.322333 -8.3e-4,-4.112176 0.123651,-4.621349 1.306504,-5.342574 1.364632,-0.832065 3.173776,-0.253475 3.933096,1.257855 0.300279,0.597661 0.362899,1.295332 0.362899,4.043135 0,2.751859 -0.06211,3.442782 -0.362899,4.032521 -0.731762,1.435078 -2.398467,2.024887 -3.762292,1.331396 z m 13.272895,-0.01978 c -1.439915,-0.734231 -1.563661,-1.117754 -1.637286,-5.074271 -0.0713,-3.835849 0.01855,-4.310909 0.991798,-5.243404 1.162418,-1.113667 3.312941,-0.828643 4.15381,0.550544 0.3788,0.621319 0.41894,1.042024 0.41964,4.398479 8.3e-4,4.179897 -0.16006,4.744595 -1.538613,5.398765 -0.902572,0.4283 -1.505241,0.420705 -2.389349,-0.03011 z"
       id="path3048"
       inkscape:connector-curvature="0" />
  </g>
</svg>
