<svg xmlns="http://www.w3.org/2000/svg" width="150" height="150">
    <rect width="130" height="130" rx="45" ry="45" x="10" y="912.362" style="marker:none" color="#000" fill="#133348" overflow="visible" transform="translate(0 -902.362)"/>
    <path d="M60.289 121.068c-7.776-2.154-14.28-4.058-14.455-4.23-.228-.226-.779-5.47-1.954-18.581-.9-10.046-2.346-26.15-3.213-35.786-.868-9.637-1.515-17.683-1.44-17.88.123-.32 4.14-.353 35.845-.3l35.706.06-.04 1.307c-.023.719-.636 7.829-1.362 15.8-.726 7.972-2.136 23.635-3.134 34.808-1.113 12.47-1.918 20.422-2.084 20.592-.292.298-28.624 8.168-29.315 8.142-.23-.009-6.779-1.778-14.554-3.932zm22.69-14.212c10.587-2.91 9.822-2.64 9.967-3.528.301-1.846 2.277-25.39 2.147-25.6-.09-.147-5.95-.232-16.054-.232H63.13l-.201-.535c-.273-.726-.844-8.351-.662-8.826.132-.344 1.771-.38 17.023-.38 13.34 0 16.878-.063 16.884-.297.004-.164.161-1.848.35-3.743.188-1.894.345-3.578.349-3.742.005-.235-4.52-.297-21.852-.297H53.16v.535c-.002.88 2.153 24.982 2.261 25.304.08.233 3.357.297 15.322.297 13.749 0 15.235.037 15.367.381.186.485-.789 11.272-1.041 11.523-.104.103-2.42.79-5.149 1.527l-4.96 1.34-4.9-1.322c-2.797-.755-5.014-1.478-5.165-1.684-.145-.2-.337-1.297-.427-2.44-.09-1.143-.225-2.64-.303-3.326l-.14-1.247h-3.993c-2.195 0-4.036.08-4.09.178-.157.287.994 12.737 1.213 13.114.119.205 3.718 1.313 8.955 2.757 6.686 1.843 8.93 2.374 9.487 2.243.401-.094 3.723-.994 7.382-2zM45.821 38.679c-.192-.23-.252-2.261-.208-6.95l.064-6.623H50.666l.069 2.089.069 2.09 1.713-.07 1.713-.07.119-2.02.119-2.02 2.356-.068c1.725-.05 2.408.014 2.55.238.107.168.196 3.206.198 6.751.003 5.237-.058 6.498-.328 6.722-.215.178-1.12.251-2.555.207l-2.221-.069-.12-2.138-.118-2.138-1.723-.07-1.722-.07v1.983c0 1.225-.11 2.09-.285 2.267-.418.418-4.327.384-4.68-.04zm19.095.03c-.06-.164-.137-2.169-.17-4.456l-.062-4.158-1.9-.118-1.901-.12V25.107h12.83v4.752l-1.841.07-1.842.069v4.219c0 2.965-.084 4.304-.285 4.504-.402.402-4.68.392-4.829-.012zm10.635.098c-.234-.148-.287-1.7-.238-6.946l.063-6.755 2.537-.067c2.885-.077 2.498-.308 4.284 2.559 1.095 1.757.838 1.85 2.64-.948l.994-1.544h5.227l.063 6.624c.045 4.688-.016 6.719-.207 6.95-.371.446-4.32.459-4.69.015-.141-.171-.288-1.428-.325-2.792l-.069-2.481-1.14 1.722c-.68 1.03-1.304 1.723-1.548 1.723-.25 0-.825-.663-1.474-1.7l-1.065-1.7-.119 2.472c-.066 1.36-.205 2.606-.31 2.77-.218.336-4.117.42-4.623.098zm17.398-.098c-.064-.167-.089-3.296-.054-6.954l.063-6.65h4.752l.12 4.278.118 4.276 2.614.059c4 .09 3.711-.129 3.631 2.74l-.067 2.428-5.53.064c-4.325.05-5.556-.002-5.647-.24z" fill="#fff"/>
</svg>
