<svg xmlns="http://www.w3.org/2000/svg" width="300" height="300" viewBox="0 0 299.99999 300">
    <path d="M602 450l-102.269 58.735-102-59.2L398 331.6l102.269-58.735 102 59.2z" transform="matrix(1.03468 0 0 1.0333 -367.342 -230.42)" fill="none" stroke="#fff" stroke-width="7.687" stroke-linecap="round" stroke-linejoin="round"/>
    <path d="M44.534 3.973l-.276 193.917 105.213 98.137 105.488-97.366.274-192.191-105.148 108.942z" fill="none" stroke="#fff" stroke-width="7.945" stroke-linecap="round" stroke-linejoin="round"/>
    <path d="M111.792 209.647a89.59 63.695 0 1 1 73.815 1.499" fill="none" stroke="#fff" stroke-width="7.9478134" stroke-linecap="round" stroke-linejoin="round"/>
    <path d="M561.32 465.142l-58.63 36.783-61.17-32.384-2.54-69.166 58.63-36.783 61.17 32.384z" transform="matrix(1.74929 .09247 -.06575 1.2605 -696.576 -384.207)" fill="none" stroke="#fff" stroke-width="5.309" stroke-linecap="round" stroke-linejoin="round"/>
    <path d="M45.096 43.424L148.676 169.2l.673 50.445M137.242 155.748l-37.666 89.456M254.719 46.972L162.8 159.784l38.338 86.765" fill="none" stroke="#fff" stroke-width="7.948" stroke-linecap="round" stroke-linejoin="round"/>
    <path d="M87.514 166.146a16.815 12.107 0 1 1 23.205 17.502l-11.143-9.067zM189.563 183.106A18.496 11.434 0 1 1 213.92 165.9l-12.446 8.46z" fill="none" stroke="#fff" stroke-width="7.9478134" stroke-linecap="round" stroke-linejoin="round"/>
    <path d="M133.206 276.816l16.928-11.337 18.047 13.355" fill="none" stroke="#fff" stroke-width="7.948" stroke-linecap="round" stroke-linejoin="round"/>
    <ellipse cx="374.043" cy="845.713" rx="43.495" ry="41.416" transform="matrix(.32345 0 0 .32345 29.708 -23.638)" fill="none" stroke="#fff" stroke-width="24.572" stroke-linecap="round" stroke-linejoin="round"/>
</svg>
