<svg xmlns="http://www.w3.org/2000/svg" width="150" height="150">
    <defs>
        <clipPath id="a">
            <path style="marker:none" color="#000" fill="#fff" stroke-width="2.5" overflow="visible" d="M31.092 32.305h84.328v75.076H31.092z"/>
        </clipPath>
    </defs>
    <rect width="130" height="130" rx="45" ry="45" x="10" y="912.362" style="marker:none" color="#000" fill="#0A7B7B" overflow="visible" transform="translate(0 -902.362)"/>
    <path d="M23.074 71.83v-50h100v100h-100v-50zm93.946 42.842c.287-.04.661-.143.83-.23.692-.352 1.279-1.087 1.54-1.927.143-.459.147-1.401.147-41.18 0-40.707 0-40.71-.156-41.2a4.922 4.922 0 0 0-.344-.81c-.283-.481-.973-1.074-1.443-1.238-.39-.136-1.937-.14-44.674-.14H28.651l-.441.206c-.882.413-1.573 1.383-1.746 2.449-.056.344-.08 12.972-.08 40.767 0 34.271.017 40.345.108 40.779.284 1.337 1.26 2.375 2.372 2.523.634.084 87.55.085 88.156.002zm-27.042-20.36c-.125-.029-.135-.242-.135-3.14v-3.11h1.923v6.213l-.266.05c-.27.05-1.274.042-1.522-.014zm6.748-.113c-.02-.055-.029-2.418-.018-5.253l.02-5.154.933-.021.934-.022.05.199c.065.26.045 9.6-.022 9.998l-.051.308-.904.022c-.68.016-.914-.003-.942-.077zm-3.45-.224c-.072-.359-.056-8.167.017-8.281.047-.074.298-.093.98-.077l.917.022.02 4.288.02 4.288h-1.906l-.048-.24zm6.846.121c-.026-.068-.048-1.744-.048-3.724 0-2.983.018-3.614.107-3.688.071-.059.403-.082.981-.067l.874.022v7.538l-.934.022c-.8.018-.94.003-.98-.103zm3.604.026c-.02-.054-.029-2.4-.018-5.214l.02-5.116h1.923v10.385l-.944.022c-.712.016-.953-.003-.981-.077zm3.51.021c-.062-.038-.08-2.114-.066-7.548l.02-7.495.878-.022c.483-.012.908.008.945.045.057.058.101 14.93.044 14.978-.058.048-1.747.088-1.821.042zm-68.161-.26c-.368-.117-.868-.637-.983-1.023-.12-.402-.139-31.983-.019-32.414.1-.362.488-.816.855-1.004.274-.14.43-.151 1.743-.132l1.442.02.022.604c.014.379-.01.644-.067.712-.065.078-.28.108-.775.108-.767 0-1.11.106-1.418.438-.443.478-.416-.525-.416 15.459 0 14.338.004 14.732.147 15.01.188.365.513.664.845.775.144.048.564.087.934.087.777 0 .766-.01.766.731 0 .782.1.732-1.45.723-.76-.005-1.476-.046-1.626-.093zm4.96.009a1.638 1.638 0 0 1-.93-.86l-.183-.393V76.677c0-10.12.027-16.06.074-16.23.1-.363.488-.817.855-1.005.274-.14.43-.151 1.743-.132l1.442.02.022.604c.014.357-.011.645-.061.705-.057.068-.343.11-.875.127-.692.023-.826.05-1.074.219-.165.111-.364.352-.475.573l-.191.38v14.68c0 13.075.013 14.71.119 14.964.286.685.763.937 1.776.94.812.001.797-.012.797.732 0 .782.1.732-1.45.725-.747-.004-1.461-.043-1.588-.087zm5.231-.022c-.373-.13-.853-.645-.96-1.028-.05-.185-.077-5.729-.076-16.28.001-15.33.007-16.013.142-16.308.184-.403.59-.792.93-.89.157-.046.86-.07 1.657-.056l1.384.023.023.603c.014.379-.01.644-.067.712-.065.078-.28.108-.775.108-.767 0-1.11.106-1.418.438-.443.478-.416-.525-.416 15.46 0 13.41.01 14.747.124 14.971.336.665.682.846 1.722.898l.807.04.024.538c.04.954.15.886-1.429.882-.965-.002-1.454-.035-1.672-.11zm5-.339a1.69 1.69 0 0 1-.842-.87c-.106-.256-.119-2.002-.117-16.385l.002-16.099.176-.346c.224-.444.749-.808 1.255-.87.497-.062 18.2-.07 18.36-.01.186.073 1.292 1.34 1.24 1.423-.027.044-3.597.072-9.294.072h-9.25l-.35.222a1.373 1.373 0 0 0-.515.563l-.165.34V76.32c0 12.212.018 14.79.104 14.996.138.33.59.719.952.819.432.12 23.06.113 23.538-.008a1.438 1.438 0 0 0 1.019-1.052c.073-.303.086-3.028.06-12.029l-.033-11.637-2.416-.039c-1.329-.021-2.485-.07-2.57-.108-.344-.154-.678-.469-.814-.767-.132-.29-.144-.548-.146-3.105 0-2.272.018-2.789.101-2.789.057 0 1.04 1.064 2.185 2.365 1.145 1.301 2.181 2.475 2.301 2.61.12.133.48.545.796.914.318.369.915 1.053 1.327 1.52l.75.849v11.698c0 7.925-.027 11.792-.081 11.988-.106.38-.459.775-.87.974-.328.159-.34.159-13.361.157-12.522-.001-13.046-.007-13.342-.144zm5.178-4.95c-.162-.128-.277-1.93-.135-2.102.12-.144 1.019-.152 1.137-.01.046.056.108.528.137 1.05.05.871.042.959-.088 1.054-.18.13-.89.136-1.051.008zm-2.489-.078c-.022-.057-.03-.534-.018-1.061l.022-.957.5-.044c.545-.047.663-.03.713.107.019.05.013.523-.013 1.052l-.046.962-.56.022c-.414.017-.568-.004-.598-.08zm4.858-.025c-.026-.066-.047-.548-.047-1.07v-.95l.558-.027c.307-.016.592 0 .635.035.087.073.154 1.661.082 1.947-.044.177-.078.187-.614.187-.446 0-.577-.026-.614-.122zm2.45.025c-.022-.057-.03-.534-.018-1.061l.021-.957h1.154v2.077l-.558.022c-.415.017-.57-.004-.6-.08zm2.538 0c-.022-.057-.03-.534-.018-1.061l.022-.957.598-.023.599-.022-.022 1.06-.021 1.062-.559.022c-.414.017-.57-.004-.599-.08zm2.384-.003c-.022-.056-.03-.532-.017-1.058l.022-.957h1.23l.023.884c.032 1.275.055 1.231-.642 1.231-.404 0-.59-.03-.616-.1zm2.559.052c-.03-.03-.054-.517-.054-1.083v-1.03l.596.023.596.023v2.077l-.542.022c-.298.012-.566-.002-.596-.032zm2.365-.049c-.022-.057-.03-.535-.018-1.061l.022-.957.598-.023.598-.022-.021 1.06-.022 1.062-.558.022c-.415.017-.57-.004-.599-.08zm2.558.049c-.03-.03-.054-.517-.054-1.083v-1.03l.596.023.596.023v2.077l-.542.022c-.298.012-.566-.002-.596-.032zm13.153-1.616c-.03-.03-.054-.282-.055-.56a4.616 4.616 0 0 0-.073-.813 2.135 2.135 0 0 1-.025-.644c.049-.358.241-.575 1.84-2.082a407.24 407.24 0 0 0 2.71-2.615c1.158-1.125 2.157-2.075 2.221-2.112.134-.077-.066-.273 2.49 2.452 1.033 1.1 1.932 2 2 2 .068 0 .38-.297.693-.66.312-.362 1.455-1.677 2.54-2.923a6535.96 6535.96 0 0 0 3.373-3.879c.772-.888 1.434-1.627 1.472-1.64.038-.015.068.501.068 1.16v1.186l-2.972 3.493a3383.493 3383.493 0 0 0-3.935 4.632c-.636.752-1.007 1.13-1.092 1.115-.07-.012-1.057-1.01-2.192-2.215-1.135-1.206-2.113-2.204-2.174-2.219-.061-.014-.445.298-.854.694l-3.27 3.18c-1.389 1.353-2.567 2.47-2.618 2.482-.051.012-.117-.002-.147-.032zM57.04 83.035c-.104-.076-.12-.245-.102-1.09l.022-.999.553-.022c.714-.03.728-.006.7 1.233l-.022.943-.514.012c-.291.007-.568-.026-.637-.077zm2.4.025c-.116-.072-.134-.21-.134-1.025 0-.63.03-.973.092-1.035.103-.103 1.107-.13 1.168-.03.06.097.077 2.01.018 2.07-.091.091-1.002.107-1.143.02zm2.498.014c-.074-.047-.093-.32-.077-1.095l.022-1.033h1.154l.021 1.033c.016.774-.003 1.048-.077 1.095-.054.034-.289.062-.521.062-.233 0-.468-.028-.522-.062zm2.383-.028c-.097-.097-.135-1.783-.045-2.017.068-.177 1.146-.177 1.214 0 .026.067.047.533.047 1.036 0 .825-.015.922-.15.994-.203.11-.953.1-1.066-.013zm2.57.03c-.021-.036-.055-.483-.074-.996-.045-1.172-.036-1.188.683-1.157l.537.023.021.99c.015.663-.007 1.024-.067 1.096-.097.117-1.031.154-1.1.043zm2.432-.002c-.074-.047-.093-.32-.077-1.095l.021-1.033.57-.023c.405-.016.59.007.634.077.092.145.08 1.814-.014 1.99-.066.123-.163.148-.558.147-.263 0-.522-.029-.576-.063zm2.452-.042c-.06-.072-.082-.433-.068-1.096l.022-.99H72.959l.021.99c.015.663-.007 1.024-.067 1.096-.058.07-.253.107-.57.107-.316 0-.511-.037-.57-.107zm2.382-.039c-.096-.178-.109-1.846-.016-1.993.045-.07.23-.093.633-.077l.57.023V83.1l-.553.023c-.485.02-.563.003-.634-.13zm2.54.039c-.059-.072-.081-.433-.067-1.096l.022-.99.57-.023c.404-.016.589.007.634.077.103.163.08 1.94-.027 2.046-.132.132-1.02.12-1.131-.014zM56.97 77.638c-.101-.101-.126-.29-.126-.972 0-1.086.03-1.143.612-1.143.726 0 .696-.046.696 1.08 0 .62-.03 1.007-.082 1.039-.046.028-.283.067-.528.087-.345.027-.474.007-.572-.09zm2.43.051c-.074-.047-.093-.32-.077-1.095l.021-1.032h1.154l.022 1.032c.016.774-.003 1.048-.077 1.095-.054.034-.289.063-.522.063-.232 0-.467-.029-.521-.063zm2.46-.027c-.062-.062-.093-.412-.093-1.069 0-.82.02-.984.122-1.023.215-.083.998-.05 1.094.045.061.062.092.402.092 1.024 0 .62-.03.961-.092 1.023-.052.051-.3.092-.562.092-.262 0-.51-.04-.561-.092zm2.372-.057c-.127-.237-.103-1.89.029-2 .066-.054.312-.08.634-.066l.526.023.022 1.032c.016.774-.003 1.048-.077 1.095-.054.034-.314.063-.577.064-.394 0-.492-.025-.557-.148zm2.57.049c-.022-.055-.03-.549-.018-1.096l.022-.996.526-.023c.322-.014.568.012.635.067.131.11.155 1.762.029 2-.068.125-.165.148-.618.148-.372 0-.55-.031-.577-.1zm2.444.035c-.074-.047-.093-.32-.077-1.095l.022-1.032h1.23l.022 1.032c.016.775-.003 1.048-.077 1.095-.054.034-.306.063-.56.063-.254 0-.506-.029-.56-.063zm2.463-.024c-.144-.144-.132-1.939.013-2.06.066-.054.313-.08.635-.066l.526.023v2.153l-.54.023c-.353.014-.572-.01-.634-.073zm2.4-.011c-.021-.055-.029-.549-.017-1.096l.022-.996.526-.023c.321-.014.568.012.634.067.143.118.157 1.915.017 2.056-.13.13-1.132.123-1.182-.008zm2.523.01c-.11-.109-.135-1.882-.03-2.048.045-.071.23-.093.634-.077l.57.023.038.464c.022.255.022.74 0 1.077l-.038.613-.54.022c-.353.014-.572-.01-.634-.073zm21.542-1.622c-1.83-2.387-2.946-3.916-2.905-3.982.026-.042.464-.075 1.003-.075h.957v-3.693h-2.226c-1.412 0-2.244-.028-2.274-.077-.05-.08.919-2.806 1.058-2.981.06-.076.784-.093 3.317-.077l3.24.02.039 3.385.038 3.384.956.039c.586.023.966.07.983.122.015.046-.531.824-1.213 1.73l-1.746 2.32c-.278.371-.531.674-.563.674-.032 0-.33-.355-.664-.789zm-9.83-3.442c-.464-.465-.891-.846-.95-.846-.059 0-.405.172-.77.383-.856.493-2.051 1.004-2.395 1.024l-.27.016-.018-2.5c-.01-1.375.007-2.535.039-2.577.031-.042.355-.276.72-.52 1.16-.774 2.243-2.058 2.755-3.267.565-1.331.701-2.153.609-3.667-.051-.836-.113-1.226-.269-1.7-.429-1.3-1.142-2.522-1.937-3.319-1.033-1.034-2.157-1.683-3.607-2.083-.668-.184-.887-.207-1.945-.207-1.051 0-1.279.024-1.923.202-1.772.49-3.1 1.374-4.283 2.85l-.416.519h-2.604c-2.152 0-2.61-.019-2.645-.107-.05-.13.517-1.408.944-2.127.171-.288.312-.57.312-.627 0-.057-.381-.483-.847-.947-.465-.464-.846-.879-.846-.922 0-.107 3.248-3.347 3.355-3.347.046 0 .46.38.918.846.459.465.88.846.935.846.056 0 .408-.174.782-.387 1.026-.583 2.57-1.183 3.645-1.416l.211-.046.002-1.21c0-.666.034-1.262.074-1.325.062-.099.403-.115 2.33-.11 1.24.002 2.315.027 2.387.055.115.044.13.197.13 1.32v1.27l.212.045c1.045.22 2.64.842 3.641 1.42.367.21.715.384.774.384.059 0 .486-.38.95-.846.464-.465.88-.846.923-.846.102 0 3.347 3.246 3.347 3.348 0 .043-.381.457-.847.921-.465.464-.846.886-.846.938 0 .053.19.434.42.848.517.926.995 2.106 1.232 3.044l.179.709 1.296.038 1.296.039.02 2.403.021 2.404h-1.266c-.929 0-1.281.026-1.326.096-.033.053-.136.398-.23.766-.227.898-.712 2.09-1.223 3.004-.23.413-.419.785-.419.827 0 .042.38.465.846.942.465.476.846.9.846.943 0 .1-3.246 3.345-3.347 3.345-.043 0-.458-.38-.922-.846zm-31.306-.182c-.102-.074-.118-.248-.1-1.088l.022-1 .57-.022c.404-.016.588.006.633.077.035.055.064.504.065.998.001 1.076-.034 1.137-.652 1.13-.229-.003-.47-.046-.538-.095zm2.403.022c-.117-.068-.135-.203-.134-1.017 0-.516.03-.983.065-1.038.044-.07.229-.093.633-.077l.57.023.022.99c.014.663-.008 1.024-.067 1.095-.105.127-.884.144-1.09.024zm2.497.018c-.074-.047-.093-.32-.077-1.095l.022-1.032.596-.023.596-.022v1.072c0 .906-.019 1.079-.122 1.118-.176.068-.9.055-1.015-.018zm2.375-.042c-.06-.071-.082-.432-.067-1.096l.021-.99H65.497l.022.99c.014.664-.008 1.025-.067 1.096-.059.07-.253.107-.57.107-.317 0-.512-.036-.57-.107zm2.541.003c-.063-.075-.084-.42-.07-1.099l.022-.99H68.036V72.486l-.546.022c-.4.016-.57-.007-.637-.088zm2.378-.045c-.094-.175-.106-1.844-.014-1.989.045-.071.237-.093.672-.077l.608.023.022.99c.014.663-.008 1.024-.067 1.095-.06.072-.26.107-.615.107-.442 0-.54-.024-.606-.149zm2.513.1c-.03-.029-.054-.532-.054-1.118 0-.96.013-1.064.134-1.07.074-.004.304-.02.51-.036.66-.05.67-.032.646 1.18l-.021 1.055-.58.022c-.32.012-.605-.002-.635-.032zm2.417-.055c-.063-.075-.085-.419-.07-1.096l.022-.986.269-.06c.148-.033.434-.04.637-.015l.367.045-.021 1.09-.022 1.088-.545.022c-.401.016-.57-.007-.637-.088zm2.485.004c-.02-.055-.028-.548-.017-1.096l.022-.996H77.882l.021.99c.015.663-.007 1.024-.067 1.095-.12.145-1.135.15-1.19.007zM56.92 66.215v-1.083l.596.023.597.022v2.077l-.597.022-.596.023v-1.084zm2.418.977c-.02-.055-.028-.531-.016-1.058l.021-.957.587-.022c.476-.018.596 0 .633.098.036.093.019 1.934-.019 2.02-.005.01-.269.02-.588.02-.405 0-.59-.03-.618-.101zm2.476-.018c-.07-.185-.055-1.827.018-1.943.045-.07.23-.093.634-.077l.57.023v2.077l-.587.022c-.484.019-.595 0-.635-.102zm2.414-.959c0-1.213-.082-1.074.654-1.11.6-.03.577-.073.577 1.12v1.067H64.228v-1.077zm2.593 1.03c-.03-.03-.055-.513-.055-1.072 0-1.152-.027-1.108.697-1.11.596-.002.62.044.594 1.192l-.021.999-.58.022c-.32.012-.605-.002-.635-.032z" clip-path="url(#a)" transform="translate(-11.87 -7.824) scale(1.18585)" fill="#fff"/>
</svg>
