<svg xmlns="http://www.w3.org/2000/svg" width="150" height="150">
    <rect width="130" height="130" rx="45" ry="45" x="10" y="912.362" style="marker:none" color="#000" fill="#00a8a8" overflow="visible" transform="translate(0 -902.362)"/>
    <path d="M51.435 121.709c-1.479-.207-3.162-.686-3.74-1.065-.96-.629-1.028-.868-.77-2.749l.284-2.06-2.683-1.351c-1.476-.744-3.48-1.898-4.454-2.566-2.175-1.492-2.541-1.502-4.002-.102-.879.842-1.42 1.046-2.236.841-2.09-.525-7.386-8.779-8.642-13.468-.514-1.917.022-2.811 2.08-3.477l1.442-.466V83.888l-1.652-.463c-2.868-.805-2.776-2.52.475-8.84 1.834-3.565 5.724-8.348 6.79-8.348.274 0 1.169.588 1.988 1.308l1.49 1.307 2.866-1.904c1.576-1.048 3.684-2.232 4.685-2.632l1.819-.728-.125-2.365c-.119-2.248-.063-2.396 1.115-2.97 1.75-.854 10.174-1.163 13.84-.508 3.4.608 4.121 1.356 3.373 3.503-.25.717-.455 1.463-.455 1.659 0 .195 1.287 1.013 2.86 1.818 1.571.806 3.71 2.042 4.753 2.747 1.73 1.17 1.97 1.228 2.752.656 2.905-2.122 2.677-2.046 3.838-1.285 2.45 1.605 6.7 8.639 7.875 13.03.615 2.3.221 3.082-1.774 3.52-.68.15-1.354.462-1.497.694-.198.32-.34 8.317-.195 10.914.013.214.642.522 1.399.684 2.91.622 3.099 1.828 1.032 6.561-2.249 5.15-6.336 10.575-7.968 10.575-.4 0-1.294-.476-1.986-1.058-.692-.583-1.469-1.059-1.726-1.059-.257 0-1.394.666-2.526 1.48-1.133.813-3.155 1.963-4.493 2.555-2.123.939-2.401 1.196-2.174 2.015.143.516.363 1.319.488 1.785.335 1.248-.668 2.324-2.575 2.762-2.648.608-8.624.819-11.57.408zm7.359-16.548c5.128-.948 9.094-3.893 11.37-8.44.811-1.623 1.601-3.97 1.758-5.224.33-2.64-.354-6.494-1.581-8.91-1.303-2.564-4.517-5.72-7.316-7.182-2.362-1.234-2.858-1.332-6.783-1.333-3.831 0-4.478.118-6.776 1.246-3.157 1.549-6.13 4.547-7.68 7.746-1.036 2.138-1.185 2.943-1.199 6.473-.014 3.714.094 4.251 1.375 6.854 2.242 4.556 6.714 8.001 11.413 8.792 2.872.483 2.682.484 5.419-.022zm29.856 11.393c.006-.306.674-1.461 1.486-2.568l1.476-2.011 11.325-.01c12.477-.01 13.716-.227 15.698-2.747 1.733-2.203 1.81-3.362 1.68-25.406l-.125-21.175-9.952-.23c-11.205-.26-12.569-.579-15.811-3.708-3.304-3.188-3.442-3.75-3.594-14.688-.083-5.988-.307-9.94-.581-10.27-.344-.414-3.695-.537-14.66-.537-13.564 0-14.296.04-16.046.888-1.223.592-2.185 1.486-2.887 2.684-.932 1.59-1.053 2.283-1.053 6.048 0 2.907-.167 4.378-.529 4.65-.86.646-4.056 1.755-4.315 1.496-.532-.532-.22-10.164.396-12.24.802-2.7 3.45-5.747 6.302-7.252l2.17-1.144 17.476-.128 17.477-.127 15.036 14.703c8.27 8.087 15.135 15.1 15.254 15.585.119.485.162 11.936.096 25.445l-.12 24.563-1.048 2.05c-1.232 2.413-3.242 4.29-5.919 5.528-1.811.839-2.746.9-15.585 1.024-11.063.108-13.656.027-13.647-.423zm27-59.988c.185-.558-17.132-18.34-18.7-19.201-.587-.323-.89-.287-1.159.136-.546.862-.452 12.502.117 14.4.609 2.033 2.89 4.445 4.707 4.977 2.185.64 14.805.378 15.035-.312z" fill="#fff"/>
</svg>
