<svg xmlns="http://www.w3.org/2000/svg" width="150" height="150">
    <rect width="130" height="130" rx="45" ry="45" x="10" y="912.362" style="marker:none" color="#000" fill="#133348" overflow="visible" transform="translate(0 -902.362)"/>
    <path d="M72.698 122.804c-2.332-.74-3.035-1.456-2.945-2.993.088-1.492-.593-3.031-1.642-3.712-.394-.256-1.729-.62-2.966-.812-6.168-.95-6.65-1.063-7.396-1.735-.746-.672-.916-1.112-.838-2.167.02-.282.983-1.584 2.138-2.893 1.155-1.309 2.183-2.706 2.285-3.105.515-2.014-1.976-3.38-12.753-7-7.44-2.498-10.653-4-10.86-5.076-.187-.972.859-1.775 5.16-3.962 2.26-1.149 4.251-2.357 4.427-2.684.855-1.598-.304-2.195-10.001-5.147C29.225 79.057 26.516 78 25.5 76.912c-.56-.602-.606-.891-.351-2.244.682-3.62 1.014-3.995 22.892-25.813C71.388 25.572 69.964 26.742 74.948 26.73c5.014-.012 3.74-1.063 27.209 22.425 22.514 22.532 21.968 21.896 22.668 26.404.697 4.481-.563 6.32-6.129 8.945-4.278 2.018-9.526 3.732-15.464 5.05-4.797 1.066-6.064 1.528-7.312 2.67-1.551 1.418-.821 2.7 2.886 5.07 3.148 2.012 4.964 3.421 5.2 4.034.536 1.397-5.31 5.5-11.446 8.033-4.803 1.983-6.607 3.081-6.887 4.194-.244.973.27 1.576 2.151 2.53 2.742 1.39 2.303 2.42-1.98 4.647-4.495 2.339-9.712 3.16-13.146 2.07zm2.566-30.754c-.008-1.204-.361-1.39-3.378-1.784-1.596-.208-5.27-.961-8.162-1.674-2.893-.713-5.324-1.234-5.4-1.157-.078.077.104.513.402.969.631.963 3.347 1.91 9.15 3.193 3.807.841 4.984 1.045 6.51 1.128.717.04.882-.087.878-.675zM58.71 56.582c3.858-.386 5.28-.648 5.666-1.044.283-.292 1.356-2.519 2.383-4.95 1.027-2.43 1.98-4.419 2.117-4.419.25 0 1.214 2.966 2.6 7.994.407 1.48.928 2.763 1.158 2.852.229.09 2.289-1.085 4.578-2.61 2.288-1.524 4.36-2.772 4.605-2.772.244 0 1.57.513 2.945 1.14 1.474.672 2.618 1.021 2.788.851.159-.158.498-1.785.755-3.616.257-1.83.59-3.45.74-3.599.149-.15 2.335.748 4.857 1.994 2.522 1.246 4.786 2.266 5.03 2.266.673 0 .529-1.02-.28-1.98-.398-.471-4.7-3.802-9.561-7.402-14.035-10.393-13.87-10.294-15.821-9.478-.61.254-3.627 2.247-6.705 4.428-6.153 4.36-9.556 7.55-12.668 11.881l-1.929 2.683-.11 3.148-.11 3.148h.905c.499 0 3.224-.232 6.057-.515zm46.255 56.125c-1.008-.407-2.053-1.897-2.053-2.927 0-1.33.65-2.533 1.484-2.742 2.378-.597 6.22 3 4.9 4.59-.985 1.188-2.889 1.662-4.331 1.08zm-58.055-1.152c-1.84-.999-1.348-3.413 1.097-5.373 1.793-1.438 3.558-1.52 6.191-.287 2.674 1.251 2.741 1.814.422 3.545-3.41 2.546-5.739 3.185-7.71 2.115zm65.001-7.386c-3.051-.557-4.856-1.183-5.262-1.827-.455-.72.436-1.948 1.924-2.654 1.225-.581 6.176-1.46 7.148-1.269.29.058 1.067.19 1.725.296 2.738.438 4.08 3.03 2.391 4.617-1.469 1.38-3.671 1.612-7.926.837z" fill="#fff"/>
</svg>
