<svg xmlns="http://www.w3.org/2000/svg" width="150" height="150">
    <rect width="130" height="130" rx="45" ry="45" x="10" y="912.362" style="marker:none" color="#000" fill="#133348" overflow="visible" transform="translate(0 -902.362)"/>
    <path d="M64.422 124.763c-4.996-.399-12.102-1.768-12.8-2.466-.462-.462.06-.486 2.644-.124 7.067.993 25.291 1.133 33.278.256 11.026-1.21 20.081-3.595 23.236-6.123l.934-.747v.769c0 .573-.298 1.087-1.167 2.016-1.254 1.34-3.405 2.516-6.582 3.596-3.287 1.118-10.563 2.303-17.49 2.848-3.744.295-18.254.278-22.053-.025zm-3.485-4.609c-3.49-.203-10.035-.896-14.063-1.49-7.352-1.083-8.588-1.563-8.588-3.336 0-1.273.963-2.195 3.61-3.46 3.391-1.62 6.748-2.508 9.473-2.508 3.093 0 3.999.826 1.167 1.064-1.855.157-4.189.853-6.285 1.876-1.116.545-1.369.784-1.369 1.291 0 .545.203.69 1.63 1.168 2.374.793 6.05 1.492 10.442 1.983 4.777.535 21.844.615 27.878.131 7.911-.634 15.698-1.834 18.356-2.828 2.407-.901 3.357-2.165 2.411-3.21-.718-.794.084-.763.997.038 1.663 1.46 1.015 2.907-1.931 4.319-4.224 2.023-10.938 3.526-20.704 4.635-2.237.253-19.96.506-23.024.328zm6.222-9.813c-4.71-.696-7.546-1.686-9.337-3.258-.76-.667-.882-.918-.818-1.68.063-.757.258-1.02 1.25-1.683 1.342-.896 3.361-1.73 3.604-1.487.09.09-.087.395-.393.68-.305.284-.513.647-.46.806.353 1.088 4.718 1.742 11.63 1.744 4.671 0 5.81-.081 8.956-.645l3.605-.646 2.805 1.396c1.542.767 2.804 1.464 2.804 1.549 0 .28-4.819 1.941-6.844 2.36-4.238.875-6.755 1.124-11.077 1.095-2.395-.015-4.972-.12-5.725-.23zm-.622-10.847c-9.055-.77-13.701-2.774-12.288-5.3.391-.7 2.429-2.016 4.126-2.664 1.323-.505 1.55-.347.71.493-.35.35-.637.92-.637 1.265 0 1.279 1.504 1.667 8.338 2.15 5.776.408 12.164-.017 18.885-1.254l2.706-.499.908.719c.499.395 1.437.976 2.085 1.29.648.315 1.178.65 1.178.745 0 .48-7.507 2.12-11.893 2.598-3.466.379-11.847.65-14.118.457zm29.308-.9c.056-.17 1.228-.983 2.603-1.804 4.77-2.848 7.647-5.703 8.572-8.509.532-1.612.567-2.304.186-3.675-.861-3.104-4.563-4.857-8-3.789-1.258.391-1.475.26-.712-.43 1.546-1.4 5.764-1.848 8.333-.887 1.933.723 2.879 1.434 3.949 2.965.918 1.315.937 1.389.932 3.602-.006 2.739-.366 3.655-2.234 5.698-2.444 2.673-5.753 4.612-10.858 6.362-2.5.858-2.924.93-2.771.468zm-36.402-9.81c-7.393-.518-10.232-1.005-12.208-2.096-1.41-.777-1.477-1.492-.237-2.494 1.014-.82 5.875-2.72 8.802-3.442 1.832-.452 7.615-1.106 7.835-.886.207.208-.276.62-.726.62-.634 0-5.548 1.59-7.276 2.355-3.26 1.442-2.619 2.295 2.16 2.875 3.13.38 14.46.317 21.065-.117 5.807-.382 9.159-.765 14.398-1.645 1.69-.284 3.146-.437 3.236-.34.09.097.008.232-.181.299-.19.067-1.365.654-2.614 1.305-3.53 1.842-8.272 2.764-17.305 3.366-4.742.316-13.774.422-16.949.2zm18.917-5.467c0-.086.4-.599.889-1.14 2.541-2.813 2.646-6.299.276-9.218-3.564-4.392-4.86-7.735-4.376-11.299.713-5.25 6.42-10.366 15.784-14.15 4.513-1.824 7.894-2.689 6.054-1.55-5.01 3.104-6.376 3.982-8.173 5.256-1.163.825-3.092 2.461-4.285 3.637-4.514 4.45-4.564 6.978-.258 12.986 1.8 2.512 2.303 3.744 2.303 5.65 0 2.909-2.69 6.625-6.609 9.132-1.354.867-1.605.975-1.605.696zm-6.786-6.57c-3.931-3.764-6.116-6.304-7.777-9.042-2.839-4.679-2.813-7.889.095-11.783 1.816-2.432 3.698-4.215 8.108-7.68 6.86-5.39 9.399-7.916 11.376-11.327 1.591-2.744 2.054-4.751 1.88-8.156-.074-1.462-.217-2.925-.317-3.251-.138-.45-.098-.567.166-.483.192.061.848 1.087 1.458 2.28 1.031 2.016 1.116 2.328 1.21 4.475.121 2.778-.272 4.529-1.682 7.482-1.762 3.691-5.868 8.365-10.79 12.281-3.776 3.004-6.293 5.987-7.38 8.747-1.536 3.895-.652 7.183 3.58 13.324 1.844 2.676 3.872 5.962 3.872 6.274 0 .388-.823-.293-3.799-3.141z" fill="#fff"/>
</svg>
