<svg xmlns="http://www.w3.org/2000/svg" width="150" height="150">
    <rect width="130" height="130" rx="45" ry="45" x="10" y="912.362" style="marker:none" color="#000" fill="#00a8a8" overflow="visible" transform="translate(0 -902.362)"/>
    <path d="M64.785 115.864c-8.34-8.348-9.056-9.192-9.056-10.681 0-1.49.707-2.32 9.086-10.662 8.167-8.13 9.242-9.045 10.617-9.045 1.37 0 2.426.89 10.148 8.543 4.74 4.7 8.864 9.134 9.162 9.855.299.72.425 1.779.28 2.352-.144.572-4.257 5.015-9.139 9.872-8.089 8.048-9.016 8.83-10.459 8.83-1.446 0-2.367-.784-10.64-9.064zm38.424-21.59c-.757-.48-5.04-4.63-9.519-9.223-7.041-7.223-8.142-8.546-8.142-9.79 0-1.255 1.154-2.595 9.127-10.597 8.077-8.105 9.297-9.16 10.599-9.16 1.301 0 2.522 1.055 10.598 9.16C124.15 72.97 125 73.97 125 75.383c0 1.412-.831 2.392-8.83 10.409-9.572 9.592-10.376 10.118-12.96 8.482zm-69.62-9.146c-6.584-6.592-8.595-8.874-8.589-9.749.006-.856 2.1-3.295 8.372-9.744 4.6-4.73 8.704-8.601 9.119-8.601.414 0 .879.326 1.032.725.153.4.278 8.258.278 17.463 0 15.754-.19 18.512-1.282 18.512-.183 0-4.2-3.873-8.93-8.606zm23.062-2.395c-.334-.625-.45-7.241-.363-20.645l.129-19.725 8.028-8.064c8.264-8.3 9.942-9.633 11.507-9.137.5.16 4.928 4.35 9.84 9.313 8.155 8.24 8.93 9.162 8.93 10.616 0 1.485-1.224 2.822-18.005 19.644-9.904 9.927-18.359 18.245-18.79 18.484-.593.328-.903.21-1.276-.486z" fill="#fff"/>
</svg>
