<svg xmlns="http://www.w3.org/2000/svg" width="150" height="150">
    <rect width="130" height="130" rx="45" ry="45" x="10" y="912.362" style="marker:none" color="#000" fill="#0A7B7B" overflow="visible" transform="translate(0 -902.362)"/>
    <path d="M75.42 92.797c.091-.481.574-.726 1.603-.81.973-.082 1.612-.384 1.885-.894.267-.5.371-4.646.296-11.804-.127-12.14-.047-11.774-2.606-11.786-1.032-.004-1.28-.151-1.178-.695.079-.415.56-.738 1.21-.814.964-.11 1.078-.28 1.058-1.575-.033-2.112-.814-4.023-2.007-4.907-1.367-1.013-6.832-1.222-7.428-.284-.214.337-.378 5.265-.381 11.49-.007 12.414-.079 12.132 3.073 12.143 2.025.006 3.076.454 2.657 1.13-.295.478-14.453.648-14.921.18-.611-.612.733-1.316 2.51-1.316 3.217 0 3.13.341 3.13-12.442V59.209l-1.082-.416c-.647-.249-2.102-.308-3.613-.149-3.245.343-4.564 1.505-4.948 4.36-.34 2.529-.478 2.918-1.035 2.918-.345 0-.398-1.035-.204-3.983.143-2.191.357-4.14.476-4.332.273-.441 24.072-.462 24.345-.02.11.18.308 1.553.437 3.051.129 1.499.322 3.3.43 4.004l.194 1.28 8.743.006c4.81.003 8.95.137 9.202.298.45.286 1.314 5.306 1.314 7.633 0 1.83-.872 1.153-1.38-1.07-.994-4.362-2.07-5.01-8.68-5.218-3.85-.122-4.835-.04-5.23.436-.342.412-.453 2.026-.375 5.452l.11 4.867 1.97.128c1.083.07 2.636-.071 3.452-.313 1.303-.387 1.54-.654 1.952-2.195.258-.965.703-1.754.99-1.754.695 0 .544 9.895-.154 10.127-.268.09-.566-.509-.727-1.46-.381-2.258-1.399-2.829-4.784-2.681l-2.698.117-.114 4.922c-.17 7.387-.69 6.795 5.812 6.633 4.768-.118 5.61-.24 6.58-.946 2.13-1.555 3.85-6.474 2.263-6.474-1.28 0-.37-1.342 1.12-1.652.815-.17 1.888-.574 2.386-.9.926-.607 7.745-10.433 7.745-11.161 0-.564-6.804-10.753-7.718-11.557-.411-.362-1.368-.716-2.126-.787-.905-.085-1.378-.332-1.378-.72 0-.496.85-.59 5.283-.59 3.862 0 5.327.131 5.446.49.09.268-.277.656-.815.86-.538.205-1.1.57-1.25.813-.287.463 4.388 7.878 4.966 7.878.516 0 4.68-6.399 4.68-7.192 0-.385-.45-.906-1-1.156-.57-.26-.948-.722-.88-1.075.1-.52.843-.619 4.642-.619 3.598 0 4.523.112 4.523.547 0 .324-.767.742-1.882 1.025-1.035.263-2.285.857-2.777 1.32-1.541 1.447-6.274 8.673-6.055 9.244.115.299 2.106 3.407 4.426 6.907 3.106 4.689 4.463 6.415 5.154 6.557l1.922.397c.541.112.984.472.984.799 0 .506-.798.578-5.382.484-3.86-.078-5.428-.248-5.545-.599-.09-.27.277-.657.815-.862.538-.204 1.09-.552 1.227-.773.265-.43-5.587-9.492-6.13-9.492-.469 0-5.855 8.13-5.855 8.837 0 .327.543.875 1.206 1.218 1.93.998 1.233 1.549-2.119 1.677-3.56.135-3.5.065-4.206 4.807-.274 1.84-.674 3.569-.888 3.84-.296.372-3.101.492-11.593.492-10.457 0-11.195-.046-11.073-.69zm-50.306-8.805c-.351-.567.543-1.124 1.819-1.131.552-.004 1.216-.22 1.476-.479.694-.693.674-22.89-.021-23.467-.272-.226-1.113-.469-1.87-.54-.904-.087-1.377-.335-1.377-.722 0-.5.94-.59 6.103-.59s6.104.09 6.104.59c0 .424-.52.624-1.84.71-1.01.065-2.032.352-2.27.638-.296.356-.398 4.14-.326 12.088l.104 11.569 3.544.109c3.047.094 3.79-.017 5.294-.788 1.957-1.003 2.961-2.59 3.516-5.56.385-2.063.68-2.558 1.19-2.004.364.395-.428 8.788-.902 9.556-.392.633-20.153.654-20.544.02zm10.265-7.832c-.317-.513.106-1.181.75-1.181 1.023 0 1.841-1.575 5.17-9.952 3.257-8.192 3.943-9.35 4.787-8.073.175.265 1.834 4.296 3.686 8.958 3.121 7.859 3.459 8.518 4.634 9.043.698.312 1.206.755 1.13.985-.198.6-6.582.77-7.126.188-.311-.333-.31-.505.006-.622.24-.089.735-.38 1.1-.646.616-.45.602-.63-.197-2.552-.997-2.399-1.311-2.535-5.478-2.369l-2.95.118-.956 1.93-.956 1.93 1.105.881c.608.485.984 1.078.835 1.319-.338.546-5.206.584-5.54.043zm12.147-7.777c.202-.328-2.303-6.753-2.843-7.293-.303-.304-3.2 6.212-3.2 7.198 0 .453 5.765.544 6.043.095z" fill="#fff"/>
</svg>
