<svg xmlns="http://www.w3.org/2000/svg" width="150" height="150">
    <rect width="130" height="130" rx="45" ry="45" x="10" y="912.362" style="marker:none" color="#000" fill="#0A7B7B" overflow="visible" transform="translate(0 -902.362)"/>
    <g fill="#fff">
        <path d="M36.322 61.586h16.58v53.345h-16.58V61.586zm8.293-26.517c5.3 0 9.608 4.307 9.608 9.61 0 5.307-4.307 9.615-9.608 9.615A9.614 9.614 0 0 1 35 44.679c0-5.302 4.302-9.61 9.615-9.61M63.301 61.586h15.902v7.289h.222c2.213-4.194 7.62-8.616 15.687-8.616C111.9 60.26 115 71.31 115 85.67v29.26H98.432V88.988c0-6.186-.114-14.143-8.616-14.143-8.626 0-9.95 6.738-9.95 13.696v26.39H63.3V61.585z"/>
    </g>
</svg>
