<svg xmlns="http://www.w3.org/2000/svg" width="150" height="150">
    <rect width="130" height="130" rx="45" ry="45" x="10" y="912.362" style="marker:none" color="#000" fill="#00a8a8" overflow="visible" transform="translate(0 -902.362)"/>
    <path d="M91.852 124.715c-.85-.2-1.214-.402-1.969-1.091-.509-.466-1.216-1.274-1.571-1.797-.7-1.03-.772-1.064-3.237-1.481-5.28-.894-10.214-.87-16.64.08-3.162.468-3.328.522-3.803 1.24-1.13 1.707-2.745 2.65-4.779 2.79-1.825.126-3.88-.367-9.2-2.208-5.459-1.888-6.33-2.127-9.422-2.575-6.503-.942-8.819-2.104-8.819-4.426 0-.626.174-1.392.86-3.789.594-2.07.606-3.324.056-5.494-.23-.902-.416-1.836-.415-2.076.002-1.212.812-2.573 1.85-3.11.258-.133 1.464-.505 2.679-.826 3.642-.962 5.056-1.875 6.167-3.98.291-.554.927-1.408 1.413-1.898l.883-.893-.205-1.22c-.303-1.806-.02-3.353 1.017-5.564 1-2.13 1.213-2.673 2.75-6.989 2.743-7.7 2.947-8.077 8.198-15.133 1.671-2.247 3.189-4.392 3.372-4.767.544-1.115.712-3.244.602-7.637-.055-2.197-.186-4.78-.291-5.74-.314-2.86-.273-8.629.073-10.371.967-4.872 3.17-7.673 7.408-9.42 1.671-.69 2.177-.822 4.182-1.098 3.008-.414 6.506-.207 8.485.501 3.378 1.21 6.126 3.833 7.836 7.483 1.783 3.806 2.471 7.47 2.733 14.568.258 7.005.8 8.683 4.484 13.894 7.993 11.305 11.671 17.68 12.673 21.963.418 1.789.417 6.645-.002 8.736-.538 2.68-.542 2.554.128 3.467 1.082 1.474 1.443 2.491 1.59 4.478.227 3.066 1.046 4.263 3.94 5.758 1.707.881 2.254 1.394 2.532 2.373.447 1.578.043 3.047-1.13 4.102-.445.4-2.851 1.85-5.568 3.357-5.564 3.085-8.113 4.726-10.08 6.492-.778.698-1.789 1.465-2.246 1.703-1.614.842-4.408 1.098-6.534.598zm5.516-3.847c1.217-.575 2.562-1.563 4.29-3.151 1.959-1.8 3.42-2.7 9.248-5.694 2.527-1.299 3.3-1.922 3.147-2.535-.121-.484-1.098-1.245-2.794-2.179-1.68-.924-2.539-2.063-3.057-4.054a9.204 9.204 0 0 1-.249-1.924c0-.958-.3-1.98-.642-2.191-.1-.062-.374.205-.622.603a16.543 16.543 0 0 1-1.162 1.562c-2.17 2.565-7.477 3.464-9.442 1.6-.93-.882-1.61-2.808-1.61-4.559 0-.53-.056-.635-.343-.635-.19 0-.497.082-.685.183-.334.178-.338.261-.224 4.118.131 4.451.05 5.393-.858 10.009-.694 3.525-.78 5.272-.328 6.6.335.981 1.431 2.319 2.181 2.66.712.323 1.93.164 3.15-.413zm-36.874-.616c2.673-2.42 2.54-4.949-.454-8.647-1.544-1.908-2.6-3.482-5.246-7.82-2.624-4.304-2.936-4.766-3.988-5.891-1.629-1.744-3.005-2.275-3.81-1.47-.206.206-.739 1.064-1.183 1.907-1.482 2.81-1.831 3.065-5.385 3.937-1.28.314-2.603.702-2.94.861-.902.429-.994.84-.656 2.95.353 2.215.262 3.464-.415 5.692-.558 1.832-.644 2.92-.263 3.302.414.414 1.66.729 5.743 1.452 4.095.725 4.813.933 9.378 2.725 3.453 1.356 5.464 1.904 7.024 1.914l1.178.008 1.017-.92zm16.178-6.648c2.074-.325 4.33-1.045 5.824-1.857 2.14-1.165 4.705-3.221 6.163-4.942l.825-.974v-2.573c0-3.708.292-7.346.636-7.94.45-.776 1.266-1.119 2.573-1.08.622.018 1.193-.036 1.27-.119.076-.083.278-.9.45-1.816.428-2.292.43-7.65.004-9.817-.85-4.307-5.598-16.366-9.5-24.126-1.37-2.724-1.548-3-1.972-3.048-.593-.068-1.952.568-5.48 2.566-4.032 2.284-5.155 2.787-6.397 2.867-.892.056-1.191-.006-2.13-.445-1.086-.509-2.243-1.339-3.83-2.747l-.832-.739-.196 1.522c-.345 2.685-1.3 5.03-3.128 7.678-1.197 1.733-1.814 3.118-3.335 7.487-.67 1.923-1.59 4.13-2.348 5.634-2.062 4.087-2.641 6.302-2.639 10.09.002 4.59.716 5.69 6.737 10.389 4.103 3.201 5.242 4.412 5.512 5.857.272 1.453-.465 2.847-1.887 3.573l-.65.331.468.536 1.942 2.228c1.006 1.155 1.615 1.718 1.914 1.772 1.021.182 8.316-.042 10.006-.307zm-3.37-56.149c.746-.36 2.427-1.285 3.736-2.054 1.308-.77 2.73-1.598 3.159-1.841 1.308-.742 1.211-1.483-.301-2.303-1.382-.75-6.561-2.656-7.453-2.744-.71-.07-.986-.007-1.715.39-1.38.75-5.363 4.071-5.367 4.475-.007.702 1.439 2.174 3.529 3.594 1.985 1.348 2.507 1.405 4.413.483zm-7.306-8.217l.363-.387-.625-.404c-1.763-1.136-2.111-4.613-.582-5.815 1.385-1.09 3.244.55 3.48 3.069l.1 1.086.684-.408c.84-.5 1.014-1.125.781-2.803-.792-5.714-6.13-5.8-7.013-.115-.328 2.119.377 4.576 1.63 5.676.67.588.72.592 1.182.1zm15.983-.947c1.625-1.674 2.1-4.41 1.19-6.844-1.208-3.229-4.8-4.184-7.045-1.873-1.042 1.074-1.504 2.217-1.586 3.926-.042.88.012 1.767.134 2.202.177.634.295.764.9.995.382.146.735.265.783.265.049 0 .057-.431.02-.958-.096-1.318.2-2.277.947-3.08.556-.595.732-.68 1.543-.748.85-.07.96-.037 1.55.482.86.755 1.24 1.652 1.245 2.933.004 1.058-.417 2.293-.926 2.714-.4.333-.26.522.472.635.07.01.417-.281.773-.649z" fill="#fff"/>
</svg>
