<svg xmlns="http://www.w3.org/2000/svg" width="150" height="150">
    <rect width="130" height="130" rx="45" ry="45" x="10" y="912.362" style="marker:none" color="#000" fill="#0A7B7B" overflow="visible" transform="translate(0 -902.362)"/>
    <path d="M43.673 124.691c-.065-.17-.118-2.262-.118-4.65 0-3.167.066-4.43.244-4.671.223-.303 1.204-.335 11.67-.38l11.426-.049.097-4.037c.054-2.22.17-4.11.26-4.199.09-.089 2.506-.218 5.371-.287 3.543-.086 5.615-.22 6.479-.42 2.978-.691 5.664-1.844 8.037-3.45 1.583-1.07 3.64-2.84 3.486-3-.054-.056-1.109.308-2.344.81l-2.246.912-.097.78-.098.782H53.223l-.056-1.881c-.056-1.88-.055-1.882.45-2.009.277-.07 7.78-.118 16.673-.107l16.168.019 3.698-1.48c2.586-1.034 3.78-1.61 3.974-1.917 2.153-3.413 3.594-7.306 4.12-11.133.323-2.35.27-6.401-.112-8.657-.875-5.158-3.323-10.16-6.787-13.87-1.208-1.293-3.637-3.399-3.921-3.399-.062 0-.797.69-1.633 1.533-1.696 1.71-3.836 2.94-5.842 3.355-1.125.234-4.646.168-5.482-.102l-.43-.139-.059 4.89c-.055 4.581-.084 4.924-.461 5.44-.222.303-.728.712-1.123.909l-.72.358V82.7c0 9.156.146 8.39-1.738 9.106-1.374.522-3.94.522-5.313 0-1.885-.716-1.738.05-1.738-9.106v-8.06l-.73-.357c-.402-.197-.929-.657-1.172-1.022l-.442-.664V54.021c0-17.672.017-18.61.36-19.249.197-.368.684-.839 1.08-1.045l.722-.374-.056-1.882-.055-1.881-1.239-.099c-1.639-.13-2.18-.685-2.18-2.24 0-2.298-.17-2.251 8.106-2.251 8.277 0 8.106-.047 8.106 2.251 0 1.555-.54 2.11-2.18 2.24l-1.238.099-.056 1.906c-.054 1.83-.038 1.914.39 2.08.496.19 1.16.865 1.497 1.519.13.25.22 1.462.22 2.946 0 1.385.05 2.569.11 2.63.061.06.435.018.83-.095 1.199-.341 4.281-.27 5.602.129 3.885 1.175 7.178 4.554 8.173 8.386.163.628.324 1.161.359 1.184.034.024.739.458 1.566.965 4.045 2.484 8.038 6.584 10.682 10.967 5.124 8.497 6.343 19.103 3.32 28.894-3.13 10.14-10.96 18.339-20.61 21.582l-1.732.581v1.677l6.348.098 6.348.098.055 4.492c.03 2.47.006 4.69-.053 4.932l-.108.439h-25.56c-23.13 0-25.573-.03-25.68-.309zm36.21-64.383c1.277-.383 2.601-1.165 3.646-2.153.573-.542 1.041-1.09 1.041-1.22 0-.13-.35-.393-.777-.586l-.778-.35-.897.826c-1.68 1.549-3.808 2.189-5.874 1.768-2.287-.467-3.936-1.765-4.929-3.882-.436-.931-.514-1.364-.514-2.856 0-1.468.078-1.917.476-2.725 2.06-4.185 7.15-5.29 10.603-2.302.825.714 3.195 1.756 3.44 1.512.197-.198-.692-1.531-1.703-2.553-4.975-5.024-13.518-2.266-14.707 4.75-.566 3.346.903 6.713 3.764 8.624 2.124 1.418 4.856 1.853 7.209 1.147z" fill="#fff"/>
</svg>
