<svg xmlns="http://www.w3.org/2000/svg" width="150" height="150">
    <rect width="130" height="130" rx="45" ry="45" x="10" y="912.362" style="marker:none" color="#000" fill="#0A7B7B" overflow="visible" transform="translate(0 -902.362)"/>
    <path d="M63.63 119.157c-10.119-2.168-19.002-8.874-23.448-17.7-3.308-6.565-3.346-6.814-3.637-23.899l-.26-15.19-5.642-.218L25 61.933V30.25l34.722.137c38.07.15 38.09.151 44.443 2.788 8.683 3.604 15.759 10.745 18.878 19.05 1.94 5.168 2.053 7.42 1.914 38.355l-.13 29.08-29.08.075c-24.418.062-29.568-.03-32.119-.577zM123.09 88.41V58.461l-1.182-3.472c-1.682-4.938-3.966-8.581-7.744-12.35-4.498-4.487-8.74-6.897-15.84-8.998-2.344-.693-5.672-.775-36.764-.9l-34.186-.14.115 13.581.115 13.581 5.425.217 5.425.217.248 16.276c.272 17.913.324 18.31 3.189 24.089 1.888 3.81 4.937 7.607 8.293 10.33 4.238 3.438 11.548 6.624 16.916 7.373.716.1 13.607.162 28.646.137l27.344-.045V88.409zm-57.842 21.948c-9.023-2.217-16.33-9.166-18.534-17.626-.534-2.051-.668-5.573-.683-17.977-.02-16.153-.165-17.573-2.001-19.638-1.316-1.48-4.059-2.494-6.77-2.505l-2.495-.01V40.016l28.972.007c32.541.009 32.457.002 38.677 3.068 6.342 3.127 11.158 8.894 12.85 15.389.555 2.13.665 6.226.665 24.834 0 23.926.041 23.45-2.244 25.583-2.444 2.282-2.66 2.302-24.76 2.268-18.163-.029-20.885-.122-23.677-.807zm10.66-7.778c.403-.255.526-1.336.435-3.791l-.128-3.435-4.991-.226c-3.557-.161-5.39-.441-6.38-.976-1.363-.736-3.095-2.726-3.864-4.44-.215-.477-.488-10.048-.607-21.267l-.217-20.4h-6.945L53.1 69.176c-.109 20.382-.081 21.216.776 23.507 1.59 4.252 5.794 8.319 9.904 9.584 2.203.678 11.189.91 12.13.312zm.26-18.98c.145-.377.264-4.63.264-9.452 0-9.715.132-10.25 2.815-11.37 1.927-.806 3.943-.169 5.431 1.717.517.654.696 2.768.869 10.2l.217 9.375h7.378l.217-9.353c.184-7.913.333-9.53.973-10.503 1.024-1.561 3.456-2.218 5.323-1.439 2.687 1.123 2.819 1.655 2.819 11.373 0 4.821.118 9.075.263 9.452.211.55.985.687 3.906.687h3.643V64.025l-1.327-2.656c-2.302-4.608-5.737-6.757-10.826-6.774-3.25-.011-4.755.433-7.487 2.207-1.146.744-1.24.744-2.387 0-2.719-1.766-4.244-2.218-7.497-2.222-2.844-.003-3.571.169-5.642 1.33-2.649 1.487-5.25 4.557-6.01 7.092-.528 1.761-.707 20.488-.201 20.994.159.16 1.798.29 3.643.29 2.657 0 3.408-.143 3.616-.687z" fill="#fff"/>
</svg>
