<svg xmlns="http://www.w3.org/2000/svg" width="150" height="150">
    <rect width="130" height="130" rx="45" ry="45" x="10" y="912.362" style="marker:none" color="#000" fill="#00a8a8" overflow="visible" transform="translate(0 -902.362)"/>
    <path d="M64.255 123.662c-.994-.528-1.56-1.46-1.56-2.57 0-1.088.335-1.64 2.404-3.968 4.643-5.222 6.368-9.565 6.991-17.603.297-3.824.043-8.878-.8-15.927-1.358-11.371-1.631-16.107-1.153-20.004.74-6.033 3.835-9.861 9.888-12.227 2.147-.84 6.885-2.067 7.324-1.899.298.114 1.166 3.721 1.205 5.004l.02.659-1.705.349c-3.842.786-7.16 2.171-8.636 3.606-1.79 1.74-2.357 3.865-2.345 8.79.008 3.54.117 4.922.99 12.597.264 2.31.623 5.473.799 7.031.499 4.415.446 12.753-.104 16.32-1.169 7.59-3.346 12.067-8.763 18.018-1.996 2.192-3.06 2.618-4.555 1.824zm-9.864-16.74C43.324 96.66 43.507 96.837 43.653 96.455c.18-.467 3.234-3.123 3.517-3.057.199.047 7.466 6.738 18.866 17.37.418.39.76.786.758.88-.004.227-2.78 3.635-3.03 3.718-.108.036-4.326-3.763-9.373-8.444zm10.528-5.506c-1.941-1.8-5.477-5.073-7.856-7.275-2.38-2.203-4.327-4.112-4.328-4.244-.002-.475 3.837-2.009 5.014-2.004.582.002.318-.227 8.631 7.502l3.588 3.335-.101 1.954c-.12 2.305-.577 4.003-1.08 4.003-.186 0-1.926-1.472-3.868-3.271zM35.008 99.22c-1.315-.802-1.77-2.417-1.085-3.859.46-.97 5.81-6.416 8.165-8.31 5.537-4.458 10.364-6.604 17.19-7.642 3.085-.469 8.344-.928 8.528-.743.276.276 1.038 5.303.834 5.501-.1.097-1.677.319-3.503.492-6.744.639-9.941 1.395-13.672 3.233-3.69 1.817-7.697 5.056-11.327 9.155-.96 1.085-2.027 2.105-2.368 2.267-.858.407-2.004.368-2.762-.094zm44.985-16.973c-.227-.368-.75-5.319-.579-5.488.097-.096 1.202-.486 2.456-.866 6.208-1.88 9.222-3.793 10.688-6.785.83-1.694 1.063-3.146.935-5.827-.124-2.598-.485-4.444-2.084-10.644-1.463-5.672-2.074-8.74-2.347-11.772-.435-4.826.423-9.388 2.441-12.982.729-1.298 1.512-1.809 2.77-1.809 1.073 0 1.756.359 2.449 1.286.7.938.658 1.73-.194 3.621-1.252 2.78-1.445 3.602-1.553 6.617-.133 3.697.205 5.842 2.093 13.28 2.258 8.895 2.634 11.341 2.33 15.133-.53 6.593-4.46 11.27-11.984 14.258-1.421.564-6.658 2.153-7.099 2.153a.42.42 0 0 1-.322-.175zm.95-10.885c-1.496-.926-2.785-1.783-2.864-1.904-.211-.324-.175-4.468.043-4.81.143-.225.267-.243.534-.079 5.356 3.29 9.625 6.018 9.625 6.152 0 .37-3.74 2.326-4.447 2.326-.094 0-1.396-.758-2.892-1.685zm4.714-7.754c-2.786-1.75-5.1-3.283-5.141-3.408-.113-.34 1.01-.946 2.97-1.604l1.748-.587 1.377.818c2.16 1.282 4.551 2.85 4.692 3.079.165.265.169 3.987.005 4.502-.068.214-.227.387-.354.385-.127-.002-2.51-1.435-5.297-3.185zm14.78-11.118c-.25-.308-1.426-5.046-1.303-5.245.05-.081 1.02-.591 2.155-1.133 3.94-1.882 6.378-3.905 9.053-7.51 1.584-2.136 2.257-2.586 3.599-2.406 1.016.136 1.682.646 2.23 1.706.614 1.19.458 1.872-.892 3.895-1.368 2.051-5.285 6.005-7.218 7.286-1.855 1.23-4.319 2.527-5.985 3.15-1.574.588-1.395.56-1.64.257zm-1.308-9.932c-.962-.533-1.808-1.062-1.88-1.177-.194-.316-.403-2.993-.26-3.363.067-.177.224-.318.346-.312.488.024 6.868 3.653 6.923 3.938.077.4-2.232 1.916-2.89 1.896-.269-.008-1.277-.45-2.239-.982zm3.117-5.92c-2.47-1.33-4.52-2.552-4.552-2.716-.081-.4.693-2.175 1.113-2.555.306-.277.745-.082 5.207 2.311 2.68 1.438 4.898 2.738 4.93 2.89.079.39-1.524 2.495-1.897 2.49-.17-.002-2.33-1.091-4.8-2.42z" fill="#fff"/>
</svg>
