<svg xmlns="http://www.w3.org/2000/svg" width="150" height="150">
    <rect width="130" height="130" rx="45" ry="45" x="10" y="912.362" style="marker:none" color="#000" fill="#0A7B7B" overflow="visible" transform="translate(0 -902.362)"/>
    <path d="M33.742 119.237c-1.392-.335-2.69-1.314-3.443-2.596l-.72-1.224-.072-19.492c-.043-11.646.024-19.49.168-19.49.132 0 1.05.474 2.04 1.054 7.003 4.1 15.506 4.494 22.836 1.06 2.93-1.374 5.005-2.886 7.546-5.5l2.066-2.127h3.1l1.852 1.772c1.018.974 2.58 2.288 3.47 2.92 2.434 1.723 6.64 3.649 9.677 4.429 2.356.605 3.248.697 6.906.709 5.727.019 8.91-.738 13.968-3.324 1.186-.605 2.226-1.03 2.312-.945.086.086.153 8.851.15 19.478-.008 17.404-.051 19.406-.44 20.176-.61 1.206-1.387 1.998-2.602 2.652l-1.05.565-33.47.04c-18.408.023-33.84-.048-34.294-.157zm38.44-19.046c5.225-2.743 9.502-5.106 9.503-5.252.002-.259-19.437-10.104-19.95-10.104-.302 0-.376 20.01-.075 20.311.102.102.373.152.603.11.23-.043 4.693-2.322 9.919-5.065zm44.411 10.024c-4.119-2.193-7.633-4.082-7.81-4.199-.244-.161-.32-2.796-.32-11.064V84.1l8.035-4.092c4.42-2.251 8.141-4.028 8.27-3.949.131.082.232 8.385.232 19.16 0 17.942-.026 19.015-.46 18.999-.252-.01-3.828-1.811-7.947-4.003zm-29.74-32.23c-5.816-.614-10.77-3.119-14.9-7.533-4.314-4.61-6.28-9.708-6.28-16.286 0-3.9.736-7.044 2.445-10.446 2.871-5.717 7.655-9.861 13.73-11.893 11.494-3.845 24.036 1.618 29.112 12.68 1.73 3.772 2.48 8.578 1.97 12.633-1.629 12.965-13.19 22.207-26.078 20.845zm4.358-5.062c2.452-1.05 3.476-3.88 2.289-6.331-1.737-3.588-6.757-3.44-8.432.25-.593 1.305-.616 2.229-.088 3.494 1.054 2.522 3.758 3.645 6.23 2.587zm-12.164-7.244c2.505-1.278 3.328-4.313 1.827-6.742-1.845-2.985-6.677-2.677-8.128.517-.607 1.34-.64 2.51-.106 3.788.544 1.302 1.104 1.887 2.353 2.461 1.367.628 2.792.62 4.054-.024zm24.506.163c2.692-1.125 3.663-4.826 1.879-7.165-.797-1.045-2.465-1.919-3.664-1.919-1.948 0-4.065 1.7-4.603 3.697-.962 3.575 2.91 6.84 6.388 5.387zm-12.396-9.6c.62-.62.767-.994.767-1.946 0-.993-.126-1.285-.807-1.858-1.823-1.533-4.443-.386-4.443 1.946 0 1.535 1.09 2.625 2.625 2.625.855 0 1.256-.166 1.858-.767zm-11.829-5.045c2.544-1.423 3.062-4.763 1.101-7.093-2.537-3.016-7.75-1.324-8.13 2.64-.37 3.835 3.62 6.362 7.03 4.453zm24.994-.106c1.784-1.175 2.527-3.696 1.685-5.71-.422-1.011-2.013-2.473-2.945-2.707-.366-.092-1.245-.111-1.953-.043-3.784.363-5.423 4.873-2.803 7.716 1.61 1.747 4.037 2.047 6.016.744zM91.347 44.3c2.417-1.263 3.308-3.935 2.127-6.376-1.355-2.799-5.368-3.379-7.51-1.085-.714.765-1.39 2.34-1.39 3.237 0 1.581 1.303 3.578 2.756 4.224 1.042.462 3.131.463 4.017 0zM39.22 77.48c-5.59-1.465-10.624-5.898-12.812-11.283-3.017-7.425-1.098-15.81 4.887-21.351 5.826-5.395 14.602-6.518 21.773-2.787 8.195 4.263 12.222 14.292 9.228 22.98-1.079 3.129-2.202 4.889-4.761 7.463-2.57 2.585-5.237 4.139-8.564 4.99-2.7.69-7.09.685-9.751-.013zm6.326-3.505c1.447-.605 2.276-1.832 2.276-3.372 0-3.817-4.172-5.256-6.662-2.297-.992 1.18-.982 3.275.021 4.467 1.216 1.446 2.763 1.872 4.365 1.202zm-9.975-5.775c.471-.197 1.176-.737 1.566-1.201 1.004-1.194 1.015-3.288.022-4.468-1.772-2.106-4.202-2.106-5.975 0-.992 1.18-.982 3.275.022 4.467 1.216 1.446 2.763 1.872 4.365 1.202zm19.95 0c.472-.197 1.177-.737 1.567-1.201 1.004-1.194 1.014-3.288.022-4.468-1.772-2.106-4.203-2.106-5.975 0-.992 1.18-.982 3.275.021 4.467 1.217 1.446 2.763 1.872 4.365 1.202zM45.18 60.825c.808-.418 1.07-.878 1.07-1.886 0-1.548-1.464-2.52-2.898-1.926-1.736.72-1.806 2.971-.122 3.893.708.387 1.074.372 1.95-.081zm-9.45-4.2c.41-.212 1.066-.767 1.46-1.235.638-.758.703-1.013.604-2.372-.09-1.236-.253-1.671-.87-2.315-1.622-1.693-4.052-1.628-5.613.15-.69.786-.812 1.134-.812 2.323 0 1.037.147 1.587.567 2.12 1.254 1.595 3.122 2.127 4.665 1.329zm20.22-.166c1.301-.731 1.85-1.725 1.85-3.353 0-1.111-.134-1.48-.812-2.254-1.63-1.855-4.11-1.841-5.755.033-.78.888-.833 1.067-.73 2.48.118 1.633.518 2.292 1.915 3.156 1.036.64 2.324.617 3.532-.062zm-10.073-5.647c1.25-.593 1.947-1.836 1.947-3.472 0-1.121-.131-1.488-.812-2.263-1.616-1.84-4.11-1.84-5.726 0-.687.782-.812 1.137-.812 2.301 0 2.963 2.735 4.7 5.403 3.434z" fill="#fff"/>
</svg>
