<svg xmlns="http://www.w3.org/2000/svg" width="150" height="150">
    <rect width="130" height="130" rx="45" ry="45" x="10" y="912.362" style="marker:none" color="#000" fill="#00a8a8" overflow="visible" transform="translate(0 -902.362)"/>
    <path d="M67.503 124.656c-10.33-1.395-20.163-6.223-27.45-13.48-4.276-4.258-6.88-7.885-9.538-13.28-2.576-5.229-3.97-9.986-4.669-15.929-.37-3.153-.161-10.382.389-13.426 3.428-18.96 17.417-34.009 35.952-38.675 7.376-1.858 16.03-1.858 23.406 0 4.292 1.08 10.68 3.635 11.454 4.58.236.288.296 1.692.245 5.744l-.066 5.362-1.487.512c-2.1.723-3.506 1.607-4.864 3.059-5.7 6.094-2.191 16.009 6.188 17.485 5.28.93 10.714-2.888 11.844-8.322.147-.71.349-1.29.448-1.29.099 0 .56.393 1.026.874 1.932 1.993 4.504 3.056 7.392 3.056 1.999 0 1.896-.132 2.896 3.747 2.4 9.31 1.9 19.848-1.358 28.618-6.32 17.01-21.36 29.037-39.231 31.37-3.48.454-9.197.452-12.577-.005zm13.88-10.417c7.581-1.549 13.75-4.903 19.421-10.562 6.85-6.833 10.588-15.104 11.182-24.735.167-2.723.164-2.745-.468-3.378-.767-.766-1.927-.841-2.6-.168-.347.346-.508.97-.62 2.395-.706 9.029-3.452 15.93-8.642 21.718-6.277 7-13.76 10.707-23.426 11.609-2.904.27-3.572.406-3.848.784-.506.693-.406 1.85.219 2.526.539.583.621.594 3.377.467 1.554-.071 3.986-.367 5.404-.656zm14.409-17.756c4.335-4.533 7.11-10.835 7.666-17.412.297-3.516-.08-4.389-1.9-4.389-1.237 0-1.653.82-1.827 3.608-.355 5.657-2.479 10.706-6.522 15.501-.902 1.07-1.51 2.02-1.51 2.362 0 .943.9 1.865 1.821 1.865.665 0 1.056-.264 2.272-1.535zm-18.394-2.507c6.278-1.32 11.087-5.609 13.235-11.802.62-1.788.68-2.274.676-5.404-.004-3.04-.079-3.66-.643-5.35a18.177 18.177 0 0 0-4.48-7.178c-2.056-2.02-4.173-3.32-6.892-4.233-1.76-.59-2.324-.66-5.404-.66s-3.644.07-5.404.66c-6.934 2.326-11.701 8.503-12.096 15.671-.294 5.341 1.49 9.96 5.282 13.67 4.171 4.08 10.07 5.816 15.726 4.626zm-4.779-14.482c-2.182-.982-2.328-4.048-.252-5.313 1.445-.88 3.203-.425 4.112 1.066.57.935.604 1.616.134 2.74-.623 1.49-2.476 2.19-3.994 1.507zm-33.964-1.335c.497-.402.58-.756.737-3.132.535-8.085 3.575-15.57 8.52-20.979 1.742-1.905 2.11-2.54 1.89-3.264-.294-.965-.87-1.403-1.845-1.403-.834 0-1.086.175-2.56 1.781-5.539 6.03-9.076 14.307-9.682 22.653-.21 2.887-.06 3.914.644 4.449.623.472 1.64.426 2.296-.105zm8.471-.395c.453-.452.604-.867.605-1.658.002-1.815.696-5.765 1.36-7.742 3.189-9.5 11.092-16.142 20.992-17.644 1.283-.194 2.808-.354 3.388-.355 1.994-.003 2.933-1.808 1.623-3.119-.626-.626-.686-.635-3.132-.493-12.247.712-22.684 8.813-26.529 20.591-.767 2.352-1.388 5.987-1.388 8.13 0 1.464.08 1.767.603 2.29.331.332.889.603 1.239.603.35 0 .908-.271 1.24-.603zm50.1-15.09c-3.297-.85-5.606-4.025-5.184-7.128.245-1.802 1.272-3.627 2.57-4.57 1.471-1.068 2.786-1.423 4.867-1.314l1.677.088.123-9.187.123-9.187 10.931-3.151c6.012-1.733 11.152-3.181 11.422-3.218.486-.066.493.093.559 13.32.075 14.954.11 14.596-1.637 16.535-2.317 2.57-6.323 2.872-9.084.685-2.275-1.801-2.993-5.241-1.662-7.962 1.41-2.881 3.646-3.9 7.771-3.539l.614.054.067-4.895c.037-2.693-.032-4.995-.154-5.116-.202-.203-13.635 3.46-14.528 3.962-.315.176-.387 1.652-.492 10.128-.118 9.587-.14 9.956-.654 10.905-.687 1.268-2.179 2.702-3.296 3.167-1.114.464-3.076.67-4.033.424z" fill="#fff"/>
</svg>
