<svg xmlns="http://www.w3.org/2000/svg" width="150" height="150">
    <defs>
        <clipPath id="a">
            <path style="marker:none" color="#000" fill="#fff" stroke-width="2" overflow="visible" d="M44.072 27.448h62.242v60.309H44.072z"/>
        </clipPath>
        <clipPath id="b">
            <path style="marker:none" color="#000" fill="#fff" stroke-width="2" overflow="visible" d="M13.461 61.315h214.585v173.41H13.461z"/>
        </clipPath>
        <clipPath id="c">
            <path style="marker:none" color="#000" fill="#fff" stroke-width="2" overflow="visible" d="M-15.045-26.577h197.957v205.875H-15.045z"/>
        </clipPath>
    </defs>
    <rect width="130" height="130" rx="45" ry="45" x="10" y="912.362" style="marker:none" color="#000" fill="#0A7B7B" overflow="visible" transform="translate(0 -902.362)"/>
    <path d="M93.197 120.15c-.662-1.308-1.205-2.616-1.205-2.907 0-.291-.77-2.264-1.712-4.385-2.244-5.051-8.206-20.036-8.206-20.624 0-.252.797-.97 1.77-1.594 2.392-1.533 4.486-3.827 6.087-6.67 1.197-2.124 1.332-2.813 1.342-6.848.01-3.884-.156-4.836-1.23-7.085-1.636-3.423-4.392-6.167-8.01-7.975-2.619-1.309-3.399-1.471-7.056-1.471-3.776 0-4.39.138-7.506 1.698-2.486 1.243-3.901 2.339-5.288 4.093-3.236 4.094-3.467 4.776-3.479 10.267-.01 4.776.05 5.072 1.634 7.993 1.235 2.278 2.353 3.553 4.487 5.12 1.564 1.147 2.901 2.242 2.972 2.432.152.406-9.174 23.977-11.37 28.735-.652 1.414-1.718 1.34-4.86-.336-12.388-6.611-21.474-18.073-24.984-31.518-4.858-18.61 1.647-37.979 17.007-50.638 9.128-7.523 20.315-11.18 32.994-10.787 13.397.415 24.001 4.88 33.36 14.048 7.806 7.647 11.963 15.368 14.21 26.396.849 4.168.974 5.968.745 10.68-.936 19.25-11.953 35.172-30.167 43.6-.182.084-.872-.917-1.535-2.224z" fill="#fff"/>
</svg>
