<svg xmlns="http://www.w3.org/2000/svg" width="150" height="150">
    <defs>
        <clipPath id="a">
            <path style="marker:none" color="#000" fill="#fff" stroke-width="2.5" overflow="visible" d="M31.092 32.305h84.328v75.076H31.092z"/>
        </clipPath>
        <clipPath id="b">
            <rect style="marker:none" width="78.716" height="47.927" x="35.945" y="51.264" ry="0" color="#000" fill="#fff" stroke-width="2" overflow="visible"/>
        </clipPath>
    </defs>
    <rect width="130" height="130" rx="45" ry="45" x="10" y="912.362" style="marker:none" color="#000" fill="#133348" overflow="visible" transform="translate(0 -902.362)"/>
    <path d="M25 75V24.91h100v100.18H25V75zm54.725 48.523c2.716-.293 4.985-.698 7.38-1.32a48.605 48.605 0 0 0 33.878-31.586c1.157-3.454 1.873-6.78 2.312-10.757.156-1.403.213-6.542.091-8.15-.79-10.445-4.684-19.987-11.42-27.988-1.225-1.455-4.34-4.561-5.773-5.754-5.369-4.474-11.524-7.73-18.135-9.593-7.273-2.049-15.295-2.351-22.689-.854a47.685 47.685 0 0 0-11.971 4.093c-4.934 2.44-8.852 5.248-12.742 9.134-2.632 2.63-4.382 4.762-6.318 7.7-4.401 6.674-6.963 13.967-7.826 22.277-.157 1.514-.157 7.412 0 8.865.377 3.48.906 6.26 1.735 9.117 4.088 14.09 14.424 25.667 27.94 31.295 5.02 2.091 9.83 3.209 15.843 3.681 1.082.086 6.455-.027 7.695-.16zm-7.02-26.934c-1.623-.154-2.477-.261-3.545-.447-10.487-1.829-20.604-8.374-29.896-19.342-1.622-1.915-1.533-1.612-.751-2.542 2.051-2.443 4.837-5.369 7.01-7.363 8.615-7.904 17.25-12.172 26.507-13.101 1.561-.157 4.857-.135 6.508.044 11.368 1.23 22.1 7.804 32.197 19.722.629.742 1.164 1.401 1.189 1.464.05.126-1.152 1.645-2.663 3.366-9.631 10.97-20.085 17.073-31.047 18.123-1.235.119-4.571.164-5.51.076zm-4.14-5.2c0-.02-.355-.227-.788-.46-3.097-1.672-5.892-4.217-7.48-6.814-1.04-1.704-1.716-3.523-2.147-5.785-.217-1.14-.26-4.428-.076-5.75.523-3.757 2.038-6.817 4.682-9.464 1.523-1.524 3.038-2.635 5.178-3.8.57-.309 1.01-.562.98-.562-.168-.001-2.745.773-3.885 1.168-5.282 1.828-10.458 4.887-15.322 9.056-1.397 1.198-4.628 4.325-5.738 5.553l-.633.702 1.61 1.624c7.615 7.677 14.415 11.984 22.628 14.332.782.224.99.266.99.2zm17.151-1.363c4.396-1.586 8.807-4.101 12.889-7.35 2.184-1.737 4.829-4.144 6.694-6.092l1.155-1.206-.463-.594c-2.52-3.237-6.542-6.836-10.855-9.715-5.014-3.348-9.702-5.42-13.16-5.815l-.495-.056.974.545c6.179 3.456 9.245 8.187 9.566 14.762.308 6.293-2.633 11.772-8.481 15.799-.49.337-.925.644-.97.682-.12.106 1.914-.515 3.146-.96zm-8.223-4.973c2.992-.808 5.213-2.599 6.552-5.283 1.158-2.321 1.435-4.767.813-7.192-.658-2.57-2.498-4.978-4.772-6.248-1.456-.813-3.619-1.22-5.42-1.02-.555.062-1.026.129-1.046.149-.02.02.167.433.416.918.845 1.65 1.091 2.911.794 4.068-.32 1.244-1.426 2.49-2.83 3.185-.75.372-.786.38-1.674.377-.727-.003-1.009-.044-1.42-.208-.73-.29-1.715-.96-2.515-1.71l-.687-.644-.194.719c-.79 2.93-.68 5.332.348 7.526.484 1.032 1.004 1.767 1.844 2.608 1.423 1.424 3.193 2.376 5.273 2.836 1.07.237 3.502.193 4.518-.081zm2.46-4.315c-1.267-1.73-1.393-2.032-1.09-2.617.18-.35.983-1.077 1.265-1.148.46-.116 1.41.47 1.87 1.153.284.42.308.68.1 1.086-.143.283-1.532 2.067-1.643 2.111-.03.013-.257-.25-.502-.585z" clip-path="url(#b)" transform="translate(-20.665 -20.568) scale(1.27039)" fill="#fff"/>
</svg>
