<svg xmlns="http://www.w3.org/2000/svg" width="150" height="150">
    <rect width="130" height="130" rx="45" ry="45" x="10" y="912.362" style="marker:none" color="#000" fill="#133348" overflow="visible" transform="translate(0 -902.362)"/>
    <path d="M70.796 124.66c.118-.191-.772-.748-1.977-1.237-1.206-.489-3.182-1.624-4.391-2.523-1.21-.899-3.517-2.262-5.129-3.029-1.611-.767-3.72-1.998-4.687-2.736-.967-.738-2.536-1.739-3.487-2.224-3.885-1.98-7.208-6.182-8.378-10.59-1.565-5.905-2.71-9.282-3.562-10.517-4.273-6.194-3.439-13.881 2.137-19.688l2.359-2.456.408-3.254c.238-1.895.812-4.109 1.376-5.301 1.01-2.134 3.39-4.793 5.299-5.921.612-.362 1.113-.803 1.113-.98 0-.43-3.1-3.37-4.155-3.94-.957-.519-3.49-3.733-4.154-5.273a11.662 11.662 0 0 0-1.148-1.97c-.384-.513-.699-1.414-.699-2.003 0-.59-.263-1.29-.586-1.558-.322-.267-.586-1.004-.586-1.636 0-.632-.172-1.473-.383-1.867-.23-.43-.27-1.865-.098-3.579.275-2.747.333-2.875 1.458-3.205a19.92 19.92 0 0 0 2.442-.95c1.157-.551 2.61-.905 6.275-1.526.712-.12 1.501-.55 1.754-.955.48-.767 2.615-1.049 2.615-.344 0 .214.264.39.586.39.322 0 .586-.176.586-.39 0-.638 3.01-.471 3.26.18.124.322.697.563 1.312.55 1.613-.032 5.07 1.069 6.234 1.985.56.44 1.35.8 1.757.8 1.122 0 3.978 3.095 5.158 5.59.579 1.223 1.205 2.223 1.393 2.223.188 0 .896-.982 1.573-2.18 1.516-2.686 4.179-5.633 5.09-5.633.374 0 1.138-.36 1.697-.8 1.165-.916 4.621-2.017 6.235-1.985.614.013 1.188-.228 1.311-.55.25-.651 3.26-.818 3.26-.18 0 .214.264.39.587.39.322 0 .586-.176.586-.39 0-.647 2.415-.442 2.92.247.256.35 1.242.78 2.19.955 3.55.653 5.131 1.062 6.34 1.642a39.69 39.69 0 0 0 2.272.994c.942.365 1.04.618 1.196 3.056.118 1.857-.05 3.425-.559 5.206a211.38 211.38 0 0 0-1.064 3.846c-.184.714-.597 1.593-.917 1.953-.32.36-.855 1.317-1.189 2.125-.334.81-.885 1.578-1.225 1.708-.34.13-.883.75-1.207 1.376-.324.627-1.195 1.428-1.935 1.781s-1.435.924-1.544 1.268c-.11.345-.727.938-1.372 1.32-1.526.9-1.48 1.565.178 2.59.743.459 2.15 1.724 3.128 2.811 1.906 2.12 3.041 5.117 3.525 9.309.23 1.988.425 2.32 2.618 4.457 5.75 5.603 6.517 12.802 2.061 19.37-1.841 2.715-2.392 4.052-3.944 9.571-.543 1.934-1.442 4.353-1.998 5.375-1.213 2.235-4.417 5.354-6.692 6.515-.91.463-2.447 1.45-3.418 2.19-.971.742-3.115 1.988-4.764 2.77-1.65.782-3.886 2.095-4.97 2.917-1.085.822-2.975 1.939-4.2 2.48-1.225.542-2.227 1.163-2.227 1.38 0 .242-1.538.396-3.93.396-2.19 0-3.834-.153-3.714-.346zm8.491-3.317c2.688-1.106 5.838-3.358 6.545-4.68.876-1.637.27-2.811-2.021-3.916-3.008-1.45-6.47-1.934-10.356-1.447-4.29.538-7.271 1.443-8.691 2.637-2.058 1.732-1.31 3.644 2.342 5.988 3.923 2.517 8.276 3.024 12.181 1.418zm-19.185-9.63c1.96-1.048 2.447-4.514 1.197-8.528-2.083-6.693-9.78-12.2-14.221-10.176-2.462 1.121-3.11 5.775-1.438 10.318 1.093 2.97 5.133 7.165 7.81 8.11 2.022.714 5.56.861 6.652.277zm37.088-.71c2.303-1.185 5.534-4.372 6.606-6.519 2.462-4.93 1.461-13.032-1.762-14.258-2.26-.859-6.179 1.248-9.725 5.229-5.186 5.822-6.769 13.682-3.205 15.918 1.713 1.075 5.621.896 8.086-.37zm-16.53-4.2c6.683-3.2 8.139-11.782 2.867-16.899-2.182-2.117-5.103-3.179-8.75-3.179-6.408 0-11.259 4.545-11.259 10.547 0 8.042 9.371 13.252 17.141 9.532zm-35.841-15.64c1.791-2.276 3.418-10.232 2.962-14.487-.323-3.014-1.466-4.675-2.903-4.218-.495.157-1.597.915-2.449 1.685-4.447 4.018-5.107 11.433-1.464 16.46 1.384 1.912 2.647 2.095 3.854.56zm62.731-.704c2.531-3.318 3.25-8.422 1.75-12.43-.857-2.29-3.27-5.007-5.132-5.779-1.08-.447-1.264-.401-2.222.559-1.028 1.028-1.045 1.13-1.014 6.016.028 4.31.174 5.403 1.1 8.218 1.636 4.978 3.464 6.11 5.518 3.416zm-42.587-2.11c6.142-2.91 9.5-11.09 7.026-17.108-.8-1.943-3.21-4.333-5.1-5.055-2.327-.888-5.627-.578-8.311.783-7.67 3.887-10.195 14.354-4.767 19.77 2.988 2.983 7.025 3.565 11.152 1.61zm29.141-.472c3.124-1.593 4.734-4.645 4.769-9.036.02-2.7-.123-3.297-1.422-5.927-2.5-5.057-6.327-7.683-11.17-7.664-7.469.03-11.685 8.389-8.015 15.89 3.13 6.399 10.422 9.5 15.838 6.737zM51.406 67.242c5.077-3.467 11.409-9.707 11.409-11.246 0-1.443-4.883-1.619-8.67-.313-2.083.718-4.937 3.065-6.187 5.087-1.743 2.821-2.484 7.644-1.277 8.319.857.48 1.93.06 4.725-1.847zm51.137 1.642c.39-1.017-.49-5.353-1.495-7.367-1.793-3.59-5.765-5.95-10.628-6.318-2.963-.224-4.558.207-4.558 1.232 0 1.532 6.93 8.232 12.004 11.606 2.412 1.604 4.259 1.938 4.677.847zM81.87 64.483c5.426-2.395 4.854-7.124-1.247-10.298-2.126-1.106-2.729-1.236-5.698-1.235-4.083.003-6.649 1.014-8.975 3.538-1.266 1.373-1.569 1.99-1.559 3.178.02 2.195 1.875 4.083 5.162 5.252 2.99 1.064 9.436.836 12.317-.435zM63.374 51.795c2.266-1.109 3.886-2.818 4.32-4.557.216-.866-.052-1.288-1.868-2.948-1.165-1.065-3.373-2.794-4.906-3.841-1.534-1.048-2.705-1.988-2.603-2.09.261-.261 6.232 3.255 8.73 5.14 2.026 1.53 2.11 1.555 3.124.945 1.83-1.1 2.577-2.467 2.572-4.701-.008-3.403-3.226-9.197-4.826-8.689-.43.136-1.05-.217-1.74-.99-.851-.957-1.183-1.11-1.618-.748-.429.355-.779.272-1.607-.379-.92-.723-1.132-.759-1.619-.272-.486.486-.735.457-1.89-.224-1.085-.64-1.437-.695-1.92-.294-.454.377-.817.387-1.574.042-1.37-.624-2.509-.559-2.509.143 0 .47-.318.54-1.563.34-1.106-.176-1.562-.11-1.562.228 0 .347-.524.405-1.923.213-1.776-.245-1.973-.188-2.584.744-.491.75-.994 1.01-1.96 1.01-1.582 0-1.888.41-1.288 1.726.383.842.342 1.132-.255 1.791-.691.764-.687.814.12 1.673.546.581.755 1.176.61 1.734-.14.529.088 1.285.6 2.005.453.635.73 1.4.615 1.698-.114.298.217.942.736 1.43.584.548.871 1.168.753 1.622-.138.526.18.962 1.117 1.53.721.438 1.404 1.194 1.518 1.68.13.557.804 1.156 1.823 1.62.89.405 1.703 1.064 1.807 1.465.134.51.548.728 1.386.728.818 0 1.334.262 1.639.83.406.76.689.815 3.303.647 2.046-.131 3.48-.487 5.042-1.251zm30.968.556c.146-.559.533-.782 1.357-.782 1.416 0 2.663-.628 2.663-1.342 0-.294.514-.714 1.143-.933.628-.219 1.434-.843 1.79-1.386.355-.543 1.266-1.353 2.024-1.8 1.04-.613 1.327-1.005 1.172-1.597-.132-.505.13-1.118.735-1.724.55-.55.844-1.19.71-1.542-.134-.348.213-1.13.822-1.854.967-1.149 1-1.293.397-1.734-.608-.445-.591-.571.225-1.675.854-1.155.86-1.22.177-1.973-.663-.733-.666-.838-.051-1.777.83-1.265.522-1.756-1.1-1.756-.807 0-1.558-.304-2.026-.822-.6-.663-1.063-.785-2.41-.633-.917.104-1.77.022-1.896-.182-.126-.203-.835-.317-1.576-.253-.844.072-1.474-.09-1.687-.436-.285-.46-.609-.47-1.963-.065-1.24.372-1.75.379-2.172.029-.43-.357-.843-.285-1.88.327-1.219.718-1.382.732-1.954.16-.573-.572-.72-.555-1.754.21-.624.461-1.462.749-1.87.642-.462-.121-1.078.165-1.638.761-.53.564-1.183.88-1.595.773-1.64-.429-5.108 5.494-5.108 8.722 0 1.913 1.056 3.968 2.395 4.66 1.088.562 1.2.52 4.296-1.6 2.922-2 6.602-4.09 7.205-4.09.137 0-1.132.983-2.82 2.184-4.599 3.275-6.478 5.215-6.184 6.386.804 3.209 5.435 5.747 10.672 5.85 1.384.027 1.735-.111 1.901-.748z" fill="#fff"/>
</svg>
