<svg xmlns="http://www.w3.org/2000/svg" width="150" height="150">
    <defs>
        <clipPath id="a">
            <path style="marker:none" color="#000" fill="#fff" stroke-width="2" overflow="visible" d="M44.072 27.448h62.242v60.309H44.072z"/>
        </clipPath>
    </defs>
    <rect width="130" height="130" rx="45" ry="45" x="10" y="912.362" style="marker:none" color="#000" fill="#00a8a8" overflow="visible" transform="translate(0 -902.362)"/>
    <path d="M25 113.004v-2.222h100v4.445H25v-2.223zm31.658.208c.08.13.447.237.815.237.567 0 .658-.077.598-.5-.069-.486-.146-.5-2.627-.5-2.48 0-2.557.014-2.626.5-.06.419.032.5.567.5.35 0 .761-.124.913-.276.201-.201.319-.208.433-.026.251.4 1.014.473 1.414.137.248-.209.414-.232.513-.072zm4.175-.157c.254-.223.39-.25.39-.08 0 .404 1.08.722 1.916.565.412-.077.75-.274.75-.436 0-.514.469-.61.596-.122.158.604.43.596.59-.016.179-.685.047-.796-.958-.81-.663-.01-.973.107-1.219.458-.296.423-.37.438-.725.14-.217-.182-.688-.456-1.046-.609-.544-.233-.68-.225-.833.048-.107.191-.365.278-.627.21-.464-.122-.578.219-.307.923.157.41.842.283 1.473-.271zm5.399.379c.08-.13.285-.185.454-.12.262.101.758-.456.758-.85 0-.07-.403-.126-.895-.126-.592 0-.94.113-1.024.333-.263.684.348 1.343.707.763zm3.435-.677c0-.623-.481-.9-.765-.44-.069.11-.325.149-.569.085-.485-.127-.572.171-.234.803.153.284.398.365.89.293.576-.085.678-.196.678-.741zm2.666.65c0-.085-.105-.219-.233-.298-.161-.1-.162-.23-.002-.423.18-.215.003-.281-.781-.293-1.027-.016-1.384.27-1.139.911.12.309 2.155.406 2.155.102zm3.26-.409c0-.714-.426-.8-.56-.113-.058.303.235.726.541.783.01.002.019-.3.019-.67zm3.14.29c.921-.099 1.161-.203 1.107-.482-.055-.29-.381-.357-1.729-.357-1.449 0-1.67.053-1.74.418-.095.487.371.855.851.672.184-.07.863-.183 1.51-.252zm5.6.047c0-.185.123-.533.273-.773.203-.325.208-.5.019-.688-.33-.33-.754-.064-.588.368.07.184-.034.514-.233.733-.374.414-.28.696.233.696.163 0 .296-.151.296-.336zm1.696-.164a4.354 4.354 0 0 1-.137-.889c-.002-.214-.103-.389-.225-.389-.123 0-.223.4-.223.89 0 .67.089.888.36.888.264 0 .323-.132.225-.5zm1.32-.324c-.1-1.127-.51-1.186-.51-.073 0 .593.098.897.292.897.202 0 .27-.254.218-.824zm3.613.2c.059-.416.132-.463.388-.25.174.144.317.4.317.568 0 .377.484.4.844.04.729-.729-.206-2.134-.988-1.485-.26.217-.431.22-.754.02-.537-.336-1.102-.119-1.102.422 0 .23-.1.42-.223.42-.122 0-.222-.2-.222-.444 0-.245-.1-.445-.222-.445a1.16 1.16 0 0 1-.358-.055c-.074-.03-.155.351-.179.848l-.044.904 1.235-.015c1.115-.014 1.242-.065 1.308-.528zm2.845.124a4.354 4.354 0 0 1-.137-.889c-.002-.214-.09-.389-.195-.389-.106 0-.192.4-.192.89 0 .636.093.888.329.888.232 0 .29-.146.195-.5zm3.371-.297c.075-.77-.371-1.285-.928-1.072-.23.089-.361.399-.361.856 0 .852.16 1.054.769.967.326-.047.472-.258.52-.75zm-23.232.034c-.17-.887-1.168-1.015-1.168-.15 0 .52.193.69.784.69.397 0 .468-.1.384-.54zm21.567-1.07c-.052-.092-.229-.167-.393-.167-.194 0-.298.28-.298.801v.801l.393-.634c.215-.349.35-.71.298-.801zm-23.26-25.296c-8.768-.942-16.524-6.31-20.456-14.157-1.082-2.16-2.173-5.452-2.262-6.825-.04-.611-.178-1.54-.307-2.064-.155-.63-.16-1.092-.016-1.361.12-.224.16-.795.089-1.27-.471-3.14.508-7.709 2.505-11.688.412-.822.75-1.596.75-1.719s-.497-.475-1.104-.783c-.606-.307-1.206-.752-1.333-.989-.39-.729-.264-1.692.302-2.302.293-.316 3.247-2.38 6.565-4.588 5.35-3.56 6.134-4.014 6.937-4.014.751 0 1.028.133 1.616.776l.71.775 2.21-.593c2.001-.537 2.592-.594 6.319-.608 3.85-.015 4.27.025 6.635.635 2.391.617 2.536.63 2.748.252.707-1.263 1.955-1.588 3.35-.872.391.201 3.247 2.066 6.346 4.144 3.648 2.447 5.784 4.022 6.06 4.468.753 1.219.083 2.443-1.71 3.129-.542.206-.985.454-.985.55 0 .095.444 1.112.987 2.259 1.838 3.886 2.921 9 2.392 11.292-.157.682-.177 1.335-.053 1.767.21.733-.292 3.669-1.003 5.864-2.147 6.63-7.069 12.334-13.323 15.443-3.97 1.973-9.516 2.958-13.968 2.48zm8.107-4.064c2.49-.634 4.893-1.694 6.89-3.04 1.83-1.234 4.642-3.95 5.888-5.689 1.27-1.77 2.826-5.079 3.382-7.189.242-.917.505-1.83.585-2.03.276-.691.26-4.312-.03-6.45-.342-2.518-1.167-5.27-2.194-7.31-1.138-2.264-.91-2.232-4.846-.675-1.883.744-3.621 1.354-3.863 1.354-.914 0-1.84-.506-2.306-1.26-.465-.751-.474-.91-.32-5.27.131-3.68.105-4.54-.144-4.747-.57-.473-4.222-1.389-6.301-1.58-3.373-.31-7.28.176-9.928 1.236l-.878.351.151 3.024c.263 5.269.241 6.067-.19 6.874-.477.89-1.701 1.472-2.685 1.275-.375-.074-2.109-.693-3.853-1.375-1.743-.682-3.314-1.184-3.489-1.117-.471.18-1.576 2.224-2.34 4.327-2.156 5.944-1.665 12.645 1.334 18.205 3.377 6.261 9.645 10.614 16.721 11.613 2.263.32 6.015.085 8.416-.527zm-7.138-2.829C70.56 79.13 68 77.101 66.8 74.56c-.507-1.074-.577-1.505-.577-3.556 0-2.153.054-2.445.691-3.777.747-1.562 1.648-2.667 2.173-2.667.18 0 .387-.185.46-.412.235-.742 2.194-1.467 4.882-1.808 1.38-.175 1.815-.158 2.164.087.24.168.618.259.84.2 1.152-.3 4.494 2.564 5.503 4.718.556 1.188.62 1.57.62 3.66 0 2.066-.068 2.478-.595 3.603-1.203 2.568-3.766 4.533-6.601 5.062-1.364.254-1.741.252-3.137-.02zm-.76-6.175c1.362-.83 1.771-2.794.87-4.17-1.435-2.19-4.781-1.647-5.463.886-.318 1.182.209 2.607 1.2 3.242.912.584 2.473.603 3.393.042zm8.124.07c.876-.453 1.621-2.068 1.429-3.095-.264-1.406-1.62-2.556-3.015-2.556-1.385 0-2.75 1.149-3.01 2.533-.19 1.008.47 2.526 1.321 3.046.843.513 2.357.547 3.275.072zm-16.83-12.312c-.257-.104-.68-.522-.94-.93-.26-.408-.589-.9-.731-1.095-.422-.574-.03-1.969.782-2.78 1.374-1.375 3.4-1.126 4.519.555.621.932.64 1.787.058 2.527-.244.311-.444.66-.444.774 0 .424-.82.932-1.456.901-.36-.017-.805.029-.988.103-.184.074-.544.05-.8-.055zm19.966-.219c-.397-.245-.722-.558-.722-.693 0-.136-.208-.539-.462-.895-1.268-1.781 1.229-4.527 3.421-3.763 1.503.524 2.414 2.047 2.062 3.448-.231.923-1.413 2.099-2.09 2.08-.33-.009-.798.048-1.042.127-.272.087-.725-.03-1.167-.304z" clip-path="url(#a)" transform="matrix(1.60663 0 0 1.60663 -45.807 -23.43)" fill="#fff"/>
</svg>
