<svg xmlns="http://www.w3.org/2000/svg" width="150" height="150">
    <defs>
        <clipPath id="a">
            <path style="marker:none" color="#000" fill="#fff" stroke-width="2.5" overflow="visible" d="M31.092 32.305h84.328v75.076H31.092z"/>
        </clipPath>
        <clipPath id="b">
            <rect style="marker:none" width="78.716" height="47.927" x="35.945" y="51.264" ry="0" color="#000" fill="#fff" stroke-width="2" overflow="visible"/>
        </clipPath>
        <clipPath id="c">
            <path style="marker:none" color="#000" fill="#fff" stroke-width="2" overflow="visible" d="M38.675 37.007h74.924v69.919H38.675z"/>
        </clipPath>
    </defs>
    <rect width="130" height="130" rx="45" ry="45" x="10" y="912.362" style="marker:none" color="#000" fill="#0A7B7B" overflow="visible" transform="translate(0 -902.362)"/>
    <path d="M27.128 122.872v-2.127h95.744V125H27.128v-2.128zm17.43-20.761l-.515-.55-.056-24.664c-.063-27.528-.146-25.929 1.368-26.35.88-.244 3.653-.31 4.202-.099.295.113.337.81.337 5.616 0 6.202.145 5.745-1.827 5.745h-1.154l.054 18.989.054 18.99h48.724l.106-1.49.106-1.49h2.554l.06 2.397c.058 2.307.04 2.416-.47 2.925l-.528.53H45.074l-.516-.55zm7.29-7.387l-.459-.49-.01-25.074-.011-25.074.47-.5.47-.5h52.618l.462.492.463.492v50.26l-.56.442c-.56.44-.577.44-26.772.44h-26.21l-.46-.488zm51.185-21.373l.054-18.99H54.148v18.901c0 10.396.065 18.965.144 19.044.078.078 11.065.118 24.415.089l24.272-.055.054-18.989zM60.663 90.04c-.278-.207-.347-.835-.394-3.55l-.056-3.298-.745-.106c-.662-.094-.745-.177-.745-.745 0-.627.023-.64 1.383-.795.761-.086 1.505-.112 1.654-.058.209.076.257 1.05.213 4.282-.056 4.061-.071 4.187-.516 4.352-.28.103-.589.071-.795-.082zm5.915.074c-.859-.348-1.539-1.427-1.697-2.694-.204-1.632.023-4.049.44-4.684.831-1.27 2.558-1.694 3.921-.963 1.183.634 1.503 1.494 1.503 4.044 0 2.524-.311 3.459-1.366 4.102-.681.415-2.025.509-2.8.195zm2.262-2.055c.293-.771.244-3.921-.071-4.547-.34-.675-1.387-.849-1.79-.297-.375.512-.383 4.762-.01 5.231.589.744 1.514.553 1.871-.387zm5.894 2.114c-.333-.087-.372-.426-.372-3.255 0-1.737-.058-3.31-.13-3.495-.074-.195-.377-.337-.718-.337-.754 0-1.236-.535-.926-1.028.145-.232.659-.406 1.477-.501 2.13-.25 1.999-.524 1.999 4.196 0 3.862-.027 4.14-.412 4.347-.226.121-.441.209-.478.195a9.975 9.975 0 0 0-.44-.122zm5.904-.056c-.582-.24-1.308-1.057-1.581-1.779-.329-.867-.286-4.278.065-5.1.16-.376.55-.923.868-1.216.477-.44.789-.532 1.819-.532 1.03 0 1.34.091 1.818.532.9.83 1.16 1.696 1.16 3.862 0 2.378-.458 3.563-1.584 4.097-.765.363-1.873.422-2.565.136zm1.81-1.457c.407-.33.488-.65.58-2.287.14-2.45-.22-3.5-1.201-3.5-.79 0-1.047.426-1.105 1.828-.102 2.473.013 3.482.448 3.917.523.523.678.528 1.278.042zm6.193 1.467c-.223-.142-.314-.952-.373-3.348-.044-1.739-.124-3.28-.178-3.427-.054-.146-.329-.266-.61-.266-.688 0-1.147-.556-.85-1.028.291-.462 2.746-.803 3.18-.442.234.194.296 1.088.296 4.255 0 3.745-.027 4.023-.411 4.229-.497.266-.67.27-1.054.027zm5.739-.18c-1.18-.603-1.508-1.495-1.508-4.095 0-1.764.083-2.395.39-2.966.745-1.391 2.662-1.91 4.014-1.086 1.254.765 1.447 1.305 1.447 4.052 0 2.018-.07 2.572-.383 3.051a3.033 3.033 0 0 1-3.96 1.044zm2.11-1.329c.372-.373.425-.71.425-2.725 0-2.62-.188-3.098-1.176-2.985-.955.11-1.189.785-1.118 3.23.054 1.905.105 2.13.562 2.5.63.51.78.507 1.306-.02zM60.83 77.629c-.247-.053-.773-.433-1.171-.842l-.723-.746-.07-2.519c-.057-2.014-.001-2.653.276-3.19.991-1.917 4.196-2.022 5.077-.166.513 1.082.502 5.07-.017 6.11-.524 1.048-2.018 1.648-3.373 1.353zm1.822-1.764c.121-.226.22-1.44.22-2.696 0-1.827-.07-2.362-.352-2.674-.464-.512-.894-.49-1.496.074-.453.426-.492.638-.492 2.66 0 1.913.055 2.251.425 2.622.544.544 1.408.55 1.695.014zM75 77.624c-1.636-.522-2.1-1.433-2.161-4.252-.075-3.417.67-4.542 3.005-4.542.93 0 1.186.1 1.872.728l.795.728.073 2.402c.084 2.762-.152 3.817-.983 4.398-.599.419-2.04.717-2.601.538zm1.64-1.986c.39-.775.356-4.118-.05-4.904-.388-.75-.977-.81-1.582-.162-.377.405-.434.746-.434 2.612 0 1.622.084 2.265.34 2.632.451.644 1.36.55 1.727-.178zm12.194 1.917c-.874-.213-1.64-1.09-1.865-2.13-.088-.409-.16-1.513-.16-2.453 0-2.96.869-4.142 3.045-4.142 1.172 0 1.962.475 2.49 1.497.428.826.439 4.883.017 5.694-.707 1.36-1.978 1.912-3.527 1.534zm1.4-1.441c.522-.349.723-1.18.723-2.986 0-1.6-.07-1.989-.44-2.461-.54-.685-1.127-.718-1.569-.088-.405.579-.466 4.317-.084 5.156.244.535.875.71 1.37.379zM68.298 77.3c-.056-.154-.127-1.764-.158-3.578l-.055-3.297-.532-.033a75.483 75.483 0 0 1-.812-.053c-.176-.013-.255-.237-.213-.606.063-.544.16-.598 1.384-.773.724-.103 1.451-.135 1.616-.072.372.143.589 3.814.392 6.643l-.133 1.915-.693.067c-.43.041-.732-.04-.796-.213zm14.088.12c-.084-.083-.152-1.667-.152-3.52 0-3.354-.033-3.509-.713-3.387-.55.099-.99-.265-.99-.82 0-.584.033-.6 1.517-.746.837-.082 1.602-.064 1.707.041.105.105.165 2.05.133 4.324l-.058 4.134-.646.063c-.355.035-.714-.005-.798-.089zm13.998-.12c-.057-.154-.128-1.712-.158-3.463l-.056-3.184-.782-.185c-.802-.19-1.102-.556-.896-1.094.123-.32 1.93-.644 2.864-.512l.516.073v8.511l-.693.067c-.43.041-.732-.04-.795-.213zm-35.82-12.156c-.14-.17-.257-1.585-.292-3.564l-.06-3.283-.744-.107c-.662-.094-.745-.177-.745-.744 0-.628.023-.641 1.383-.795.761-.087 1.503-.114 1.65-.06.2.073.265 1.138.265 4.336 0 3.67-.045 4.257-.336 4.368-.523.201-.867.155-1.121-.151zm5.751-.151c-1.148-.7-1.594-1.999-1.487-4.334.101-2.216.403-2.994 1.427-3.684 1.357-.913 3.328-.425 4.1 1.016.501.933.555 4.712.083 5.84-.613 1.467-2.67 2.047-4.123 1.162zm2.119-1.251c.457-.37.508-.594.562-2.5.07-2.445-.163-3.12-1.118-3.23-.988-.113-1.176.365-1.176 2.985 0 2.016.053 2.352.426 2.725.527.527.675.53 1.306.02zm6.194 1.542c-.196-.08-.266-.938-.266-3.264 0-1.736-.058-3.308-.13-3.493-.074-.195-.377-.337-.718-.337-.754 0-1.236-.535-.926-1.028.145-.231.659-.405 1.477-.501 2.128-.249 1.999-.519 1.999 4.16 0 2.9-.075 4.167-.255 4.348-.262.262-.71.305-1.181.115zm6.01-.062c-.582-.241-1.308-1.058-1.581-1.78-.329-.867-.286-4.277.065-5.099.16-.376.55-.924.868-1.216.477-.441.789-.532 1.819-.532 1.03 0 1.34.09 1.818.532.91.838 1.16 1.69 1.16 3.94 0 2.264-.214 2.9-1.285 3.8-.689.58-1.944.735-2.864.355zm1.825-1.47c.428-.346.5-.63.579-2.29.117-2.444-.246-3.484-1.215-3.484-.914 0-1.082.479-1.082 3.07 0 1.965.053 2.303.425 2.674.525.526.677.53 1.293.03zm6.154 1.465c-.256-.162-.33-.824-.372-3.348-.029-1.73-.097-3.266-.153-3.413-.055-.146-.393-.266-.752-.266-.725 0-1.052-.483-.702-1.04.272-.432 2.776-.758 3.19-.414.211.174.278 1.201.278 4.239 0 3.746-.027 4.023-.411 4.23-.503.268-.668.27-1.078.012zm5.621-.181c-1.057-.665-1.366-1.594-1.366-4.115 0-1.73.084-2.362.39-2.93.745-1.392 2.662-1.91 4.014-1.086 1.14.695 1.421 1.343 1.515 3.497.101 2.33-.167 3.455-1.017 4.27-.845.81-2.549.985-3.536.364zm2.251-1.314c.373-.373.426-.709.426-2.725 0-2.62-.188-3.098-1.176-2.984-.955.11-1.189.784-1.118 3.229.054 1.906.105 2.13.562 2.5.63.51.78.507 1.306-.02zM91.881 49.02c.554-.252.991-1.002.991-1.698 0-.594-.938-1.47-1.574-1.47-.828 0-1.688.867-1.688 1.702 0 .504.165.848.58 1.204.649.559.941.604 1.691.262zm5.513-.435c.572-.676.482-1.764-.189-2.292-.743-.585-1.47-.557-2.108.081-.554.554-.67 1.358-.296 2.057.48.898 1.893.981 2.593.154zm4.856.05c.677-.677.747-1 .386-1.792-.441-.97-1.728-1.267-2.473-.573-.618.577-.779 1.207-.486 1.912.479 1.157 1.661 1.365 2.573.452z" clip-path="url(#c)" transform="matrix(1.33468 0 0 1.33468 -26.62 -25.109)" fill="#fff"/>
</svg>
