<svg xmlns="http://www.w3.org/2000/svg" width="150" height="150">
    <rect width="130" height="130" rx="45" ry="45" x="10" y="912.362" style="marker:none" color="#000" fill="#00a8a8" overflow="visible" transform="translate(0 -902.362)"/>
    <path d="M65.786 124.437c-5.285-1.06-9.439-3.856-11.278-7.59-.908-1.843-.914-1.952-.914-16.243V86.217l1.068-2.045c1.317-2.519 3.34-4.545 5.718-5.728 1.75-.87 2.239-.905 15.49-1.096l13.682-.197 2.605-1.295c3.319-1.65 5.778-4.067 7.364-7.236 1.058-2.114 1.3-3.142 1.568-6.642.174-2.278.326-6.158.337-8.624l.02-4.482 5.957.175c5.136.152 6.241.302 8.022 1.089 3.981 1.76 6.503 5.787 8.116 12.96 1.827 8.125 1.009 19.812-1.788 25.554-1.487 3.05-4.658 6.051-7.711 7.295-2.229.908-2.385.916-21.678 1.03l-19.434.116v4.696h23.922l-.175 7.39c-.199 8.376-.436 9.308-2.957 11.603-1.85 1.685-6.018 3.169-10.776 3.837-4.111.577-13.898.474-17.158-.18zm23.563-9.058c4.173-2.178 2.315-8.468-2.502-8.468-2.858 0-5.115 3.373-4.023 6.01 1.14 2.753 3.939 3.808 6.525 2.458zm-47.474-14.357c-5.071-.193-6.08-.343-7.509-1.111-3.85-2.074-6.134-5.771-7.79-12.617-1.978-8.171-1.201-19.443 1.772-25.713 1.344-2.835 4.195-5.699 6.99-7.02l2.24-1.06 19.727-.197 19.727-.197.117-2.267.117-2.266h-11.91c-6.551 0-11.97-.133-12.042-.296-.072-.162-.03-3.577.092-7.588.198-6.486.318-7.474 1.08-8.944 2.137-4.115 8.118-6.215 19.03-6.683 6.01-.257 10.81.342 14.797 1.848 2.704 1.02 5.82 3.811 7.197 6.445l1.053 2.013.125 13.554c.121 13.102.097 13.63-.721 15.84-1.08 2.91-2.865 5.01-5.514 6.48l-2.093 1.162-13.792.255-13.792.255-2.871 1.432c-1.956.975-3.488 2.112-4.803 3.564-3.665 4.046-4.343 6.756-4.374 17.47-.013 4.579-.133 5.994-.505 5.938-.269-.041-3.125-.175-6.348-.297zm22.98-58.11c3.73-1.572 3.393-7.465-.486-8.52-1.643-.446-2.944-.279-3.957.508-1.9 1.475-2.517 4.382-1.304 6.13.764 1.1 2.818 2.416 3.776 2.418.383 0 1.27-.24 1.97-.536z" fill="#fff"/>
</svg>
