<?xml version="1.0" encoding="UTF-8" standalone="no"?>
<!-- Created with Inkscape (http://www.inkscape.org/) -->

<svg
   xmlns:dc="http://purl.org/dc/elements/1.1/"
   xmlns:cc="http://creativecommons.org/ns#"
   xmlns:rdf="http://www.w3.org/1999/02/22-rdf-syntax-ns#"
   xmlns:svg="http://www.w3.org/2000/svg"
   xmlns="http://www.w3.org/2000/svg"
   xmlns:sodipodi="http://sodipodi.sourceforge.net/DTD/sodipodi-0.dtd"
   xmlns:inkscape="http://www.inkscape.org/namespaces/inkscape"
   version="1.1"
   width="150"
   height="150"
   id="svg2"
   inkscape:version="0.48.5 r10040"
   sodipodi:docname="kodi.svg">
  <sodipodi:namedview
     pagecolor="#ffffff"
     bordercolor="#666666"
     borderopacity="1"
     objecttolerance="10"
     gridtolerance="10"
     guidetolerance="10"
     inkscape:pageopacity="0"
     inkscape:pageshadow="2"
     inkscape:window-width="958"
     inkscape:window-height="573"
     id="namedview4361"
     showgrid="false"
     inkscape:zoom="2.5866667"
     inkscape:cx="75"
     inkscape:cy="75"
     inkscape:window-x="1920"
     inkscape:window-y="0"
     inkscape:window-maximized="0"
     inkscape:current-layer="layer6"
     showguides="true"
     inkscape:guide-bbox="true">
    <inkscape:grid
       type="xygrid"
       id="grid4328" />
  </sodipodi:namedview>
  <defs
     id="defs4">
    <inkscape:path-effect
       effect="spiro"
       id="path-effect3779" />
    <mask
       maskUnits="userSpaceOnUse"
       id="mask4022">
      <rect
         style="color:#000000;fill:#ffffff;fill-opacity:1;fill-rule:nonzero;stroke:#00a8a8;stroke-width:2.5;stroke-linecap:butt;stroke-linejoin:miter;stroke-miterlimit:4;stroke-opacity:1;stroke-dasharray:none;stroke-dashoffset:0;marker:none;visibility:visible;display:inline;overflow:visible;enable-background:accumulate"
         id="rect4024"
         width="94.703392"
         height="94.703392"
         x="197.66949"
         y="-184.95764"
         rx="5.3157125"
         ry="4.7804155" />
    </mask>
    <clipPath
       clipPathUnits="userSpaceOnUse"
       id="clipPath4302">
      <rect
         style="color:#000000;fill:#ffffff;fill-opacity:1;fill-rule:nonzero;stroke:none;stroke-width:2.5;marker:none;visibility:visible;display:inline;overflow:visible;enable-background:accumulate"
         id="rect4304"
         width="84.327606"
         height="75.075836"
         x="31.092012"
         y="32.305359" />
    </clipPath>
    <clipPath
       clipPathUnits="userSpaceOnUse"
       id="clipPath4777">
      <rect
         style="color:#000000;fill:#ffffff;fill-opacity:1;fill-rule:nonzero;stroke:none;stroke-width:2;marker:none;visibility:visible;display:inline;overflow:visible;enable-background:accumulate"
         id="rect4779"
         width="78.715881"
         height="47.927204"
         x="35.9454"
         y="51.263901"
         ry="0" />
    </clipPath>
  </defs>
  <metadata
     id="metadata7">
    <rdf:RDF>
      <cc:Work
         rdf:about="">
        <dc:format>image/svg+xml</dc:format>
        <dc:type
           rdf:resource="http://purl.org/dc/dcmitype/StillImage" />
        <dc:title></dc:title>
      </cc:Work>
    </rdf:RDF>
  </metadata>
  <g
     inkscape:groupmode="layer"
     id="layer4"
     inkscape:label="Background"
     style="display:inline"
     sodipodi:insensitive="true">
    <g
       transform="translate(0,-902.36218)"
       id="layer1">
      <rect
         width="130"
         height="130"
         rx="45"
         ry="45"
         x="10"
         y="912.36218"
         id="rect2985"
         style="color:#000000;fill:#00a8a8;fill-opacity:1;fill-rule:nonzero;stroke:none;stroke-width:1;marker:none;visibility:visible;display:inline;overflow:visible;enable-background:accumulate" />
    </g>
  </g>
  <g
     inkscape:groupmode="layer"
     id="layer2"
     inkscape:label="hardware"
     sodipodi:insensitive="true"
     style="display:none">
    <path
       style="fill:#ffffff;fill-opacity:1"
       d="m 52.563304,124.20158 -0.805788,-0.80559 0,-3.99232 0,-3.99234 0.805788,-0.80592 c 0.70583,-0.70568 0.925972,-0.80565 1.774505,-0.80565 1.155097,0 1.988717,0.39036 2.525805,1.1828 0.576458,0.85052 0.708729,6.92226 0.180907,8.30426 -0.448422,1.17408 -1.292458,1.71891 -2.665134,1.71996 -0.897313,5.9e-4 -1.100401,-0.09 -1.816083,-0.8052 z m 13.810049,0.41463 c -1.140183,-0.69545 -1.33248,-1.44571 -1.33248,-5.19883 0,-2.44416 0.08063,-3.54108 0.298834,-4.0632 0.401043,-0.95987 1.41686,-1.55268 2.661838,-1.55368 0.836955,-6e-4 1.108052,0.10842 1.764195,0.70931 l 0.775272,0.71003 0.06386,3.91129 c 0.06223,3.80839 0.05116,3.92992 -0.421334,4.63145 -0.266921,0.39585 -0.716002,0.83668 -0.997964,0.97927 -0.75106,0.38004 -2.080277,0.32086 -2.812341,-0.12564 z m 12.964222,-0.41463 -0.805795,-0.80559 0,-3.99232 0,-3.99234 0.805795,-0.80592 c 0.715682,-0.71555 0.918771,-0.80557 1.816084,-0.80491 1.252349,0.001 2.168059,0.52581 2.635436,1.51086 0.534657,1.12655 0.494152,6.96429 -0.05682,8.17757 -0.475563,1.04757 -1.288405,1.51858 -2.620272,1.51858 -0.848532,0 -1.068676,-0.1 -1.774501,-0.80593 z m 13.602492,0.41463 c -1.140179,-0.69545 -1.332481,-1.44571 -1.332481,-5.19883 0,-2.44416 0.08063,-3.54108 0.298842,-4.0632 0.40104,-0.95987 1.416854,-1.55268 2.661833,-1.55368 0.836958,-6e-4 1.108055,0.10842 1.764194,0.70931 l 0.775269,0.71003 0.0639,3.91129 c 0.0623,3.80839 0.0512,3.92992 -0.421337,4.63145 -0.266921,0.39585 -0.716007,0.83668 -0.997963,0.97927 -0.751061,0.38004 -2.080273,0.32086 -2.812343,-0.12564 z M 48.144918,109.2239 c -1.493983,-0.25347 -3.521477,-1.33276 -4.679616,-2.49095 -1.222176,-1.22216 -2.224769,-3.17272 -2.501979,-4.86751 -0.125611,-0.76798 -0.202768,-11.230074 -0.201286,-27.29318 0.0025,-28.39422 -0.02415,-27.712293 1.179101,-29.933585 1.238964,-2.287046 3.681586,-4.036692 6.315166,-4.523531 0.76173,-0.140815 10.30859,-0.194053 28.115681,-0.156791 l 26.962255,0.05651 1.1664,0.471751 c 2.60277,1.052831 4.61537,3.135067 5.50971,5.700296 0.36194,1.038205 0.38077,2.454067 0.38077,28.592998 l 0,27.500732 -0.47178,1.16617 c -0.72091,1.78235 -1.96058,3.36111 -3.38719,4.31374 -2.54925,1.70239 -0.083,1.57195 -30.387222,1.60608 -14.84,0.0157 -27.440009,-0.0466 -28.00001,-0.14249 z M 61.612177,83.629361 c 1.464945,-0.670671 2.609242,-1.744325 3.280524,-3.077975 0.938913,-1.865346 0.894882,-2.012146 -0.774359,-2.58163 -0.792771,-0.270473 -1.539959,-0.490785 -1.660417,-0.489605 -0.120456,0.0012 -0.479965,0.562981 -0.798909,1.248415 -0.780984,1.678397 -1.811223,2.383155 -3.451205,2.360875 -1.304501,-0.0178 -1.89066,-0.259503 -2.865364,-1.181921 -1.017199,-0.962634 -1.395627,-2.332146 -1.388238,-5.023926 0.0061,-2.371307 0.369913,-3.709941 1.287736,-4.743552 0.922385,-1.038752 3.257481,-1.482276 4.678359,-0.888588 0.779,0.325484 1.741636,1.384921 1.926063,2.119744 0.06945,0.276581 0.186139,0.502154 0.259385,0.501264 0.321768,-0.0037 3.377668,-0.786854 3.48324,-0.892423 0.227272,-0.227274 -0.918835,-2.368573 -1.669576,-3.119313 -1.346104,-1.346105 -2.643874,-1.864069 -4.921008,-1.964056 -2.371793,-0.104102 -3.786005,0.235382 -5.296387,1.271574 -2.165245,1.485444 -3.33589,3.832796 -3.537194,7.092685 -0.312142,5.054696 1.953824,8.717417 6.055062,9.787471 1.519331,0.396404 4.038774,0.200618 5.392288,-0.419039 z m 34.609891,0.01919 c 1.335766,-0.616893 2.156836,-1.410881 2.732246,-2.642099 0.4113,-0.88002 0.44036,-1.332743 0.50332,-7.835107 l 0.0674,-6.901117 -1.8829,0 -1.882858,0 0,6.507208 c 0,6.415321 -0.0062,6.51705 -0.469623,7.204086 -0.833189,1.236369 -3.324973,1.553577 -4.861895,0.618918 -1.241678,-0.755121 -1.31016,-1.177608 -1.31016,-8.083129 l 0,-6.247092 -1.98955,0 -1.989538,0 0.0924,6.486014 c 0.05965,4.182188 0.180953,6.780904 0.341579,7.316222 0.595583,1.984963 2.549534,3.653489 4.749059,4.055354 1.767507,0.322936 4.675476,0.08683 5.901085,-0.479266 z m -23.916858,-2.930815 0,-3.401993 3.061394,-0.08727 c 3.368106,-0.09607 4.009815,-0.266896 5.319915,-1.417173 1.021893,-0.897241 1.602807,-2.080892 1.734605,-3.534403 0.226982,-2.503181 -0.750641,-4.505476 -2.665766,-5.459819 -1.095177,-0.545743 -1.10832,-0.546916 -6.141811,-0.546916 l -5.044283,0 0,8.924755 0,8.924755 1.867972,0 1.867974,0 0,-3.401994 z m 0,-8.832756 0,-2.479781 1.089646,-0.06269 c 0.599316,-0.03446 1.764707,-0.01616 2.58977,0.04098 1.288585,0.08919 1.581258,0.184924 2.075524,0.679266 0.474094,0.474154 0.575409,0.756676 0.575409,1.604539 0,1.908627 -1.434623,2.697455 -4.905811,2.697455 l -1.424538,0 0,-2.479787 z M 26.290525,97.41842 c -1.957684,-1.214204 -1.664904,-4.203793 0.502125,-5.127156 0.471454,-0.200878 1.632284,-0.284578 3.94675,-0.284578 3.889989,0 4.435112,0.178841 5.205177,1.707674 0.612172,1.215365 0.460695,2.215541 -0.493291,3.257222 l -0.680268,0.742793 -3.908021,0.05817 c -3.595317,0.05335 -3.961163,0.02519 -4.572472,-0.354037 z m 89.064925,0.198648 c -0.66951,-0.270837 -1.47299,-1.34993 -1.63056,-2.189774 -0.19663,-1.047648 0.55256,-2.527659 1.54048,-3.043184 1.04878,-0.547339 7.01154,-0.557565 8.09361,-0.01378 1.5305,0.768944 2.12342,2.720977 1.25789,4.140647 -0.72017,1.181123 -1.23706,1.308791 -5.23885,1.294128 -1.97478,-0.0068 -3.78495,-0.09172 -4.02257,-0.18793 z M 26.647808,84.378792 c -2.04621,-1.028044 -2.231665,-4.0561 -0.320768,-5.237105 0.610896,-0.377547 1.029008,-0.4183 4.284622,-0.417598 4.211899,8.29e-4 4.682126,0.155826 5.400223,1.779191 0.657325,1.486005 0.146336,3.000916 -1.283246,3.804385 -0.694735,0.390466 -1.10819,0.434635 -4.065959,0.434345 -2.720451,-2.05e-4 -3.4181,-0.0633 -4.014872,-0.363218 z m 88.620712,-0.04135 c -1.96263,-1.044572 -2.0606,-4.039854 -0.16981,-5.192635 0.62142,-0.378839 1.04119,-0.419938 4.29646,-0.420634 3.25551,-6.23e-4 3.67369,0.04005 4.28454,0.417596 1.9109,1.181008 1.72547,4.209062 -0.32073,5.237107 -1.09031,0.547792 -7.04063,0.517315 -8.09047,-0.04135 z M 26.332331,70.838908 c -1.914251,-1.259801 -1.736635,-4.211961 0.315477,-5.24297 1.017751,-0.511337 6.942791,-0.533634 8.003873,-0.03011 1.403596,0.666053 2.015726,2.423708 1.360204,3.905628 -0.719136,1.625714 -1.185387,1.778515 -5.424727,1.777825 -3.267214,-6.23e-4 -3.694736,-0.04169 -4.254827,-0.410369 z m 88.766379,-0.0084 c -0.88436,-0.539264 -1.57639,-2.025729 -1.37863,-2.961554 0.21703,-1.02712 0.86252,-1.936034 1.63506,-2.302629 0.55343,-0.26267 1.4007,-0.333356 3.99209,-0.333102 3.72452,4.12e-4 4.36485,0.178417 5.22362,1.452546 0.89683,1.330486 0.39645,3.384541 -1.03218,4.237306 -0.44631,0.266376 -1.23488,0.328702 -4.15108,0.328072 -3.24765,-6.23e-4 -3.6676,-0.04184 -4.28888,-0.420639 z M 26.647808,57.604524 c -1.530492,-0.768944 -2.123488,-2.720976 -1.257866,-4.140648 0.747743,-1.22633 1.245349,-1.340249 5.539178,-1.26808 l 3.841918,0.06452 0.680258,0.742799 c 0.953976,1.041685 1.105449,2.041864 0.493281,3.257222 -0.772007,1.532687 -1.310307,1.707736 -5.250406,1.707354 -2.750443,-2.09e-4 -3.448725,-0.0629 -4.046363,-0.363219 z m 88.617562,-0.01378 c -0.46524,-0.242762 -0.89444,-0.717374 -1.20314,-1.330247 -0.64305,-1.276552 -0.46798,-2.262348 0.59029,-3.325476 l 0.77473,-0.778324 3.77068,0 c 4.19512,0 4.69536,0.120683 5.41894,1.307284 0.86553,1.419672 0.27261,3.371705 -1.25789,4.140651 -1.08207,0.543681 -7.04483,0.533448 -8.09361,-0.01378 z M 53.266354,36.085731 c -0.36875,-0.166266 -0.858743,-0.611134 -1.088875,-0.988589 -0.378603,-0.620986 -0.418415,-1.04175 -0.418415,-4.422232 0,-3.38183 0.03972,-3.801065 0.418871,-4.422975 0.766116,-1.256576 2.519534,-1.636804 3.751821,-0.813586 1.252952,0.837025 1.431029,1.488666 1.431029,5.236561 0,3.628198 -0.175178,4.340951 -1.262642,5.137374 -0.716655,0.524855 -1.999492,0.64873 -2.831789,0.273447 z m 13.449692,-0.06674 c -1.439915,-0.734231 -1.563662,-1.117754 -1.637287,-5.074271 -0.0713,-3.835849 0.01855,-4.310909 0.991797,-5.243404 1.16242,-1.113667 3.312941,-0.828643 4.153811,0.550544 0.378804,0.621319 0.418943,1.042024 0.419644,4.398479 8.31e-4,4.179897 -0.160063,4.744595 -1.538618,5.398765 -0.902575,0.4283 -1.505239,0.420705 -2.389347,-0.03011 z m 13.293821,0.01978 c -1.33955,-0.681148 -1.47644,-1.174308 -1.477308,-5.322333 -8.3e-4,-4.112176 0.123651,-4.621349 1.306504,-5.342574 1.364632,-0.832065 3.173776,-0.253475 3.933096,1.257855 0.300279,0.597661 0.362899,1.295332 0.362899,4.043135 0,2.751859 -0.06211,3.442782 -0.362899,4.032521 -0.731762,1.435078 -2.398467,2.024887 -3.762292,1.331396 z m 13.272895,-0.01978 c -1.439915,-0.734231 -1.563661,-1.117754 -1.637286,-5.074271 -0.0713,-3.835849 0.01855,-4.310909 0.991798,-5.243404 1.162418,-1.113667 3.312941,-0.828643 4.15381,0.550544 0.3788,0.621319 0.41894,1.042024 0.41964,4.398479 8.3e-4,4.179897 -0.16006,4.744595 -1.538613,5.398765 -0.902572,0.4283 -1.505241,0.420705 -2.389349,-0.03011 z"
       id="path3048"
       inkscape:connector-curvature="0" />
  </g>
  <g
     inkscape:groupmode="layer"
     id="layer3"
     inkscape:label="fairphone"
     style="display:none"
     sodipodi:insensitive="true">
    <path
       style="fill:#ffffff;fill-opacity:1"
       d="m 36.940336,124.8716 c 0,-0.28023 3.682844,-8.999 3.939448,-9.32626 0.187759,-0.23947 0.084,-0.38095 -0.328398,-0.44776 -0.595479,-0.0965 -0.596133,-0.1127 -0.05316,-1.31909 l 0.54973,-1.22142 2.768167,-0.19648 c 1.522492,-0.10806 3.481032,-0.19648 4.352319,-0.19648 l 1.584151,0 -0.663194,1.26866 -0.663193,1.26865 -2.181718,0.0881 c -2.172248,0.0877 -2.183572,0.0926 -2.608605,1.10982 -0.23479,0.56193 -0.427172,1.05958 -0.427518,1.1059 -2.98e-4,0.0463 0.872791,0.0392 1.940298,-0.0158 1.067509,-0.0551 1.940922,-0.0162 1.940922,0.0865 0,0.10264 -0.271387,0.71858 -0.603079,1.36876 -0.582243,1.14129 -0.655121,1.18213 -2.109178,1.18213 -0.828347,0 -1.74243,0.12648 -2.031292,0.28108 -0.440925,0.23598 -1.58585,2.57982 -2.232202,4.56966 C 39.982015,124.88342 39.608985,125 38.442246,125 c -0.826047,0 -1.501904,-0.0577 -1.501904,-0.1283 z m 30.659374,-4.68382 c 1.566605,-3.35892 2.138746,-4.87741 1.894578,-5.02831 -0.367745,-0.22728 -0.159999,-1.66257 0.331436,-2.28986 0.431394,-0.55066 3.92627,-0.78943 5.837668,-0.39884 2.795907,0.57134 3.362081,1.5524 2.198583,3.80969 -1.076463,2.08843 -3.208304,3.67252 -6.26814,4.65763 -1.902778,0.6126 -1.975074,0.67368 -2.776062,2.3454 -0.817797,1.70679 -0.829803,1.71641 -2.142422,1.71641 l -1.32002,0 2.244379,-4.81212 z m 5.805515,-2.3177 c 1.486396,-0.94265 1.942058,-1.88323 1.248372,-2.57691 -0.485555,-0.48556 -2.637891,-0.62574 -2.345579,-0.15278 0.09848,0.15936 -0.03088,0.69576 -0.287508,1.192 -0.973853,1.88323 -1.082271,2.39886 -0.504398,2.39886 0.292152,0 1.142251,-0.38753 1.889113,-0.86117 z m -27.180841,3.62236 c 1.058709,-1.75305 2.596612,-4.19901 4.206372,-6.69003 l 1.47795,-2.28705 1.617175,-0.101 c 1.32624,-0.0828 1.593712,-0.0204 1.486756,0.34675 -0.388795,1.33484 -1.042175,4.28578 -1.354912,6.1194 -0.19602,1.14925 -0.413312,2.39179 -0.482882,2.76119 -0.10668,0.56641 -0.317768,0.67164 -1.347196,0.67164 -1.153025,0 -1.210319,-0.0414 -1.033401,-0.74626 0.173019,-0.68935 0.107759,-0.74627 -0.855496,-0.74627 -0.856749,0 -1.125416,0.15978 -1.505888,0.89552 -0.399066,0.77171 -0.630483,0.89552 -1.6738,0.89552 l -1.210711,0 0.676033,-1.1194 z m 5.409971,-3.77639 c 0.1324,-0.64045 0.19112,-1.21408 0.13046,-1.27473 -0.11902,-0.11902 -1.690169,2.16176 -1.690169,2.45355 0,0.097 0.296766,0.13348 0.659486,0.081 0.498777,-0.0721 0.718145,-0.37915 0.900217,-1.25985 z m 2.895761,2.58236 c 0.472097,-1.27238 1.382054,-3.52238 2.022126,-4.99999 l 1.163769,-2.68657 1.253942,-0.0918 c 0.689668,-0.0505 1.253941,-0.0391 1.253941,0.0253 0,0.0644 -0.450868,1.046 -1.00193,2.18134 -0.551063,1.13535 -1.452658,3.25378 -2.003544,4.70764 -1.017141,2.68436 -1.479116,3.17752 -2.976595,3.17752 -0.536291,0 -0.519211,-0.13708 0.28829,-2.31343 z m 3.007215,2.00925 c 0,-0.1673 0.804141,-1.94035 1.786986,-3.94011 1.046231,-2.12874 1.663446,-3.71228 1.488958,-3.82012 -0.19678,-0.12162 -0.188859,-0.49734 0.02332,-1.10598 0.287732,-0.82538 0.467634,-0.93377 1.719993,-1.03624 1.796696,-0.14702 4.440571,0.20611 4.996298,0.66732 1.125943,0.93445 -0.225983,3.73331 -2.449702,5.07156 -0.631369,0.37996 -1.190897,0.72166 -1.243395,0.75932 -0.0525,0.0377 0.18258,0.61347 0.522388,1.27956 0.797995,1.5642 0.781031,1.72821 -0.203058,1.96293 -0.451492,0.10768 -1.055969,0.26562 -1.343281,0.35098 -0.393117,0.11678 -0.522387,-0.018 -0.522387,-0.54477 0,-0.74284 -0.753452,-2.02683 -1.189361,-2.02683 -0.143,0 -0.491419,0.52457 -0.774291,1.16571 -0.387976,0.87936 -0.732403,1.20932 -1.402193,1.34328 -1.215167,0.24303 -1.41027,0.22551 -1.41027,-0.1266 z m 5.911044,-5.18764 c 1.964396,-1.01583 2.384267,-2.56787 0.694683,-2.56787 -0.677049,0 -0.949835,0.1862 -1.202563,0.8209 -0.17978,0.45149 -0.457249,1.12313 -0.616597,1.49253 -0.342698,0.79445 -0.0485,0.86102 1.124477,0.25444 z m 30.506826,5.20143 c 0,-0.19802 0.67164,-1.98735 1.49254,-3.97629 0.82089,-1.98894 1.49253,-3.85479 1.49253,-4.14633 0,-0.49447 2.2716,-1.95219 2.57279,-1.651 0.0698,0.0698 0.31644,1.03285 0.548109,2.14015 0.48587,2.3222 0.62278,2.56004 0.92282,1.60308 0.1197,-0.38178 0.54445,-1.41153 0.9439,-2.28836 0.67053,-1.47187 0.78765,-1.57906 1.52604,-1.39678 0.43987,0.10858 0.90164,0.29651 1.02614,0.4176 0.1245,0.1211 -0.29227,1.42129 -0.92617,2.88933 -0.6339,1.46803 -1.3878,3.38395 -1.67534,4.2576 -0.28754,0.87365 -0.67673,1.63481 -0.86487,1.69148 -1.931219,0.58169 -1.947589,0.57287 -2.477919,-1.33462 -0.27464,-0.98783 -0.57875,-1.79606 -0.67581,-1.79606 -0.0971,0 -0.48898,0.80597 -0.87095,1.79104 -0.46159,1.19042 -0.8615,1.79241 -1.19251,1.79512 -0.27391,0.002 -0.80025,0.0851 -1.16966,0.18408 -0.42475,0.11382 -0.67164,0.0477 -0.67164,-0.18004 z m 8.955219,0.16852 c 0,-0.21528 2.12982,-5.59237 2.70919,-6.8398 0.29779,-0.64117 0.307,-0.8943 0.0386,-1.06018 -0.27061,-0.16724 -0.2688,-0.4399 0.008,-1.17265 0.31141,-0.82504 0.50355,-0.95498 1.41433,-0.95653 0.57968,-9e-4 2.17095,-0.0887 3.53616,-0.195 l 2.48221,-0.19322 -0.41432,1.0159 c -0.38707,0.94907 -0.53071,1.03046 -2.1837,1.2373 -1.62829,0.20375 -2.51565,0.7249 -2.51565,1.47744 0,0.1328 0.66466,0.24145 1.47701,0.24145 l 1.47701,0 -0.32046,0.91928 c -0.35488,1.01799 -0.40912,1.04799 -2.36719,1.30916 -1.08414,0.1446 -1.44764,0.34195 -1.71642,0.93185 -0.18754,0.41162 -0.34099,0.7965 -0.34099,0.8553 0,0.0588 0.80597,0.0338 1.79104,-0.0555 0.98508,-0.0893 1.79104,-0.093 1.79104,-0.008 0,0.0848 -0.20329,0.64081 -0.45176,1.23549 l -0.45177,1.08123 -2.50889,0 c -1.37989,0 -2.72137,0.0815 -2.98107,0.1812 -0.25969,0.0997 -0.47217,0.0976 -0.47217,-0.005 z m -25.249068,-3.23633 c 3.051805,-7.21171 2.798199,-6.79104 4.094079,-6.79104 0.63525,0 1.15501,0.10918 1.15501,0.24264 0,0.13346 -0.33582,0.93877 -0.74627,1.78958 -0.41045,0.85082 -0.74627,1.61476 -0.74627,1.69766 0,0.0829 0.47721,0.15072 1.06047,0.15072 1.02266,0 1.09452,-0.0744 2.01493,-2.08512 0.93318,-2.03865 0.9794,-2.08521 2.07385,-2.08955 0.61567,-0.002 1.1194,0.0567 1.1194,0.13144 0,0.0747 -0.51624,1.31726 -1.14719,2.76119 -0.63096,1.44393 -1.51583,3.59921 -1.9664,4.78951 l -0.8192,2.16417 -1.14709,0 -1.14709,0 0.30637,-0.97014 c 0.71938,-2.27795 0.71266,-2.31345 -0.43813,-2.31345 -1.013524,0 -1.082635,0.0707 -1.749699,1.79104 l -0.694491,1.79105 -1.258533,0 -1.258533,0 1.294787,-3.0597 z m 8.990049,2.47331 c -0.42235,-0.46668 -0.50408,-0.95411 -0.40038,-2.38771 0.10786,-1.49111 0.33265,-2.09507 1.3053,-3.50701 1.96906,-2.85836 5.37303,-4.40897 7.13885,-3.25196 0.74337,0.48708 1.08527,1.97188 0.45406,1.97188 -0.16418,0 -0.29851,0.54267 -0.29851,1.20592 0,2.14034 -1.93609,4.79323 -4.44495,6.09062 -1.27861,0.6612 -3.09925,0.60216 -3.75437,-0.12174 z m 3.70772,-1.94369 c 1.01446,-0.52459 2.10355,-2.17707 2.10355,-3.19172 0,-0.39928 0.16678,-0.89275 0.370639,-1.0966 0.29518,-0.29518 0.27998,-0.42795 -0.0746,-0.65214 -0.73882,-0.4671 -1.39624,-0.33104 -2.37338,0.49118 -1.49022,1.25393 -2.3303,3.49698 -1.69482,4.52521 0.29372,0.47526 0.63259,0.45983 1.66864,-0.0759 z m -53.717292,-56.571856 0,-38.211404 38.35817,0 38.358171,0 0,20.596994 0,20.596995 -3.8253,0 -3.82529,0 -3.04458,-9.32835 c -7.134299,-21.85894 -8.955449,-27.213802 -9.111479,-26.791017 -0.25038,0.678444 -2.3581,7.078148 -7.34813,22.311256 l -4.52182,13.8038 -19.377573,0.07678 -19.377574,0.07678 5.141274,3.710132 c 2.827705,2.040574 7.760678,5.594602 10.962169,7.897841 15.120757,10.878302 15.171193,10.917 15.013623,11.519547 -0.08258,0.315824 -0.985053,3.099535 -2.005476,6.186021 l -1.855314,5.611801 -16.770433,0.0771 -16.770437,0.0771 0,-38.211402 z"
       id="path3849"
       inkscape:connector-curvature="0" />
  </g>
  <g
     inkscape:groupmode="layer"
     id="layer5"
     inkscape:label="kodi"
     sodipodi:insensitive="true"
     style="display:none">
    <path
       style="fill:#ffffff;fill-opacity:1"
       d="m 64.784878,115.86396 c -8.340586,-8.34842 -9.055991,-9.1922 -9.055991,-10.68103 0,-1.49068 0.707364,-2.32068 9.086439,-10.661711 8.166688,-8.12962 9.241289,-9.0452 10.616243,-9.0452 1.370609,0 2.426746,0.88907 10.148783,8.54339 4.740437,4.69886 8.863308,9.133261 9.161934,9.854201 0.298628,0.72095 0.424674,1.77931 0.280104,2.35191 -0.144571,0.57259 -4.257142,5.01501 -9.139049,9.87201 -8.089301,8.04804 -9.016548,8.83092 -10.459332,8.83092 -1.446055,0 -2.367283,-0.78489 -10.639131,-9.06449 z M 103.20942,94.273809 c -0.75694,-0.47936 -5.040507,-4.62982 -9.519045,-9.22325 -7.041711,-7.22234 -8.142797,-8.54605 -8.142797,-9.78907 0,-1.25561 1.154305,-2.59577 9.127612,-10.59723 8.07663,-8.10515 9.29699,-9.15983 10.5986,-9.15983 1.30161,0 2.52197,1.05468 10.5986,9.15983 8.27656,8.30579 9.12761,9.30519 9.12761,10.71872 0,1.4122 -0.83098,2.39167 -8.83092,10.40902 -9.57151,9.59232 -10.37536,10.11841 -12.95966,8.48181 z m -69.619705,-9.14625 c -6.584897,-6.59176 -8.595306,-8.87336 -8.589703,-9.74843 0.0055,-0.85652 2.100822,-3.2952 8.372172,-9.74404 4.600671,-4.73086 8.704035,-8.60156 9.118585,-8.60154 0.414552,2e-5 0.879035,0.32657 1.032186,0.72568 0.153151,0.3991 0.278456,8.25728 0.278456,17.46262 0,15.75384 -0.191023,18.51166 -1.282229,18.51166 -0.182847,0 -4.201106,-3.87268 -8.929467,-8.60595 z m 23.061767,-2.39451 c -0.334437,-0.6249 -0.450882,-7.24144 -0.363325,-20.64499 l 0.128858,-19.72535 8.028109,-8.06368 c 8.263952,-8.30055 9.942079,-9.63304 11.506414,-9.13655 0.500133,0.15874 4.928213,4.34922 9.840177,9.31219 8.155503,8.24018 8.930849,9.16189 8.930849,10.61682 0,1.48485 -1.225021,2.82125 -18.005902,19.64325 -9.903246,9.9275 -18.358501,18.24529 -18.78945,18.48398 -0.592901,0.32838 -0.903305,0.21022 -1.275726,-0.48567 z"
       id="path3882"
       inkscape:connector-curvature="0" />
  </g>
  <g
     inkscape:groupmode="layer"
     id="layer6"
     inkscape:label="security">
    <path
       style="fill:#ffffff;fill-opacity:1"
       d="m 64.97532,124.79722 c -8.94308,-0.53442 -16.206091,-1.75406 -19.257081,-3.23374 -4.03586,-1.95732 -0.98507,-4.02437 8.061931,-5.46232 1.787896,-0.28418 4.650118,-0.62832 6.360494,-0.76477 1.710378,-0.13646 3.425106,-0.29332 3.810509,-0.3486 l 0.700732,-0.10051 0,-3.54779 0,-3.5478 10.349278,0 10.349278,0 0,3.53242 c 0,3.99801 -0.104231,3.789 1.892719,3.79538 1.529619,0.005 7.107935,0.63006 9.750218,1.09273 3.431382,0.60085 6.331652,1.39624 7.591512,2.08195 5.08456,2.76736 -3.68903,5.58642 -20.312499,6.52665 -4.401684,0.24896 -14.952046,0.23606 -19.297091,-0.0236 z M 34.447499,104.03048 c -2.61249,-0.72068 -5.48838,-3.05098 -6.63542,-5.376596 -1.14686,-2.32525 -1.10221,-0.95915 -1.10497,-33.81186 -0.002,-21.82371 0.0668,-30.87851 0.24006,-31.69466 0.78927,-3.71689 4.20668,-7.13577 7.90727,-7.91064 0.81302,-0.17024 12.44236,-0.23851 40.319064,-0.23669 42.154817,0.003 40.066827,-0.0511 42.463267,1.09495 1.31089,0.62689 3.89825,3.22841 4.55596,4.58088 1.145,2.35447 1.09996,0.96276 1.09996,33.99384 0,25.29174 -0.0521,30.92006 -0.2946,31.83085 -0.95369,3.581646 -3.96402,6.583166 -7.57004,7.547856 -1.54429,0.41313 -79.480491,0.39587 -80.980551,-0.0179 z M 77.45598,97.198834 c 1.159242,-0.52818 1.232135,-2.31413 0.117967,-2.89029 -0.710461,-0.36739 -4.162189,-0.43869 -5.042108,-0.10414 -1.136135,0.43196 -1.209904,2.40636 -0.11069,2.96259 0.670329,0.33919 4.309743,0.36222 5.034831,0.0318 z m 35.49255,-35.97889 0,-25.87319 -37.947347,0 -37.947354,0 0,25.87319 0,25.8732 37.947354,0 37.947347,0 0,-25.8732 z m -41.073691,15.12109 c -3.044268,-0.87564 -5.238984,-2.56911 -6.409198,-4.94543 l -0.705931,-1.43352 0,-4.13932 c 0,-4.54563 0.03861,-4.69584 1.484501,-5.77535 0.576832,-0.43067 0.85015,-0.44454 8.756972,-0.44454 7.906822,0 8.18014,0.0139 8.756972,0.44454 1.446092,1.07966 1.484501,1.22907 1.484501,5.77459 l 0,4.13921 -0.698853,1.41957 c -0.885292,1.79829 -2.39042,3.22195 -4.4262,4.18662 -2.593301,1.22887 -5.659563,1.51666 -8.242764,0.77363 z m -3.737823,-22.07451 c 0.06617,-3.19981 0.118219,-3.59666 0.600181,-4.57609 2.542461,-5.16668 9.811475,-5.2985 12.408294,-0.225 0.629001,1.2289 0.649465,1.36492 0.719859,4.7848 l 0.07245,3.51995 -1.743431,0 -1.743431,0 0,-2.93205 c 0,-3.33405 -0.207787,-4.04187 -1.468924,-5.00378 -1.087518,-0.82949 -2.874152,-0.82949 -3.961669,0 -1.261138,0.96191 -1.468925,1.66973 -1.468925,5.00378 l 0,2.93205 -1.743431,0 -1.743431,0 0.07245,-3.50366 z"
       id="path3915"
       inkscape:connector-curvature="0" />
  </g>
</svg>
