<svg xmlns="http://www.w3.org/2000/svg" width="150" height="150">
    <rect width="130" height="130" rx="45" ry="45" x="10" y="912.362" style="marker:none" color="#000" fill="#0A7B7B" overflow="visible" transform="translate(0 -902.362)"/>
    <path d="M64.975 124.797c-8.943-.534-16.206-1.754-19.257-3.234-4.036-1.957-.985-4.024 8.062-5.462a99.565 99.565 0 0 1 6.36-.765c1.711-.136 3.426-.293 3.811-.348l.7-.1v-7.096h20.7v3.532c0 3.998-.105 3.79 1.892 3.795 1.53.005 7.108.63 9.75 1.093 3.432.601 6.332 1.396 7.592 2.082 5.084 2.768-3.69 5.587-20.313 6.527-4.401.249-14.952.236-19.297-.024zM34.447 104.03c-2.612-.72-5.488-3.05-6.635-5.376-1.147-2.325-1.102-.96-1.105-33.812-.002-21.824.067-30.878.24-31.695.79-3.717 4.207-7.135 7.907-7.91.813-.17 12.443-.239 40.32-.237 42.154.003 40.066-.051 42.463 1.095 1.31.627 3.898 3.228 4.556 4.58 1.145 2.355 1.1.964 1.1 33.995 0 25.291-.052 30.92-.295 31.83-.954 3.582-3.964 6.584-7.57 7.548-1.544.414-79.48.396-80.98-.017zM77.456 97.2c1.16-.528 1.232-2.314.118-2.89-.71-.368-4.162-.44-5.042-.105-1.136.432-1.21 2.407-.11 2.963.67.34 4.309.362 5.034.032zm35.493-35.98V35.348H37.054v51.746H112.949V61.22zM71.875 76.342c-3.044-.876-5.24-2.57-6.41-4.945l-.705-1.434v-4.14c0-4.545.038-4.695 1.484-5.775.577-.43.85-.444 8.757-.444s8.18.014 8.757.444c1.446 1.08 1.485 1.23 1.485 5.775v4.14l-.7 1.419c-.884 1.798-2.39 3.222-4.425 4.186-2.594 1.23-5.66 1.517-8.243.774zm-3.738-22.074c.066-3.2.118-3.597.6-4.577 2.543-5.166 9.812-5.298 12.408-.225.63 1.23.65 1.365.72 4.785l.073 3.52H78.45v-2.932c0-3.334-.208-4.042-1.469-5.004-1.088-.83-2.874-.83-3.962 0-1.26.962-1.469 1.67-1.469 5.004v2.932h-3.486l.072-3.503z" fill="#fff"/>
</svg>
