<svg xmlns="http://www.w3.org/2000/svg" width="150" height="150">
    <rect width="130" height="130" rx="45" ry="45" x="10" y="912.362" style="marker:none" color="#000" fill="#0A7B7B" overflow="visible" transform="translate(0 -902.362)"/>
    <path d="M73.633 119.007c-11.59-.444-21.885-4.923-29.99-13.048a43.809 43.809 0 0 1-11.397-20.12c-.93-3.676-1.43-7.543-1.01-7.803.174-.107 31.88-.202 40.357-.12l1.378.014 15.028 15.027c8.266 8.265 15.055 15.197 15.087 15.404.042.267-.304.665-1.171 1.35-6.57 5.181-15.281 8.583-23.4 9.135-2.993.204-3.401.217-4.882.16zm20.594-29.74c-7.62-7.621-13.882-13.98-13.913-14.13-.033-.158 1.756-1.762 4.199-3.765 5.588-4.582 14.157-11.717 17.342-14.44 4.891-4.182 8.569-7.127 8.899-7.127.387 0 .96.728 2.072 2.636 3.307 5.669 5.178 11.25 5.922 17.66.245 2.112.303 7.176.102 8.903-.72 6.18-2.028 10.61-4.713 15.965-1.734 3.456-5.029 8.156-5.718 8.156-.185 0-6.572-6.236-14.192-13.858zM31.186 71.941c-.462-.462.452-6.03 1.637-9.969 1.229-4.087 4.057-9.716 6.555-13.046 2.447-3.263 6.285-7.1 9.548-9.548 3.33-2.498 8.959-5.326 13.046-6.555 3.033-.912 7.794-1.814 9.122-1.728l.879.057v40.82l-20.328.05c-11.18.028-20.387-.009-20.46-.081zm46.828-4.384c-.18-.293-.16-36.027.022-36.32.388-.63 7.549.686 11.612 2.133 4.554 1.621 9.01 4.12 12.831 7.193 2.295 1.845 3.802 3.382 3.73 3.802-.031.18-3.616 3.291-7.967 6.914-4.35 3.623-8.481 7.09-9.18 7.703-2 1.759-10.62 8.791-10.774 8.791-.077 0-.2-.097-.274-.216z" fill="#fff"/>
</svg>
