<svg xmlns="http://www.w3.org/2000/svg" width="150" height="150">
    <defs>
        <clipPath id="a">
            <path style="marker:none" color="#000" fill="#fff" stroke-width="2" overflow="visible" d="M44.072 27.448h62.242v60.309H44.072z"/>
        </clipPath>
        <clipPath id="b">
            <path style="marker:none" color="#000" fill="#fff" stroke-width="2" overflow="visible" d="M13.461 61.315h214.585v173.41H13.461z"/>
        </clipPath>
        <clipPath id="c">
            <path style="marker:none" color="#000" fill="#fff" stroke-width="2" overflow="visible" d="M-15.045-26.577h197.957v205.875H-15.045z"/>
        </clipPath>
    </defs>
    <rect width="130" height="130" rx="45" ry="45" x="10" y="912.362" style="marker:none" color="#000" fill="#133348" overflow="visible" transform="translate(0 -902.362)"/>
    <g fill="#fff">
        <path d="M74.702 110.143c-2.685-.434-6.377-1.72-8.595-2.99-5.264-3.018-8.956-7.153-11.352-12.711l-.797-1.851-1.342-.505c-2.682-1.008-5.727-3.38-8.133-6.337-2.35-2.888-4.182-5.891-7.982-13.09-2.988-5.66-4.591-8.209-6.366-10.12-1.706-1.839-2.469-2.362-4.019-2.758L25 59.495l1.362-2.273c1.545-2.578 1.679-2.648 4.13-2.166 2.868.564 5.739 2.2 9.922 5.658 3.69 3.049 6.21 4.946 7.909 5.954 1.209.718 4.29 1.863 5.014 1.863.174 0 .496-.607.778-1.467.584-1.775 1.684-4.14 2.581-5.544l.662-1.036 27.653.058 27.653.058 1.412.503c2.326.83 4.312 2.135 6.31 4.147 1.526 1.536 2.037 2.235 2.874 3.933 1.364 2.765 1.74 4.457 1.74 7.822 0 3.352-.377 5.06-1.715 7.768-1.651 3.343-4.906 6.39-8.299 7.769-.7.285-2.13.694-3.174.909l-1.9.39-.742 1.607c-3.311 7.167-9.975 12.53-17.91 14.412-1.583.375-2.762.449-8.257.514-4.783.056-6.89-.002-8.301-.23zm38.38-24.004c3.516-1.678 5.56-4.947 5.555-8.882-.005-3.067-.97-5.363-3.074-7.31-1.31-1.213-2.998-2.142-4.35-2.395l-.798-.15.415 1.597c.666 2.561.9 6.007.82 12.102-.04 3.125-.038 5.683.005 5.682.043 0 .685-.29 1.427-.644zM61.134 56.227c3.466-3.316 8.58-5.827 13.454-6.609 1.58-.253 1.678-.3 1.521-.728-.092-.252-.165-1.388-.162-2.523.006-2.379.367-3.306 1.873-4.812 1.362-1.362 2.99-2.02 4.966-2.008 1.975.013 3.215.503 4.675 1.849 1.567 1.443 2.15 2.756 2.16 4.862.006.956-.07 2.082-.168 2.501l-.177.763 1.471.279c3.082.585 6.214 1.869 9.012 3.695 1.798 1.174 4.756 3.639 4.756 3.963 0 .13-8.353.204-22.435.2l-22.435-.007 1.49-1.425z"/>
        <path d="M76.582 110.244c-5.93-.488-11.22-2.85-15.636-6.98-2.515-2.354-5.1-6.174-6.297-9.305l-.543-1.42-1.382-.496c-2.109-.756-4.404-2.394-6.675-4.763-3.056-3.188-4.992-6.174-9.337-14.403-5.217-9.882-6.824-11.835-11.022-13.398-.482-.18-.465-.227.867-2.426l1.36-2.242 1.305.148c3.658.415 6.53 1.985 12.19 6.663 5.534 4.573 8.203 6.193 11.324 6.876l.915.2.363-1.116c.662-2.035 1.412-3.704 2.432-5.411l1.008-1.688 27.496.058 27.497.059 1.606.595c5.097 1.888 8.636 5.617 10.27 10.82.442 1.41.51 2.064.51 4.99 0 3.683-.323 5.233-1.627 7.816-2.121 4.202-6.373 7.515-10.77 8.394-.95.19-1.923.385-2.162.434-.303.062-.743.735-1.451 2.221-1.676 3.516-4.516 6.934-7.893 9.5-1.971 1.498-6.156 3.485-8.692 4.127-3.519.89-10.099 1.205-15.656.747zm36.794-24.123c4.802-2.4 6.768-8.48 4.353-13.462-1.199-2.47-3.854-4.6-6.467-5.188l-.917-.206.147.578c.798 3.123.826 3.475.918 11.172.072 6.063.153 7.768.367 7.768.15 0 .87-.298 1.6-.662zM60.948 56.446c3.852-3.484 8.618-5.897 13.038-6.6 2.707-.43 2.497-.297 2.126-1.358-.752-2.158.12-5.382 1.89-6.981 1.372-1.24 2.515-1.719 4.35-1.825 2.942-.17 5.256 1.148 6.509 3.706.97 1.981 1.08 3.893.336 5.832-.111.29.128.401 1.344.628 4.618.859 9.887 3.565 12.88 6.615l.968.986-22.264-.01-22.263-.01 1.086-.983z"/>
    </g>
</svg>
