<svg xmlns="http://www.w3.org/2000/svg" width="150" height="150">
    <rect width="130" height="130" rx="45" ry="45" x="10" y="912.362" style="marker:none" color="#000" fill="#00a8a8" overflow="visible" transform="translate(0 -902.362)"/>
    <path d="M33.265 124.63c-3.378-1.028-6.841-4.308-7.75-7.34-.366-1.224-.511-8.951-.511-27.34V64.314l1.121-2.25c1.27-2.55 2.993-4.17 5.838-5.492 1.864-.867 2.777-.917 19.246-1.05 9.509-.077 17.289-.264 17.289-.417 0-.152-2.838-3.137-6.307-6.634-5.99-6.038-6.306-6.443-6.293-8.064.015-1.876.551-2.81 2.078-3.623 1.938-1.032 3.185-.213 9.884 6.498 3.574 3.58 6.692 6.508 6.929 6.508.237 0 6.02-5.578 12.853-12.395C99.5 25.564 100.14 25 101.7 25c2.232 0 3.768 1.539 3.768 3.776 0 1.566-.558 2.204-12.287 14.046L80.893 55.228l17.615.223c19.72.25 19.2.17 22.792 3.482 1.319 1.215 2.264 2.605 2.867 4.216.877 2.344.896 3.035.777 27.904l-.122 25.501-1.341 2.392c-1.458 2.6-4.307 4.875-7.063 5.64-1.883.523-81.44.564-83.153.043zm53.396-8.466c6.292-1.533 9.456-5.233 10.637-12.44.846-5.16.66-23.712-.282-28.032-1.573-7.22-4.303-9.97-11.27-11.356-4.342-.863-24.335-1.28-33.342-.696-9.25.6-12.327 1.48-15.185 4.345-3.542 3.548-4.517 8.351-4.516 22.256.001 13.867.923 18.567 4.364 22.245 2.232 2.386 5.26 3.605 10.561 4.25 1.79.219 10.594.352 19.565.297 13.885-.084 16.78-.214 19.468-.869zm27.808-15.03c.764-.467 1.725-1.36 2.134-1.985.94-1.435.925-4.662-.03-6.119-1.875-2.863-6.068-3.679-8.478-1.65-2.715 2.284-3.27 4.776-1.69 7.587 1.622 2.886 5.275 3.867 8.064 2.166zm-.296-15.183c4.347-2.325 4.183-8.593-.277-10.566-5.668-2.508-10.865 4.129-7.04 8.991 1.814 2.307 4.761 2.941 7.317 1.575z" fill="#fff"/>
</svg>
