<svg xmlns="http://www.w3.org/2000/svg" width="150" height="150">
    <defs>
        <clipPath id="a">
            <path style="marker:none" color="#000" fill="#fff" stroke-width="2" overflow="visible" d="M44.072 27.448h62.242v60.309H44.072z"/>
        </clipPath>
        <clipPath id="b">
            <path style="marker:none" color="#000" fill="#fff" stroke-width="2" overflow="visible" d="M13.461 61.315h214.585v173.41H13.461z"/>
        </clipPath>
        <clipPath id="c">
            <path style="marker:none" color="#000" fill="#fff" stroke-width="2" overflow="visible" d="M-15.045-26.577h197.957v205.875H-15.045z"/>
        </clipPath>
    </defs>
    <rect width="130" height="130" rx="45" ry="45" x="10" y="912.362" style="marker:none" color="#000" fill="#00a8a8" overflow="visible" transform="translate(0 -902.362)"/>
    <path d="M59.219 124.858c-1.24-.156-2.12-.68-2.803-1.666l-.535-.773.029-29.468.028-29.468.53-1.472c1.073-2.977 2.835-5.494 5.029-7.182 1.139-.877 3.516-2.156 4.914-2.645.668-.233.72-.313.831-1.257.065-.555.123-6.055.128-12.222l.01-11.213.428-.559c.57-.742 1.103-1.214 1.817-1.608.502-.277 1.285-.325 5.301-.325 5.29 0 5.239-.011 6.719 1.485l.828.838.007 11.11c.004 6.11.063 11.655.13 12.322.109 1.074.177 1.226.601 1.333 1.066.267 4.178 1.943 5.31 2.86 2.18 1.763 3.864 4.203 4.895 7.088l.516 1.447.094 29.191.093 29.191-.427.883c-.623 1.287-1.535 1.903-3.122 2.107-1.483.192-29.838.194-31.352.003zm7.994-7.603c.085-.052.154-1.768.154-3.814v-3.719h19.241V86.554l-9.179-.022c-5.048-.012-9.377-.006-9.62.014-.432.035-.442-.011-.442-1.942v-1.977h19.241V74.97H67.324l.082-5.056c.078-4.807.107-5.125.58-6.45.628-1.756 1.652-3.308 3.406-5.166l1.374-1.455-.687.128c-.378.07-1.51.533-2.515 1.027-3.342 1.645-5.474 4.183-5.946 7.078-.15.927-.251 9.406-.319 26.955l-.099 25.602 1.93-.141c1.062-.078 2-.185 2.083-.237z" fill="#fff"/>
</svg>
