<svg xmlns="http://www.w3.org/2000/svg" width="150" height="150">
    <defs>
        <clipPath id="a">
            <path style="marker:none" color="#000" fill="#fff" stroke-width="2" overflow="visible" d="M44.072 27.448h62.242v60.309H44.072z"/>
        </clipPath>
        <clipPath id="b">
            <path style="marker:none" color="#000" fill="#fff" stroke-width="2" overflow="visible" d="M13.461 61.315h214.585v173.41H13.461z"/>
        </clipPath>
    </defs>
    <rect width="130" height="130" rx="45" ry="45" x="10" y="912.362" style="marker:none" color="#000" fill="#0A7B7B" overflow="visible" transform="translate(0 -902.362)"/>
    <path d="M43.845 124.029c-.44-.214-1.025-.628-1.297-.92-.636-.679-16.704-25.492-17.181-26.53-.819-1.783-.21-4.51 1.255-5.627 1.143-.87 17.978-11.705 18.491-11.9.277-.105 1.056-.191 1.73-.191 1.56 0 2.842.655 3.808 1.946 1.21 1.618 16.359 25.16 16.764 26.053.768 1.692.286 4.029-1.09 5.285-.713.651-17.746 11.67-18.592 12.027-.936.395-2.929.322-3.888-.143zm4.914-14.462c2.685-1.727 5.119-3.395 5.409-3.706.744-.799.875-1.714.38-2.659-.219-.417-2.366-3.794-4.771-7.504-3.014-4.649-4.575-6.881-5.025-7.184-1.11-.75-1.646-.608-4.427 1.181-7.577 4.875-8.02 5.192-8.38 5.993-.226.5-.3.956-.212 1.306.213.848 9.486 15.03 10.06 15.388.28.173.863.317 1.297.32.689.005 1.4-.389 5.67-3.135zm11.234-17.146c-4.43-6.853-8.375-12.798-8.767-13.21-.392-.413-1.153-.984-1.69-1.27-.849-.45-1.212-.519-2.738-.52-2.13-.002-1.904-.109-7.65 3.608-2.332 1.51-4.308 2.744-4.39 2.744-.165 0-1.633-2.338-1.52-2.42.902-.663 86.183-55.73 86.386-55.78.334-.085 5.376 7.587 5.376 8.18 0 .193-7.37 10.374-16.376 22.625L92.247 78.65l-1.512.332c-4.245.931-4.907 1.114-4.835 1.334.283.869 1.097 5.062 1.001 5.158-.065.065-1.373.4-2.906.743l-2.788.625.03.566c.017.312.245 1.544.507 2.738l.476 2.172-2.462 3.299-2.461 3.298-4.301 2.796c-2.366 1.537-4.447 2.88-4.625 2.982-.275.159-1.549-1.707-8.378-12.273zm45.513-42.843c2.961-1.518 2.844-5.483-.2-6.754-2.398-1.002-5.037.759-5.037 3.36 0 1.672.851 2.947 2.374 3.557.767.307 2.094.232 2.863-.163z" fill="#fff"/>
</svg>
