<svg xmlns="http://www.w3.org/2000/svg" width="150" height="150">
    <rect width="130" height="130" rx="45" ry="45" x="10" y="912.362" style="marker:none" color="#000" fill="#0A7B7B" overflow="visible" transform="translate(0 -902.362)"/>
    <path d="M49.33 112.25c-.606-.412-1.416-1.173-1.8-1.691-.695-.938-.697-1.034-.786-34.965-.088-33.542-.08-34.044.583-35.415a4.907 4.907 0 0 1 1.968-2.118c1.284-.721 1.445-.728 17.951-.728h16.655l1.128.76c1.5 1.011 17.472 18.45 18.126 19.79.446.917.512 4.243.512 26.013v24.963l-.75 1.462c-1.457 2.842.232 2.679-27.78 2.679H50.433l-1.102-.75zm37.613-12.541c.252-.16.396-.698.334-1.245l-.11-.964-15.076-.087-15.077-.086-.21.84c-.467 1.858-.673 1.833 15.153 1.828 7.999-.003 14.743-.132 14.986-.286zM81 86.163v-1.171l-12.079.087c-11.348.082-12.086.124-12.195.69-.306 1.592-.523 1.564 12.264 1.564H81v-1.17zm12.277-11.454c.252-.16.396-.698.333-1.245l-.11-.964-18.243-.086-18.243-.086-.21.84c-.473 1.88-.959 1.832 18.32 1.827 9.74-.003 17.909-.132 18.153-.286zM71 61.16v-1.173l-7.079.09c-6.524.083-7.088.137-7.195.692-.295 1.534-.155 1.564 7.264 1.564H71V61.16zm24.333-2.012c0-.25-11.69-12.952-12.05-13.092-.155-.062-.283 2.627-.283 5.973 0 5.195.08 6.174.552 6.695.493.544 1.15.61 6.166.61 3.089 0 5.615-.084 5.615-.186z" fill="#fff"/>
</svg>
