<?xml version="1.0" encoding="UTF-8" standalone="no"?>
<!-- Created with Inkscape (http://www.inkscape.org/) -->

<svg
   xmlns:dc="http://purl.org/dc/elements/1.1/"
   xmlns:cc="http://creativecommons.org/ns#"
   xmlns:rdf="http://www.w3.org/1999/02/22-rdf-syntax-ns#"
   xmlns:svg="http://www.w3.org/2000/svg"
   xmlns="http://www.w3.org/2000/svg"
   xmlns:sodipodi="http://sodipodi.sourceforge.net/DTD/sodipodi-0.dtd"
   xmlns:inkscape="http://www.inkscape.org/namespaces/inkscape"
   version="1.1"
   width="150"
   height="150"
   id="svg2"
   inkscape:version="0.48.5 r10040"
   sodipodi:docname="computing.svg">
  <sodipodi:namedview
     pagecolor="#ffffff"
     bordercolor="#666666"
     borderopacity="1"
     objecttolerance="10"
     gridtolerance="10"
     guidetolerance="10"
     inkscape:pageopacity="0"
     inkscape:pageshadow="2"
     inkscape:window-width="1920"
     inkscape:window-height="1174"
     id="namedview4361"
     showgrid="false"
     inkscape:zoom="6.74"
     inkscape:cx="75.148368"
     inkscape:cy="75"
     inkscape:window-x="1920"
     inkscape:window-y="0"
     inkscape:window-maximized="1"
     inkscape:current-layer="layer10" />
  <defs
     id="defs4">
    <inkscape:path-effect
       effect="spiro"
       id="path-effect3779" />
    <mask
       maskUnits="userSpaceOnUse"
       id="mask4022">
      <rect
         style="color:#000000;fill:#ffffff;fill-opacity:1;fill-rule:nonzero;stroke:#00a8a8;stroke-width:2.5;stroke-linecap:butt;stroke-linejoin:miter;stroke-miterlimit:4;stroke-opacity:1;stroke-dasharray:none;stroke-dashoffset:0;marker:none;visibility:visible;display:inline;overflow:visible;enable-background:accumulate"
         id="rect4024"
         width="94.703392"
         height="94.703392"
         x="197.66949"
         y="-184.95764"
         rx="5.3157125"
         ry="4.7804155" />
    </mask>
  </defs>
  <metadata
     id="metadata7">
    <rdf:RDF>
      <cc:Work
         rdf:about="">
        <dc:format>image/svg+xml</dc:format>
        <dc:type
           rdf:resource="http://purl.org/dc/dcmitype/StillImage" />
        <dc:title></dc:title>
      </cc:Work>
    </rdf:RDF>
  </metadata>
  <g
     inkscape:groupmode="layer"
     id="layer4"
     inkscape:label="Background"
     style="display:inline"
     sodipodi:insensitive="true">
    <g
       transform="translate(0,-902.36218)"
       id="layer1">
      <rect
         width="130"
         height="130"
         rx="45"
         ry="45"
         x="10"
         y="912.36218"
         id="rect2985"
         style="color:#000000;fill:#00a8a8;fill-opacity:1;fill-rule:nonzero;stroke:none;stroke-width:1;marker:none;visibility:visible;display:inline;overflow:visible;enable-background:accumulate" />
    </g>
  </g>
  <g
     inkscape:groupmode="layer"
     id="layer3"
     inkscape:label="Microscopy"
     style="display:none"
     sodipodi:insensitive="true">
    <path
       style="fill:#ffffff;fill-opacity:1"
       d="m 43.67324,124.69106 c -0.0652,-0.16992 -0.118553,-2.2625 -0.118553,-4.65017 0,-3.16675 0.06605,-4.43052 0.244141,-4.67127 0.223625,-0.30231 1.204295,-0.33417 11.669922,-0.37913 l 11.425781,-0.0491 0.09766,-4.03697 c 0.05371,-2.22033 0.170713,-4.10998 0.260004,-4.19922 0.08929,-0.0892 2.506282,-0.21867 5.371094,-0.28763 3.542871,-0.0853 5.614772,-0.21959 6.478277,-0.41995 2.978143,-0.69103 5.664495,-1.84384 8.037456,-3.44916 1.583111,-1.07099 3.639242,-2.84115 3.485576,-3.0008 -0.05394,-0.05603 -1.108623,0.308461 -2.34375,0.80999 l -2.245688,0.91186 -0.09766,0.78125 -0.09766,0.78125 -16.308594,0 -16.308594,0 -0.05562,-1.88142 c -0.05556,-1.879407 -0.05509,-1.881549 0.449198,-2.008116 0.27765,-0.06968 7.780652,-0.11814 16.673335,-0.107678 l 16.168516,0.01902 3.69767,-1.479358 c 2.586611,-1.034849 3.780656,-1.610904 3.973861,-1.917154 2.153358,-3.41332 3.594315,-7.306771 4.120571,-11.13374 0.32308,-2.349455 0.270627,-6.400652 -0.112075,-8.656135 -0.875271,-5.158484 -3.322886,-10.16031 -6.787078,-13.86973 -1.208236,-1.293768 -3.637142,-3.399286 -3.921386,-3.399286 -0.06195,0 -0.796553,0.689506 -1.632463,1.532237 -1.696274,1.710111 -3.836407,2.939467 -5.842034,3.355834 -1.125152,0.23358 -4.646232,0.167918 -5.482583,-0.102242 l -0.429784,-0.13883 -0.0585,4.88923 c -0.05482,4.581492 -0.08388,4.923906 -0.461728,5.440172 -0.221778,0.303019 -0.727149,0.71199 -1.123047,0.908826 l -0.719819,0.357883 0,8.059111 c 0,9.156408 0.146126,8.390746 -1.73799,9.106655 -1.373738,0.521978 -3.939343,0.521978 -5.313082,0 -1.884115,-0.715909 -1.73799,0.04975 -1.73799,-9.106655 l 0,-8.059111 -0.729844,-0.357883 c -0.401416,-0.196836 -0.92876,-0.656525 -1.171875,-1.021531 l -0.442031,-0.663651 0,-18.577677 c 0,-17.672143 0.01754,-18.610372 0.359693,-19.248366 0.19783,-0.368877 0.684287,-0.839136 1.081018,-1.04502 l 0.721324,-0.374335 -0.05563,-1.88162 -0.05563,-1.88162 -1.238343,-0.09851 C 59.719969,29.360935 59.179687,28.805647 59.179687,27.251177 59.179687,24.952536 59.008791,25 67.285156,25 c 8.276365,0 8.105469,-0.04746 8.105469,2.251177 0,1.55447 -0.540281,2.109758 -2.179625,2.240161 l -1.238344,0.09851 -0.05593,1.906432 c -0.05368,1.8299 -0.038,1.913355 0.390625,2.078887 0.495432,0.191332 1.159797,0.865933 1.496364,1.519419 0.129345,0.251142 0.219718,1.462851 0.219718,2.945963 0,1.385643 0.04987,2.569223 0.110829,2.630179 0.06096,0.06095 0.43449,0.01854 0.830078,-0.09426 1.198666,-0.341785 4.28107,-0.271102 5.602062,0.128461 3.884473,1.174944 7.177617,4.554264 8.172442,8.386302 0.16306,0.628105 0.32456,1.160966 0.35889,1.184138 0.03433,0.02317 0.738957,0.457459 1.565838,0.965084 4.045131,2.483322 8.038598,6.583156 10.682068,10.96658 5.12436,8.497276 6.34323,19.102781 3.32079,28.894426 -3.12956,10.138661 -10.960559,18.338131 -20.611354,21.581161 l -1.730861,0.58164 0,0.83857 0,0.83858 6.347656,0.0977 6.347656,0.0977 0.05511,4.49219 c 0.03031,2.4707 0.0067,4.68994 -0.05255,4.93164 L 94.914434,125 69.353113,125 C 46.224705,125 43.780509,124.9706 43.67324,124.69106 z M 79.882812,60.307936 c 1.276801,-0.38292 2.601471,-1.165157 3.645963,-2.152993 0.572846,-0.541775 1.041537,-1.090783 1.041537,-1.220017 0,-0.129237 -0.349992,-0.392799 -0.777761,-0.585697 l -0.777762,-0.350721 -0.897016,0.826838 c -1.679718,1.54831 -3.807656,2.188593 -5.873775,1.767383 -2.28707,-0.466254 -3.935977,-1.764959 -4.928535,-3.88179 -0.436602,-0.931136 -0.514682,-1.36433 -0.514682,-2.85547 0,-1.468516 0.07841,-1.917137 0.476403,-2.725883 2.059093,-4.184166 7.150207,-5.289183 10.602492,-2.30125 0.824947,0.713986 3.19532,1.755523 3.439523,1.511318 0.197965,-0.197965 -0.690961,-1.530646 -1.702414,-2.552263 -4.974836,-5.024829 -13.51741,-2.265962 -14.706287,4.74947 -0.56698,3.345692 0.902799,6.713354 3.763789,8.623848 2.12374,1.41818 4.855453,1.852928 7.208525,1.147227 z"
       id="path3035"
       inkscape:connector-curvature="0" />
  </g>
  <g
     inkscape:groupmode="layer"
     id="layer5"
     inkscape:label="Cell Culture"
     style="display:none"
     sodipodi:insensitive="true">
    <path
       style="fill:#ffffff;fill-opacity:1"
       d="M 68.66364,109.51028 C 41.97271,107.79156 25.54082,97.181151 24.8093,81.192641 l -0.1093,-2.38893 0.70891,1.28032 c 3.05242,5.51284 9.92301,10.10796 19.97004,13.35616 20.66843,6.682099 49.311873,5.39803 66.71769,-2.99092 6.34429,-3.05771 10.23211,-6.28313 12.49395,-10.36524 l 0.70941,-1.28032 -0.10869,2.49279 c -0.28732,6.58919 -3.27721,12.4591 -8.64521,16.97269 -7.55261,6.350479 -19.115801,10.120369 -34.24054,11.163279 -2.88187,0.19872 -11.04154,0.24526 -13.64192,0.0778 z m 2.8044,-19.306339 c -5.69803,-0.26673 -10.5406,-0.84454 -15.48867,-1.8481 -11.73875,-2.38083 -21.14156,-6.83025 -26.54668,-12.5619 -4.04368,-4.28796 -5.51641,-9.01789 -4.29493,-13.79386 2.40183,-9.39103 15.71397,-17.41105 33.97016,-20.46562 5.67737,-0.94992 8.40865,-1.14707 15.89158,-1.14707 7.646156,0 10.171871,0.19178 16.40098,1.24536 17.86675,3.02193 31.08184,11.06586 33.46075,20.36733 1.49238,5.83514 -1.12121,11.71401 -7.38034,16.60094 -6.32285,4.93668 -15.40837,8.45724 -26.797552,10.38381 -5.259345,0.88966 -14.172568,1.45516 -19.215298,1.21911 z m 9.140248,-3.20163 c 6.432076,-0.39904 11.527012,-1.1779 16.930238,-2.58809 14.898054,-3.88826 24.616354,-11.4228 24.616354,-19.0849 0,-2.00357 -0.38231,-3.47859 -1.35339,-5.22158 -3.84579,-6.90282 -14.99623,-12.76633 -29.183354,-15.34621 -5.804167,-1.05547 -8.499293,-1.26374 -16.410906,-1.26824 -7.79671,-0.004 -9.90665,0.13939 -15.57997,1.06201 -14.57682,2.37053 -26.48054,8.45428 -30.43056,15.55244 -1.94831,3.50108 -1.83567,7.15213 0.33479,10.85196 0.96663,1.64777 4.2678,4.89653 6.51807,6.4146 10.40112,7.01678 27.40985,10.69193 44.558728,9.62801 z M 52.38164,77.346101 c -2.92206,-0.5291 -5.34014,-2.18517 -5.82617,-3.99016 -0.60138,-2.23336 1.46556,-4.45929 5.07407,-5.46438 l 1.24639,-0.34716 0.12732,-1.02218 c 0.36031,-2.89274 3.01084,-5.00558 7.8051,-6.22174 6.84821,-1.73719 15.04835,-0.67522 19.38882,2.51098 4.009496,2.94324 2.164904,7.18026 -4.01498,9.22238 -2.9967,0.99026 -5.17807,1.29179 -9.07655,1.25466 -1.88517,-0.0179 -3.5331,-0.023 -3.66205,-0.0112 -0.12896,0.0118 -0.35021,0.3009 -0.49168,0.64242 -0.62995,1.52085 -3.03142,2.95235 -5.77286,3.44118 -1.95026,0.34776 -2.80971,0.3451 -4.79741,-0.0148 z m 41.811014,-2.08598 c -2.931359,-0.72781 -4.734951,-2.60259 -4.247013,-4.41465 0.463903,-1.7228 2.752403,-3.07441 5.842683,-3.45072 2.262204,-0.27548 5.393146,0.59023 6.690106,1.84981 2.09435,2.03401 1.12235,4.44011 -2.31316,5.72603 -1.549708,0.58006 -4.271129,0.71198 -5.972616,0.28953 z M 33.01463,66.287791 c -0.12114,-0.31419 -0.27051,-1.04638 -0.33193,-1.62708 -0.11043,-1.04402 -0.10153,-1.06406 0.79666,-1.79414 4.76176,-3.87047 12.85821,-7.5342 21.03936,-9.52056 7.14633,-1.7351 13.40861,-2.35756 22.24651,-2.21128 8.231239,0.13624 13.147524,0.75999 19.942364,2.5302 7.436916,1.93748 15.086156,5.44426 19.474966,8.92827 0.98464,0.78164 1.19447,1.05923 1.19447,1.58025 0,0.80139 -0.41001,2.44998 -0.64552,2.59554 -0.0984,0.0608 -0.76466,-0.37793 -1.48051,-0.97501 -4.26657,-3.55865 -11.16897,-6.94256 -17.995001,-8.82208 -12.43671,-3.4244 -26.335219,-3.8539 -39.394469,-1.21741 -9.3283,1.88326 -17.67888,5.50877 -23.1012,10.02966 -0.70908,0.5912 -1.34238,1.07491 -1.40734,1.07491 -0.065,0 -0.21722,-0.25707 -0.33836,-0.57127 z"
       id="path3963"
       inkscape:connector-curvature="0" />
  </g>
  <g
     inkscape:groupmode="layer"
     id="layer6"
     inkscape:label="MolecularBiology"
     style="display:none"
     sodipodi:insensitive="true">
    <path
       style="fill:#ffffff;fill-opacity:1"
       d="m 64.254766,123.66179 c -0.993938,-0.52817 -1.559454,-1.46003 -1.559454,-2.56967 0,-1.08771 0.334667,-1.64008 2.403946,-3.96772 4.642722,-5.22241 6.367385,-9.56519 6.99082,-17.60322 0.296596,-3.824018 0.04292,-8.878211 -0.799406,-15.92743 -1.35877,-11.371166 -1.631983,-16.10675 -1.15408,-20.003533 0.73992,-6.033238 3.835635,-9.861196 9.888129,-12.227004 2.147287,-0.839334 6.885025,-2.067547 7.324656,-1.898846 0.297312,0.11409 1.165871,3.720998 1.204822,5.00333 l 0.02002,0.659104 -1.705334,0.348965 c -3.842102,0.786213 -7.159676,2.171636 -8.635901,3.606363 -1.790086,1.739764 -2.357216,3.86516 -2.345211,8.788965 0.0086,3.541662 0.117327,4.923189 0.991123,12.597656 0.262963,2.30957 0.622073,5.473633 0.798024,7.03125 0.498726,4.415053 0.445873,12.75309 -0.103449,16.31967 -1.169006,7.58997 -3.346709,12.06721 -8.763957,18.0182 -1.995475,2.19209 -3.059854,2.61831 -4.554748,1.82392 z M 54.39102,106.92207 C 43.324018,96.658566 43.506715,96.83665 43.653068,96.45526 c 0.179494,-0.467752 3.234172,-3.123444 3.516584,-3.057264 0.199112,0.04666 7.466405,6.737804 18.866151,17.370454 0.41859,0.39042 0.759775,0.78593 0.758191,0.87891 -0.0039,0.22771 -2.780328,3.63585 -3.029662,3.71896 -0.108424,0.0361 -4.326416,-3.76377 -9.373312,-8.44425 z m 10.528207,-5.50605 c -1.941481,-1.799321 -5.476891,-5.073247 -7.856469,-7.275395 -2.379578,-2.202148 -4.326928,-4.111982 -4.327444,-4.244078 -0.002,-0.474385 3.836514,-2.00835 5.013967,-2.003783 0.581324,0.0022 0.318139,-0.226514 8.631045,7.502375 l 3.587356,3.33533 -0.100838,1.953121 c -0.119033,2.30552 -0.57694,4.00391 -1.079502,4.00391 -0.185983,0 -1.926635,-1.47217 -3.868115,-3.27148 z M 35.00798,99.219805 c -1.315234,-0.801909 -1.76922,-2.41659 -1.084907,-3.858672 0.460062,-0.96951 5.81085,-6.415988 8.164963,-8.310981 5.536974,-4.457103 10.364165,-6.60281 17.189308,-7.640724 3.085955,-0.469287 8.344748,-0.927961 8.528822,-0.743887 0.276219,0.276219 1.037897,5.303586 0.833512,5.501482 -0.100455,0.09727 -1.676787,0.318491 -3.502959,0.491612 -6.74361,0.639297 -9.940906,1.395406 -13.671875,3.233183 -3.690145,1.817666 -7.696623,5.055971 -11.326699,9.154996 -0.960818,1.084942 -2.026664,2.105358 -2.368545,2.26759 -0.85787,0.407086 -2.003134,0.367856 -2.76162,-0.0946 z m 44.985209,-16.97266 c -0.227361,-0.367877 -0.74965,-5.318778 -0.578998,-5.48843 0.09661,-0.09604 1.201899,-0.485434 2.456198,-0.865319 6.208049,-1.88021 9.221359,-3.793427 10.687701,-6.785857 0.829883,-1.693582 1.062869,-3.145396 0.934998,-5.826289 -0.123934,-2.598303 -0.485287,-4.443912 -2.084108,-10.644531 -1.462535,-5.672074 -2.074248,-8.740058 -2.34715,-11.771929 -0.434394,-4.825993 0.423537,-9.387606 2.441535,-12.981589 0.728655,-1.297711 1.511375,-1.808982 2.769422,-1.808982 1.07366,0 1.756108,0.358447 2.44876,1.286179 0.700301,0.937977 0.657963,1.729617 -0.193649,3.620931 -1.251634,2.779706 -1.444546,3.601492 -1.553164,6.616327 -0.133201,3.697165 0.204846,5.841951 2.093301,13.28125 2.257666,8.893744 2.634311,11.340418 2.329496,15.13236 -0.529959,6.5928 -4.460301,11.268994 -11.983427,14.2575 -1.421586,0.564714 -6.658383,2.153109 -7.09861,2.153109 -0.117873,0 -0.26291,-0.07863 -0.322305,-0.17473 z m 0.949266,-10.88484 c -1.495889,-0.926514 -2.784371,-1.783448 -2.863293,-1.904297 -0.211601,-0.32402 -0.17467,-4.46759 0.04287,-4.809571 0.143407,-0.225441 0.266518,-0.243742 0.534119,-0.0794 5.355957,3.289305 9.6251,6.017871 9.6251,6.151758 0,0.369957 -3.739908,2.326078 -4.44723,2.326078 -0.09447,0 -1.395674,-0.758057 -2.891565,-1.68457 z m 4.714699,-7.754143 C 82.871129,61.858689 80.557553,60.325 80.515873,60.199963 c -0.113234,-0.339703 1.0099,-0.946233 2.970238,-1.604026 l 1.747832,-0.586486 1.377168,0.817262 c 2.16069,1.282228 4.551332,2.850873 4.692235,3.078857 0.164281,0.265813 0.168269,3.987047 0.0048,4.502016 -0.06795,0.214109 -0.227496,0.387521 -0.354535,0.385361 -0.127037,-0.0022 -2.510455,-1.435312 -5.296481,-3.184785 z M 100.43651,52.490234 c -0.24884,-0.307986 -1.42553,-5.046441 -1.302574,-5.245388 0.0501,-0.08107 1.019774,-0.591022 2.154814,-1.133219 3.9399,-1.88205 6.37825,-3.904975 9.0529,-7.510557 1.58406,-2.135408 2.25699,-2.585051 3.5993,-2.40501 1.01625,0.136309 1.6822,0.645844 2.22969,1.705999 0.61426,1.189452 0.45799,1.872291 -0.89135,3.894816 -1.36859,2.05138 -5.28527,6.005062 -7.2179,7.286084 -1.85588,1.230154 -4.31938,2.526557 -5.98503,3.14959 -1.57444,0.588914 -1.39501,0.560717 -1.63985,0.257685 z m -1.307541,-9.93234 c -0.962467,-0.532483 -1.808078,-1.062223 -1.879139,-1.1772 -0.195035,-0.315575 -0.403424,-2.992982 -0.261695,-3.36232 0.06818,-0.177684 0.224429,-0.318124 0.347215,-0.312089 0.488041,0.02399 6.86771,3.652393 6.9228,3.937306 0.0773,0.399998 -2.23196,1.915992 -2.88933,1.896775 -0.26945,-0.0079 -1.27739,-0.449989 -2.239851,-0.982472 z m 3.117121,-5.920272 c -2.470699,-1.329158 -4.519363,-2.55135 -4.552584,-2.715983 -0.08049,-0.398883 0.69368,-2.174937 1.113736,-2.555085 0.305451,-0.276428 0.745104,-0.08121 5.206548,2.311837 2.68011,1.437568 4.89833,2.738014 4.92937,2.88988 0.0797,0.390164 -1.52286,2.495082 -1.89589,2.490115 -0.16994,-0.0023 -2.33047,-1.091606 -4.80118,-2.420764 z"
       id="path3987"
       inkscape:connector-curvature="0" />
  </g>
  <g
     inkscape:groupmode="layer"
     id="layer7"
     inkscape:label="Statistics"
     sodipodi:insensitive="true"
     style="display:none">
    <path
       style="fill:#ffffff;fill-opacity:1"
       d="m 73.632812,119.00656 c -11.589515,-0.44318 -21.885291,-4.9224 -29.990451,-13.04748 -5.507105,-5.52065 -9.47976,-12.533898 -11.396532,-20.119236 -0.92923,-3.677289 -1.42994,-7.544205 -1.010438,-7.803471 0.174289,-0.107717 31.880736,-0.202004 40.357361,-0.120014 l 1.377906,0.01332 15.028344,15.027006 c 8.265588,8.264855 15.054948,15.196955 15.087478,15.404675 0.0417,0.26624 -0.30405,0.66418 -1.17188,1.34882 -6.568778,5.18222 -15.280557,8.58366 -23.398975,9.13593 -2.994016,0.20368 -3.401959,0.21708 -4.882813,0.16045 z M 94.226816,89.267416 C 86.60617,81.645744 80.345197,75.286762 80.313545,75.13634 c -0.03302,-0.156914 1.7569,-1.761344 4.199219,-3.764047 5.588318,-4.582432 14.157271,-11.717711 17.342706,-14.441094 4.89051,-4.181138 8.56807,-7.126512 8.89807,-7.126512 0.38721,0 0.95952,0.727985 2.07286,2.636719 3.30623,5.668285 5.17758,11.249233 5.9214,17.659487 0.24504,2.111755 0.30293,7.175736 0.10178,8.903013 -0.71964,6.17953 -2.02779,10.610815 -4.71292,15.964819 -1.73325,3.456005 -5.02821,8.156275 -5.71768,8.156275 -0.18504,0 -6.57152,-6.235912 -14.192164,-13.857584 z M 31.185795,71.941004 c -0.461718,-0.461719 0.452535,-6.029244 1.637015,-9.968928 1.228811,-4.087133 4.056921,-9.715754 6.555132,-13.046295 2.447546,-3.262996 6.284843,-7.100293 9.547839,-9.547839 3.330541,-2.498211 8.959162,-5.326321 13.046295,-6.555132 3.032795,-0.91182 7.794268,-1.813549 9.121674,-1.727465 l 0.878906,0.057 0,20.410156 0,20.410156 -20.327877,0.04973 c -11.180331,0.02735 -20.386874,-0.0093 -20.458984,-0.08138 z m 46.828252,-4.384393 c -0.180717,-0.292406 -0.159524,-36.026982 0.02154,-36.319949 0.388865,-0.629199 7.549334,0.686055 11.612849,2.13308 4.553749,1.621598 9.009313,4.119426 12.830784,7.19305 2.29469,1.845629 3.80183,3.382108 3.72948,3.802064 -0.031,0.179878 -3.61593,3.291179 -7.966514,6.913999 -4.350585,3.622823 -8.481445,7.089221 -9.179687,7.703108 -2.000189,1.758547 -10.619646,8.791474 -10.774705,8.791474 -0.07686,0 -0.200045,-0.09757 -0.273748,-0.216826 z"
       id="path4037"
       inkscape:connector-curvature="0" />
  </g>
  <g
     inkscape:groupmode="layer"
     id="layer8"
     inkscape:label="Pipetting"
     style="display:none"
     sodipodi:insensitive="true">
    <path
       style="fill:#ffffff;fill-opacity:1"
       d="m 37.775564,124.23522 c 0,-0.42265 1.77471,-3.46752 3.94379,-6.76639 3.61775,-5.50209 4.52504,-6.97423 6.98616,-11.3355 0.462652,-0.81985 1.484827,-2.06845 2.2715,-2.77466 0.786674,-0.70622 2.923086,-3.51272 4.747585,-6.23669 1.824496,-2.72397 3.787627,-5.61303 4.362515,-6.42013 4.906101,-6.88783 6.699656,-9.68647 6.903255,-10.77176 0.130633,-0.69632 0.874652,-2.17558 1.65338,-3.28725 0.901943,-1.28757 1.415868,-2.43283 1.415868,-3.15521 0,-0.74857 0.563335,-1.9436 1.657489,-3.51611 0.911618,-1.31016 3.213793,-4.61082 5.115941,-7.33478 14.552128,-20.83932 16.705882,-24.0875 16.705882,-25.195 0,-0.48829 -0.32506,-1.5606 -0.722356,-2.38291 -0.77306,-1.60005 -0.659009,-2.172 0.673592,-3.37799 1.147471,-1.03845 2.281988,-0.52203 4.735491,2.15554 1.202552,1.31237 2.274824,2.38613 2.382834,2.38613 0.10801,0 0.8036,-0.91482 1.54576,-2.03293 1.20753,-1.81922 1.32242,-2.19523 1.09288,-3.57692 -0.14107,-0.8492 -0.50534,-2.02989 -0.80948,-2.62375 -0.53643,-1.04743 -0.51748,-1.11148 0.63294,-2.139388 1.49318,-1.33415 2.25688,-1.186678 5.61813,1.084868 3.36436,2.27365 4.26701,4.08037 2.96633,5.93735 -0.48775,0.69637 -0.80943,0.80758 -1.79896,0.62194 -0.66276,-0.12433 -1.85765,-0.1217 -2.65532,0.006 -1.28751,0.20588 -1.62591,0.499 -3.01456,2.61113 -1.42159,2.16224 -1.5211,2.45984 -1.0911,3.26329 0.26023,0.48624 0.58709,0.88407 0.72636,0.88407 0.13927,0 1.01937,0.67438 1.95576,1.49863 1.8155,1.59807 2.27657,3.11625 1.06053,3.49202 -1.43027,0.44197 -1.75327,0.84943 -1.9924,2.51346 -0.28833,2.00635 -1.12044,3.36596 -4.52242,7.38929 -1.348448,1.59473 -4.365836,5.2933 -6.705315,8.21905 -2.339479,2.92574 -5.520104,6.80533 -7.068058,8.62131 -1.547958,1.81597 -2.930853,3.67284 -3.073104,4.12637 -0.142248,0.45352 -0.663478,0.9262 -1.158286,1.05038 -0.494805,0.1242 -1.515608,0.92038 -2.26845,1.76931 -0.752839,0.84893 -2.606967,2.34435 -4.120282,3.32316 -1.513315,0.9788 -3.530217,2.29299 -4.482002,2.92041 -1.100164,0.72524 -2.779107,2.53979 -4.609213,4.98149 -9.147033,12.20388 -13.744348,18.11744 -14.399708,18.52247 -0.211741,0.13087 -0.784629,0.87102 -1.273085,1.64478 -0.488455,0.77377 -1.821431,2.45205 -2.962163,3.72952 -1.14074,1.27748 -2.82641,3.31321 -3.74593,4.52387 -4.29349,5.65285 -6.68178,7.67294 -6.68178,5.65168 z"
       id="path4069"
       inkscape:connector-curvature="0" />
  </g>
  <g
     inkscape:groupmode="layer"
     id="layer9"
     inkscape:label="computing"
     style="display:none"
     sodipodi:insensitive="true">
    <g
       id="g4106"
       style="fill:#ffffff;fill-opacity:1">
      <path
         style="fill:#ffffff;fill-opacity:1"
         d="m 28.515625,103.573 c -0.460987,-0.16851 -1.178901,-0.88174 -1.532229,-1.52222 -0.296251,-0.53701 -0.328192,-3.17887 -0.382554,-31.640624 -0.03262,-17.080078 -0.004,-31.600892 0.06363,-32.268477 0.131824,-1.301418 0.594218,-2.181236 1.498288,-2.85086 0.513041,-0.379997 0.843761,-0.389652 13.378906,-0.390559 14.35452,-0.001 13.646296,-0.06797 14.542991,1.374302 l 0.458309,0.737157 0.0511,32.034072 0.05111,32.034069 -0.441731,0.87451 c -0.242951,0.48098 -0.740373,1.07297 -1.105379,1.31554 l -0.66365,0.44103 -12.812913,-0.0154 c -7.047102,-0.008 -12.944749,-0.0636 -13.105882,-0.12252 z M 42.983774,91.811898 c 0.406183,-0.406181 0.570913,-0.76172 0.570913,-1.232201 0,-1.917476 -2.749428,-2.601765 -3.627928,-0.902933 -0.415634,0.803746 -0.342741,1.251898 0.327849,2.015658 0.813541,0.926572 1.875577,0.973066 2.729166,0.119476 z m 0.237755,-8.617771 c 1.567053,-0.493926 2.732711,-2.112238 2.732711,-3.793893 0,-2.431556 -1.843686,-4.204922 -4.371665,-4.204922 -2.39694,0 -4.262669,1.806391 -4.273598,4.137676 -0.0054,1.153616 0.199623,1.690766 0.988182,2.588885 1.26217,1.437531 2.986552,1.883041 4.92437,1.272254 z m 6.185965,-24.499324 c 0.76386,-0.395006 1.063174,-1.384576 0.92333,-3.052635 -0.136529,-1.628529 -0.343271,-2.038164 -1.159402,-2.297232 -0.400793,-0.127225 -3.322992,-0.187225 -7.895993,-0.162125 l -7.259727,0.03984 -0.503945,0.473498 c -0.471225,0.442756 -0.503945,0.590723 -0.503945,2.27895 0,2.155691 0.07316,2.388144 0.859309,2.730376 0.932025,0.405735 14.753486,0.396239 15.540373,-0.01068 z m 0.440783,-9.044162 c 0.408348,-0.410483 0.440793,-0.598916 0.396989,-2.305661 -0.05358,-2.087599 -0.21753,-2.548205 -0.983325,-2.762595 -0.29231,-0.08184 -3.842257,-0.148791 -7.888771,-0.148791 l -7.357298,0 -0.50403,0.473498 c -0.474191,0.445469 -0.50403,0.5849 -0.50403,2.355248 0,1.935262 0.11347,2.285271 0.878907,2.711094 0.272154,0.151402 2.684404,0.203193 7.953746,0.170765 l 7.563121,-0.04654 0.444691,-0.447015 z m 23.833364,53.930949 c -0.411399,-0.16601 -0.281623,-0.54459 0.700273,-2.04286 2.315691,-3.533494 6.983309,-6.588459 11.651914,-7.626197 1.236883,-0.274933 1.424108,-0.50192 1.188453,-1.440842 l -0.117,-0.466164 -12.83975,-0.0555 c -14.162004,-0.06121 -13.546828,-0.0051 -14.358219,-1.309738 l -0.434656,-0.698885 -0.05233,-20.572646 -0.05233,-20.572645 0.417152,-0.74222 c 0.229432,-0.408221 0.748346,-0.928364 1.153141,-1.15587 l 0.73599,-0.41365 29.436078,0 c 32.803673,0 30.278713,-0.108443 31.264853,1.342783 l 0.47635,0.70102 0,20.498465 c 0,20.025931 -0.009,20.516869 -0.38647,21.296818 -0.21257,0.439094 -0.67399,0.972215 -1.02539,1.184711 -0.61693,0.373064 -1.08455,0.388267 -13.58928,0.441832 l -12.950356,0.05547 0.05973,0.817125 c 0.05703,0.780134 0.0951,0.824765 0.840984,0.985892 2.628289,0.56777 5.607892,1.83769 7.621842,3.248469 2.67942,1.876937 5.65099,5.435412 5.30087,6.347822 -0.10552,0.27497 -1.88352,0.30458 -17.457598,0.29073 -9.537063,-0.008 -17.449977,-0.0598 -17.584254,-0.11393 z M 117.75563,87.216242 c 0.3018,-0.156066 0.64831,-0.529601 0.77001,-0.830078 0.16022,-0.395545 0.20824,-5.200156 0.174,-17.408965 l -0.0473,-16.862646 -0.548,-0.471338 -0.548,-0.47134 -26.462828,0 -26.46283,0 -0.460928,0.460928 c -0.353588,0.353588 -0.486635,0.751576 -0.571315,1.708984 -0.06071,0.686432 -0.091,8.379947 -0.0673,17.096705 0.04225,15.542467 0.05063,15.857035 0.433707,16.282819 0.214843,0.238793 0.566406,0.506115 0.78125,0.594048 0.214843,0.08793 12.106416,0.165452 26.425715,0.17226 22.401709,0.01065 26.111669,-0.02722 26.583819,-0.271377 z M 65.803951,78.173828 c -0.009,-0.08057 -0.03097,-5.498726 -0.04883,-12.040357 -0.0357,-13.080188 -0.08418,-12.517674 1.148313,-13.325235 0.481388,-0.315418 2.102572,-0.339617 24.276902,-0.362402 22.022854,-0.02263 23.820784,7e-5 24.577284,0.31026 0.51706,0.212013 0.92867,0.55214 1.12304,0.928027 0.34745,0.671891 0.3643,0.805797 0.14485,1.151455 -0.13735,0.216361 -4.84405,2.45327 -11.21135,5.328322 -1.1528,0.52053 -2.82272,1.298416 -3.71094,1.728641 -1.58446,0.767461 -4.574904,2.146738 -9.232128,4.258119 -1.289063,0.584403 -3.530274,1.619051 -4.980469,2.299217 -2.954092,1.385518 -6.414047,2.980258 -9.765625,4.501107 -1.235352,0.560567 -3.564453,1.635059 -5.175781,2.38776 -6.422637,3.000207 -7.09694,3.267756 -7.145268,2.835086 z"
         id="path4114"
         inkscape:connector-curvature="0" />
      <path
         style="fill:#ffffff;fill-opacity:1"
         d="m 28.289341,103.21796 c -0.285589,-0.15512 -0.725042,-0.61303 -0.976562,-1.01758 l -0.45731,-0.73554 0,-32.128903 c 0,-31.777638 0.0043,-32.136156 0.390625,-32.792083 0.214843,-0.364748 0.638706,-0.848147 0.941916,-1.074219 0.545239,-0.406528 0.689727,-0.411638 13.159302,-0.465415 12.443182,-0.05366 12.619026,-0.04904 13.450641,0.353537 0.615254,0.29784 0.951203,0.632194 1.244994,1.239085 0.401287,0.828947 0.402354,0.916489 0.398076,32.654275 -0.0042,30.958583 -0.01447,31.845543 -0.379269,32.649143 -0.216504,0.47694 -0.648047,0.99253 -1.021102,1.21997 -0.630892,0.38465 -0.947625,0.39377 -13.43909,0.38684 -10.771386,-0.006 -12.875022,-0.0516 -13.312221,-0.28911 z M 43.085937,91.914062 c 0.880866,-0.880865 0.91828,-1.846142 0.103152,-2.661271 -0.964088,-0.964088 -2.159047,-1.003713 -3.061248,-0.101512 -0.687166,0.687164 -0.805791,1.417899 -0.363407,2.238588 0.734281,1.362203 2.245065,1.600633 3.321503,0.524195 z m 0.342744,-8.588847 c 1.80012,-0.752139 2.774155,-2.388057 2.627667,-4.41324 -0.328612,-4.543014 -7.021579,-5.381571 -8.662341,-1.085297 -1.069346,2.800045 1.110047,5.767072 4.236132,5.767072 0.635715,0 1.445058,-0.120842 1.798542,-0.268535 z m 5.989292,-24.440518 c 0.832746,-0.430631 0.972652,-0.843644 0.972652,-2.871367 0,-2.116195 -0.215395,-2.582424 -1.32551,-2.869117 -0.947123,-0.2446 -13.984382,-0.245295 -14.927105,-7.81e-4 -1.110297,0.287943 -1.32551,0.75391 -1.32551,2.869898 0,2.059893 0.158122,2.497693 1.040769,2.881639 0.955183,0.415498 14.758971,0.406388 15.564704,-0.01027 z m 0.468836,-9.065226 c 0.478724,-0.449918 0.503816,-0.574383 0.503816,-2.499114 0,-1.86715 -0.03599,-2.061605 -0.460098,-2.485711 -0.37189,-0.37189 -0.736976,-0.48125 -1.904297,-0.570426 -1.22108,-0.09328 -12.514837,-0.06149 -13.771081,0.03877 -0.227051,0.01812 -0.644531,0.264657 -0.927734,0.547861 -0.483535,0.483535 -0.514915,0.627152 -0.514915,2.356591 0,3.335786 -0.431642,3.185959 9.017667,3.130141 l 7.552823,-0.04462 0.503819,-0.473498 z m 23.837443,53.490779 c -0.221029,-0.35763 1.124578,-2.34046 2.642935,-3.894525 2.451417,-2.509063 5.367522,-4.15484 9.126411,-5.150719 l 1.713433,-0.453957 0.05889,-1.003012 0.05889,-1.003012 -12.984132,-0.0529 C 61.557861,91.700039 61.348006,91.692947 60.80523,91.294711 60.502002,91.07223 60.100234,90.588832 59.912412,90.220492 59.59374,89.595533 59.570947,88.186893 59.571346,69.140625 c 3.9e-4,-20.021908 0.0078,-20.422266 0.388537,-21.046707 0.213461,-0.350104 0.674556,-0.81168 1.02466,-1.025727 0.629359,-0.384779 0.972471,-0.388621 30.369641,-0.340011 l 29.733086,0.04916 0.73566,0.735644 0.73566,0.735643 0.0496,20.748732 c 0.0485,20.296649 0.0413,20.76233 -0.33247,21.372885 -0.85813,1.40184 -0.01,1.318092 -14.45447,1.426627 l -12.997031,0.09766 -0.05911,0.917438 -0.05911,0.917437 0.840359,0.204117 c 4.618072,1.121688 8.005772,2.934043 10.531662,5.634227 1.41351,1.51104 2.58918,3.27945 2.43952,3.66946 -0.0914,0.23811 -2.60844,0.27842 -17.386603,0.27842 -11.873403,0 -17.319471,-0.0643 -17.406686,-0.20538 z M 117.68908,87.409373 c 1.32165,-0.552217 1.27069,0.225213 1.21163,-18.483982 l -0.053,-16.809108 -0.63785,-0.569859 -0.63785,-0.569862 -26.476784,0 -26.476787,0 -0.570912,0.570915 -0.570914,0.570912 0,17.117709 c 0,11.87125 0.06458,17.238367 0.210691,17.511386 0.514338,0.961053 -0.33143,0.932014 27.383473,0.940184 22.339383,0.0066 26.028863,-0.03199 26.618353,-0.278295 z M 65.950521,77.994791 c -0.07161,-0.07161 -0.130072,-5.367023 -0.129906,-11.767578 3.91e-4,-13.015695 -0.03787,-12.642533 1.366885,-13.347719 0.642576,-0.322572 2.113344,-0.340152 24.511719,-0.292969 26.208651,0.05521 24.334371,-0.03929 25.035301,1.262252 0.30349,0.563543 0.31031,0.674139 0.057,0.92491 -0.26486,0.262262 -12.02321,5.741774 -32.514216,15.151959 -1.826172,0.838641 -6.568506,3.026577 -10.53852,4.862079 -3.970013,1.835502 -7.317181,3.337275 -7.43815,3.337275 -0.120971,0 -0.278539,-0.05859 -0.350153,-0.130209 z"
         id="path4112"
         inkscape:connector-curvature="0" />
      <path
         style="fill:#ffffff;fill-opacity:1"
         d="m 28.196297,102.94549 c -1.339043,-0.81651 -1.258915,1.45751 -1.199254,-34.034711 l 0.05374,-31.968125 0.404509,-0.551405 c 0.22248,-0.303273 0.705878,-0.706093 1.074219,-0.895156 0.622187,-0.319358 1.572923,-0.340147 13.3982,-0.292968 l 12.72849,0.05078 0.522489,0.488281 c 1.14454,1.06961 1.07131,-1.21984 1.07131,33.492669 0,34.712975 0.06229,32.765965 -1.076891,33.662035 l -0.538289,0.42342 -12.913113,-7.8e-4 c -12.369622,-7.8e-4 -12.938884,-0.0164 -13.52541,-0.37409 z M 43.24348,92.002914 c 1.201978,-1.201978 0.64688,-3.039238 -1.074034,-3.554836 -1.002767,-0.300437 -2.086497,0.226986 -2.59172,1.261324 -0.32649,0.668418 -0.335767,0.817901 -0.09072,1.461739 0.622662,1.635986 2.529944,2.058304 3.756475,0.831773 z m 0.416845,-8.676131 c 3.338564,-1.554637 3.556251,-5.98897 0.385236,-7.847308 -2.847592,-1.668801 -6.617107,0.06776 -7.053186,3.249296 -0.482105,3.517344 3.335463,6.149821 6.66795,4.598012 z m 5.636829,-24.224121 c 1.090422,-0.455607 1.288783,-0.933732 1.288783,-3.106457 0,-1.866873 -0.01715,-1.941842 -0.570914,-2.495603 l -0.570912,-0.570915 -7.778696,0.0043 c -7.075244,0.0039 -7.81637,0.03486 -8.19529,0.341797 -0.693065,0.561412 -0.852938,1.111539 -0.852938,2.935 0,1.983735 0.31087,2.625551 1.428304,2.948852 0.342363,0.09905 3.76739,0.188025 7.611173,0.197713 5.56608,0.01402 7.121373,-0.03782 7.64049,-0.254723 z m 0,-8.789062 c 1.090422,-0.455608 1.288783,-0.933733 1.288783,-3.106457 0,-1.866873 -0.01715,-1.941842 -0.570914,-2.495604 l -0.570912,-0.570914 -7.641911,0 c -8.288878,0 -8.474831,0.0222 -8.951676,1.068762 -0.361593,0.793611 -0.30297,3.823031 0.08469,4.376494 0.658277,0.939822 1.044206,0.984234 8.623793,0.992412 5.632051,0.0061 7.220115,-0.04825 7.738146,-0.264693 z m 24.530971,52.84168 c 0,-0.42508 1.745326,-2.79366 2.875582,-3.90244 2.620272,-2.57049 5.892158,-4.226838 10.268748,-5.198412 0.529928,-0.117641 0.544885,-0.155571 0.488281,-1.238283 l -0.05839,-1.116926 -12.988282,-0.09766 C 60.295189,91.495406 60.863676,91.544541 60.146529,90.368395 59.77718,89.762648 59.767066,89.200021 59.766355,69.218336 l -7.3e-4,-20.527756 0.445316,-0.660805 c 0.244922,-0.363441 0.662403,-0.77065 0.927735,-0.90491 0.379519,-0.192039 6.809119,-0.24472 30.144068,-0.246986 l 29.661646,-0.0029 0.75828,0.758271 0.75827,0.758274 -0.003,20.677273 c -0.002,16.14808 -0.0564,20.782946 -0.24699,21.159694 -0.13426,0.265332 -0.54147,0.682812 -0.90491,0.927734 l -0.66081,0.445316 -12.9385,0 c -11.618051,0 -12.950604,0.03153 -13.057057,0.308944 -0.183117,0.477197 -0.140102,1.803123 0.06256,1.928375 0.09961,0.06156 1.01858,0.324375 2.042151,0.584023 3.465436,0.87908 7.088466,2.936895 9.215286,5.234116 1.18428,1.279161 2.42864,3.029691 2.42864,3.416541 0,0.19693 -3.48984,0.24675 -17.285159,0.24675 -9.506836,0 -17.285156,-0.0743 -17.285156,-0.16503 z M 117.55983,87.635461 c 0.36592,-0.128215 0.84644,-0.477406 1.06782,-0.775981 0.39907,-0.538203 0.40257,-0.687437 0.40847,-17.382812 0.006,-18.235066 0.0361,-17.719547 -1.05696,-18.365229 -0.51744,-0.30566 -2.52061,-0.330189 -26.964373,-0.330189 l -26.405412,0 -0.664063,0.664062 -0.664062,0.664063 0,17.192008 0,17.192006 0.587594,0.587595 c 0.323177,0.323176 0.784603,0.625586 1.02539,0.67202 0.240789,0.04643 12.03936,0.09143 26.219047,0.1 19.507289,0.01178 25.943149,-0.04116 26.446549,-0.217543 z M 66.145834,77.799479 c -0.21232,-0.212319 -0.154051,-23.219155 0.06023,-23.782768 0.104746,-0.275498 0.478282,-0.676988 0.830078,-0.892201 0.632036,-0.386645 0.924694,-0.390707 24.63029,-0.341887 l 23.990658,0.04941 0.56989,0.637848 c 0.75008,0.839517 0.71915,1.133537 -0.16679,1.585512 -1.37411,0.701015 -49.490878,22.874296 -49.638001,22.874296 -0.08038,0 -0.204746,-0.05859 -0.276359,-0.130208 z"
         id="path4110"
         inkscape:connector-curvature="0" />
      <path
         style="fill:#ffffff;fill-opacity:1"
         d="m 28.025337,102.47846 c -0.462029,-0.46203 -0.681843,-0.894 -0.77025,-1.51367 -0.06804,-0.47692 -0.0979,-15.017524 -0.06635,-32.312446 0.0571,-31.302515 0.05918,-31.448417 0.457971,-32.128907 0.703502,-1.200437 0.555791,-1.188811 14.337613,-1.128554 11.655935,0.05096 12.461556,0.07651 12.972394,0.411324 1.161519,0.761293 1.097974,-1.173568 1.097974,33.432074 0,34.496739 0.06209,32.567379 -1.07689,33.463299 l -0.538289,0.42342 -12.883816,0 -12.883817,0 -0.646538,-0.64654 z m 14.766437,-9.812161 c 0.725219,-0.375026 1.347391,-1.362709 1.347391,-2.138955 0,-1.183465 -1.301565,-2.441407 -2.526073,-2.441407 -0.760057,0 -1.896525,0.731473 -2.230746,1.435792 -0.409611,0.863191 -0.402721,1.247804 0.03704,2.067791 0.649614,1.211275 2.172191,1.697423 3.372386,1.076779 z m 1.456672,-9.370682 c 1.887865,-1.167191 2.733115,-3.61709 1.952849,-5.660189 -0.406039,-1.063198 -1.913131,-2.470875 -2.991175,-2.793865 -3.824583,-1.145874 -7.367366,2.169771 -6.261679,5.860226 0.298931,0.997744 1.496574,2.345445 2.549274,2.868686 0.667861,0.331957 1.129627,0.404873 2.314488,0.365468 1.257327,-0.04181 1.624112,-0.138216 2.436243,-0.640326 z m 5.289343,-24.043734 c 1.101791,-0.522836 1.243461,-0.888797 1.243461,-3.212133 0,-1.915604 -0.03597,-2.115271 -0.464314,-2.577463 -0.255374,-0.275553 -0.80469,-0.595514 -1.220704,-0.711025 -0.994,-0.275996 -13.963915,-0.284742 -14.952819,-0.01008 -0.395927,0.109966 -0.945243,0.467781 -1.220703,0.795146 -0.460437,0.547193 -0.500835,0.744443 -0.500835,2.445387 0,2.409664 0.288156,2.97706 1.757812,3.461238 0.161133,0.05309 3.53164,0.103457 7.490014,0.111938 6.26986,0.01344 7.283494,-0.0256 7.868088,-0.30301 z m -0.04532,-8.742971 c 1.107902,-0.46291 1.28957,-0.921539 1.282572,-3.237918 -0.0066,-2.194525 -0.08174,-2.410633 -1.059141,-3.047388 -0.536156,-0.349294 -1.048537,-0.379974 -7.226563,-0.4327 -8.08906,-0.06904 -8.557523,-0.02741 -9.422247,0.837319 -0.640924,0.640923 -0.645213,0.657742 -0.645213,2.529912 0,2.168808 0.238088,2.817129 1.210564,3.296392 0.560202,0.276082 1.601288,0.31841 7.926569,0.322274 5.793426,0.0035 7.414879,-0.05121 7.933459,-0.267891 z M 74.21875,102.91897 c 0,-0.4701 1.628662,-2.55125 2.983607,-3.812542 2.326446,-2.165639 5.383538,-3.775723 8.566147,-4.511543 0.791189,-0.182924 1.552223,-0.417854 1.691183,-0.522063 0.170565,-0.127912 0.234026,-0.576027 0.195313,-1.379195 l -0.05734,-1.189721 -13.131107,-0.09766 -13.131108,-0.09766 -0.638423,-0.638489 -0.638424,-0.638486 -0.05148,-20.517805 c -0.04697,-18.721099 -0.02329,-20.577218 0.270479,-21.196289 0.635404,-1.339017 -1.634328,-1.247213 30.835693,-1.247213 25.90959,0 29.48219,0.0353 29.98686,0.296276 1.2292,0.635642 1.16549,-0.560057 1.16549,21.871693 0,22.653748 0.0775,21.32477 -1.27624,21.890387 -0.55136,0.230375 -2.85406,0.277582 -13.54035,0.277582 -14.38009,0 -13.115881,-0.138086 -13.110113,1.43199 0.0016,0.447756 0.07787,0.932254 0.169392,1.07666 0.09152,0.144407 0.729557,0.380604 1.417858,0.524883 3.332017,0.698451 6.991773,2.580162 9.224073,4.74268 1.29446,1.253995 2.85756,3.262085 2.85756,3.671055 0,0.22967 -2.60164,0.27148 -16.89453,0.27148 -11.718662,0 -16.894531,-0.0631 -16.894531,-0.20603 z m 43.96183,-15.273777 c 1.10381,-0.750213 1.0577,0.05289 1.0577,-18.422216 0,-17.001653 -9.8e-4,-17.047372 -0.40945,-17.597348 -0.2252,-0.303275 -0.62071,-0.659979 -0.87891,-0.792672 -0.36565,-0.187916 -6.29087,-0.241898 -26.79751,-0.244141 -22.97984,-0.0025 -26.399832,0.03424 -26.892441,0.288975 -1.249879,0.646338 -1.174032,-0.540934 -1.174032,18.377609 l 0,17.215358 0.422889,0.537615 c 0.883477,1.12316 -0.597855,1.068861 27.897424,1.022578 24.69357,-0.04011 26.29981,-0.06325 26.77433,-0.385758 z M 66.29959,77.488371 C 66.24579,77.348156 66.2258,72.030719 66.25518,65.671844 l 0.05342,-11.561594 0.541521,-0.541453 0.541522,-0.541453 23.579572,-0.05784 c 16.566235,-0.04064 23.797655,0.0053 24.312785,0.154562 0.91104,0.263915 1.51772,1.064051 1.10357,1.455452 -0.21035,0.198789 -46.360814,21.603377 -49.350964,22.888978 -0.520411,0.223748 -0.65736,0.227442 -0.73701,0.01988 z"
         id="path4108"
         inkscape:connector-curvature="0" />
    </g>
  </g>
  <g
     inkscape:groupmode="layer"
     id="layer10"
     inkscape:label="writing">
    <path
       style="fill:#ffffff;fill-opacity:1"
       d="m 49.329944,112.25 c -0.606089,-0.4125 -1.415771,-1.17345 -1.799295,-1.691 -0.695415,-0.93844 -0.69756,-1.03374 -0.78683,-34.965323 -0.08825,-33.541566 -0.07997,-34.044045 0.583363,-35.414303 0.430979,-0.890285 1.138555,-1.651706 1.968233,-2.11801 1.283714,-0.721488 1.445025,-0.728031 17.950675,-0.728031 l 16.65532,0 1.12716,0.759592 c 1.500547,1.011219 17.47271,18.450224 18.12612,19.790785 0.4465,0.916053 0.51198,4.24261 0.51198,26.012703 l 0,24.962327 -0.75,1.46263 C 101.45958,113.16295 103.14946,113 75.137827,113 l -24.705905,0 -1.101978,-0.75 z M 86.94336,99.708727 c 0.25182,-0.15964 0.395823,-0.697454 0.333333,-1.244897 L 87.166667,97.5 72.090537,97.413273 57.014404,97.32655 56.803313,98.167603 c -0.466263,1.857737 -0.672709,1.832847 15.154167,1.827294 7.998387,-0.0027 14.74203,-0.131584 14.98588,-0.28617 z M 81,86.16251 l 0,-1.170827 -12.07885,0.08749 c -11.348426,0.0822 -12.085865,0.123943 -12.194858,0.690293 -0.306277,1.59149 -0.522924,1.563863 12.263248,1.563863 l 12.01046,0 0,-1.170823 z M 93.276693,74.708727 c 0.25182,-0.15964 0.395824,-0.697454 0.333334,-1.244897 L 93.5,72.5 75.257063,72.413823 57.014128,72.327647 56.803175,73.168153 c -0.472041,1.88076 -0.958083,1.8323 18.320972,1.826744 9.740053,-0.0027 17.908696,-0.131584 18.152546,-0.28617 z M 71,61.160037 l 0,-1.173297 -7.078977,0.08996 c -6.523765,0.08291 -7.088067,0.137244 -7.194859,0.692767 -0.294852,1.53381 -0.155275,1.563863 7.263376,1.563863 l 7.01046,0 0,-1.173296 z M 95.333333,59.14844 c 0,-0.24953 -11.690583,-12.952181 -12.049726,-13.092884 C 83.127623,45.994444 83,48.682633 83,52.029309 c 0,5.194255 0.08074,6.174085 0.551663,6.694444 0.49285,0.544594 1.150274,0.60958 6.166667,0.60958 3.08825,0 5.615003,-0.0832 5.615003,-0.184893 z"
       id="path4147"
       inkscape:connector-curvature="0" />
  </g>
</svg>
